<?xml version="1.0" encoding="UTF-8"?>
<svg id="ICONS" xmlns="http://www.w3.org/2000/svg" viewBox="0 0 15.59 15.59">
  <defs>
    <style>
      .cls-1 {
        fill: #fff;
      }
    </style>
  </defs>
  <path class="cls-1" d="M10.5,10.69c-1.44,0-2.94-.95-3.15-2.84-.16-1.42-1.34-2.09-2.4-2.04-.85.05-1.84.6-1.84,1.98v1.57c0,.25-.2.45-.45.45s-.45-.2-.45-.45v-1.57c0-1.89,1.35-2.81,2.69-2.88,1.51-.08,3.12.86,3.34,2.83.17,1.49,1.35,2.1,2.39,2.04.85-.05,1.84-.6,1.84-1.99v-2.01c0-.25.2-.45.45-.45s.45.2.45.45v2.01c0,1.89-1.35,2.81-2.69,2.89-.06,0-.12,0-.18,0Z"/>
</svg>