<?xml version="1.0" encoding="UTF-8"?>
<svg xmlns="http://www.w3.org/2000/svg" viewBox="0 0 15.59 15.59">
  <defs>
    <style>
      .cls-1 {
        fill: #fff;
      }

      .cls-2 {
        fill: #071f39;
      }
    </style>
  </defs>
  <g id="Firkant">
    <rect class="cls-2" x="0" y="0" width="15.59" height="15.59"/>
  </g>
  <g id="Cirkel">
    <rect class="cls-2" x="0" y="0" width="15.59" height="15.59" rx="7.8" ry="7.8"/>
  </g>
  <g id="ICONS">
    <g>
      <path class="cls-1" d="M6.38,9.98v-1.03h2.89v1.06c.08.04.17.06.3.06.17,0,.27-.04.38-.11v-4.81c0-.42.27-.78.59-.78s.59.36.59.78c0,.19.15.34.34.34s.34-.15.34-.34c0-.81-.57-1.46-1.27-1.46s-1.27.66-1.27,1.46v1.16h-2.89v-1.16c0-.42.27-.78.59-.78s.59.36.59.78c0,.19.15.34.34.34s.34-.15.34-.34c0-.81-.57-1.46-1.27-1.46s-1.27.66-1.27,1.46v4.85c.09.05.19.08.33.08.15,0,.26-.03.35-.09ZM6.38,6.99h2.89v1.28h-2.89v-1.28Z"/>
      <path class="cls-1" d="M11.3,11.52c-.48,0-.74.18-.96.34-.21.15-.39.28-.76.28s-.56-.13-.76-.28c-.22-.16-.47-.34-.96-.34s-.73.18-.96.34c-.21.15-.39.28-.76.28s-.55-.13-.76-.28c-.22-.16-.47-.34-.95-.34-.09,0-.17.07-.17.17s.07.17.17.17c.37,0,.55.13.76.28.22.16.47.34.96.34s.73-.18.96-.34c.21-.15.39-.28.76-.28s.56.13.76.28c.22.16.47.34.96.34s.74-.18.96-.34c.21-.15.39-.28.76-.28.09,0,.17-.07.17-.17s-.07-.17-.17-.17Z"/>
      <path class="cls-1" d="M13.11,11.03c-.38,0-.57-.13-.78-.28-.22-.16-.48-.34-.97-.34s-.75.18-.97.34c-.21.15-.39.28-.78.28s-.57-.13-.78-.28c-.22-.16-.48-.34-.97-.34s-.75.18-.97.34c-.21.15-.39.28-.78.28s-.57-.13-.78-.28c-.22-.16-.48-.34-.97-.34s-.75.18-.97.34c-.21.15-.39.28-.78.28-.09,0-.17.07-.17.17s.07.17.17.17c.49,0,.75-.18.97-.34.21-.15.4-.28.78-.28s.57.13.78.28c.22.16.48.34.97.34s.75-.18.97-.34c.21-.15.39-.28.78-.28s.57.13.78.28c.22.16.48.34.97.34s.74-.18.97-.34c.21-.15.39-.28.78-.28s.57.13.78.28c.22.16.48.34.97.34.09,0,.17-.07.17-.17s-.07-.17-.17-.17Z"/>
    </g>
  </g>
</svg>