<?xml version="1.0" encoding="UTF-8"?>
<svg xmlns="http://www.w3.org/2000/svg" viewBox="0 0 15.59 15.59">
  <defs>
    <style>
      .cls-1 {
        fill: #fff;
      }

      .cls-2 {
        fill: #071f39;
      }
    </style>
  </defs>
  <g id="Firkant">
    <rect class="cls-2" x="0" y="0" width="15.59" height="15.59"/>
  </g>
  <g id="Cirkel">
    <rect class="cls-2" x="0" y="0" width="15.59" height="15.59" rx="7.8" ry="7.8"/>
  </g>
  <g id="ICONS">
    <path class="cls-1" d="M9.52,6.99c.51-.47,1.15-1.06,1.15-1.96v-1.48c0-.34-.27-.62-.6-.62h-4.54c-.33,0-.6.28-.6.62v1.49c0,.91.67,1.52,1.2,2.01.3.27.6.55.6.74s-.31.47-.6.74c-.54.49-1.2,1.1-1.2,2.01v1.47c0,.09.02.18.06.26.06.21.25.36.47.36h4.68c.22,0,.41-.15.47-.36.04-.08.06-.17.06-.26v-1.47c0-.88-.63-1.47-1.14-1.94-.32-.3-.63-.58-.63-.81s.3-.51.62-.81ZM8.4,7.8c0,.45.38.81.79,1.18.48.45.98.91.98,1.57v1.1s-.01,0-.02,0c0,0,0-.02-.02-.03l-1.39-1.46c-.51-.53-1.4-.53-1.91,0l-1.39,1.46s-.01.03-.02.04c0,0,0,0,0,0v-1.1c0-.69.55-1.2,1.04-1.64.41-.38.77-.7.77-1.11s-.35-.73-.77-1.11c-.49-.45-1.04-.95-1.04-1.64v-1.09s.06.02.1.02h4.54s.07-.01.1-.02v1.08c0,.68-.5,1.14-.98,1.59-.4.37-.78.72-.78,1.17Z"/>
  </g>
</svg>