<?xml version="1.0" encoding="UTF-8"?>
<svg xmlns="http://www.w3.org/2000/svg" viewBox="0 0 15.59 15.59">
  <defs>
    <style>
      .cls-1 {
        fill: #fff;
      }

      .cls-2 {
        fill: #071f39;
      }
    </style>
  </defs>
  <g id="Firkant">
    <rect class="cls-2" x="0" y="0" width="15.59" height="15.59"/>
  </g>
  <g id="Cirkel">
    <rect class="cls-2" x="0" y="0" width="15.59" height="15.59" rx="7.79" ry="7.79"/>
  </g>
  <g id="ICONS">
    <g>
      <path class="cls-1" d="M8.79,9.88c0,.2.16.36.36.36s.37-.16.37-.36-.16-.37-.37-.37h-.36v.37Z"/>
      <path class="cls-1" d="M6.8,7.19c0-.2-.16-.36-.37-.36s-.36.16-.36.36h0c0,.2.16.37.36.37h.37v-.37Z"/>
      <path class="cls-1" d="M6.09,9.9c0,.2.16.36.36.36s.37-.16.37-.36v-.37h-.37c-.2,0-.36.16-.36.37Z"/>
      <rect class="cls-1" x="7.29" y="8.03" width="1.01" height="1.01"/>
      <path class="cls-1" d="M9.52,7.17c0-.2-.16-.37-.37-.37s-.36.16-.36.37v.36h.36c.2,0,.37-.16.37-.36Z"/>
      <path class="cls-1" d="M10.86,3.77c-1.14-.22-2.03.22-2.72,1.12-.12.16-.22.33-.35.52-.05-.08-.09-.14-.13-.21-.41-.64-.93-1.16-1.68-1.37-1.13-.32-2.25.07-2.98,1.01-.33.43-.54.91-.63,1.45,0,.05-.03.09-.04.14v.81c.07.25.12.51.2.76.29.86.8,1.6,1.4,2.27,1.04,1.18,2.28,2.12,3.6,2.96.07.05.15.08.22.12h.09c1.81-1.1,3.46-2.38,4.64-4.17.5-.75.81-1.57.79-2.5-.04-1.4-1.04-2.65-2.4-2.91ZM9.16,8.88c.56,0,1.01.45,1.01,1.01s-.45,1.01-1.01,1.01-1.01-.45-1.01-1.01v-.17h-.7v.17c0,.56-.45,1.01-1.01,1.01s-1.01-.45-1.01-1.01.45-1.01,1.01-1.01h.17v-.7h-.17c-.56,0-1.01-.45-1.01-1.01s.45-1.01,1.01-1.01,1.01.45,1.01,1.01v.17h.7v-.17c0-.56.45-1.01,1.01-1.01s1.01.45,1.01,1.01-.45,1.01-1.01,1.01h-.17v.7h.17Z"/>
    </g>
  </g>
</svg>