<?xml version="1.0" encoding="UTF-8"?>
<svg xmlns="http://www.w3.org/2000/svg" viewBox="0 0 15.59 15.59">
  <defs>
    <style>
      .cls-1 {
        fill: #fff;
      }

      .cls-2 {
        fill: #004712;
      }
    </style>
  </defs>
  <g id="Firkant">
    <rect class="cls-2" x="0" y="0" width="15.59" height="15.59"/>
  </g>
  <g id="Cirkel">
    <rect class="cls-2" x="0" y="0" width="15.59" height="15.59" rx="7.8" ry="7.8"/>
  </g>
  <g id="ICONS">
    <g>
      <path class="cls-1" d="M3.63,10.42c-.06-.47-.89-1.19-1.21-1.58-.52-.64-1.49-1.94-.73-2.71.27-.27,1.13-.53,1.4-.21.29.35-.63.3-.75.09-.36.25-.47.86-.27,1.23.14.26.45-.07.62.18.21.3.15,1.47.59,1.61.29.09.52-.41.73.04s.26,1.1.88,1.2c.58.09.6-.22.36-.64-.6-1.04-2.02-2.52-1.48-3.84.39-.95,1.95-1.17,2.81-.81.44.19.32.52-.11.48-.32-.03-.58-.3-.84-.43-.45.07-.95.33-1.13.77-.23.55.44.21.52.56s-.49,1.23-.03,1.46c.17.08.44-.1.56.12.14.27-.28.88-.02,1.2.21.27.41-.08.57.01.05.03.25.5.35.62.13.16.38.37.59.4.54.06.39-.49.18-.77-.11-.15-.54-.47-.54-.64,0-.25.49-.18.41-.5-.05-.21-.43-.36-.55-.57-.31-.53.39-.43.44-.73.04-.25-.5-.52-.35-.85.08-.17.39-.11.52-.13.33-.05.19-.76.62-.77.47,0,.35.72.62.77.15.03.41-.06.53.09.24.31-.36.6-.33.88.02.23.53.22.52.52-.02.35-.59.55-.63.8-.05.29.43.24.42.48,0,.16-.43.49-.54.64-.13.18-.36.71,0,.77.32.05.6-.19.78-.42.1-.13.26-.55.34-.6.16-.11.37.27.58-.03.24-.35-.24-1.02,0-1.24.17-.15.37.03.56-.09.39-.26-.16-1.06-.07-1.44.08-.35.72-.02.53-.54-.16-.43-.73-.74-1.17-.79-.29.19-.73.56-1.09.38-.18-.09-.12-.26.02-.36.53-.37,1.73-.26,2.28.04,1.42.75.58,2.41-.04,3.42-.19.31-.82,1.09-.9,1.37-.16.6.64.44.93.15.24-.24.43-1.07.55-1.13.23-.11.4.22.64.12.43-.19.35-1.29.57-1.6.18-.25.48.08.62-.18.2-.37.08-.98-.27-1.23-.12.18-.99.29-.76-.08.15-.24.83-.14,1.06-.04,1.55.68-.12,2.66-.76,3.4-.21.24-.82.76-.82,1.1v.7H3.63c-.02-.21.03-.46,0-.67Z"/>
      <path class="cls-1" d="M12,11.78s.09.25.1.32c.02.16.03.72-.17.76H3.58c-.13-.19-.15-.97.01-1.08.03-.02.08-.03.12-.03h8.13c.05,0,.12,0,.16.04Z"/>
      <path class="cls-1" d="M8.32,3.95c.39-.03.27.45.11.65-.4.51-1.4.31-1.41-.39,0-.19.04-.28.25-.26-.09-.87,1.14-.87,1.05,0Z"/>
      <path class="cls-1" d="M7.75,1.57c.2-.05.28.34.29.48s-.06.56-.24.58c-.36-.05-.32-.98-.05-1.05Z"/>
      <path class="cls-1" d="M6.92,2.63c.16-.02.69.05.62.28-.14.2-.44.23-.66.2-.13-.02-.47-.13-.38-.31.11-.1.27-.16.41-.18Z"/>
      <path class="cls-1" d="M8.47,2.63c.16-.02.69.05.62.28-.05.18-.5.22-.66.2-.13-.02-.47-.13-.38-.31.11-.1.27-.16.41-.18Z"/>
    </g>
  </g>
</svg>