<?xml version="1.0" encoding="UTF-8"?>
<svg xmlns="http://www.w3.org/2000/svg" viewBox="0 0 15.59 15.59">
  <defs>
    <style>
      .cls-1 {
        fill: #fff;
      }

      .cls-2 {
        fill: #021e3a;
      }
    </style>
  </defs>
  <g id="Firkant">
    <rect class="cls-2" x="0" y="0" width="15.59" height="15.59"/>
  </g>
  <g id="Cirkel">
    <rect class="cls-2" x="0" y="0" width="15.59" height="15.59" rx="7.8" ry="7.8"/>
  </g>
  <g id="ICONS">
    <g>
      <path class="cls-1" d="M9.14,1.84c-2.26,0-4.1,1.84-4.1,4.1,0,1.07.42,2.03,1.09,2.76l-.94.94c-.28-.12-.62-.07-.84.16l-1.77,1.77c-.3.3-.3.79,0,1.09.15.15.35.23.55.23s.39-.08.55-.23l1.77-1.77c.23-.23.28-.56.16-.84l.96-.96c.71.59,1.61.95,2.6.95,2.26,0,4.1-1.84,4.1-4.1s-1.84-4.1-4.1-4.1ZM9.14,9.47c-1.94,0-3.53-1.58-3.53-3.53s1.58-3.53,3.53-3.53,3.53,1.58,3.53,3.53-1.58,3.53-3.53,3.53Z"/>
      <path class="cls-1" d="M10.56,5.6c.56,0,1.01-.45,1.01-1.01s-.45-1.01-1.01-1.01-1.01.45-1.01,1.01v.17h-.7v-.17c0-.56-.45-1.01-1.01-1.01s-1.01.45-1.01,1.01.45,1.01,1.01,1.01h.17v.7h-.17c-.56,0-1.01.45-1.01,1.01s.45,1.01,1.01,1.01,1.01-.45,1.01-1.01v-.17h.7v.17c0,.56.45,1.01,1.01,1.01s1.01-.45,1.01-1.01-.45-1.01-1.01-1.01h-.17v-.7h.17ZM7.83,4.96c-.2,0-.37-.16-.37-.37h0c0-.2.16-.37.37-.37s.37.16.37.37v.37h-.37ZM8.22,7.31c0,.2-.16.37-.37.37s-.37-.16-.37-.37.16-.37.37-.37h.37v.37ZM9.7,6.45h-1.01v-1.01h1.01v1.01ZM10.56,6.93c.2,0,.37.16.37.37s-.16.37-.37.37-.37-.16-.37-.37v-.37h.37ZM10.2,4.95v-.37c0-.2.16-.37.37-.37s.37.16.37.37-.16.37-.37.37h-.37Z"/>
    </g>
  </g>
</svg>