<?xml version="1.0" encoding="UTF-8"?>
<svg xmlns="http://www.w3.org/2000/svg" viewBox="0 0 15.59 15.59">
  <defs>
    <style>
      .cls-1 {
        fill: #fff;
      }

      .cls-2 {
        fill: #071f39;
      }
    </style>
  </defs>
  <g id="Firkant">
    <rect class="cls-2" x="0" y="0" width="15.59" height="15.59"/>
  </g>
  <g id="Cirkel">
    <rect class="cls-2" x="0" y="-.07" width="15.59" height="15.59" rx="7.8" ry="7.8"/>
  </g>
  <g id="ICONS">
    <path class="cls-1" d="M4.97,7.49h2.61c.09,0,.16-.07.15-.16-.07-.59-.43-2.72-1.94-3.92-.09-.07-.22-.02-.24.09l-.72,3.81c-.02.09.05.17.14.17Z"/>
    <path class="cls-1" d="M9.9,9.45c.13,0,.23-.1.23-.23s-.1-.23-.23-.23-.23.1-.23.23.1.23.23.23Z"/>
    <path class="cls-1" d="M11.1,10.39c-.13,0-.23.1-.23.23s.1.23.23.23.23-.1.23-.23-.1-.23-.23-.23Z"/>
    <path class="cls-1" d="M11.78,11.07c-.13,0-.23.1-.23.23s.1.23.23.23.23-.1.23-.23-.1-.23-.23-.23Z"/>
    <path class="cls-1" d="M12.46,11.75c-.13,0-.23.1-.23.23s.1.23.23.23.23-.1.23-.23-.1-.23-.23-.23Z"/>
    <path class="cls-1" d="M12.61,10.21c-.35,0-.51-.12-.71-.26-.2-.15-.43-.31-.88-.31s-.68.17-.88.31c-.19.14-.36.26-.71.26s-.51-.12-.71-.26c-.2-.15-.43-.31-.88-.31s-.68.17-.88.31c-.19.14-.36.26-.71.26s-.52-.12-.71-.26c-.2-.15-.44-.31-.88-.31s-.68.17-.88.31c-.19.14-.36.26-.71.26-.08,0-.15.07-.15.15s.07.15.15.15c.45,0,.68-.17.88-.31.19-.14.36-.26.71-.26s.52.12.71.26c.2.15.44.31.88.31s.68-.17.88-.31c.19-.14.36-.26.71-.26s.51.12.71.26c.2.15.43.31.88.31s.68-.17.88-.31c.19-.14.36-.26.71-.26s.51.12.71.26c.2.15.43.31.88.31.08,0,.15-.07.15-.15s-.07-.15-.15-.15Z"/>
    <path class="cls-1" d="M9.33,8.03H3.21c-.25,0-.42.25-.29.46l.51.56.22.24c.11-.05.2-.11.28-.17.01,0,.03-.02.04-.03.19-.14.36-.26.71-.26s.52.12.71.26c.17.12.36.25.68.29.05.01.11.02.18.02,0,0,0,0,.01,0,0,0,0,0,.01,0,.45,0,.68-.17.88-.31.19-.14.36-.26.71-.26s.51.12.71.26h0c.09.07.19.13.31.19l.23-.23.53-.55c.14-.21-.02-.47-.29-.47Z"/>
    <path class="cls-1" d="M10.39,10.99c-.04-.07-.13-.1-.2-.06-.01,0-.06.03-.07.04-.19.14-.35.25-.69.25s-.5-.12-.69-.25c-.2-.15-.43-.31-.87-.31s-.67.17-.87.31c-.19.14-.35.25-.69.25s-.5-.12-.69-.25c-.2-.15-.43-.31-.87-.31-.08,0-.15.07-.15.15s.07.15.15.15c.34,0,.5.12.69.25.2.15.43.31.87.31s.67-.17.87-.31c.19-.14.35-.25.69-.25s.5.12.69.25c.2.15.43.31.87.31.35,0,.56-.1.73-.22h0s.1-.07.17-.11c.07-.04.1-.13.06-.2Z"/>
  </g>
</svg>