<?xml version="1.0" encoding="UTF-8"?>
<svg xmlns="http://www.w3.org/2000/svg" viewBox="0 0 15.59 15.59">
  <defs>
    <style>
      .cls-1 {
        fill: #fff;
      }

      .cls-2 {
        fill: #071f39;
      }
    </style>
  </defs>
  <g id="Firkant">
    <rect class="cls-2" x="0" y="0" width="15.59" height="15.59"/>
  </g>
  <g id="Cirkel">
    <rect class="cls-2" x="0" y="0" width="15.59" height="15.59" rx="7.8" ry="7.8"/>
  </g>
  <g id="ICONS">
    <path class="cls-1" d="M10.96,12.21c-.44,0-.67.17-.87.31-.19.14-.35.25-.69.25s-.5-.12-.69-.25c-.2-.15-.43-.31-.87-.31s-.67.17-.87.31c-.19.14-.35.25-.69.25s-.5-.12-.69-.25c-.2-.15-.43-.31-.87-.31-.08,0-.15.07-.15.15s.07.15.15.15c.34,0,.5.12.69.25.2.15.43.31.87.31s.67-.17.87-.31c.19-.14.35-.25.69-.25s.5.12.69.25c.2.15.43.31.87.31s.67-.17.87-.31c.19-.14.35-.25.69-.25.08,0,.15-.07.15-.15s-.07-.15-.15-.15Z"/>
    <path class="cls-1" d="M12.61,11.76c-.35,0-.51-.12-.71-.26-.2-.15-.43-.31-.88-.31s-.68.17-.88.31c-.19.14-.36.26-.71.26s-.51-.12-.71-.26c-.2-.15-.43-.31-.88-.31s-.68.17-.88.31c-.19.14-.36.26-.71.26s-.52-.12-.71-.26c-.2-.15-.44-.31-.88-.31s-.68.17-.88.31c-.19.14-.36.26-.71.26-.08,0-.15.07-.15.15s.07.15.15.15c.45,0,.68-.17.88-.31.19-.14.36-.26.71-.26s.52.12.71.26c.2.15.44.31.88.31s.68-.17.88-.31c.19-.14.36-.26.71-.26s.51.12.71.26c.2.15.43.31.88.31s.68-.17.88-.31c.19-.14.36-.26.71-.26s.51.12.71.26c.2.15.43.31.88.31.08,0,.15-.07.15-.15s-.07-.15-.15-.15Z"/>
    <path class="cls-1" d="M9.88,6.92c-.42.1-.67.52-.57.94.1.42.52.67.94.57.42-.1.67-.52.57-.94-.1-.42-.52-.67-.94-.57Z"/>
    <path class="cls-1" d="M5.4,10.4c.21.15.39.28.76.28s.56-.13.76-.28c.22-.16.47-.34.95-.34s.73.18.95.34c.18.13.27.26.61.26.6,0,.79-.28.79-.28l-2-3.41,1.38-.79c.18-.08.26-.29.18-.47-.08-.18-.3-.26-.47-.18l-2.16.97c-.17.11-.29.28-.33.47-.04.19.24,1.39.24,1.39l-2.51,1.73c.4.03.63.18.83.32Z"/>
  </g>
</svg>