<?xml version="1.0" encoding="UTF-8"?>
<svg xmlns="http://www.w3.org/2000/svg" viewBox="0 0 15.59 15.59">
  <defs>
    <style>
      .cls-1 {
        fill: #fff;
        fill-rule: evenodd;
      }

      .cls-2 {
        fill: #004712;
      }
    </style>
  </defs>
  <g id="Firkant">
    <rect class="cls-2" x="0" y="0" width="15.59" height="15.59"/>
  </g>
  <g id="Cirkel">
    <rect class="cls-2" x="0" y="0" width="15.59" height="15.59" rx="7.8" ry="7.8"/>
  </g>
  <g id="ICONS">
    <path class="cls-1" d="M5.66,2.48c-.04.32-.34.54-.66.49-.32-.04-.54-.34-.49-.66.05-.32.34-.54.66-.49.32.05.54.34.49.66ZM6.03,3.31l1.37,1.05c.05.03.09.09.09.15,0,.06,0,.12-.05.17-.04.05-.1.07-.16.07-.06,0-.12-.02-.16-.07l-1.26-.95-.1.54-.15.85.58,3.36c0,.18-.12.34-.3.37-.18.03-.36-.08-.4-.26l-.46-2.55-.48,2.55c-.05.18-.23.3-.41.26-.19-.04-.31-.21-.29-.4l.62-3.38-.11-.71-.05-.33-.45,1.5c-.01.06-.05.11-.1.15-.05.03-.12.04-.18.02-.06-.02-.11-.06-.13-.12-.03-.06-.03-.12,0-.18l.56-1.96c.07-.16.23-.28.41-.29h1.24c.13,0,.26.06.36.14M9.24,8.95l-.1.02c.07.21.17.4.3.58-.05-.03-.11-.05-.17-.06-.02,0-.03.02-.04.04.11.23.23.45.37.66-.18-.06-.37-.1-.56-.12-.02,0-.03.02-.04.03v.53s-.13,0-.13,0v-.54s-.04-.02-.06-.02c-.19.02-.37.07-.55.14.16-.21.29-.44.37-.69-.01-.02-.04-.03-.06-.02l-.13.06c.12-.17.21-.37.28-.57,0-.02-.02-.04-.04-.03l-.09.02c.15-.17.27-.37.35-.58.07.2.17.39.3.56M11.17,13.04H2.97c-.35-.07-.62-.35-.69-.7l.03-3.11s.04,0,.06-.01l.06-.02.12-.04s.03-.01.04-.01c.01,0,.03,0,.04-.01.03-.01.07-.03.11-.04l.15-.05s.08-.03.13-.04c.03,0,.06-.02.09-.02.08-.02.16-.04.25-.05.04,0,.09-.01.13-.02.03,0,.05,0,.08,0,.08,0,.15,0,.23.01l.23.02h.12c.1.01.2.01.3,0h.06s.11-.03.11-.03l.1-.02s.07,0,.11,0h.14s.09,0,.14,0h.12s.08.01.08.01c.03,0,.06,0,.08,0h.15s.22.04.22.04h.16s.09.02.13.02c.07,0,.14.02.2.05.09.04.18.09.26.15.02.01.04.03.05.04l.07.05.11.09.21.15.11.07.13.07s.04.02.06.03c.02.01.04.02.07.03l.15.07.04.03s.08.04.12.07c.03.02.07.04.1.06.03.01.05.03.07.05l.05.03.17.11s.06.04.09.06l.11.08s.06.05.09.07c.07.05.14.11.21.18.03.03.06.06.09.09.03.04.06.08.08.13.03.05.06.1.08.15.01.03.02.05.04.08l.16.33s.01.03.02.04c0,.01.01.03.02.04l.05.1.03.05.04.08s.06.09.09.14c.04.06.09.12.14.18l.14.11.13.09.28.18s.06.04.09.05l.16.09s.02.02.04.02c.03.02.07.04.1.06l.13.07s.08.04.12.07l.16.09c.06.04.12.07.18.1.02.02.05.03.07.04.02.01.03.02.05.03.06.03.11.07.17.1M12.91,8.79l-.22-.12s-.05-.02-.08-.03c-.01,0-.03,0-.03.02-.01.03,0,.05,0,.08.21.41.43.8.67,1.19-.12-.05-.24-.1-.36-.15-.02,0-.05-.01-.07-.02-.02,0-.04.03-.03.05.24.49.52.96.83,1.41l-1.22-.22s-.06-.01-.09,0c-.02,0-.03.02-.03.04v1.09s-.31.02-.31.02v-1.1s0-.03-.02-.04c-.01,0-.03,0-.04,0l-.92.15s-.05,0-.08.02c-.01,0-.02.02-.03.03,0,.01-.01.03-.01.04v.46s-.22,0-.22,0v-.81s-.03-.05-.06-.06c-.28.06-.57.12-.85.19.22-.35.4-.71.56-1.09-.01-.01-.03-.02-.05-.03-.04.02-.08.04-.12.06l-.13.08c.18-.3.32-.61.43-.94,0-.02-.02-.03-.04-.04-.03.01-.06.03-.09.04l-.07.05c.2-.3.37-.61.53-.94.13.32.31.61.54.87l-.13-.03h-.05s-.03.04-.03.04l.05.12s.02.03.03.05l.13.23c.15-.26.28-.53.38-.82,0-.02-.02-.04-.04-.05-.1.05-.21.1-.31.15.29-.41.55-.83.79-1.27.22.44.48.86.78,1.25"/>
  </g>
</svg>