<?xml version="1.0" encoding="UTF-8"?>
<svg xmlns="http://www.w3.org/2000/svg" viewBox="0 0 15.59 15.59">
  <defs>
    <style>
      .cls-1 {
        fill: #fff;
      }

      .cls-2 {
        fill: #071f39;
      }
    </style>
  </defs>
  <g id="Firkant">
    <rect class="cls-2" x="0" y="0" width="15.59" height="15.59"/>
  </g>
  <g id="Cirkel">
    <rect class="cls-2" x="0" y="0" width="15.59" height="15.59" rx="7.8" ry="7.8"/>
  </g>
  <g id="ICONS">
    <path class="cls-1" d="M9.9,4.55s-.04-.08-.08-.11l-.37-.21.37-.14s.08-.05.1-.09.02-.09,0-.14c-.02-.04-.05-.08-.09-.1-.04-.02-.09-.02-.14,0l-.64.24-.86-.5.86-.5.64.25c.09.04.2-.01.23-.1.03-.09-.01-.2-.1-.23l-.37-.14.37-.21s.07-.06.08-.11c.01-.04,0-.09-.02-.13-.02-.04-.06-.07-.11-.08-.05-.01-.1,0-.14.02l-.37.21.06-.39s0-.09-.03-.13c-.03-.04-.07-.06-.12-.07-.05-.01-.09,0-.14.03-.04.03-.06.07-.07.12l-.1.68-.03.02-.85.49v-1.01l.54-.43s.06-.07.07-.12c0-.05,0-.1-.04-.13-.06-.08-.18-.09-.25-.03l-.31.25v-.42c0-.1-.08-.18-.18-.18s-.18.08-.18.18v.42l-.31-.25s-.08-.04-.13-.04c-.05,0-.09.03-.12.07-.03.04-.04.08-.04.13,0,.05.03.09.07.12l.54.43v.99l-.88-.51-.1-.68c-.01-.1-.1-.16-.21-.15-.05,0-.1.04-.13.09-.02.04-.03.08-.02.12l.06.4-.32-.19s-.09-.03-.13-.02c-.05.01-.09.04-.11.08-.02.04-.03.09-.02.14.01.05.04.08.08.11l.32.19-.37.14s-.07.04-.09.08c-.03.05-.03.1-.01.16.02.04.05.08.09.1.04.02.09.02.14,0l.64-.25.9.53-.9.52-.64-.25c-.09-.03-.2.01-.23.1-.02.05-.01.11.01.15.02.04.05.06.09.08l.37.14-.32.18s-.07.06-.08.11c-.01.05,0,.09.02.13.02.04.06.07.11.08.05,0,.1,0,.14-.02l.32-.18-.06.39s0,.08.02.12c.03.05.07.08.13.09.05,0,.09,0,.13-.03.04-.03.06-.07.07-.12l.1-.68.03-.02.85-.49v1.02l-.54.43c-.08.06-.09.17-.03.25.06.07.18.08.25.03l.31-.25v.37c0,.1.08.18.18.18s.18-.08.18-.18v-.37l.31.25c.07.06.19.04.25-.03.06-.08.05-.19-.03-.25l-.54-.43v-1.03l.87.51.1.68c.01.1.1.16.21.15.1-.02.16-.11.15-.2l-.06-.39.36.21c.08.05.19.02.24-.06.02-.04.03-.09.02-.14Z"/>
    <path class="cls-1" d="M11.18,12.24c-.47,0-.71.18-.93.33-.2.15-.38.27-.74.27s-.54-.13-.74-.27c-.22-.16-.46-.33-.93-.33s-.71.18-.93.33c-.2.15-.38.27-.74.27s-.54-.13-.74-.27c-.21-.16-.46-.33-.93-.33-.09,0-.16.07-.16.16s.07.16.16.16c.36,0,.54.13.74.27.22.16.46.33.93.33s.71-.18.93-.33c.2-.15.38-.27.74-.27s.54.13.74.27c.22.16.46.33.93.33s.71-.18.93-.33c.2-.15.38-.27.74-.27.09,0,.16-.07.16-.16s-.07-.16-.16-.16Z"/>
    <path class="cls-1" d="M12.94,11.75c-.37,0-.55-.13-.75-.27-.22-.16-.46-.33-.94-.33s-.72.18-.94.33c-.21.15-.38.27-.76.27s-.55-.13-.75-.27c-.22-.16-.46-.33-.94-.33s-.72.18-.94.33c-.21.15-.38.27-.76.27s-.55-.13-.76-.27c-.22-.16-.47-.33-.94-.33s-.72.18-.94.33c-.21.15-.38.27-.76.27-.09,0-.16.07-.16.16s.07.16.16.16c.48,0,.72-.18.94-.33.21-.15.38-.27.76-.27s.55.13.76.27c.22.16.47.33.94.33s.72-.18.94-.33c.21-.15.38-.27.76-.27s.55.13.75.27c.22.16.46.33.94.33s.72-.18.94-.33c.21-.15.38-.27.76-.27s.55.13.75.27c.22.16.46.33.94.33.09,0,.16-.07.16-.16s-.07-.16-.16-.16Z"/>
    <g>
      <path class="cls-1" d="M11.24,8.54c-.1-.43-.54-.69-.97-.59-.43.1-.69.54-.59.97.1.43.54.69.97.59.43-.1.69-.54.59-.97Z"/>
      <path class="cls-1" d="M8.97,7.42l.86-.03c.05,0,.1.01.16,0,.18-.02.3-.12.31-.29.01-.18-.08-.35-.31-.38l-1.45-.2c-.2-.03-.38.11-.4.32l-.55,2.15-.6.43-1.61,1.14s.01,0,.02.01c.14.1.27.18.45.23.09.02.19.04.31.04.37,0,.55-.13.76-.27.22-.16.47-.33.94-.33s.72.18.94.33c.16.11.3.21.53.25.07.01.14.02.22.02.07,0,.13,0,.18-.02l-.32-1.41-.45-1.98Z"/>
    </g>
  </g>
</svg>