<?xml version="1.0" encoding="UTF-8"?>
<svg xmlns="http://www.w3.org/2000/svg" viewBox="0 0 15.59 15.59">
  <defs>
    <style>
      .cls-1 {
        fill: #fff;
      }

      .cls-2 {
        fill: #071f39;
      }
    </style>
  </defs>
  <g id="Cirkel">
    <rect class="cls-2" x="0" y="0" width="15.59" height="15.59" rx="7.8" ry="7.8"/>
  </g>
  <g id="ICONS">
    <path class="cls-1" d="M12.56,11.95H3.03c-.08,0-.15-.07-.15-.15s.07-.15.15-.15h9.52c.08,0,.15.07.15.15s-.07.15-.15.15Z"/>
    <g>
      <path class="cls-1" d="M3.04,7.86h-.07c-.11,0-.18-.12-.13-.22,0,0,1.15-1.99,1.16-2.01.01-.02,0-.06-.03-.06-.04,0-.45,0-.45,0-.11,0-.18-.12-.13-.22l1.33-2.31c.06-.1.2-.1.25,0l1.33,2.31c.06.1-.01.22-.13.22h-.45s-.05.04-.03.06c0,0,.11.19.3.52,0,0-1.22.74-1.83,1.29l-1.13.41Z"/>
      <g>
        <path class="cls-1" d="M13.27,8.54l-2.07-.49-1.55-1.11c-.32-.23-.7-.35-1.1-.35h-1.66c-.4,0-.79.13-1.12.37l-1.41,1.04s-.47.1-.62.15c-.26.09-.46.19-.52.39l-.02.07c-.14.45-.22.91-.24,1.38v.11s.89,0,.89,0c0-.05-.02-.11-.02-.17,0-.6.48-1.08,1.08-1.08s1.08.48,1.08,1.08c0,.06,0,.11-.02.17h4.51c0-.05-.02-.11-.02-.17,0-.6.48-1.08,1.08-1.08s1.08.48,1.08,1.08c0,.06,0,.11-.02.17h1.03v-1.1c0-.22-.15-.41-.37-.46ZM7.61,8h-2.43s1.15-.98,1.51-1.04c.15-.02.38-.04.67-.03h.25v1.07ZM7.96,8v-1.07h.1c.29,0,.52,0,.67.03.35.06,1.51,1.04,1.51,1.04h-2.28Z"/>
        <path class="cls-1" d="M4.91,9.27c-.37,0-.67.3-.67.67,0,.05.02.1.03.15.07.3.32.52.64.52s.57-.22.64-.52c.01-.05.03-.1.03-.15,0-.37-.3-.67-.67-.67Z"/>
        <path class="cls-1" d="M11.55,9.27c-.37,0-.67.3-.67.67,0,.05.02.1.03.15.07.3.32.52.64.52s.57-.22.64-.52c.01-.05.03-.1.03-.15,0-.37-.3-.67-.67-.67Z"/>
      </g>
    </g>
  </g>
</svg>