<?xml version="1.0" encoding="UTF-8"?>
<svg xmlns="http://www.w3.org/2000/svg" viewBox="0 0 15.59 15.59">
  <defs>
    <style>
      .cls-1 {
        fill: #fff;
      }

      .cls-2 {
        fill: #071f39;
      }
    </style>
  </defs>
  <g id="Cirkel">
    <rect class="cls-2" x="0" y="0" width="15.59" height="15.59" rx="7.8" ry="7.8"/>
  </g>
  <g id="ICONS">
    <g>
      <path class="cls-1" d="M12.72,11.23c-.38,0-.56-.13-.77-.29-.22-.17-.48-.35-.96-.35s-.74.19-.97.35c-.21.15-.39.29-.77.29s-.56-.13-.77-.29c-.22-.17-.48-.35-.96-.35s-.74.19-.97.35c-.21.16-.39.29-.78.29s-.57-.13-.78-.29c-.22-.16-.48-.35-.97-.35s-.74.19-.97.35c-.21.15-.39.29-.78.29-.09,0-.17.08-.17.17s.07.17.17.17c.49,0,.74-.19.97-.35.21-.16.39-.29.78-.29s.57.13.78.29c.22.16.48.35.97.35s.74-.19.97-.35c.21-.16.39-.29.78-.29s.56.13.77.29c.22.17.48.35.96.35s.74-.19.97-.35c.21-.16.39-.29.78-.29s.56.13.77.29c.22.17.48.35.96.35.09,0,.17-.08.17-.17s-.07-.17-.17-.17Z"/>
      <path class="cls-1" d="M5.4,7.93h3.56c.12,0,.21-.1.2-.22-.1-.81-.58-3.72-2.65-5.35-.12-.09-.3-.02-.32.13l-.98,5.21c-.02.12.07.24.2.24Z"/>
      <path class="cls-1" d="M13.64,8.15c-.08,0-.16.03-.21.09v-.29c0-.14-.11-.25-.25-.25s-.25.11-.25.25v.67c-.29.29-.68.47-1.11.49,0-.22-.18-.43-.45-.43H3c-.35,0-.57.35-.4.63l.46.52.28.32c.09-.05.2-.1.32-.13.11-.03.23-.05.37-.05.49,0,.74.19.97.35.21.16.39.29.78.29s.56-.13.78-.29c.22-.16.48-.35.97-.35s.74.19.96.35c.21.15.39.29.77.29s.56-.13.77-.29c.22-.16.47-.35.95-.35,0,0,.01,0,.02,0,.04,0,.06,0,.1,0l.22-.21.44-.43h0s0-.01,0-.01c.44,0,.84-.16,1.17-.43v1.25c0,.14.11.25.25.25s.25-.11.25-.25v-1.47c.06.05.13.09.21.09.17,0,.31-.14.31-.31s-.14-.31-.31-.31Z"/>
    </g>
  </g>
</svg>