<?xml version="1.0" encoding="UTF-8"?>
<svg xmlns="http://www.w3.org/2000/svg" viewBox="0 0 15.59 15.59">
  <defs>
    <style>
      .cls-1 {
        fill: #fff;
        fill-rule: evenodd;
      }

      .cls-2 {
        fill: #004712;
      }
    </style>
  </defs>
  <g id="Cirkel">
    <rect class="cls-2" x="0" y="0" width="15.59" height="15.59" rx="7.8" ry="7.8"/>
  </g>
  <g id="ICONS">
    <path class="cls-1" d="M5.46,9.68l.45-1.64.32,1.72c-.26.08-.54.05-.77-.08ZM10,9.74c-.24.13-.52.15-.77.05l.33-1.73.44,1.67M9.15,4.23c-.03.75-.66,1.33-1.41,1.3-.75-.03-1.33-.66-1.3-1.41.03-.75.66-1.33,1.41-1.3.75.03,1.33.66,1.3,1.41M13.45,11.04v.72c-.38.06-.76.05-1.13-.03-.66-.32-1.42-.34-2.09-.05-.47.15-.98.15-1.45.02-.57-.25-1.21-.29-1.8-.1-.6.23-1.27.24-1.88.02-.59-.22-1.24-.2-1.81.05-.45.12-.93.13-1.39.03v-.71c.55.13,1.13.07,1.65-.15.31-.11.64-.15.96-.12.29.06.58.14.86.24.16.04.33.06.5.06.3.03.6-.02.88-.13.57-.23,1.21-.24,1.78-.02.63.24,1.34.22,1.95-.05.46-.15.96-.14,1.41.03.49.2,1.02.26,1.54.16M10.26,6.87l.73,2.68c.42.02.83.11,1.21.27.41.12.84.15,1.26.07v.72c-.54.08-1.1.02-1.61-.17-.42-.15-.88-.15-1.31,0-.63.27-1.34.29-1.98.06-.55-.22-1.17-.21-1.72.02-.65.21-1.36.17-1.99-.1-.36-.11-.74-.11-1.1-.02-.15.03-.3.08-.45.14-.34.13-.71.16-1.07.09-.06,0-.11-.02-.17-.03l-.15-.03v-.69c.5.09,1.01.06,1.49-.09.27-.12.55-.18.85-.19.07-.01.14-.03.21-.06l.78-2.67c.14-.46.57-.78,1.06-.76h3.05c.44.02.81.33.91.75"/>
  </g>
</svg>