<?xml version="1.0" encoding="UTF-8"?>
<svg xmlns="http://www.w3.org/2000/svg" viewBox="0 0 15.59 15.59">
  <defs>
    <style>
      .cls-1 {
        fill: #fff;
        fill-rule: evenodd;
      }

      .cls-2 {
        fill: #004712;
      }
    </style>
  </defs>
  <g id="Cirkel">
    <rect class="cls-2" x="0" y="0" width="15.59" height="15.59" rx="7.8" ry="7.8"/>
  </g>
  <g id="ICONS">
    <path class="cls-1" d="M7.39,6.01l.06-.32s0-.02.02-.04c.02-.04.04-.06.08-.08s.08-.02.09,0c.15.06.28.15.4.26.06.04.06.11.02.17-.02.04-.04.06-.06.06l-.32.13c-.08.02-.13.08-.19.13l-.57.7h-.3l.72-.85s.06-.09.06-.17ZM2.94,10.67l.94-1.04c.08-.08.19-.15.3-.17.17-.06.34-.13.47-.25l.15-.13h.45l-.19.28c-.06.08-.08.17-.08.26.04.25-.02.51-.17.72l-.85,1.19c-.06.08-.15.13-.26.13-.38,0-.7-.23-.83-.58-.06-.13-.04-.3.06-.42ZM3.5,5.92c.08-.04.15-.04.21,0s.09.13.08.21l-.08.26c-.04.13-.04.26.02.38s.17.21.28.25c.3.11.62.17.94.19h5.83c.3,0,.6-.08.89-.21.21-.08.32-.28.28-.49-.02-.11-.04-.25-.08-.36v-.02c-.02-.08.02-.17.08-.23.08-.06.17-.04.23,0,.49.21.91.6,1.15,1.09.15.26.17.6.08.89-.09.3-.32.53-.6.64-.47.21-.98.34-1.49.34l-7.09.04c-.58-.04-1.15-.21-1.66-.49-.47-.34-.57-.98-.25-1.45.28-.47.7-.83,1.19-1.04Z"/>
  </g>
</svg>