<?xml version="1.0" encoding="UTF-8"?>
<svg xmlns="http://www.w3.org/2000/svg" viewBox="0 0 15.59 15.59">
  <defs>
    <style>
      .cls-1 {
        fill: #fff;
      }

      .cls-2 {
        fill: #071f39;
      }
    </style>
  </defs>
  <g id="Cirkel">
    <rect class="cls-2" x="0" y="0" width="15.59" height="15.59" rx="7.8" ry="7.8"/>
  </g>
  <g id="ICONS">
    <g>
      <path class="cls-1" d="M5.51,4.74c-.17-.06-.35-.1-.52-.15-.02,0-.05-.02-.07-.02-.02,0-.03,0-.04.02-.02.03-.02.07-.03.11-.12.58-.14,1.18-.24,1.77-.24,1.41-.98,2.55-1.59,3.8-.27.56-.43,1.1.42,1.13.12,0,.47-.01.53-.12.04-.07.05-.19.07-.26.02-.09.05-.18.07-.27.05-.18.09-.37.14-.55.09-.37.19-.73.28-1.1.18-.73.37-1.46.54-2.19.09-.37.18-.73.26-1.1.04-.18.09-.37.13-.55.02-.09.04-.18.06-.28.01-.06.08-.2.01-.23,0,0-.01,0-.02,0Z"/>
      <path class="cls-1" d="M7.13,5.31s.24-.35.27-.4c.27-.5.46-1.12.29-1.69-.85.29-1.79.11-2.61-.22l-.3,1.12c.43.1.85.23,1.25.4.4.17.88.39,1.09.79Z"/>
      <path class="cls-1" d="M8.25,10.85s-.04-.07-.06-.11c-.02-.04-.04-.07-.07-.1-.03-.03-.06-.06-.09-.09-.03-.03-.06-.06-.1-.08-.04-.02-.07-.05-.11-.06-.04-.01-.08-.01-.13-.02-.04,0-.08.01-.12,0-.04,0-.08-.03-.13-.02-.04,0-.09,0-.13.02-.04.01-.08.03-.12.05-.04.02-.08.04-.11.06-.03.03-.05.07-.08.1-.03.03-.03.08-.05.12-.02.04-.07.06-.09.1-.01.04-.03.08-.04.12,0,.04,0,.08,0,.13,0,.04-.02.09-.01.13,0,.04.02.09.04.13.01.04.06.07.08.11.02.04.07.05.1.08.03.03.05.07.08.09.03.03.05.06.09.09.04.02.06.07.1.08.04.01.08.04.12.04.04,0,.09-.03.13-.03.04,0,.08,0,.12,0,.04,0,.08,0,.12-.02.04-.01.07-.05.1-.07.04-.02.07-.04.1-.06.03-.03.07-.04.1-.07.03-.03.08-.05.1-.08.02-.04-.02-.1,0-.14.01-.04.07-.07.07-.11,0-.04.03-.08.03-.13,0-.04-.04-.08-.05-.12,0-.04.01-.09,0-.13Z"/>
      <path class="cls-1" d="M8.68,10.69c-.02-.06-.07-.12-.1-.18-.03-.06-.07-.12-.11-.17-.04-.05-.09-.1-.14-.15-.05-.04-.1-.09-.16-.13-.06-.03-.12-.07-.18-.1-.06-.02-.14-.02-.2-.03-.07-.01-.13.02-.2.02-.07,0-.14-.05-.2-.04-.07.01-.14,0-.21.03-.06.02-.13.05-.19.09-.06.03-.13.06-.18.1-.05.04-.09.11-.13.16-.04.05-.04.13-.08.19-.03.06-.11.09-.14.16-.02.06-.05.13-.06.2-.01.07,0,.14,0,.21,0,.07-.03.14-.02.21.01.07.04.14.06.2.02.06.09.11.12.17.03.06.11.08.16.13.04.05.07.11.12.15.05.04.09.1.14.14.06.03.1.11.16.13.06.02.13.06.2.07.07.01.14-.05.21-.04.07,0,.13,0,.2,0,.07-.01.14-.01.2-.03.06-.02.11-.08.17-.12.06-.03.11-.06.17-.1.05-.04.12-.07.16-.12.04-.05.13-.07.17-.13.03-.06-.03-.17,0-.23.02-.06.11-.11.12-.17.01-.07.04-.13.04-.2,0-.07-.06-.13-.07-.2-.01-.07.02-.14,0-.21ZM8.42,11.25c0,.05-.07.08-.09.13-.02.05.03.13,0,.17-.03.04-.09.06-.13.1-.03.04-.08.06-.12.09-.04.03-.08.05-.12.08-.04.02-.08.07-.12.09-.05.02-.1.02-.15.03-.05,0-.1,0-.15,0s-.11.04-.16.03c-.05,0-.1-.03-.15-.05-.05-.02-.08-.07-.12-.1-.04-.03-.07-.07-.11-.1-.04-.03-.06-.07-.09-.11-.03-.04-.09-.05-.12-.1-.02-.04-.07-.08-.09-.13-.02-.05-.04-.1-.04-.15,0-.05.02-.1.02-.16s0-.1,0-.15c0-.05.03-.1.04-.15.02-.05.08-.07.1-.12.03-.04.02-.1.06-.14.03-.04.06-.09.1-.12.04-.03.09-.05.13-.08.04-.02.09-.05.14-.06.05-.02.1-.01.15-.02.05,0,.1.03.15.03.05,0,.1-.02.15-.01.05,0,.1,0,.15.02.05.02.09.05.13.07.04.03.08.06.12.09.04.03.07.07.11.11.03.04.06.08.08.13.02.04.06.09.07.13.02.05,0,.1,0,.15,0,.05.06.1.06.15,0,.05-.02.1-.03.15Z"/>
      <path class="cls-1" d="M9.09,10.54c-.03-.09-.09-.16-.14-.24-.05-.08-.1-.16-.15-.23-.06-.07-.12-.14-.19-.2-.07-.06-.14-.12-.22-.17-.08-.05-.16-.1-.25-.13-.09-.03-.19-.02-.28-.04-.09-.02-.18.02-.27.02-.09,0-.19-.06-.28-.05-.09.01-.19,0-.28.04-.09.03-.18.07-.26.12-.08.05-.18.08-.25.14-.07.06-.12.15-.18.22-.06.07-.06.18-.11.26-.05.08-.16.13-.19.21-.03.09-.06.18-.08.27-.02.09,0,.19-.01.28,0,.09-.05.2-.03.29.01.09.05.19.08.28.03.09.12.15.17.23.05.08.15.11.21.18.06.07.1.14.17.21.07.06.12.14.2.19.08.05.14.15.22.18.09.03.18.08.27.1.09.02.19-.06.29-.06.09,0,.18,0,.27-.01.09-.01.18-.02.27-.05.09-.03.15-.11.23-.16.08-.05.16-.08.23-.14.07-.06.16-.09.22-.16.06-.07.18-.1.23-.18.05-.08-.04-.23,0-.31.03-.09.14-.14.16-.24.02-.09.06-.18.06-.28,0-.09-.09-.18-.1-.27-.01-.09.02-.2,0-.28ZM8.87,11.33c-.01.08-.11.13-.13.2-.03.07.05.19,0,.26-.04.07-.14.09-.19.15-.05.06-.12.09-.18.14-.06.05-.12.08-.19.12-.07.04-.12.11-.19.13-.07.02-.15.03-.23.04-.07.01-.15.01-.23,0-.08,0-.16.06-.24.05-.08-.01-.15-.05-.22-.08-.07-.03-.12-.11-.18-.15-.07-.04-.11-.11-.16-.16-.06-.05-.09-.11-.14-.17-.05-.06-.14-.08-.18-.15-.04-.07-.11-.12-.14-.19-.02-.07-.06-.15-.07-.23-.01-.07.03-.16.03-.24,0-.08,0-.16,0-.23.01-.08.04-.15.07-.22.03-.07.12-.11.16-.18.04-.07.04-.16.09-.22.05-.06.09-.14.15-.19.06-.05.14-.08.21-.12.07-.04.14-.07.21-.1.07-.02.16-.02.23-.03.07-.01.15.04.23.04.08,0,.15-.03.23-.02.08.01.16,0,.23.03.07.03.14.07.2.11.07.04.12.09.18.14.06.05.11.11.16.17.05.06.09.12.13.19.04.07.09.13.11.2.02.07,0,.16,0,.24.01.07.09.15.08.23,0,.08-.03.16-.05.23Z"/>
      <path class="cls-1" d="M10.26,8.89s.14-.06.18-.11c.04-.05-.01-.17.02-.23.03-.06.11-.09.13-.16.02-.06.06-.13.06-.2,0-.07-.05-.14-.05-.2,0-.07.03-.14.02-.2-.02-.07-.05-.13-.08-.19-.03-.06-.06-.12-.09-.18-.04-.06-.08-.11-.12-.16-.05-.05-.09-.1-.14-.14-.05-.04-.11-.08-.17-.12-.06-.03-.13-.03-.2-.05-.06-.02-.13,0-.2,0-.07,0-.13-.06-.2-.06-.07,0-.14-.01-.2,0-.07.02-.13.04-.2.07-.06.03-.13.05-.19.08-.06.04-.1.1-.15.15-.05.05-.06.13-.1.18-.04.05-.12.08-.15.14-.03.06-.06.12-.08.19-.02.06-.02.13-.03.2,0,.07-.05.14-.04.2,0,.07.02.14.04.21.02.07.08.12.1.18.03.06.1.09.14.15.04.06.06.11.11.16.05.05.07.11.13.15.05.04.09.12.15.15.06.03.12.07.19.09.06.02.14-.03.21-.02.07,0,.13.02.2.01.07,0,.13,0,.2-.01.07-.02.11-.07.18-.1.06-.03.12-.05.17-.09.06-.04.12-.05.17-.1ZM9.94,8.76s-.08.04-.13.06c-.05.02-.08.06-.13.07-.05.01-.1,0-.15,0-.05,0-.1,0-.15,0s-.11.03-.16.02c-.05-.01-.1-.04-.14-.07-.04-.02-.07-.08-.11-.11-.04-.03-.06-.08-.1-.11-.03-.04-.05-.08-.08-.12-.03-.04-.08-.06-.1-.11-.02-.05-.07-.09-.08-.14-.01-.05-.03-.1-.03-.15,0-.05.03-.1.03-.15s0-.1.02-.15c.01-.05.04-.1.06-.14.02-.05.08-.06.11-.1.03-.04.04-.1.07-.14.04-.03.07-.08.11-.11.04-.03.1-.04.14-.06.05-.02.1-.04.15-.05.05-.01.1,0,.15,0,.05,0,.1.04.15.04.05,0,.1-.01.15,0,.05.01.1.01.15.04.05.02.09.06.12.09.04.03.07.07.11.1.03.04.07.08.09.12.03.04.05.09.07.13.02.05.05.09.06.14.01.05-.01.1-.01.15,0,.05.05.1.04.15,0,.05-.03.1-.05.15-.01.05-.08.07-.1.12-.02.04.02.13-.01.17-.03.04-.1.05-.13.08-.04.03-.09.05-.13.08Z"/>
      <path class="cls-1" d="M10.18,8.02s.02-.09.01-.13c0-.04-.03-.08-.05-.12-.02-.04-.04-.08-.06-.11-.02-.04-.05-.07-.08-.1-.03-.03-.06-.06-.09-.09-.03-.03-.07-.05-.1-.07-.04-.02-.08-.02-.12-.03-.04-.01-.08,0-.12,0-.04,0-.08-.04-.12-.04-.04,0-.09,0-.13,0-.04,0-.08.02-.12.04-.04.02-.08.03-.12.05-.04.02-.06.06-.09.09-.03.03-.03.08-.06.11-.03.03-.08.05-.1.09-.02.04-.04.08-.05.12-.01.04-.01.08-.02.13,0,.04-.03.09-.03.13,0,.04.01.09.02.13,0,.04.05.07.06.11.02.04.06.06.09.09.02.04.04.07.07.1.03.03.05.07.08.09.03.03.05.07.09.09.04.02.08.04.12.06.04.01.09-.02.13-.01.04,0,.08,0,.12,0,.04,0,.08,0,.12,0,.04,0,.07-.04.11-.06.04-.02.07-.03.11-.05.04-.02.08-.03.11-.06.03-.03.09-.04.11-.07.03-.03,0-.1.01-.14.02-.04.07-.06.08-.1.01-.04.03-.08.04-.12,0-.04-.03-.09-.03-.13Z"/>
      <path class="cls-1" d="M10.08,9.46c.09-.04.16-.07.24-.12.08-.05.17-.08.24-.14.07-.06.19-.08.25-.16.06-.07-.02-.23.02-.31.04-.08.16-.13.19-.22.03-.09.08-.18.09-.27.01-.09-.07-.19-.07-.28,0-.09.04-.19.02-.28-.02-.09-.08-.17-.11-.26-.04-.09-.08-.17-.13-.24-.05-.08-.11-.15-.17-.22-.06-.07-.13-.14-.2-.19-.07-.06-.15-.12-.23-.16-.08-.04-.18-.04-.27-.07-.09-.03-.18,0-.27,0-.09-.01-.18-.08-.27-.08-.09,0-.19-.01-.28,0-.09.02-.18.05-.27.09-.09.04-.18.07-.26.12-.08.05-.13.14-.2.2-.07.06-.08.18-.13.25-.06.07-.17.11-.21.19-.04.08-.08.17-.11.26-.03.09-.03.19-.04.28-.01.09-.07.19-.06.28,0,.09.03.19.05.28.02.09.11.16.14.25.04.09.14.13.19.2.05.08.08.15.15.22.06.07.1.15.18.21.07.06.12.16.2.2.08.04.17.1.26.12.09.03.2-.04.29-.03.09.01.18.02.27.02.09,0,.19,0,.28-.02.09-.02.16-.1.24-.13ZM9.55,9.36c-.08,0-.15,0-.23-.01-.08,0-.17.05-.24.03-.07-.02-.15-.07-.22-.1-.07-.04-.11-.12-.17-.17-.06-.05-.09-.12-.15-.17-.05-.06-.08-.12-.12-.18-.04-.06-.13-.1-.16-.17-.03-.07-.1-.13-.12-.21-.02-.07-.04-.16-.04-.24,0-.08.04-.16.05-.24s.01-.16.03-.23c.02-.07.06-.15.09-.22.04-.07.13-.1.18-.16.05-.06.05-.16.11-.21.06-.05.1-.13.17-.17.06-.04.15-.07.22-.1.07-.03.15-.06.22-.08.07-.02.16,0,.24,0,.08,0,.15.06.22.07s.16-.02.23,0c.07.02.16.02.23.06.07.04.13.09.19.13.06.05.11.11.17.16.05.06.1.12.14.18.04.06.08.13.11.2.03.07.08.14.09.21.02.07-.02.16-.02.24,0,.08.07.16.06.23s-.05.15-.07.23c-.02.07-.12.11-.15.18-.04.07.03.2-.02.26-.05.06-.15.08-.21.13-.06.05-.13.07-.2.12-.06.04-.13.07-.2.1-.07.03-.13.09-.2.11-.07.02-.15.01-.23.02Z"/>
      <path class="cls-1" d="M12.89,11.01c0-.09,0-.18-.01-.27-.01-.09-.02-.18-.05-.27-.03-.09-.11-.15-.16-.23-.05-.08-.08-.16-.14-.23-.06-.07-.09-.16-.16-.22-.07-.06-.1-.18-.18-.23-.08-.05-.23.04-.31,0-.09-.03-.14-.14-.24-.16-.09-.02-.18-.06-.28-.06s-.18.09-.27.1c-.09.01-.2-.02-.28,0-.09.03-.16.09-.24.14-.08.05-.16.1-.23.15-.07.06-.14.12-.2.19-.06.07-.12.14-.17.22-.05.08-.1.16-.13.25-.03.09-.02.19-.04.28-.02.09.02.18.02.27,0,.09-.06.19-.05.28.01.09,0,.19.04.28.03.09.07.18.12.26.05.08.08.18.14.25.06.07.15.12.22.18.07.06.18.06.26.11.08.05.13.16.21.19.09.03.18.06.27.08.09.02.19,0,.28.01.09,0,.2.05.29.03.09-.01.19-.05.28-.08.09-.03.15-.12.23-.17.08-.05.11-.15.18-.21.07-.06.14-.1.21-.17.06-.07.14-.12.19-.2.05-.08.15-.14.18-.22.03-.09.08-.18.1-.27.02-.09-.06-.19-.06-.29ZM12.63,11.47c-.03.07-.11.12-.15.19-.04.07-.11.11-.16.17-.05.06-.11.09-.17.14-.06.05-.09.14-.15.18-.07.04-.12.12-.2.14-.07.03-.16.06-.23.07-.08.01-.16-.03-.24-.03s-.16,0-.24,0c-.08-.02-.16-.04-.23-.07-.07-.03-.11-.12-.18-.16-.07-.04-.16-.04-.22-.09-.06-.05-.14-.09-.19-.15-.05-.06-.08-.14-.12-.21-.04-.07-.07-.14-.1-.22-.03-.07-.02-.16-.03-.24-.01-.08.04-.15.04-.23s-.03-.16-.02-.23c.02-.08,0-.16.03-.23.03-.07.07-.14.11-.21.04-.07.09-.13.15-.19.05-.06.11-.11.17-.16.06-.05.13-.09.19-.13.07-.04.13-.09.21-.12.07-.03.16,0,.24,0,.08-.01.15-.09.23-.09s.16.04.24.05c.08.02.13.11.2.14.07.03.2-.05.26,0,.07.04.09.14.15.2.06.05.09.13.14.19.05.06.08.12.12.19.04.07.11.12.13.19.03.07.03.15.04.23.01.08.01.15,0,.23s.07.17.05.24c-.02.08-.05.16-.08.23Z"/>
      <path class="cls-1" d="M12.08,10.86s0-.09-.02-.13c-.01-.04-.05-.07-.07-.11-.02-.04-.04-.07-.07-.11-.03-.03-.04-.08-.08-.1-.03-.03-.05-.09-.09-.11-.04-.02-.11.02-.15,0-.04-.02-.07-.07-.11-.08-.04,0-.09-.03-.13-.03s-.09.04-.13.05c-.04,0-.09-.01-.13,0-.04.01-.08.04-.12.06-.04.02-.07.05-.11.07-.03.03-.07.06-.09.09-.03.03-.06.07-.08.1-.02.04-.05.07-.06.12-.02.04-.01.09-.02.13,0,.04.01.08.01.13,0,.04-.03.09-.02.13,0,.04,0,.09.02.13.01.04.03.08.06.12.02.04.04.08.07.12.03.03.07.06.11.08.03.03.09.03.12.05.04.02.06.07.1.09.04.02.08.03.13.04.04,0,.09,0,.13,0s.09.02.14.02c.04,0,.09-.02.13-.04.04-.01.07-.06.11-.08.04-.02.05-.07.09-.1.03-.03.07-.05.1-.08.03-.03.07-.06.09-.09.02-.04.07-.06.08-.1.02-.04.04-.08.05-.13,0-.04-.03-.09-.03-.14s0-.09,0-.13Z"/>
      <path class="cls-1" d="M12.5,10.79c-.01-.07-.01-.14-.03-.2-.02-.07-.08-.11-.12-.17-.03-.06-.06-.12-.11-.17-.04-.05-.07-.12-.12-.16-.05-.04-.08-.14-.13-.17-.06-.04-.17.03-.23,0-.06-.02-.11-.11-.18-.12-.07-.01-.14-.04-.21-.04-.07,0-.13.07-.2.08-.07.01-.15-.02-.21,0-.07.02-.12.07-.18.1-.06.03-.12.07-.17.11-.05.04-.1.09-.15.14-.04.05-.09.1-.13.16-.04.06-.07.12-.1.18-.02.06-.02.14-.03.21-.01.07.02.13.02.2,0,.07-.05.14-.04.2.01.07,0,.14.03.21.02.07.05.13.09.19.03.06.06.13.11.18.04.05.11.09.17.13.05.04.14.04.19.08.06.04.09.12.16.14.06.02.13.05.2.06.07.01.14,0,.21,0,.07,0,.15.03.21.02.07-.01.14-.04.2-.06.07-.02.11-.09.17-.12.06-.03.08-.11.13-.16.05-.04.11-.07.15-.13.04-.05.1-.09.14-.15.04-.06.11-.1.13-.16.02-.06.06-.13.07-.2.01-.07-.05-.14-.04-.21,0-.07,0-.13,0-.2ZM12.19,11.3s-.07.08-.1.12c-.03.04-.07.07-.1.11-.03.04-.07.06-.11.09-.04.03-.06.09-.1.12-.04.02-.08.08-.13.09-.05.02-.1.04-.15.05-.05,0-.11-.02-.16-.02-.05,0-.11,0-.16,0-.05,0-.1-.03-.15-.05-.05-.02-.07-.08-.12-.11-.04-.03-.11-.03-.15-.06-.04-.03-.09-.06-.12-.1-.03-.04-.05-.09-.08-.14-.02-.04-.05-.09-.07-.14-.02-.05-.01-.1-.02-.16,0-.05.03-.1.03-.15,0-.05-.02-.1-.01-.15,0-.05,0-.11.02-.15.02-.05.05-.09.07-.14.03-.04.06-.08.1-.12.03-.04.07-.07.11-.11.04-.03.08-.06.13-.09.04-.02.09-.06.14-.08.05-.02.11,0,.16,0,.05,0,.1-.06.15-.06.05,0,.1.02.15.03.05,0,.08.07.13.09.05.02.13-.03.17,0,.04.03.06.09.1.13.04.03.06.08.09.12.03.04.05.08.08.13.02.04.07.08.09.13.02.05.02.1.03.15,0,.05,0,.1,0,.15,0,.05.04.11.03.16,0,.05-.04.1-.05.15Z"/>
    </g>
  </g>
</svg>