<?xml version="1.0" encoding="UTF-8"?>
<svg xmlns="http://www.w3.org/2000/svg" viewBox="0 0 15.59 15.59">
  <defs>
    <style>
      .cls-1 {
        fill: #fff;
      }

      .cls-2 {
        fill: #071f39;
      }
    </style>
  </defs>
  <g id="Cirkel">
    <rect class="cls-2" x="0" y="0" width="15.59" height="15.59" rx="7.79" ry="7.79"/>
  </g>
  <g id="ICONS">
    <rect class="cls-1" x="4.33" y="8.11" width="7.18" height=".71" rx=".22" ry=".22"/>
    <g>
      <path class="cls-1" d="M3.17,8.84c-.23-.01-.45-.02-.66-.03-.27,0-.5.21-.5.49v1.1c0,.2.21.26.36.27.01,0,.03,0,.04,0,.05,0,.1,0,.14-.01.27-.04.43-.14.61-.27.23-.16.49-.35.99-.35s.76.19.99.35c.14.1.27.19.45.24.07.02.15.03.25.04-.1-.53-.29-.92-.62-1.21-.42-.36-1.06-.56-2.05-.62Z"/>
      <path class="cls-1" d="M12.89,8.81c-.21,0-.43.02-.66.03-.99.06-1.63.25-2.05.62-.33.29-.52.68-.62,1.21.09,0,.17-.02.24-.03.19-.05.33-.14.48-.25.23-.16.49-.35.99-.35s.76.19.98.35c.17.12.34.23.59.27.05,0,.1.01.15.01.01,0,.03,0,.05,0,.15-.01.35-.08.35-.27v-1.1c0-.27-.23-.49-.5-.49Z"/>
    </g>
    <circle class="cls-1" cx="8.3" cy="2.6" r=".53"/>
    <path class="cls-1" d="M9.52,4.9h0s-.01,0-.01,0c0,0,0,0,0,0l-.64-.31s-.04-.03-.04-.05l-.46-1.07c-.08-.19-.31-.27-.49-.18-.33.17-.81.41-1,.5-.31.15-.26.23-.31.34-.04.1-.26.61-.33.76,0,.01-.01.03-.02.04,0,0,0,0,0,0h0s0,.04,0,.06c0,.13.11.24.24.24.09,0,.16-.05.2-.12h0s0,0,0,0c0-.01.01-.03.02-.04l.36-.83s.03-.04.05-.04l.18-.03s.02,0,.02.02l-.43,2.16s-.01.05-.03.07l-.79,1.05h0c-.05.05-.08.12-.08.2,0,.16.13.29.29.29.08,0,.16-.03.21-.09h0s1.31-1.44,1.31-1.44c.02-.02.05-.03.08-.01l.35.21s.04.04.04.07l.16.98c0,.16.13.29.29.29s.29-.13.29-.29c0-.02,0-.04,0-.06l-.14-1.34s-.01-.05-.03-.07l-.59-.71s-.04-.08-.03-.12l.14-.71s.02-.02.03,0l.16.24s.03.03.05.04l.77.36h0s.07.03.11.03c.13,0,.24-.11.24-.24,0-.09-.05-.17-.13-.21Z"/>
    <path class="cls-1" d="M11.2,11.91c-.49,0-.75.19-.97.35-.21.15-.39.29-.78.29s-.56-.13-.78-.29c-.23-.16-.48-.35-.97-.35s-.75.19-.97.35c-.21.15-.39.29-.77.29s-.56-.13-.77-.29c-.22-.16-.48-.35-.97-.35-.09,0-.17.07-.17.17s.08.17.17.17c.38,0,.56.13.77.29.23.16.48.35.97.35s.75-.19.97-.35c.21-.15.39-.29.77-.29s.56.13.78.29c.23.16.48.35.97.35s.75-.19.97-.35c.21-.15.39-.29.78-.29.09,0,.17-.07.17-.17s-.08-.17-.17-.17Z"/>
    <path class="cls-1" d="M13.04,11.41c-.39,0-.57-.13-.79-.29-.23-.16-.49-.35-.98-.35s-.76.19-.99.35c-.22.15-.4.29-.79.29s-.57-.13-.79-.29c-.23-.16-.49-.35-.98-.35s-.76.19-.99.35c-.22.15-.4.29-.79.29s-.58-.13-.79-.29c-.23-.16-.49-.35-.99-.35s-.76.19-.99.35c-.22.15-.4.29-.79.29-.09,0-.17.07-.17.17s.08.17.17.17c.5,0,.76-.19.99-.35.22-.15.4-.29.79-.29s.58.13.79.29c.23.16.49.35.99.35s.76-.19.99-.35c.22-.15.4-.29.79-.29s.57.13.79.29c.23.16.49.35.98.35s.76-.19.99-.35c.22-.15.4-.29.79-.29s.57.13.79.29c.23.16.49.35.98.35.09,0,.17-.07.17-.17s-.08-.17-.17-.17Z"/>
  </g>
</svg>