<?xml version="1.0" encoding="UTF-8"?>
<svg xmlns="http://www.w3.org/2000/svg" viewBox="0 0 15.59 15.59">
  <defs>
    <style>
      .cls-1 {
        fill: #fff;
      }

      .cls-2 {
        fill: #071f39;
      }
    </style>
  </defs>
  <g id="Cirkel">
    <rect class="cls-2" x="0" y="0" width="15.59" height="15.59" rx="7.8" ry="7.8"/>
  </g>
  <g id="ICONS">
    <g>
      <path class="cls-1" d="M7.85,5.68c.44,0,.65.15.9.32.26.19.55.4,1.12.4s.86-.21,1.12-.39c.24-.17.46-.32.9-.32s.65.15.9.32c.26.19.55.4,1.12.4.11,0,.19-.08.19-.19s-.09-.19-.19-.19c-.44,0-.65-.15-.9-.32-.26-.19-.55-.4-1.12-.4s-.86.21-1.12.4c-.24.17-.45.32-.9.32s-.65-.15-.9-.32c-.26-.19-.55-.4-1.12-.4-.23,0-.4.04-.56.09l.2.34c.1-.03.22-.05.36-.05Z"/>
      <path class="cls-1" d="M1.8,6.4c.57,0,.86-.21,1.12-.39.24-.17.46-.32.9-.32s.65.15.9.32c.13.09.28.19.46.27l-.41-.7c-.23-.15-.5-.28-.95-.28-.57,0-.86.21-1.12.4-.24.17-.46.32-.9.32-.11,0-.19.08-.19.19s.09.19.19.19Z"/>
      <path class="cls-1" d="M4.94,7.01c-.26-.18-.55-.4-1.12-.4s-.86.21-1.12.4c-.24.17-.46.32-.9.32-.11,0-.19.08-.19.19s.09.19.19.19c.57,0,.86-.21,1.12-.39.24-.17.46-.32.9-.32s.65.15.9.32c.26.18.55.39,1.12.39.06,0,.11-.01.17-.02l-.22-.37c-.41-.01-.62-.15-.86-.32Z"/>
      <path class="cls-1" d="M13.89,7.33c-.44,0-.65-.15-.9-.32-.26-.19-.55-.4-1.12-.4s-.86.21-1.12.4c-.24.17-.45.32-.9.32s-.65-.15-.9-.32c-.23-.16-.5-.34-.95-.38l.25.43c.19.06.33.15.48.26.26.19.55.4,1.12.4s.86-.21,1.12-.39c.24-.17.46-.32.9-.32s.65.15.9.32c.26.19.55.4,1.12.4.11,0,.19-.08.19-.19s-.09-.19-.19-.19Z"/>
      <path class="cls-1" d="M8.05,8.27c.09-.19.1-.41,0-.6l-.38-.65-.21-.36-.42-.71-.19-.33-1.54-2.63c-.12-.2-.33-.32-.55-.32-.11,0-.22.03-.32.09-.3.18-.41.57-.23.87l1.38,2.37.23.4.5.85.2.33.42.73c.09.15.23.25.39.29.04.01.09,0,.13,0l1.89,3.23s-.02,0-.02,0c-.1,0-.21.05-.27.14-.11.15-.08.37.07.48l1.11.83s.08.05.12.06c.03,0,.06.01.09.01.08,0,.16-.03.23-.09.12-.11.15-.29.07-.43l-2.68-4.58Z"/>
    </g>
  </g>
</svg>