<?xml version="1.0" encoding="UTF-8"?>
<svg xmlns="http://www.w3.org/2000/svg" viewBox="0 0 15.59 15.59">
  <defs>
    <style>
      .cls-1 {
        fill: #fff;
      }

      .cls-2 {
        fill: #071f39;
      }
    </style>
  </defs>
  <g id="Cirkel">
    <rect class="cls-2" x="0" y="0" width="15.59" height="15.59" rx="7.8" ry="7.8"/>
  </g>
  <g id="ICONS">
    <g>
      <path class="cls-1" d="M13.68,6.79c-1.29-.57-3.72-1.69-3.82-1.69l-.49-.02c-.4-.17-.81-.49-1.2-.66-.03-.01-.05-.02-.08-.03-.26-.02-.64.08-.91.08-.19.06-.15.37.03.38.1,0,1.01-.07,1.11.35.01.06.09,1,.1,1.02l.05.55-.02.03-.32.03c-.15,0-.31-.03-.44-.08-.36-.15-.83-1.01-1.2-.97-.78.08-1.52.16-2.38.29-.09,0-.16.08-.17.17,0,.1.04.51.07.61.04.12.37.17.49.22.02,0,.03-.01.03.03l-1.95.63c-.06.03-.1.08-.11.14l.09.94s.05.06.08.08c.09-.05.17-.11.26-.17.23-.17.49-.36,1-.36s.77.19,1,.36c.22.16.4.3.8.3s.58-.14.8-.3c.23-.17.49-.36,1-.36s.76.19.99.36c.22.16.4.3.8.3s.58-.14.8-.3c.23-.17.49-.36,1-.36.46,0,.72.16.94.32.62-.28,1.16-.72,1.53-1.28.05-.07.2-.32.22-.39.02-.08,0-.17-.07-.22Z"/>
      <g>
        <path class="cls-1" d="M11.04,10.21c-.5,0-.76.19-.99.36-.22.16-.4.29-.79.29s-.58-.14-.79-.29c-.23-.17-.49-.36-.99-.36s-.76.19-.99.36c-.22.16-.4.29-.79.29s-.58-.14-.79-.29c-.23-.17-.49-.36-.99-.36-.1,0-.17.08-.17.17s.08.17.17.17c.39,0,.58.14.79.29.23.17.49.36.99.36s.76-.19.99-.36c.22-.16.4-.29.79-.29s.58.14.79.29c.23.17.49.36.99.36s.77-.19,1-.36c.22-.16.4-.29.79-.29.1,0,.17-.08.17-.17s-.08-.17-.17-.17Z"/>
        <path class="cls-1" d="M12.92,9.7c-.4,0-.59-.14-.81-.29-.23-.17-.5-.36-1.01-.36s-.78.19-1.01.36c-.22.16-.41.29-.81.29s-.59-.14-.81-.29c-.23-.17-.5-.36-1.01-.36s-.78.19-1.01.36c-.22.16-.41.29-.81.29s-.59-.14-.81-.29c-.23-.17-.5-.36-1.01-.36s-.78.19-1.01.36c-.22.16-.41.29-.81.29-.1,0-.17.08-.17.17s.08.17.17.17c.51,0,.78-.19,1.01-.36.22-.16.41-.29.81-.29s.59.14.81.29c.23.17.5.36,1.01.36s.78-.19,1.01-.36c.22-.16.41-.29.81-.29s.59.14.81.29c.23.17.5.36,1.01.36s.77-.19,1.01-.36c.22-.16.41-.29.81-.29s.59.14.81.29c.23.17.5.36,1.01.36.1,0,.17-.08.17-.17s-.08-.17-.17-.17Z"/>
      </g>
    </g>
  </g>
</svg>