<?xml version="1.0" encoding="UTF-8"?>
<svg xmlns="http://www.w3.org/2000/svg" viewBox="0 0 15.59 15.59">
  <defs>
    <style>
      .cls-1 {
        fill: #fff;
      }

      .cls-2 {
        fill: #071f39;
      }
    </style>
  </defs>
  <g id="Cirkel">
    <rect class="cls-2" x="0" y="0" width="15.59" height="15.59" rx="7.8" ry="7.8"/>
  </g>
  <g id="ICONS">
    <g>
      <path class="cls-1" d="M10.1,1.97h-4.36c-.62,0-1.13.51-1.13,1.13v9.39c0,.62.51,1.13,1.13,1.13h4.36c.62,0,1.13-.51,1.13-1.13V3.1c0-.62-.51-1.13-1.13-1.13ZM10.79,12.49c0,.38-.31.7-.7.7h-4.36c-.38,0-.7-.31-.7-.7v-1.11h5.75v1.11ZM10.79,10.95h-5.75V3.1c0-.38.31-.7.7-.7h4.36c.38,0,.7.31.7.7v7.85Z"/>
      <path class="cls-1" d="M7.3,12.49h1.24c.12,0,.22-.1.22-.22s-.1-.22-.22-.22h-1.24c-.12,0-.22.1-.22.22s.1.22.22.22Z"/>
      <path class="cls-1" d="M6.85,4.3v-.2c0-.14-.11-.25-.25-.25s-.25.11-.25.25v5.46c0,.14.11.25.25.25s.25-.11.25-.25v-2.61l2.94-1.17c.14-.06.14-.25,0-.31l-2.94-1.17Z"/>
    </g>
  </g>
</svg>