<?xml version="1.0" encoding="UTF-8"?>
<svg xmlns="http://www.w3.org/2000/svg" width="5.5mm" height="5.5mm" viewBox="0 0 15.591 15.591">
  <g id="a" data-name="Cirkel">
    <rect x=".005" y="0" width="15.591" height="15.591" rx="7.795" ry="7.795" fill="#071f39"/>
  </g>
  <g id="b" data-name="ICONS">
    <path d="M10.495,7.41l-.976,3.647c-.079.294-.204.606-.395.838-.279.338-.668.41-1.089.359-.163-.019-.314-.051-.474-.092-.859-.227-1.696-.47-2.555-.732L7.176,3.329l1.686.452-.416,1.55,1.069.287c.157.045.302.092.45.157.494.216.68.546.629,1.087-.018.185-.048.359-.099.547ZM7.908,10.326l.824-3.075c.02-.073.02-.138.006-.207-.025-.072-.084-.122-.16-.142l-.514-.14-.989,3.69.515.136c.106.028.206-.016.255-.109.027-.048.046-.09.063-.153Z" fill="#feffff"/>
  </g>
</svg>