<?xml version="1.0" encoding="UTF-8"?>
<svg xmlns="http://www.w3.org/2000/svg" viewBox="0 0 15.59 15.59">
  <defs>
    <style>
      .cls-1 {
        fill: #fff;
      }

      .cls-2 {
        fill: #071f39;
      }
    </style>
  </defs>
  <g id="Cirkel">
    <rect class="cls-2" x="0" y="0" width="15.59" height="15.59" rx="7.8" ry="7.8"/>
  </g>
  <g id="ICONS">
    <g>
      <path class="cls-1" d="M2.94,9.16s.03.03.04.04c.02.02.04.04.06.06.03.03.05.05.08.07.02.02.04.04.06.06.01.01.03.02.04.04.03.03.06.05.1.08,0,0,0,0,0,0,.01.01.03.02.04.03.02.02.05.03.07.05.01.01.03.02.05.03.02.01.03.02.05.04,0,0,0,0,0,0,.29.2.6.35.94.46,0,0,0,0,0,0,0,0,0,0,0,0,.05.01.1.03.15.04.02,0,.03,0,.05.01.02,0,.04.01.06.01.02,0,.04,0,.06.01.01,0,.03,0,.04,0,.1.02.21.04.32.05.01,0,.03,0,.04,0,.04,0,.08,0,.13,0,.01,0,.03,0,.04,0,.06,0,.11,0,.17,0,0,0,0,0,0,0,0,0,0,0,0,0,0,0,0,0,0,0,0,0,0,0,0,0,.06,0,.11,0,.17,0,.01,0,.03,0,.04,0,.04,0,.08,0,.13,0,.01,0,.03,0,.04,0,.09-.01.19-.03.28-.04-.06-.11-.1-.22-.1-.35,0-.25.12-.47.3-.62l-.07-.23-.02-.07-.34-1.13c.12-.05.23-.11.32-.19l1.09,1.09s-.09.08-.14.12c-.07.06-.15.12-.23.17-.03.02-.07.03-.11.05,0,0,.01,0,.02,0,.34,0,.64.21.76.51,0,0,.01,0,.02-.01.01-.01.03-.02.04-.03,0,0,0,0,0,0,.03-.03.06-.05.1-.08.01-.01.03-.02.04-.04.02-.02.04-.04.06-.06.03-.02.05-.05.08-.07.02-.02.04-.04.06-.06.01-.01.03-.03.04-.04.03-.03.05-.06.08-.09.02-.02.03-.04.05-.05.02-.02.03-.04.05-.06.02-.02.03-.04.05-.06.02-.03.04-.05.06-.08.01-.02.03-.04.04-.06.01-.02.03-.04.04-.06.02-.03.04-.07.07-.1.01-.02.02-.04.03-.06.02-.03.03-.05.04-.08.01-.02.02-.04.04-.07.02-.03.03-.06.05-.1,0-.02.02-.04.03-.05.02-.04.04-.08.05-.12,0-.01.01-.03.02-.04.01-.03.03-.07.04-.1,0-.02.01-.03.02-.05.02-.04.03-.09.04-.13,0-.02,0-.03.01-.05.01-.04.02-.08.03-.12,0-.01,0-.02,0-.03.01-.04.02-.09.03-.13,0-.01,0-.03,0-.04,0-.05.02-.1.03-.14,0-.01,0-.02,0-.03,0-.04.01-.09.02-.13,0-.01,0-.02,0-.04,0-.05,0-.1.01-.15,0-.01,0-.03,0-.04,0-.05,0-.1,0-.15,0,0,0,0,0,0,0-.49-.1-.96-.28-1.38-.54-1.27-1.8-2.17-3.27-2.17,0,0,0,0,0,0,0,0,0,0,0,0-1.47,0-2.73.9-3.27,2.17-.18.42-.28.89-.28,1.38,0,0,0,0,0,0,0,.05,0,.1,0,.15,0,.01,0,.03,0,.04,0,.05,0,.1.01.15,0,.01,0,.02,0,.04,0,.04.01.09.02.13,0,.01,0,.02,0,.03,0,.05.02.1.03.14,0,.01,0,.03,0,.04,0,.05.02.09.03.13,0,.01,0,.02,0,.03.01.04.02.08.03.12,0,.02,0,.03.01.05.01.04.03.09.04.13,0,.02.01.03.02.05.01.03.03.07.04.1,0,.01.01.03.02.04.02.04.04.08.05.12,0,.02.02.04.03.05.02.03.03.06.05.1.01.02.02.04.04.07.01.03.03.05.04.08.01.02.02.04.03.06.02.03.04.07.07.1.01.02.03.04.04.06.01.02.03.04.04.06.02.03.04.06.06.08.02.02.03.04.05.06.02.02.03.04.05.06.02.02.03.04.05.05.03.03.05.06.08.09ZM3.2,8.1l1.36-.73s.05.08.08.11l-1.09,1.09c-.13-.14-.25-.3-.35-.47ZM4.76,8.95l-.02.07-.08.27h0c-.21-.07-.41-.17-.6-.29-.08-.05-.16-.11-.23-.17-.05-.04-.09-.08-.14-.12l1.09-1.09c.1.08.2.15.32.19l-.34,1.13ZM5.43,9.43c-.17,0-.33-.03-.48-.06-.03,0-.06-.01-.09-.02l.04-.12.4-1.35s.09.02.14.02v1.54ZM6.19,9.23l.04.12s-.06.01-.09.02c-.16.03-.32.06-.48.06v-1.54s.09-.01.14-.02l.4,1.35ZM7.52,8.57l-1.09-1.09s.06-.07.08-.11l1.36.73c-.1.17-.22.33-.35.47ZM7.97,7.93l-1.36-.73c.05-.11.08-.24.09-.36h1.54c-.01.39-.11.76-.28,1.1ZM8.25,6.63h-1.54s0-.09-.02-.14l1.48-.44c.05.19.08.38.08.58ZM7.81,5.26c.12.19.22.39.29.6l-1.48.44c-.05-.12-.11-.23-.19-.32l1.09-1.09c.11.11.2.24.29.37ZM7.38,4.75l-1.09,1.09s-.07-.06-.11-.08l.73-1.36c.17.1.33.22.47.35ZM5.64,4.03c.39.01.76.11,1.1.28l-.73,1.36c-.11-.05-.24-.08-.36-.09v-1.54ZM5.53,6.37s0,0,0,0h0s0,0,0,0c0,0,0,0,0,0h0s0,0,0,0c.12,0,.23.06.3.16.04.06.06.13.06.2,0,.11-.05.2-.12.27-.06.06-.15.09-.24.09,0,0,0,0,0,0h0s0,0,0,0c0,0,0,0,0,0h0s0,0,0,0c-.09,0-.18-.04-.24-.09-.07-.07-.12-.16-.12-.27,0-.07.02-.14.06-.2.06-.1.17-.16.3-.16ZM5.43,4.03v1.54c-.13.01-.25.04-.36.09l-.73-1.36c.33-.16.7-.26,1.1-.28ZM4.15,4.4l.73,1.36s-.08.05-.11.08l-1.09-1.09c.14-.13.3-.25.47-.35ZM3.26,5.26c.09-.13.18-.26.29-.37l1.09,1.09c-.08.1-.15.2-.19.32l-1.48-.44c.07-.21.17-.41.29-.6ZM2.91,6.06l1.48.44s-.02.09-.02.14h-1.54c0-.2.04-.39.08-.58ZM4.36,6.83c.01.13.04.25.09.36l-1.36.73c-.16-.33-.26-.7-.28-1.1h1.54Z"/>
      <path class="cls-1" d="M12.74,3.07h-1.56v-.26h-.88v.26h-1.56c-.24,0-.43.19-.43.43s.19.43.43.43h1.56v.16h.24v2.88h-.54c-.11,0-.2.09-.2.2v4.53h-.28c-.21,0-.39.13-.46.32H3.54c-.17,0-.31-.14-.31-.31s.14-.31.31-.31h2.63c.52,0,.95-.43.95-.95v-.2c.12-.07.21-.2.21-.35,0-.23-.18-.41-.41-.41s-.41.18-.41.41c0,.15.09.28.22.35v.19c0,.31-.25.55-.55.55h-2.63c-.39,0-.71.32-.71.71s.32.71.71.71h5.51c.06.21.25.37.48.37h2.29c.28,0,.5-.22.5-.5v-.08c0-.27-.22-.5-.5-.5h-.15v-4.53c0-.11-.09-.2-.2-.2h-.54v-2.88h.24v-.16h1.56c.24,0,.43-.19.43-.43s-.19-.43-.43-.43Z"/>
    </g>
  </g>
</svg>