<?xml version="1.0" encoding="UTF-8"?>
<svg xmlns="http://www.w3.org/2000/svg" viewBox="0 0 15.59 15.59">
  <defs>
    <style>
      .cls-1 {
        fill-rule: evenodd;
      }

      .cls-1, .cls-2 {
        fill: #fff;
      }

      .cls-3 {
        fill: #004712;
      }
    </style>
  </defs>
  <g id="Cirkel">
    <rect class="cls-3" x="0" y="0" width="15.59" height="15.59" rx="7.8" ry="7.8"/>
  </g>
  <g id="ICONS">
    <g id="surface1">
      <path class="cls-1" d="M10.31,4.09c.46-.12.73-.59.61-1.06-.13-.46-.6-.74-1.06-.62s-.73.6-.61,1.06c.13.47.6.74,1.06.62"/>
      <path class="cls-2" d="M10.72,6.91l-1.52-2.98-.06-.11h0c-.26-.43-.81-.58-1.25-.34l-2.15,1.17c-.46.25-.63.82-.38,1.28.1.19.26.33.45.41,0,0,2.05.77,2.05.77l-.5,1.5c-.09.27.05.56.33.65.27.09.56-.05.65-.33l.66-1.98c.09-.26-.05-.55-.31-.65l-1.22-.45,1.33-.72s.08-.05.13-.09l1.12,2.21c.05.09.13.16.22.19.09.03.2.03.29-.02.2-.1.27-.33.17-.51"/>
      <path class="cls-2" d="M12.13,10.1c-.09-.08-.24-.07-.31.03-.23.27-.42.46-.72.48-.3,0-.59-.1-.88-.21,0,0-.31-.12-.78-.3l.51-1.36.92.34.16-.42-7.06-2.65-.15.42.92.35-.51,1.36c-.56-.21-.92-.34-.92-.34l-.15.42s6.86,2.58,6.91,2.6c.31.12.66.25,1.02.24h.03c.52-.02.83-.38,1.05-.64.08-.1.07-.24-.02-.32M5.15,6.94l4.38,1.64-.51,1.36c-1.22-.46-3.11-1.17-4.38-1.64l.51-1.36Z"/>
      <path class="cls-2" d="M13.16,12.44H2.8c-.19,0-.38-.08-.51-.21-.14-.14-.21-.32-.21-.51v-3.4l11.08,4.12Z"/>
    </g>
  </g>
</svg>