<?xml version="1.0" encoding="UTF-8"?>
<svg xmlns="http://www.w3.org/2000/svg" viewBox="0 0 15.59 15.59">
  <defs>
    <style>
      .cls-1 {
        fill: #fff;
      }

      .cls-2 {
        fill: #021e3a;
      }
    </style>
  </defs>
  <g id="Cirkel">
    <rect class="cls-2" x="0" y="0" width="15.59" height="15.59" rx="7.8" ry="7.8"/>
  </g>
  <g id="ICONS">
    <g>
      <path class="cls-1" d="M3.68,7.54c-.21,0-.39.17-.39.39s.17.39.39.39h7.11c.21,0,.39-.17.39-.39s-.17-.39-.39-.39h-5.99v-2.56l5.62-2.07c.2-.07.3-.3.23-.5-.07-.2-.3-.3-.5-.23l-6.61,2.43c-.2.07-.3.3-.23.5.06.16.21.25.36.25.04,0,.09,0,.13-.02l.21-.08v2.27h-.34Z"/>
      <path class="cls-1" d="M9.37,5.68h-1.89c-.07,0-.12.05-.12.12v1.19c0,.07.05.12.12.12h3.31c0-.79-.64-1.43-1.43-1.43Z"/>
      <path class="cls-1" d="M5.54,6.44c0,.37.3.67.67.67s.67-.3.67-.67-.3-.67-.67-.67-.67.3-.67.67Z"/>
      <path class="cls-1" d="M12.11,11.61c-.34,0-.5-.12-.69-.26-.2-.15-.42-.31-.86-.31s-.66.17-.86.31c-.19.14-.35.26-.69.26s-.5-.12-.69-.26c-.2-.15-.42-.31-.86-.31s-.66.17-.86.31c-.19.14-.35.26-.69.26s-.5-.12-.69-.26c-.2-.15-.43-.31-.86-.31s-.66.17-.86.31c-.19.14-.35.26-.69.26-.08,0-.15.07-.15.15s.07.15.15.15c.43,0,.66-.17.86-.31.19-.14.35-.26.69-.26s.5.12.69.26c.2.15.43.31.86.31s.66-.17.86-.31c.19-.14.35-.26.69-.26s.5.12.69.26c.2.15.42.31.86.31s.66-.17.86-.31c.19-.14.35-.26.69-.26s.5.12.69.26c.2.15.42.31.86.31.08,0,.15-.07.15-.15s-.07-.15-.15-.15Z"/>
      <path class="cls-1" d="M13,8.59c-.08,0-.16.03-.21.09v-.29c0-.14-.11-.25-.25-.25s-.25.11-.25.25v.67c-.31.3-.72.5-1.17.5-.05,0-.1-.02-.15-.02-.1-.15-.22-.29-.39-.38-.03-.01-.06-.01-.09,0-.03.01-.05.04-.06.07-.09.32-.38.54-.7.54h-5.04c-.32,0-.61-.22-.7-.54,0-.03-.03-.05-.06-.07-.03-.01-.06-.01-.09,0-.36.18-.58.55-.58.96,0,.14.03.27.08.4.03.08.08.17.13.24.02.03.05.05.07.07.13-.1.28-.2.49-.25.1-.02.21-.04.33-.04.43,0,.66.17.86.31.12.09.24.17.4.22.08.02.18.04.29.04.25,0,.4-.06.54-.15.05-.03.1-.07.15-.1.2-.15.42-.31.86-.31s.66.17.86.31c.09.07.18.13.28.18.11.05.23.08.41.08.16,0,.27-.03.37-.07.12-.05.21-.12.31-.19.2-.15.42-.31.86-.31.11,0,.21.01.3.03.06.01.11.03.16.05.02-.03.03-.07.05-.11.02-.04.03-.08.04-.12.03-.09.04-.18.04-.27.01-.15-.04-.28-.04-.28,0-.03-.03-.05-.04-.08.01,0,.02,0,.03,0,.44,0,.84-.16,1.17-.43v1.25c0,.14.11.25.25.25s.25-.11.25-.25v-1.47c.06.05.13.09.21.09.17,0,.31-.14.31-.31s-.14-.31-.31-.31Z"/>
    </g>
  </g>
</svg>