<?xml version="1.0" encoding="UTF-8"?>
<svg xmlns="http://www.w3.org/2000/svg" viewBox="0 0 15.59 15.59">
  <defs>
    <style>
      .cls-1 {
        fill-rule: evenodd;
      }

      .cls-1, .cls-2 {
        fill: #fff;
      }

      .cls-3 {
        fill: #021e3a;
      }
    </style>
  </defs>
  <g id="Cirkel">
    <rect class="cls-3" x="0" y="0" width="15.59" height="15.59" rx="7.79" ry="7.79"/>
  </g>
  <g id="ICONS">
    <g>
      <path class="cls-1" d="M2.97,6.7c.06-.06.13-.1.21-.08.08.02.13.1.13.17l.02.29c0,.13.06.27.15.36s.23.15.38.15c.34,0,.67-.06.99-.15l5.77-2.06c.31-.11.57-.29.8-.52.17-.13.23-.38.11-.59-.06-.11-.13-.23-.19-.32,0,0,0-.02-.02-.02-.06-.08-.06-.17,0-.25s.15-.1.23-.08c.57.04,1.11.27,1.51.67.25.21.38.53.38.86s-.13.65-.36.86c-.38.38-.86.69-1.36.88l-7.02,2.53c-.59.17-1.2.21-1.81.1-.57-.17-.92-.76-.74-1.36.09-.56.38-1.06.8-1.44Z"/>
      <polygon class="cls-2" points="12.95 8.4 9.91 8.27 10.62 8.86 5.34 10.75 5.51 9.85 3.26 11.86 6.28 11.99 5.59 11.4 10.85 9.53 10.69 10.43 12.95 8.4"/>
    </g>
  </g>
</svg>