<?xml version="1.0" encoding="UTF-8"?>
<svg xmlns="http://www.w3.org/2000/svg" viewBox="0 0 15.59 15.59">
  <defs>
    <style>
      .cls-1 {
        fill: #fff;
        fill-rule: evenodd;
      }

      .cls-2 {
        fill: #004712;
      }
    </style>
  </defs>
  <g id="Cirkel">
    <rect class="cls-2" x="0" y="0" width="15.59" height="15.59" rx="7.8" ry="7.8"/>
  </g>
  <g id="ICONS">
    <path class="cls-1" d="M6.45,7.59h1.23c.32,0,.64,0,.96-.03.2-.01.39-.05.57-.12.35-.13.65-.39.82-.72.25-.46.28-1.01.09-1.5-.12-.31-.34-.58-.63-.75-.3-.17-.65-.27-1-.28l-.84-.03h-1.2v3.43ZM4.14,13.34V2.25h2.77l1.41.02c.26,0,.51.02.77.05.39.04.78.12,1.15.26.86.31,1.56.96,1.92,1.81.32.75.4,1.58.25,2.38-.13.67-.46,1.28-.94,1.76-.32.32-.72.55-1.15.69-.64.19-1.31.29-1.98.28h-1.88s0,3.84,0,3.84h-2.32"/>
  </g>
</svg>