<?xml version="1.0" encoding="UTF-8"?>
<svg xmlns="http://www.w3.org/2000/svg" viewBox="0 0 15.59 15.59">
  <defs>
    <style>
      .cls-1 {
        fill: #fff;
      }

      .cls-2 {
        fill: #071f39;
      }
    </style>
  </defs>
  <g id="Cirkel">
    <rect class="cls-2" x="0" y="0" width="15.59" height="15.59" rx="7.8" ry="7.8"/>
  </g>
  <g id="ICONS">
    <path class="cls-1" d="M12.19,10.53l-.35-.67c.61-.38.45-1.22-.04-1.58-.03-.02-2.25-1.35-2.55-1.53.07-.05.12-.12.12-.21,0-.13-.1-.24-.22-.25,0,0,0,0,0,0h-1.27c-.14,0-.25-.11-.25-.25s.11-.25.25-.25h.73s0,0,0,0c.11-.03.19-.13.19-.25,0-.13-.09-.23-.22-.25h-1.22s-.03,0-.04,0h-.03s-.02,0-.02-.01c-.1-.04-.17-.13-.17-.24,0-.14.11-.25.25-.25h.7c-.2-.98-.04-2.14-.45-2.28-.22-.07-.56.06-.82.41-.23-.1-.46-.15-.69-.15-.94,0-1.37.25-1.56.88-.2.02-.36.19-.36.39,0,.15.09.29.22.35-.18,1.1-.49,3.15-.65,4.19-.06.41,0,.8.15,1.09-.47.14-.76.4-.94.7h-.02c-.14-.07-.3,0-.36.13-.06.14,0,.3.14.36l.86.38c-.04.11-.06.23-.06.36,0,.59.48,1.07,1.07,1.07.53,0,.97-.39,1.05-.9l.39.1c.12.46.53.8,1.03.8.54,0,.98-.4,1.05-.91l.38.1c.11.47.53.81,1.04.81.54,0,.99-.4,1.06-.92l.37.1c.11.47.53.83,1.04.83.59,0,1.07-.48,1.07-1.07,0-.52-.37-.95-.86-1.05ZM4.55,12.07c-.27,0-.49-.22-.49-.49s.22-.49.49-.49.49.22.49.49-.22.49-.49.49ZM7.04,12.07c-.27,0-.49-.22-.49-.49s.22-.49.49-.49.49.22.49.49-.22.49-.49.49ZM6.66,10.04c-.14,0-.25-.11-.25-.25s.11-.25.25-.25h2.72c.14,0,.25.11.25.25s-.11.25-.25.25h-2.72ZM9.51,12.07c-.27,0-.49-.22-.49-.49s.22-.49.49-.49.49.22.49.49-.22.49-.49.49ZM11.99,12.07c-.27,0-.49-.22-.49-.49s.22-.49.49-.49.49.22.49.49-.22.49-.49.49Z"/>
  </g>
</svg>