<?xml version="1.0" encoding="UTF-8"?>
<svg xmlns="http://www.w3.org/2000/svg" viewBox="0 0 15.59 15.59">
  <defs>
    <style>
      .cls-1 {
        fill: #fff;
      }

      .cls-2 {
        fill: #071f39;
      }
    </style>
  </defs>
  <g id="Cirkel">
    <rect class="cls-2" x="0" y="0" width="15.59" height="15.59" rx="7.79" ry="7.79"/>
  </g>
  <g id="ICONS">
    <circle class="cls-1" cx="6.78" cy="1.97" r=".32"/>
    <circle class="cls-1" cx="4.77" cy="3.13" r=".51"/>
    <circle class="cls-1" cx="10.86" cy="13.1" r=".21"/>
    <circle class="cls-1" cx="11.39" cy="10.04" r=".45"/>
    <circle class="cls-1" cx="7.32" cy="9.05" r=".23"/>
    <circle class="cls-1" cx="12.21" cy="4.09" r=".23"/>
    <circle class="cls-1" cx="2.67" cy="11.07" r=".23"/>
    <circle class="cls-1" cx="13.57" cy="9.81" r=".23"/>
    <circle class="cls-1" cx="4" cy="12.73" r=".16"/>
    <circle class="cls-1" cx="10.94" cy="8.51" r=".32"/>
    <path class="cls-1" d="M3.99,9.93l-.11-.37c-.23-.81-.86-1.44-1.67-1.67l-.37-.11c-.14-.04-.14-.24,0-.28l.37-.11c.81-.23,1.44-.86,1.67-1.67l.11-.37c.04-.14.24-.14.28,0l.11.37c.23.81.86,1.44,1.67,1.67l.37.11c.14.04.14.24,0,.28l-.37.11c-.81.23-1.44.86-1.67,1.67l-.11.37c-.04.14-.24.14-.28,0Z"/>
    <path class="cls-1" d="M8.53,5.4l-.07-.24c-.15-.51-.55-.91-1.06-1.06l-.24-.07c-.09-.03-.09-.15,0-.18l.24-.07c.51-.15.91-.55,1.06-1.06l.07-.24c.03-.09.15-.09.18,0l.07.24c.15.51.55.91,1.06,1.06l.24.07c.09.03.09.15,0,.18l-.24.07c-.51.15-.91.55-1.06,1.06l-.07.24c-.03.09-.15.09-.18,0Z"/>
    <path class="cls-1" d="M7.44,13.31l-.04-.15c-.09-.32-.34-.57-.66-.66l-.15-.04c-.06-.02-.06-.1,0-.11l.15-.04c.32-.09.57-.34.66-.66l.04-.15c.02-.06.1-.06.11,0l.04.15c.09.32.34.57.66.66l.15.04c.06.02.06.1,0,.11l-.15.04c-.32.09-.57.34-.66.66l-.04.15c-.02.06-.1.06-.11,0Z"/>
    <path class="cls-1" d="M12.35,7.61l-.04-.13c-.08-.27-.29-.49-.57-.57l-.13-.04s-.05-.08,0-.1l.13-.04c.27-.08.49-.29.57-.57l.04-.13s.08-.05.1,0l.04.13c.08.27.29.49.57.57l.13.04s.05.08,0,.1l-.13.04c-.27.08-.49.29-.57.57l-.04.13s-.08.05-.1,0Z"/>
  </g>
</svg>