<?xml version="1.0" encoding="UTF-8"?>
<svg xmlns="http://www.w3.org/2000/svg" viewBox="0 0 15.59 15.59">
  <defs>
    <style>
      .cls-1 {
        fill-rule: evenodd;
      }

      .cls-1, .cls-2 {
        fill: #fff;
      }

      .cls-3 {
        fill: #004712;
      }
    </style>
  </defs>
  <g id="Cirkel">
    <rect class="cls-3" x="0" y="0" width="15.59" height="15.59" rx="7.8" ry="7.8"/>
  </g>
  <g id="ICONS">
    <g>
      <path class="cls-2" d="M12.85,8.58L6.65,1.94c-.19-.2-.5-.21-.7-.02-.2.19-.21.5-.02.7l2.35,2.52-5.19,7.13c-.2.28-.14.66.14.86.11.08.24.12.36.12.19,0,.38-.09.5-.25l2.63-3.62c1.63,1.75,3.39,3.63,3.39,3.63h0s0,0,0,0c.23.25.62.26.87.03.25-.23.26-.62.03-.87-1.05-1.12-2.23-2.39-3.01-3.22l1.67-2.31,2.43,2.61c.1.1.23.16.36.16.12,0,.24-.04.34-.13.2-.19.21-.5.02-.7Z"/>
      <path class="cls-1" d="M10.86,5.3c.62,0,1.12-.5,1.12-1.12s-.5-1.12-1.12-1.12-1.12.5-1.12,1.12.5,1.12,1.12,1.12Z"/>
    </g>
  </g>
</svg>