<?xml version="1.0" encoding="UTF-8"?>
<svg id="ICONS" xmlns="http://www.w3.org/2000/svg" viewBox="0 0 15.59 15.59">
  <defs>
    <style>
      .cls-1 {
        fill: #fff;
      }
    </style>
  </defs>
  <path class="cls-1" d="M9.77,7.72s.03,0,.05,0c.57,0,.86-.22,1.12-.41.24-.18.46-.34.9-.34s.65.16.9.34c.26.19.55.41,1.12.41.11,0,.19-.09.19-.2s-.09-.2-.19-.2c-.44,0-.65-.16-.9-.34-.26-.19-.55-.41-1.12-.41s-.86.22-1.12.41c-.23.17-.44.31-.84.33l-.11.39Z"/>
  <path class="cls-1" d="M1.74,7.73c.57,0,.86-.22,1.12-.41.24-.18.46-.34.9-.34s.66.16.9.34c.26.19.56.41,1.12.41.47,0,.75-.15.98-.31l.16-.59c-.09.05-.17.11-.25.17-.24.18-.46.34-.9.34s-.66-.16-.9-.34c-.26-.19-.56-.41-1.12-.41s-.86.22-1.12.41c-.24.18-.46.34-.9.34-.11,0-.19.09-.19.2s.09.2.19.2Z"/>
  <path class="cls-1" d="M6.48,8.45c-.18.11-.38.19-.69.19-.44,0-.66-.16-.9-.34-.26-.19-.56-.41-1.12-.41s-.86.22-1.12.41c-.24.18-.46.34-.9.34-.11,0-.19.09-.19.2s.09.2.19.2c.57,0,.86-.22,1.12-.41.24-.18.46-.34.9-.34s.66.16.9.34c.26.19.56.41,1.12.41.23,0,.4-.04.56-.09l.14-.49Z"/>
  <path class="cls-1" d="M13.86,8.65c-.44,0-.65-.16-.9-.34-.26-.19-.55-.41-1.12-.41s-.86.22-1.12.41c-.24.18-.45.34-.9.34-.11,0-.21-.01-.3-.03l-.11.38c.12.03.25.05.4.05.57,0,.86-.22,1.12-.41.24-.18.46-.34.9-.34s.65.16.9.34c.26.19.55.41,1.12.41.11,0,.19-.09.19-.2s-.09-.2-.19-.2Z"/>
  <path class="cls-1" d="M10.46,3.46s.03,0,.04,0c.06,0,.12-.04.14-.11.02-.08-.02-.16-.1-.18l-1.94-.54s-.03,0-.04,0c-.06,0-.12.04-.14.11-.02.08.02.16.1.18h.02s-1.03,3.69-1.03,3.69l-.12.43-.28,1-.15.55-.9,3.22c-.12.44.14.9.58,1.03l.29.08c.07.02.15.03.22.03.37,0,.7-.24.8-.61l.99-3.54.11-.39.22-.77.1-.38,1.06-3.8h.02Z"/>
</svg>