<?xml version="1.0" encoding="UTF-8"?>
<svg id="ICONS" xmlns="http://www.w3.org/2000/svg" viewBox="0 0 15.59 15.59">
  <defs>
    <style>
      .cls-1 {
        fill: #fff;
      }
    </style>
  </defs>
  <path class="cls-1" d="M11.88,8.25h0c.26,0,.47-.21.47-.48-.02-2.87-1.78-3.81-1.86-3.85-.09-.05-.18-.06-.28-.05-.02,0-.03,0-.05,0l-1.75.2h-2.7s0,0,0,0c-.09-.08-.32-.32-.36-.54-.02-.11-.12-.19-.23-.16-.11.02-.18.12-.16.23.02.09.05.18.09.26h-.22c-.32,0-.58.26-.58.58,0,.25.16.45.37.53.06.03.12.04.19.04h3.24l.28,2.37-.1,5.35c0,.31.24.57.56.58,0,0,0,0,.01,0,.31,0,.56-.25.57-.56l.09-4.57.51-.06.87,4.73c.05.27.29.46.56.46.03,0,.07,0,.1,0,.31-.06.51-.35.46-.66l-.9-4.89-.26-2.24c.31.47.59,1.19.6,2.26,0,.26.21.47.47.47Z"/>
  <path class="cls-1" d="M8.65,3.66c.64,0,1.16-.52,1.16-1.16s-.52-1.16-1.16-1.16-1.16.52-1.16,1.16.52,1.16,1.16,1.16Z"/>
  <path class="cls-1" d="M6.85,10.53h-.69v-.4c0-.23-.19-.41-.41-.41h-1.12c-.23,0-.41.19-.41.41v.4h-.69c-.16,0-.29.13-.29.29v2.12c0,.16.13.29.29.29h3.32c.16,0,.29-.13.29-.29v-2.12c0-.16-.13-.29-.29-.29ZM5.78,10.53h-1.19v-.4s.02-.04.04-.04h1.12s.04.02.04.04v.4Z"/>
</svg>