<?xml version="1.0" encoding="UTF-8"?>
<svg id="ICONS" xmlns="http://www.w3.org/2000/svg" viewBox="0 0 15.59 15.59">
  <defs>
    <style>
      .cls-1 {
        fill: #fff;
        fill-rule: evenodd;
      }
    </style>
  </defs>
  <path class="cls-1" d="M7.64,8.2s0,.01-.01.02c0,0,0,0,.01-.02M3.25,8.55h-1.4s-.07.02-.07.04v.45s.03.04.07.04h1.34v1.75h-1.32s-.05.03-.05.07v.78s.02.07.05.07h11.93s.05-.03.05-.07v-.78s-.02-.07-.05-.07h-3.54v-2.86s-.01-.23-.01-.23c1.05.05,2.05.53,2.05.53l.14.03c-.8-1.05-1.1-2.68-1.1-2.68h.47c-.86-.11-1.62-3.63-1.62-3.63l-.09-.16c-.33,2.53-1.63,3.92-1.63,3.92l.4-.13c.17.44-1.11,2.37-1.24,2.56.16-.15,2.08-.47,2.08-.47l.03,3.11H3.9v-1.75h1.34s.07-.02.07-.04v-.45s-.03-.04-.07-.04h-1.99"/>
</svg>