<?xml version="1.0" encoding="UTF-8"?>
<svg id="ICONS" xmlns="http://www.w3.org/2000/svg" viewBox="0 0 15.59 15.59">
  <defs>
    <style>
      .cls-1 {
        fill: #fff;
      }
    </style>
  </defs>
  <path class="cls-1" d="M8.4,5.85l1.9.85v-1.27c0-.15-.13-.28-.28-.28h-4.3c-.15,0-.28.13-.28.28v1.27l1.9-.85c.34-.15.72-.15,1.06,0Z"/>
  <path class="cls-1" d="M9.32,4.09c0-.09-.08-.17-.17-.17h-2.58c-.09,0-.17.08-.17.17v.62h2.91v-.62Z"/>
  <path class="cls-1" d="M8.23,6.25s-.1-.04-.14-.06v3.4c.24.04.4.14.56.26.22.16.48.34.97.34s.74-.18.97-.34c.09-.06.17-.12.26-.16l.21-1.78c.02-.22-.09-.42-.29-.51l-1.17-.53-1.37-.63ZM10.51,8.3c-.04.08-.12.13-.2.13-.03,0-.06,0-.09-.02l-.99-.44c-.11-.05-.16-.18-.11-.29.05-.11.18-.16.29-.11l.99.44c.11.05.16.18.11.29Z"/>
  <path class="cls-1" d="M5.15,9.86c.22.16.48.34.97.34s.75-.18.97-.34c.17-.12.32-.22.56-.26v-3.38s-.09.02-.13.04l-1.4.62-1.15.51c-.2.09-.32.29-.29.51l.22,1.8c.09.05.17.1.26.16ZM5.32,8.01l.99-.44c.11-.05.24,0,.29.11.05.11,0,.24-.11.29l-.99.44s-.06.02-.09.02c-.08,0-.16-.05-.2-.13-.05-.11,0-.24.11-.29Z"/>
  <path class="cls-1" d="M11.3,11.52c-.48,0-.74.18-.96.34-.21.15-.39.28-.76.28s-.56-.13-.76-.28c-.22-.16-.47-.34-.96-.34s-.73.18-.96.34c-.21.15-.39.28-.76.28s-.55-.13-.76-.28c-.22-.16-.47-.34-.95-.34-.09,0-.17.07-.17.17s.07.17.17.17c.37,0,.55.13.76.28.22.16.47.34.96.34s.73-.18.96-.34c.21-.15.39-.28.76-.28s.56.13.76.28c.22.16.47.34.96.34s.74-.18.96-.34c.21-.15.39-.28.76-.28.09,0,.17-.07.17-.17s-.07-.17-.17-.17Z"/>
  <path class="cls-1" d="M13.11,11.03c-.38,0-.57-.13-.78-.28-.22-.16-.48-.34-.97-.34s-.75.18-.97.34c-.21.15-.39.28-.78.28s-.57-.13-.78-.28c-.22-.16-.48-.34-.97-.34s-.75.18-.97.34c-.21.15-.39.28-.78.28s-.57-.13-.78-.28c-.22-.16-.48-.34-.97-.34s-.75.18-.97.34c-.21.15-.39.28-.78.28-.09,0-.17.07-.17.17s.07.17.17.17c.49,0,.75-.18.97-.34.21-.15.4-.28.78-.28s.57.13.78.28c.22.16.48.34.97.34s.75-.18.97-.34c.21-.15.39-.28.78-.28s.57.13.78.28c.22.16.48.34.97.34s.74-.18.97-.34c.21-.15.39-.28.78-.28s.57.13.78.28c.22.16.48.34.97.34.09,0,.17-.07.17-.17s-.07-.17-.17-.17Z"/>
  <path class="cls-1" d="M8.12,2.76c0-.14-.11-.25-.25-.25s-.25.11-.25.25v.73h.5v-.73Z"/>
</svg>
