<?xml version="1.0" encoding="UTF-8"?>
<svg id="ICONS" xmlns="http://www.w3.org/2000/svg" viewBox="0 0 15.59 15.59">
  <defs>
    <style>
      .cls-1 {
        fill-rule: evenodd;
      }

      .cls-1, .cls-2 {
        fill: #fff;
      }
    </style>
  </defs>
  <path class="cls-1" d="M12.14,5.7l-.28.05c.19.52.47,1.03.8,1.5-.14-.05-.28-.14-.42-.19-.05,0-.09.05-.09.09.28.61.61,1.18.99,1.74-.47-.14-.94-.28-1.46-.33-.05,0-.09.05-.09.09v3.1h-.38v-3.14s-.09-.05-.14-.05c-.47.05-.99.19-1.41.38.42-.56.75-1.18.99-1.79-.05-.05-.09-.09-.19-.05l-.33.14c.33-.47.56-.94.75-1.5,0-.05-.05-.09-.09-.09l-.24.05c.38-.47.71-.99.89-1.55.09.61.38,1.13.71,1.55Z"/>
  <path class="cls-1" d="M6.18,3.68l-.44.07c.29.81.74,1.62,1.25,2.35-.22-.07-.44-.22-.66-.29-.07,0-.15.07-.15.15.44.96.96,1.84,1.54,2.72-.74-.22-1.47-.44-2.28-.51-.07,0-.15.07-.15.15v5.78h-.59v-5.86c-.07-.07-.15-.07-.22-.07-.74.07-1.54.29-2.21.59.66-.88,1.18-1.84,1.54-2.79-.07-.07-.15-.15-.29-.07l-.51.22c.51-.74.88-1.47,1.18-2.35,0-.07-.07-.15-.15-.15l-.37.07c.59-.74,1.1-1.54,1.4-2.43.15.96.59,1.76,1.1,2.43Z"/>
  <path class="cls-2" d="M11.07,9.48s-.64,2.48-2.34,2.78c-2.14.38-3.21-2.13-3.21-2.13,0,0,1.67,1.01,3.02.74,1.63-.32,2.53-1.39,2.53-1.39Z"/>
</svg>