<?xml version="1.0" encoding="UTF-8"?>
<svg id="ICONS" xmlns="http://www.w3.org/2000/svg" viewBox="0 0 15.59 15.59">
  <defs>
    <style>
      .cls-1 {
        fill: #fff;
      }
    </style>
  </defs>
  <path class="cls-1" d="M6.52,11.78c-.37.37-.86.58-1.39.58s-1.02-.2-1.39-.58c-.37-.37-.57-.86-.57-1.39s.2-1.02.57-1.39l3.62-3.62-.42-.42-3.62,3.62c-.48.48-.75,1.13-.75,1.81s.27,1.33.75,1.81,1.13.75,1.81.75,1.33-.27,1.81-.75l.42-.42-.42-.42-.42.42Z"/>
  <path class="cls-1" d="M8.91,3.83c.37-.37.86-.58,1.39-.58s1.02.2,1.39.58c.37.37.57.86.57,1.39s-.2,1.02-.57,1.39l-3.63,3.63.42.42,3.63-3.63c.48-.48.75-1.13.75-1.81s-.27-1.33-.75-1.81c-1-1-2.63-1-3.63,0l-.42.42.42.42.42-.42Z"/>
  <path class="cls-1" d="M11.72,8.18l-.42.42.39.39c.37.37.57.86.57,1.39s-.2,1.02-.57,1.39c-.37.37-.86.58-1.39.58s-1.02-.2-1.39-.58l-3.64-3.64-.42.42,3.64,3.64c.48.48,1.13.75,1.81.75s1.33-.27,1.81-.75.75-1.13.75-1.81-.27-1.33-.75-1.81l-.39-.39Z"/>
  <path class="cls-1" d="M3.74,7.45l.42-.42-.42-.42c-.37-.37-.57-.86-.57-1.39s.2-1.02.57-1.39c.37-.37.86-.58,1.39-.58s1.02.2,1.39.58l3.6,3.6.42-.42-3.6-3.6c-.48-.48-1.13-.75-1.81-.75s-1.33.27-1.81.75c-1,1-1,2.63,0,3.63l.42.42Z"/>
</svg>