<?xml version="1.0" encoding="UTF-8"?>
<svg id="ICONS" xmlns="http://www.w3.org/2000/svg" viewBox="0 0 15.59 15.59">
  <defs>
    <style>
      .cls-1 {
        fill: #fff;
        fill-rule: evenodd;
      }
    </style>
  </defs>
  <path class="cls-1" d="M10.31,8.48h-.79c-.19-.42-.38-.83-.57-1.25-.04-.09-.08-.19-.13-.28-.04-.09-.16-.14-.25-.14h-4.39c-.09,0-.21.05-.25.14-.22.51-.44,1.02-.66,1.53h-.88c-.07,0-.12.05-.12.12v.32c0,.07.05.12.12.12h.63c-.02.05-.04.1-.07.15-.02.04-.03.08-.03.13h-.01v2.75c0,.14.11.25.25.25h.7c.14,0,.25-.11.25-.25v-1.01h4.56v1.01c0,.14.11.25.25.25h.7c.14,0,.25-.11.25-.25v-2.75h0s-.01-.08-.03-.13c-.02-.05-.05-.1-.07-.15h.54c.07,0,.12-.05.12-.12v-.32c0-.07-.05-.12-.12-.12ZM4.31,7.53s.04-.09.06-.14h4.02l.7,1.53H3.71c.2-.46.4-.93.6-1.39ZM4.83,9.77c0,.15-.12.27-.27.27h-.67c-.2,0-.36-.16-.36-.36,0-.11.09-.2.2-.2h.89c.11,0,.2.09.2.2v.09ZM8.98,10.04h-.67c-.15,0-.27-.12-.27-.27v-.09c0-.11.09-.2.2-.2h.89c.11,0,.2.09.2.2,0,.2-.16.36-.36.36Z"/>
  <path class="cls-1" d="M11.67,3.65h-.13s-.19,0-.19,0v.54h.19c.05,0,.1,0,.15,0,.03,0,.06,0,.09-.02.06-.02.1-.06.13-.11.04-.07.04-.16.01-.24-.02-.05-.05-.09-.1-.12-.05-.03-.1-.04-.16-.04Z"/>
  <path class="cls-1" d="M12.3,2.84h-1.54c-.24,0-.43.19-.43.43v1.9c0,.24.19.43.43.43h.59v6.78h.35v-6.78h.59c.24,0,.43-.19.43-.43v-1.9c0-.24-.19-.43-.43-.43ZM12.14,4.33c-.05.05-.11.09-.18.11-.1.03-.21.05-.31.04h-.3s0,.61,0,.61h-.37s0-1.75,0-1.75h.66s.08,0,.12.01c.06,0,.12.02.18.04.14.05.25.15.3.29.05.12.06.25.04.38-.02.11-.07.2-.15.28Z"/>
</svg>