<?xml version="1.0" encoding="UTF-8"?>
<svg id="ICONS" xmlns="http://www.w3.org/2000/svg" viewBox="0 0 15.59 15.59">
  <defs>
    <style>
      .cls-1 {
        fill: #fff;
      }
    </style>
  </defs>
  <path class="cls-1" d="M13.64,9.11c-.76-.04-2.8-.07-4.16-.09l1.7-1.31c.2.12.46.12.66-.03l.64-.5c.25-.2.3-.56.1-.81-.2-.25-.56-.3-.81-.1l-.64.5c-.21.16-.27.44-.17.68l-2.03,1.57c-.06,0-.1,0-.16,0l-.22-1.78,2.68-1.78h.01c.14-.08.22-.22.22-.38,0-.3-.32-.52-.61-.37l-3.34,1.49-3.26-.22.05-.75c-.31,0-.59-.13-.81-.32l-.39,1.37c-.05.16-.05.28,0,.41.06.13.22.28.35.36l2.21,1.12.47.9-4.3.08c-.19.01-.26.21-.12.33.66.56,2.05,1.64,2.95,1.64h1.53l-.91.71c-.2-.13-.47-.13-.67.02l-.95.74c-.25.2-.3.56-.1.81.2.25.56.3.81.1l.95-.74c.21-.16.27-.43.18-.66l1.27-.98h4c.9,0,2.31-1.1,2.98-1.68.13-.11.05-.31-.13-.32Z"/>
  <path class="cls-1" d="M6.6,5.68c.51,0,.92-.41.92-.92s-.41-.91-.92-.91-.91.41-.91.91.41.92.91.92Z"/>
  <path class="cls-1" d="M4.41,4.86c.51,0,.92-.41.92-.92s-.41-.91-.92-.91-.91.41-.91.91.41.92.91.92Z"/>
</svg>