<?xml version="1.0" encoding="UTF-8"?>
<svg id="ICONS" xmlns="http://www.w3.org/2000/svg" viewBox="0 0 15.59 15.59">
  <defs>
    <style>
      .cls-1 {
        fill: #fff;
      }
    </style>
  </defs>
  <path class="cls-1" d="M7.02,4.65c-.1.11-.92.95-1.02,1.05-.28.3-.55.57-.88.87,0,0-.02,0-.02.02.22.12.64.41.95.6.19.12.53.33.98.83.44.49.6,1.09.63,1.29.02.13.04.61-.02.55-.21-.21-.37-.46-.54-.68-.3-.4-.55-.6-.8-.78-.44-.31-1.29-.78-1.67-1-.89-.53-.96-.58-1.31-.79-.02,0,0-.02.02-.03q.51-.46.99-.86c.41-.33,1.5-1.19,1.77-1.39.23-.17.3-.25.65-.58.14-.14.61-.72.79-1.41.13-.47.13-.46.2-.72.03-.08.13-.49.14-.59.05-.25.19-.35.19-.3v.71c0,.21,0,.69-.03.95,0,0-.02.14-.02.15-.03.28-.08.62-.11.7-.13.39-.17.48-.31.7-.14.19-.44.58-.58.73"/>
  <path class="cls-1" d="M8.55,10.57c.1-.1.92-.94,1.02-1.04.28-.3.55-.57.88-.87,0,0,.02,0,.02-.02-.22-.12-.64-.41-.95-.6-.19-.12-.53-.33-.98-.83-.44-.49-.6-1.09-.63-1.29-.02-.13-.04-.61.02-.55.21.21.37.46.54.68.3.4.55.6.8.78.44.31,1.29.78,1.67,1,.9.52.98.57,1.33.79.02,0,0,.02-.02.03q-.51.46-.99.86c-.41.33-1.5,1.19-1.77,1.39-.23.17-.3.25-.65.58-.14.14-.61.72-.79,1.41-.13.47-.13.46-.2.72-.03.08-.13.49-.14.59-.05.25-.19.35-.19.3v-.71c0-.21,0-.69.03-.95,0,0,.02-.14.02-.15.03-.28.08-.62.11-.7.13-.39.17-.48.31-.7.12-.19.42-.57.57-.73"/>
</svg>