<?xml version="1.0" encoding="UTF-8"?>
<svg id="ICONS" xmlns="http://www.w3.org/2000/svg" viewBox="0 0 15.59 15.59">
  <defs>
    <style>
      .cls-1 {
        fill: #fff;
        fill-rule: evenodd;
      }
    </style>
  </defs>
  <path class="cls-1" d="M4.18,6.73c-.02.37-.33.65-.69.63-.36-.02-.65-.33-.63-.69.02-.37.33-.65.69-.63.36.02.65.33.63.69ZM8.59,3.39l-.11.02c.08.22.19.43.32.63-.06-.03-.12-.05-.18-.07-.02,0-.04.02-.05.04.12.25.25.48.4.71-.19-.07-.4-.11-.6-.13-.02,0-.04.02-.04.04v.57s-.14,0-.14,0v-.58s-.04-.02-.06-.03c-.2.02-.4.07-.59.15.17-.23.31-.48.4-.75-.02-.02-.04-.03-.07-.02l-.14.07c.13-.19.23-.4.3-.61,0-.02-.03-.04-.05-.04l-.09.02c.16-.19.29-.4.37-.63.07.22.18.42.32.6M10.78,8.53c-.02.37-.33.65-.69.63-.36-.02-.65-.33-.63-.69.02-.36.33-.65.69-.63.36.02.65.33.63.69M4.19,9.99l5.67,1.14.33-1.37c.05-.2.22-.35.43-.38.21-.03.41.07.51.25l.91,1.79c.06.18.02.39-.12.53-.14.14-.34.19-.53.12l-.71-.15s-.04,0-.05.01c-.01.01-.02.03-.01.05l.45.92c.07.16,0,.35-.15.42-.16.08-.35.02-.43-.13l-.68-1.4-2.73-.6c.47.23.71.77.57,1.28-.14.51-.62.84-1.14.8-.57-.07-.99-.55-.97-1.12.01-.57.46-1.03,1.03-1.07l-2.53-.54-.98,1.09c-.11.12-.3.14-.42.04-.13-.1-.16-.28-.07-.42l.67-.74s.02-.05.01-.08c0-.01-.02-.03-.04-.03l-.87-.2c-.12-.03-.22-.1-.28-.2-.06-.1-.08-.22-.05-.34l.33-1.72c.04-.2.2-.35.4-.38.2-.03.4.08.49.27l.97,2.18M12.56,3.22l-.23-.13s-.06-.02-.09-.03c-.02,0-.03,0-.04.02-.01.03,0,.06,0,.08.23.44.47.87.73,1.29-.13-.06-.26-.11-.39-.16-.02,0-.05-.01-.07-.02-.02,0-.04.03-.04.06.26.53.56,1.04.9,1.53l-1.32-.24s-.07-.01-.1,0c-.02,0-.03.03-.03.04v1.18s-.34.02-.34.02v-1.19s0-.03-.02-.05c-.01,0-.03,0-.04,0l-.99.16s-.06,0-.08.02c-.01,0-.03.02-.04.03,0,.01-.01.03-.01.04v.5s-.24,0-.24,0v-.88s-.03-.06-.06-.06c-.31.06-.61.13-.92.2.23-.37.44-.77.6-1.18-.01-.02-.03-.03-.05-.03-.04.02-.09.04-.13.06l-.14.09c.19-.32.35-.66.47-1.01,0-.02-.02-.03-.04-.04-.03.01-.06.03-.09.05l-.08.05c.21-.33.4-.66.58-1.01.14.34.34.66.58.94l-.14-.04h-.05s-.03.04-.03.04l.05.13s.02.04.04.05l.14.25c.17-.28.31-.58.42-.88,0-.02-.02-.04-.04-.06-.11.06-.22.11-.34.16.31-.44.59-.9.85-1.37.24.48.52.93.85,1.35"/>
</svg>