<?xml version="1.0" encoding="UTF-8"?>
<svg id="ICONS" xmlns="http://www.w3.org/2000/svg" viewBox="0 0 15.59 15.59">
  <defs>
    <style>
      .cls-1 {
        fill: #fff;
        fill-rule: evenodd;
      }
    </style>
  </defs>
  <path class="cls-1" d="M9.5,6.13l-.11.02c.08.24.2.46.34.67-.06-.03-.13-.05-.19-.07-.02,0-.04.02-.05.05.12.26.27.52.43.76-.21-.07-.42-.12-.64-.14-.02,0-.04.02-.05.04v.61s-.15,0-.15,0v-.62s-.05-.02-.07-.03c-.22.02-.43.08-.63.16.18-.24.33-.51.43-.79-.02-.02-.05-.03-.07-.02l-.15.07c.14-.2.25-.42.32-.65,0-.02-.03-.04-.05-.04l-.1.02c.17-.2.31-.43.4-.67.08.23.19.45.34.64M11.72,10.83H2.3c-.4-.08-.71-.4-.79-.8l.03-3.58s.04,0,.06-.01l.07-.02.14-.04s.03-.01.05-.02c.01,0,.03,0,.04-.01.04-.02.08-.03.12-.04l.17-.05s.1-.03.15-.04c.03-.01.07-.02.1-.03.09-.03.19-.05.28-.06.05,0,.1-.01.15-.02.03,0,.06,0,.09,0,.09,0,.17,0,.26.01l.26.02h.14c.12.01.23.01.35,0h.07s.13-.03.13-.03l.12-.02s.09,0,.13,0h.16c.05,0,.11,0,.16,0h.14s.09.02.09.02c.03,0,.06,0,.1,0l.17.02.26.02.19.02c.05,0,.1,0,.15,0,.08,0,.16.03.23.05.11.04.21.1.3.17.02.01.04.03.06.05l.08.06.13.11.24.18.12.08.15.08s.05.02.07.03c.02.01.05.02.08.03l.17.08.05.03s.09.05.13.08c.04.02.08.05.12.07.03.02.06.03.09.05l.05.03.19.13s.07.04.1.07l.13.1s.07.05.11.08c.08.06.16.13.24.2.04.03.07.07.1.11.04.04.07.09.09.14.03.06.07.12.1.18.01.03.03.06.04.09l.19.38s.02.03.02.05c0,.01.02.03.02.05l.06.12.04.06.05.09c.03.06.06.11.1.16.05.07.1.14.17.2l.16.13.15.11.32.21s.06.04.1.06l.18.11s.03.02.04.02c.04.02.08.05.12.07l.15.09s.09.05.13.08l.18.1c.07.04.13.08.2.11.03.02.05.03.08.05.02.01.04.02.06.04.07.04.13.08.19.12M13.72,5.95l-.25-.13s-.06-.02-.09-.03c-.02,0-.03,0-.04.02-.01.03,0,.06,0,.09.24.47.5.92.77,1.37-.14-.06-.28-.12-.42-.17-.03,0-.05-.01-.08-.02-.03,0-.04.04-.04.06.28.56.6,1.11.95,1.62l-1.4-.25s-.07-.01-.11,0c-.02,0-.03.03-.03.05l.02,1.25-.38.02v-1.26s0-.04-.02-.05c-.01,0-.03,0-.05,0l-1.05.18s-.06,0-.09.02c-.02,0-.03.02-.04.03,0,.01-.01.03-.01.05v.53s-.26,0-.26,0v-.93s-.03-.06-.06-.06c-.33.07-.65.14-.98.22.25-.4.46-.82.64-1.25-.02-.02-.04-.03-.06-.03-.05.02-.09.04-.14.07l-.15.09c.2-.34.37-.7.5-1.08,0-.02-.02-.04-.04-.05-.03.02-.07.03-.1.05l-.08.06c.23-.35.43-.71.61-1.08.15.36.36.7.62,1l-.15-.04h-.05s-.03.04-.03.04l.05.14s.02.04.04.06l.15.27c.18-.3.32-.61.44-.94,0-.03-.02-.05-.04-.06-.12.06-.24.12-.36.17.33-.47.63-.96.9-1.46.26.51.56.99.9,1.44"/>
</svg>