<?xml version="1.0" encoding="UTF-8"?>
<svg id="ICONS" xmlns="http://www.w3.org/2000/svg" viewBox="0 0 15.59 15.59">
  <defs>
    <style>
      .cls-1 {
        fill: #fff;
        fill-rule: evenodd;
      }
    </style>
  </defs>
  <path class="cls-1" d="M11.45,8.15c-.07-.02-.14-.02-.2.02-.06.03-.11.09-.13.16-.05.14.03.29.17.34,1.14.37,1.82.91,1.82,1.43,0,1.02-2.45,1.91-5.24,1.91s-5.25-.89-5.25-1.91c0-.15-.12-.27-.27-.27s-.27.12-.27.27c0,1.39,2.48,2.45,5.78,2.45s5.78-1.05,5.78-2.45c0-.78-.77-1.47-2.18-1.93Z"/>
  <path class="cls-1" d="M4.3,7.53l-.05-.75c0-.21.16-.39.37-.42h.03s0,1.45,0,1.45l-.38.63s-.04.08-.05.13c0,.02,0,.04-.01.07l-.21,1.04c-.01.2.07.4.22.53.15.13.36.18.56.13l-.26-.57.21-1.07.81-.8-.11.44c-.04.18.03.37.18.48l.72.6c-.08.14-.08.31-.01.45.07.14.21.24.37.26l.16-.71s0-.03,0-.04c0-.03,0-.05,0-.08-.01-.07-.05-.13-.1-.18l-.03-.03-.72-.6.27-.83.13.02s.09,0,.14.01c.04,0,.08.01.13.02l.13.03.16.04s.05.01.07.02c.02,0,.04.01.06.02.01,0,.02,0,.04,0h.07s.03.02.04.02c.02,0,.04,0,.05,0,.03,0,.07.01.1.02.03,0,.05,0,.08.01.02,0,.05,0,.07,0,.05,0,.1,0,.14,0,.05,0,.1,0,.15,0,.04,0,.09,0,.13,0h.15s-.54,1.72-.54,1.72c-.07.2-.03.42.12.57.14.15.36.21.56.14l-.21-.5.67-1.83c.4-.02.79.02,1.18.12l.03.81c-.13.06-.22.18-.26.32-.04.14-.01.29.07.41l.67-.48v-1.21c-.02-.18-.15-.34-.32-.39l-.73-.09c.28-.37.39-.84.33-1.3l.34-.97.39.45c-.03.19.1.37.28.41.19.04.37-.08.42-.26l-.33-1.81.21-.31c-.19-.01-.38.07-.5.23-.8-.13-1.59.29-1.94,1.03l-.78-.43.11-.62c.03-.24-.14-.46-.38-.49-.24-.03-.45.14-.48.38l-.4,1.87-.72-.02c-.44,0-.86.14-1.2.41-.46-.03-.85.32-.88.78v1.43c.28-.12.48-.4.48-.72Z"/>
  <path class="cls-1" d="M7.71,3.28c.25-.03.43-.26.4-.52-.03-.26-.26-.44-.52-.41-.25.03-.43.26-.4.52.03.26.26.44.52.41Z"/>
</svg>