<?xml version="1.0" encoding="UTF-8"?>
<svg id="ICONS" xmlns="http://www.w3.org/2000/svg" viewBox="0 0 15.59 15.59">
  <defs>
    <style>
      .cls-1 {
        fill: #fff;
      }
    </style>
  </defs>
  <path class="cls-1" d="M11.47,7.69c-.65.07-2.55,1.41-3.27,2.63l-.05-2.03c-.12.01-.24.02-.36.02s-.24,0-.36-.02l-.05,2.03c-.71-1.22-2.61-2.56-3.27-2.63.03.82,1.89,3.72,3.24,3.79v.22c0,.44.88.44.88,0v-.22c1.34-.07,3.2-2.97,3.23-3.79Z"/>
  <path class="cls-1" d="M7.8,7.98c1.53,0,2.79-1.36,2.85-3.06-.54-.08-1.23.25-1.57.73-.07-.82-.48-1.55-1.29-2.07-.81.53-1.21,1.25-1.29,2.07-.34-.47-1.03-.8-1.57-.73.07,1.7,1.32,3.06,2.85,3.06Z"/>
</svg>