<?xml version="1.0" encoding="UTF-8"?>
<svg id="ICONS" xmlns="http://www.w3.org/2000/svg" viewBox="0 0 15.59 15.59">
  <defs>
    <style>
      .cls-1 {
        fill: #fff;
      }
    </style>
  </defs>
  <path class="cls-1" d="M5.97,8.36h3.74c.13,0,.22-.11.21-.23-.1-.85-.61-3.9-2.78-5.61-.12-.1-.31-.02-.34.13l-1.03,5.46c-.02.13.07.25.21.25Z"/>
  <path class="cls-1" d="M12.61,11.76c-.35,0-.51-.12-.71-.26-.2-.15-.43-.31-.88-.31s-.68.17-.88.31c-.19.14-.36.26-.71.26s-.51-.12-.71-.26c-.2-.15-.43-.31-.88-.31s-.68.17-.88.31c-.19.14-.36.26-.71.26s-.52-.12-.71-.26c-.2-.15-.44-.31-.88-.31s-.68.17-.88.31c-.19.14-.36.26-.71.26-.08,0-.15.07-.15.15s.07.15.15.15c.45,0,.68-.17.88-.31.19-.14.36-.26.71-.26s.52.12.71.26c.2.15.44.31.88.31s.68-.17.88-.31c.19-.14.36-.26.71-.26s.51.12.71.26c.2.15.43.31.88.31s.68-.17.88-.31c.19-.14.36-.26.71-.26s.51.12.71.26c.2.15.43.31.88.31.08,0,.15-.07.15-.15s-.07-.15-.15-.15Z"/>
  <path class="cls-1" d="M3.68,10.51l.2.23s.06-.04.08-.06c.12-.08.23-.16.37-.2.09-.03.2-.05.34-.05.35,0,.52.12.71.26.16.11.33.23.6.28.08.02.18.03.28.03.45,0,.68-.17.88-.31.19-.14.36-.26.71-.26s.51.12.71.26c.04.03.07.05.11.08.18.12.4.24.77.24,0,0,0,0,.02,0,.43,0,.66-.17.86-.31.19-.14.36-.26.71-.26.16,0,.28.03.39.07.09.03.16.08.23.13.03.02.06.04.09.06.01,0,.03.02.04.03l.21-.22.66-.68c.2-.3-.03-.68-.41-.68H3.46c-.36,0-.6.36-.42.66l.64.72Z"/>
</svg>