<?xml version="1.0" encoding="UTF-8"?>
<svg xmlns="http://www.w3.org/2000/svg" viewBox="0 0 15.59 15.59">
  <defs>
    <style>
      .cls-1 {
        fill: #fff;
      }

      .cls-2 {
        fill: #071f39;
      }
    </style>
  </defs>
  <g id="Firkant">
    <rect class="cls-2" x="0" y="0" width="15.59" height="15.59"/>
  </g>
  <g id="Cirkel">
    <rect class="cls-2" x="0" y="0" width="15.59" height="15.59" rx="7.8" ry="7.8"/>
  </g>
  <g id="ICONS">
    <g>
      <path class="cls-1" d="M10.96,12.21c-.44,0-.67.17-.87.31-.19.14-.35.25-.69.25s-.5-.12-.69-.25c-.2-.15-.43-.31-.87-.31s-.67.17-.87.31c-.19.14-.35.25-.69.25s-.5-.12-.69-.25c-.2-.15-.43-.31-.87-.31-.08,0-.15.07-.15.15s.07.15.15.15c.34,0,.5.12.69.25.2.15.43.31.87.31s.67-.17.87-.31c.19-.14.35-.25.69-.25s.5.12.69.25c.2.15.43.31.87.31s.67-.17.87-.31c.19-.14.35-.25.69-.25.08,0,.15-.07.15-.15s-.07-.15-.15-.15Z"/>
      <path class="cls-1" d="M12.61,11.77c-.35,0-.51-.12-.71-.26-.2-.15-.43-.31-.88-.31s-.68.17-.88.31c-.19.14-.36.26-.71.26s-.51-.12-.71-.26c-.2-.15-.43-.31-.88-.31s-.68.17-.88.31c-.19.14-.36.26-.71.26s-.52-.12-.71-.26c-.2-.15-.44-.31-.88-.31s-.68.17-.88.31c-.19.14-.36.26-.71.26-.08,0-.15.07-.15.15s.07.15.15.15c.45,0,.68-.17.88-.31.19-.14.36-.26.71-.26s.52.12.71.26c.2.15.44.31.88.31s.68-.17.88-.31c.19-.14.36-.26.71-.26s.51.12.71.26c.2.15.43.31.88.31s.68-.17.88-.31c.19-.14.36-.26.71-.26s.51.12.71.26c.2.15.43.31.88.31.08,0,.15-.07.15-.15s-.07-.15-.15-.15Z"/>
      <path class="cls-1" d="M7.46,9.74c.9,0,1.62-.73,1.62-1.62v-3.51c.39-.14.66-.5.66-.94,0-.55-.45-1-1.01-1s-1,.45-1,1c0,.43.28.8.66.94v3.51c0,.52-.42.94-.94.94s-.94-.42-.94-.94v-.19c.09.06.21.08.32.03.17-.07.26-.27.18-.45l-.53-1.28c-.06-.15-.22-.23-.38-.2-.16.03-.27.17-.27.33v1.75c0,.9.73,1.62,1.62,1.62ZM8.75,3.35c.18,0,.32.15.32.32s-.15.32-.32.32-.32-.15-.32-.32.15-.32.32-.32Z"/>
    </g>
  </g>
</svg>