<?xml version="1.0" encoding="UTF-8"?>
<svg xmlns="http://www.w3.org/2000/svg" viewBox="0 0 15.59 15.59">
  <defs>
    <style>
      .cls-1 {
        fill: #fff;
      }

      .cls-2 {
        fill: #071f39;
      }
    </style>
  </defs>
  <g id="Firkant">
    <rect class="cls-2" x="0" y="0" width="15.59" height="15.59"/>
  </g>
  <g id="Cirkel">
    <rect class="cls-2" x="0" y="0" width="15.59" height="15.59" rx="7.8" ry="7.8"/>
  </g>
  <g id="ICONS">
    <g>
      <path class="cls-1" d="M7.06,11.93c-.08,0-.15.07-.15.15s.07.15.15.15h.5c.08,0,.15-.07.15-.15s-.07-.15-.15-.15h-.5Z"/>
      <path class="cls-1" d="M8.06,11.93c-.08,0-.15.07-.15.15s.07.15.15.15h.5c.08,0,.15-.07.15-.15s-.07-.15-.15-.15h-.5Z"/>
      <path class="cls-1" d="M6.06,11.93c-.08,0-.15.07-.15.15s.07.15.15.15h.5c.08,0,.15-.07.15-.15s-.07-.15-.15-.15h-.5Z"/>
      <path class="cls-1" d="M10.06,11.93c-.08,0-.15.07-.15.15s.07.15.15.15h.5c.08,0,.15-.07.15-.15s-.07-.15-.15-.15h-.5Z"/>
      <path class="cls-1" d="M9.06,11.93c-.08,0-.15.07-.15.15s.07.15.15.15h.5c.08,0,.15-.07.15-.15s-.07-.15-.15-.15h-.5Z"/>
      <path class="cls-1" d="M3.71,12.08c0-.08-.07-.15-.15-.15h-.5c-.08,0-.15.07-.15.15s.07.15.15.15h.5c.08,0,.15-.07.15-.15Z"/>
      <path class="cls-1" d="M5.06,11.93c-.08,0-.15.07-.15.15s.07.15.15.15h.5c.08,0,.15-.07.15-.15s-.07-.15-.15-.15h-.5Z"/>
      <path class="cls-1" d="M12.56,11.93h-.5c-.08,0-.15.07-.15.15s.07.15.15.15h.5c.08,0,.15-.07.15-.15s-.07-.15-.15-.15Z"/>
      <path class="cls-1" d="M11.06,12.23h.5c.08,0,.15-.07.15-.15s-.07-.15-.15-.15h-.5c-.08,0-.15.07-.15.15s.07.15.15.15Z"/>
      <path class="cls-1" d="M4.06,11.93c-.08,0-.15.07-.15.15s.07.15.15.15h.5c.08,0,.15-.07.15-.15s-.07-.15-.15-.15h-.5Z"/>
      <path class="cls-1" d="M5.54,7.35l.38-.61c.04-.07.12-.12.21-.12h0c.08,0,.16.04.21.11l.61.87.62-1.53c.04-.1.14-.18.24-.16.1,0,.2.07.23.17l.73,2.03.37-1.24c.03-.09.1-.15.18-.17.09-.02.18,0,.24.07l.53.58h1.33c.41-.74.64-1.58.28-2.44-.28-.67-.9-1.19-1.61-1.28-1.03-.13-1.92.51-2.2,1.43-.03.09-.14.09-.16,0-.27-.91-1.17-1.56-2.2-1.43-.72.09-1.33.61-1.61,1.28-.36.86-.13,1.7.28,2.44h1.35Z"/>
      <path class="cls-1" d="M9.97,7.85c-.07,0-.14-.03-.18-.08l-.31-.34-.47,1.55c-.03.1-.12.18-.23.18h0c-.11,0-.2-.07-.24-.17l-.76-2.13-.54,1.35c-.03.08-.11.14-.2.15-.1.01-.18-.03-.23-.11l-.65-.94-.26.41c-.05.07-.13.12-.21.12h-1.18c.23.33.47.64.7.91.34.41.71.8,1.1,1.16.2.18.41.35.62.52.18.14.42.38.65.43.22.04.47.05.67-.08.22-.14.42-.31.62-.47.42-.34.81-.7,1.17-1.1.13-.15.26-.29.39-.45.22-.27.47-.58.7-.91h-1.13Z"/>
    </g>
  </g>
</svg>