<?xml version="1.0" encoding="UTF-8"?>
<svg xmlns="http://www.w3.org/2000/svg" viewBox="0 0 15.59 15.59">
  <defs>
    <style>
      .cls-1 {
        fill: #fff;
      }

      .cls-2 {
        fill: #021e3a;
      }

      .cls-3 {
        fill: #071f39;
      }
    </style>
  </defs>
  <g id="Firkant">
    <rect class="cls-3" x="0" y="0" width="15.59" height="15.59"/>
  </g>
  <g id="Cirkel">
    <rect class="cls-2" x="0" y="0" width="15.59" height="15.59" rx="7.8" ry="7.8"/>
  </g>
  <g id="ICONS">
    <path class="cls-1" d="M9.4,5.77c-.44,0-.67-.17-.87-.31-.19-.14-.35-.25-.69-.25s-.5.12-.69.25c-.2.15-.43.31-.87.31s-.67-.17-.87-.31c-.19-.14-.35-.25-.69-.25-.08,0-.15-.07-.15-.15s.07-.15.15-.15c.44,0,.67.17.87.31.19.14.35.25.69.25s.5-.12.69-.25c.2-.15.43-.31.87-.31s.67.17.87.31c.19.14.35.25.69.25s.5-.12.69-.25c.2-.15.43-.31.87-.31.08,0,.15.07.15.15s-.07.15-.15.15c-.34,0-.5.12-.69.25-.2.15-.43.31-.87.31Z"/>
    <path class="cls-1" d="M12.61,4.75c-.44,0-.68-.17-.88-.31-.19-.14-.36-.26-.71-.26s-.51.12-.71.26c-.2.15-.44.31-.88.31s-.68-.17-.88-.31c-.19-.14-.36-.26-.71-.26s-.51.12-.71.26c-.2.15-.44.31-.88.31s-.68-.17-.88-.31c-.19-.14-.36-.26-.71-.26s-.52.12-.71.26c-.2.15-.44.31-.88.31-.08,0-.15-.07-.15-.15s.07-.15.15-.15c.35,0,.52-.12.71-.26.21-.15.44-.31.88-.31s.68.17.88.31c.19.14.36.26.71.26s.51-.12.71-.26c.2-.15.44-.31.88-.31s.68.17.88.31c.19.14.36.26.71.26s.51-.12.71-.26c.2-.15.44-.31.88-.31s.68.17.88.31c.19.14.36.26.71.26.08,0,.15.07.15.15s-.07.15-.15.15Z"/>
    <g id="W7HL19">
      <g>
        <path class="cls-1" d="M5.04,8.36c.2-.03.35.03.47.18.19.24.39.48.58.72.28.35.56.69.84,1.04.02.02.04.04.07.04.63.06,1.25.13,1.88.2.19.02.35.09.51.2.71.52,1.42,1.03,2.13,1.54.16.12.2.32.08.48-.11.16-.32.19-.48.08-.45-.32-.9-.65-1.36-.97-.02-.02-.05-.03-.08-.03-.87-.09-1.73-.18-2.6-.27-.15-.02-.3-.06-.42-.16-.03-.02-.06-.05-.08-.08-.6-.73-1.2-1.46-1.8-2.19-.2-.24-.12-.6.16-.73.04-.02.08-.03.1-.03Z"/>
        <path class="cls-1" d="M11.57,10.59c.07.03-.37.75-.44.68s-.22-.2-.32-.29c-.09.04-.17.08-.25.1-.32.09-.69-.11-.79-.43-.12-.36.06-.72.41-.85.33-.12.73.07.84.41.02.05.03.1.03.16,0,.03.02.05.05.06.14.05.38.13.45.16Z"/>
        <path class="cls-1" d="M8.77,10.21c-.15-.02-.3-.03-.45-.05-.37-.04-.73-.08-1.1-.11-.09,0-.16-.04-.19-.13-.01-.03-.01-.06,0-.1.02-.17.03-.34.05-.5.01-.13.1-.2.22-.18.51.05,1.02.11,1.53.16.01,0,.02,0,.04,0-.03.3-.06.6-.09.9Z"/>
        <path class="cls-1" d="M4.45,8.51l-1.57-.94s-.03-.05,0-.07l.74-.76s.05-.02.06,0c0,0,1.13,1.32,1.15,1.36s0,.07,0,.07l-.32.33s-.03.03-.07.01Z"/>
        <path class="cls-1" d="M8.99,10.23c.03-.3.06-.6.09-.91.13.02.26.01.37.08.19.11.28.33.21.54-.07.21-.27.34-.5.32-.06,0-.12-.01-.18-.02Z"/>
      </g>
    </g>
  </g>
</svg>