<?xml version="1.0" encoding="UTF-8"?>
<svg xmlns="http://www.w3.org/2000/svg" viewBox="0 0 15.59 15.59">
  <defs>
    <style>
      .cls-1 {
        fill-rule: evenodd;
      }

      .cls-1, .cls-2 {
        fill: #fff;
      }

      .cls-3 {
        fill: #004712;
      }
    </style>
  </defs>
  <g id="Cirkel">
    <rect class="cls-3" x="0" y="0" width="15.59" height="15.59" rx="7.8" ry="7.8"/>
  </g>
  <g id="ICONS">
    <path class="cls-1" d="M4.62,2.16c-.6,0-1.08.49-1.08,1.08s.49,1.08,1.08,1.08,1.08-.49,1.08-1.08-.49-1.08-1.08-1.08h0Z"/>
    <polygon class="cls-1" points="9.17 7.9 6.66 4.5 5.12 5.43 7.13 8.68 9.17 7.9 9.17 7.9"/>
    <g>
      <path class="cls-2" d="M3.33,9.54c-.12,0-.24-.04-.33-.13-.19-.18-.2-.49-.02-.68l1.44-1.51.07-1.63c0-.1.04-.2.11-.29.43-.53,1.01-.98,1.71-1.33.06-.03.13-.05.19-.05l1.99-.1c.16-.01.32.07.41.2l1.38,1.94c.15.22.1.52-.11.67-.22.15-.52.1-.67-.11l-1.23-1.72-1.62.08c-.49.26-.9.57-1.22.92l-.07,1.65c0,.12-.05.23-.13.31l-1.56,1.64c-.09.1-.22.15-.35.15Z"/>
      <path class="cls-2" d="M5.75,13.56c-.32,0-.58-.26-.58-.58v-3.07c0-.19.09-.36.24-.47l2.22-1.59c.17-.12.38-.14.55-.07.04-.06.09-.12.15-.16.26-.18.62-.12.8.14l1,1.41,2.97.18c.32.02.56.29.54.61s-.29.56-.61.54l-3.25-.2c-.17-.01-.33-.1-.43-.24l-.96-1.36s-.06.06-.09.08l-1.97,1.41v2.77c0,.32-.26.58-.58.58Z"/>
    </g>
  </g>
</svg>