<?xml version="1.0" encoding="UTF-8"?>
<svg xmlns="http://www.w3.org/2000/svg" viewBox="0 0 15.59 15.59">
  <defs>
    <style>
      .cls-1 {
        fill: #fff;
        fill-rule: evenodd;
      }

      .cls-2 {
        fill: #004712;
      }
    </style>
  </defs>
  <g id="Cirkel">
    <rect class="cls-2" x="0" y="0" width="15.59" height="15.59" rx="7.8" ry="7.8"/>
  </g>
  <g id="ICONS">
    <path class="cls-1" d="M9.41,10.54c-.08.14-.25.2-.4.13-.15-.06-.22-.23-.17-.38l.95-2.53c.16-.3.47-.49.81-.51.34-.02.66.14.86.42l.77,1.29c.11.18.16.39.15.6v.61c.01.18-.12.33-.3.35-.18.02-.33-.11-.35-.29l-.02-.82-.25-.35v2.51s.52,1.17.52,1.17c.05.2-.05.41-.25.48-.19.07-.41-.02-.5-.21l-.59-1.22c-.04-.08-.06-.17-.07-.26v-.71s-.9,2.13-.9,2.13c-.1.22-.35.32-.57.23-.22-.09-.33-.34-.25-.56l.97-2.62v-.43s-.43.97-.43.97Z"/>
    <path class="cls-1" d="M11.34,6.3c-.06.47-.49.8-.96.74-.47-.06-.8-.49-.73-.96.06-.47.49-.8.96-.74.47.06.8.49.74.96Z"/>
    <path class="cls-1" d="M3.95,8.4l1.24-3.46c.17-.39.54-.66.97-.7.43-.04.84.14,1.09.49l1.2,1.93c.14.23.2.49.17.75l-.02,1.04c0,.2-.16.36-.35.36-.2,0-.36-.14-.37-.34v-1.13s-.2-.36-.2-.36l-.1-.19-.04,3.76.86,2.02c.05.25-.09.5-.32.6-.24.09-.51,0-.65-.21l-1.08-2.3-.04-.23-.03-1.02-1.32,3.46c-.1.3-.42.46-.72.37-.3-.1-.47-.42-.38-.72l1.49-4.35.04-1.27-.69,1.75c-.03.1-.11.18-.2.23-.1.05-.21.05-.31.02-.1-.04-.18-.11-.23-.21-.05-.1-.05-.21-.01-.31Z"/>
    <path class="cls-1" d="M7.24,3.18c-.14.56-.7.91-1.27.78-.56-.14-.91-.7-.77-1.27.14-.56.7-.91,1.27-.78.56.14.91.7.78,1.27Z"/>
  </g>
</svg>