<?xml version="1.0" encoding="UTF-8"?>
<svg xmlns="http://www.w3.org/2000/svg" viewBox="0 0 15.59 15.59">
  <defs>
    <style>
      .cls-1 {
        fill: #fff;
      }

      .cls-2 {
        fill: none;
        stroke: #fff;
        stroke-miterlimit: 10;
        stroke-width: .25px;
      }

      .cls-3 {
        fill: #071f39;
      }
    </style>
  </defs>
  <g id="Firkant">
    <rect class="cls-3" x="0" y="0" width="15.59" height="15.59"/>
  </g>
  <g id="Cirkel">
    <rect class="cls-3" x="0" y="0" width="15.59" height="15.59" rx="7.8" ry="7.8"/>
  </g>
  <g id="ICONS">
    <g>
      <path class="cls-1" d="M9.05,10.67c-.08,0-.15.07-.15.15s.07.15.15.15h.5c.08,0,.15-.07.15-.15s-.07-.15-.15-.15h-.5Z"/>
      <path class="cls-1" d="M10.05,10.67c-.08,0-.15.07-.15.15s.07.15.15.15h.5c.08,0,.15-.07.15-.15s-.07-.15-.15-.15h-.5Z"/>
      <path class="cls-1" d="M8.05,10.67c-.08,0-.15.07-.15.15s.07.15.15.15h.5c.08,0,.15-.07.15-.15s-.07-.15-.15-.15h-.5Z"/>
      <path class="cls-1" d="M10.89,10.82c0,.08.07.15.15.15h.5c.08,0,.15-.07.15-.15s-.07-.15-.15-.15h-.5c-.08,0-.15.07-.15.15Z"/>
      <path class="cls-1" d="M3.7,10.82c0-.08-.07-.15-.15-.15h-.5c-.08,0-.15.07-.15.15s.07.15.15.15h.5c.08,0,.15-.07.15-.15Z"/>
      <path class="cls-1" d="M12.55,10.67h-.5c-.08,0-.15.07-.15.15s.07.15.15.15h.5c.08,0,.15-.07.15-.15s-.07-.15-.15-.15Z"/>
      <path class="cls-1" d="M4.05,10.97h.5c.08,0,.15-.07.15-.15s-.07-.15-.15-.15h-.5c-.08,0-.15.07-.15.15s.07.15.15.15Z"/>
      <path class="cls-1" d="M5.05,10.67c-.08,0-.15.07-.15.15s.07.15.15.15h.5c.08,0,.15-.07.15-.15s-.07-.15-.15-.15h-.5Z"/>
      <path class="cls-1" d="M6.05,10.67c-.08,0-.15.07-.15.15s.07.15.15.15h.5c.08,0,.15-.07.15-.15s-.07-.15-.15-.15h-.5Z"/>
      <path class="cls-1" d="M7.05,10.67c-.08,0-.15.07-.15.15s.07.15.15.15h.5c.08,0,.15-.07.15-.15s-.07-.15-.15-.15h-.5Z"/>
    </g>
    <g>
      <g>
        <path class="cls-2" d="M12.92,4.86l-3.35,3.49s-.01,0-.02.01l-2.15.77c-.12.03-.23-.08-.21-.2l.58-2.25s0-.01.01-.02c0,0,2.91-3.04,3.35-3.49.65-.53,2.25,1.19,1.78,1.68Z"/>
        <path class="cls-1" d="M7.33,8.19c.77,0,.76.73.76.73l-.85.17s.16-.51.09-.89Z"/>
      </g>
      <g>
        <path class="cls-1" d="M9.62,8.11c-.35-.97-1.21-1.37-1.6-1.51l3.18-3.31s.05,0,.07,0c.44,0,1.48.15,1.53,1.57l-3.17,3.25Z"/>
        <path class="cls-1" d="M11.26,3.42c.49,0,1.32.18,1.4,1.34l-3,3.12c-.35-.76-1-1.15-1.43-1.33l3.01-3.14s0,0,.01,0M11.26,3.17c-.08,0-.13,0-.13,0l-3.35,3.49s1.42.32,1.78,1.68l3.35-3.49c-.05-1.56-1.26-1.69-1.65-1.69h0Z"/>
      </g>
    </g>
  </g>
</svg>