<?xml version="1.0" encoding="UTF-8"?>
<svg id="b" data-name="ICONS" xmlns="http://www.w3.org/2000/svg" width="5.5mm" height="5.5mm" viewBox="0 0 15.591 15.591">
  <rect x="0" y="0" width="15.591" height="15.591" rx="7.795" ry="7.795" fill="#0072bc"/>
  <g>
    <path d="m10.962,12.215c-.438,0-.667.166-.868.312-.188.137-.352.255-.693.255s-.504-.118-.692-.255c-.201-.146-.43-.312-.868-.312s-.666.166-.867.312c-.188.137-.351.255-.691.255s-.502-.118-.69-.255c-.2-.146-.428-.312-.865-.312-.083,0-.15.067-.15.15s.067.15.15.15c.34,0,.502.118.688.254.201.146.429.312.867.312s.666-.166.867-.312c.188-.137.351-.255.691-.255s.504.118.692.255c.201.146.43.312.868.312s.668-.166.869-.312c.188-.137.352-.255.692-.255.083,0,.15-.067.15-.15s-.067-.15-.15-.15Z" fill="#fff"/>
    <path d="m12.605,11.765c-.348,0-.513-.119-.705-.256-.203-.146-.435-.312-.879-.312s-.677.166-.881.312c-.192.137-.357.256-.706.256s-.513-.119-.705-.256c-.203-.146-.435-.312-.879-.312s-.677.166-.881.312c-.192.137-.358.256-.707.256s-.516-.119-.708-.256c-.204-.146-.437-.312-.882-.312s-.679.166-.883.312c-.192.137-.358.256-.708.256-.083,0-.15.067-.15.15s.067.15.15.15c.445,0,.678-.166.882-.312.192-.137.359-.256.709-.256s.516.119.708.256c.204.146.437.312.882.312s.677-.166.881-.312c.192-.137.358-.256.707-.256s.513.119.705.256c.203.146.435.312.879.312s.676-.166.88-.312c.192-.137.358-.256.707-.256s.513.119.705.256c.203.146.435.312.879.312.083,0,.15-.067.15-.15s-.067-.15-.15-.15Z" fill="#fff"/>
    <path d="m7.463,9.741c.896,0,1.625-.729,1.625-1.625v-3.508c.385-.141.664-.503.664-.936,0-.554-.451-1.005-1.005-1.005s-1.005.451-1.005,1.005c0,.433.279.795.664.936v3.508c0,.52-.423.943-.943.943s-.943-.423-.943-.943v-.19c.091.063.214.08.325.034.174-.072.256-.272.183-.445l-.534-1.277c-.063-.15-.222-.234-.381-.203-.159.032-.274.172-.274.334v1.748c0,.896.729,1.625,1.625,1.625Zm1.284-6.392c.178,0,.323.145.323.323s-.145.323-.323.323-.323-.145-.323-.323.145-.323.323-.323Z" fill="#fff"/>
  </g>
</svg>