<?xml version="1.0" encoding="UTF-8"?>
<svg xmlns="http://www.w3.org/2000/svg" width="5.5mm" height="5.5mm" viewBox="0 0 15.591 15.591">
  <g id="a" data-name="Cirkel">
    <rect x="0" y="0" width="15.591" height="15.591" rx="7.795" ry="7.795" fill="#427c7f"/>
  </g>
  <g id="b" data-name="ICONS">
    <g>
      <path d="m7.074,12.499h-.5c-.083,0-.15.067-.15.15s.067.15.15.15h.5c.083,0,.15-.067.15-.15s-.067-.15-.15-.15Z" fill="#fff"/>
      <path d="m6.074,12.499h-.5c-.083,0-.15.067-.15.15s.067.15.15.15h.5c.083,0,.15-.067.15-.15s-.067-.15-.15-.15Z" fill="#fff"/>
      <path d="m5.074,12.499h-.5c-.083,0-.15.067-.15.15s.067.15.15.15h.5c.083,0,.15-.067.15-.15s-.067-.15-.15-.15Z" fill="#fff"/>
      <path d="m4.074,12.499h-.5c-.083,0-.15.067-.15.15s.067.15.15.15h.5c.083,0,.15-.067.15-.15s-.067-.15-.15-.15Z" fill="#fff"/>
      <path d="m8.074,12.499h-.5c-.083,0-.15.067-.15.15s.067.15.15.15h.5c.083,0,.15-.067.15-.15s-.067-.15-.15-.15Z" fill="#fff"/>
      <path d="m11.074,12.499h-.5c-.083,0-.15.067-.15.15s.067.15.15.15h.5c.083,0,.15-.067.15-.15s-.067-.15-.15-.15Z" fill="#fff"/>
      <path d="m9.074,12.499h-.5c-.083,0-.15.067-.15.15s.067.15.15.15h.5c.083,0,.15-.067.15-.15s-.067-.15-.15-.15Z" fill="#fff"/>
      <path d="m12.017,12.499h-.442c-.083,0-.15.067-.15.15s.067.15.15.15h.442c.083,0,.15-.067.15-.15s-.067-.15-.15-.15Z" fill="#fff"/>
      <path d="m10.074,12.499h-.5c-.083,0-.15.067-.15.15s.067.15.15.15h.5c.083,0,.15-.067.15-.15s-.067-.15-.15-.15Z" fill="#fff"/>
      <path d="m7.057,11.651c-.083,0-.15.067-.15.15s.067.15.15.15h.5c.083,0,.15-.067.15-.15s-.067-.15-.15-.15h-.5Z" fill="#fff"/>
      <path d="m8.057,11.651c-.083,0-.15.067-.15.15s.067.15.15.15h.5c.083,0,.15-.067.15-.15s-.067-.15-.15-.15h-.5Z" fill="#fff"/>
      <path d="m6.057,11.651c-.083,0-.15.067-.15.15s.067.15.15.15h.5c.083,0,.15-.067.15-.15s-.067-.15-.15-.15h-.5Z" fill="#fff"/>
      <path d="m10.057,11.651c-.083,0-.15.067-.15.15s.067.15.15.15h.5c.083,0,.15-.067.15-.15s-.067-.15-.15-.15h-.5Z" fill="#fff"/>
      <path d="m9.057,11.651c-.083,0-.15.067-.15.15s.067.15.15.15h.5c.083,0,.15-.067.15-.15s-.067-.15-.15-.15h-.5Z" fill="#fff"/>
      <path d="m3.707,11.801c0-.083-.067-.15-.15-.15h-.5c-.083,0-.15.067-.15.15s.067.15.15.15h.5c.083,0,.15-.067.15-.15Z" fill="#fff"/>
      <path d="m5.057,11.651c-.083,0-.15.067-.15.15s.067.15.15.15h.5c.083,0,.15-.067.15-.15s-.067-.15-.15-.15h-.5Z" fill="#fff"/>
      <path d="m12.557,11.651h-.5c-.083,0-.15.067-.15.15s.067.15.15.15h.5c.083,0,.15-.067.15-.15s-.067-.15-.15-.15Z" fill="#fff"/>
      <path d="m11.057,11.951h.5c.083,0,.15-.067.15-.15s-.067-.15-.15-.15h-.5c-.083,0-.15.067-.15.15s.067.15.15.15Z" fill="#fff"/>
      <path d="m4.057,11.651c-.083,0-.15.067-.15.15s.067.15.15.15h.5c.083,0,.15-.067.15-.15s-.067-.15-.15-.15h-.5Z" fill="#fff"/>
      <path d="m5.535,7.073l.383-.614c.044-.071.121-.115.205-.118h.007c.082,0,.158.04.205.107l.605.868.618-1.526c.038-.097.136-.177.236-.156.104.002.195.068.23.166l.728,2.032.373-1.24c.025-.086.096-.152.184-.172.088-.021.18.009.24.075l.531.579h1.328c.41-.74.644-1.576.282-2.439-.28-.668-.895-1.189-1.614-1.28-1.029-.13-1.924.514-2.199,1.428-.026.087-.139.087-.165,0-.275-.914-1.17-1.557-2.199-1.428-.719.091-1.334.612-1.614,1.28-.362.862-.128,1.698.282,2.439h1.353Z" fill="#fff"/>
      <path d="m9.971,7.573c-.07,0-.137-.029-.185-.081l-.308-.336-.466,1.547c-.031.104-.125.175-.232.178h-.007c-.105,0-.2-.066-.235-.166l-.763-2.13-.545,1.346c-.034.085-.112.145-.203.155-.102.01-.182-.031-.233-.105l-.652-.936-.256.41c-.046.073-.126.118-.212.118h-1.185c.228.334.474.643.697.914.338.411.706.799,1.101,1.156.199.18.405.352.617.516.182.141.416.384.649.426.217.04.47.054.666-.076.216-.143.422-.312.624-.474.419-.337.812-.705,1.174-1.101.133-.145.262-.294.387-.446.223-.271.469-.58.697-.914h-1.131Z" fill="#fff"/>
    </g>
  </g>
</svg>