<?xml version="1.0" encoding="UTF-8"?>
<svg id="b" data-name="ICONS" xmlns="http://www.w3.org/2000/svg" width="5.5mm" height="5.5mm" viewBox="0 0 15.591 15.591">
  <rect x="0" y="0" width="15.591" height="15.591" rx="7.795" ry="7.795" fill="#427c7f"/>
  <g>
    <path d="m7.074,12.498h-.5c-.083,0-.15.067-.15.15s.067.15.15.15h.5c.083,0,.15-.067.15-.15s-.067-.15-.15-.15Z" fill="#fff"/>
    <path d="m6.074,12.498h-.5c-.083,0-.15.067-.15.15s.067.15.15.15h.5c.083,0,.15-.067.15-.15s-.067-.15-.15-.15Z" fill="#fff"/>
    <path d="m5.074,12.498h-.5c-.083,0-.15.067-.15.15s.067.15.15.15h.5c.083,0,.15-.067.15-.15s-.067-.15-.15-.15Z" fill="#fff"/>
    <path d="m8.074,12.498h-.5c-.083,0-.15.067-.15.15s.067.15.15.15h.5c.083,0,.15-.067.15-.15s-.067-.15-.15-.15Z" fill="#fff"/>
    <path d="m4.074,12.498h-.5c-.083,0-.15.067-.15.15s.067.15.15.15h.5c.083,0,.15-.067.15-.15s-.067-.15-.15-.15Z" fill="#fff"/>
    <path d="m9.074,12.498h-.5c-.083,0-.15.067-.15.15s.067.15.15.15h.5c.083,0,.15-.067.15-.15s-.067-.15-.15-.15Z" fill="#fff"/>
    <path d="m10.074,12.498h-.5c-.083,0-.15.067-.15.15s.067.15.15.15h.5c.083,0,.15-.067.15-.15s-.067-.15-.15-.15Z" fill="#fff"/>
    <path d="m12.017,12.498h-.442c-.083,0-.15.067-.15.15s.067.15.15.15h.442c.083,0,.15-.067.15-.15s-.067-.15-.15-.15Z" fill="#fff"/>
    <path d="m11.074,12.498h-.5c-.083,0-.15.067-.15.15s.067.15.15.15h.5c.083,0,.15-.067.15-.15s-.067-.15-.15-.15Z" fill="#fff"/>
    <path d="m6.906,11.801c0,.083.067.15.15.15h.5c.083,0,.15-.067.15-.15s-.067-.15-.15-.15h-.5c-.083,0-.15.067-.15.15Z" fill="#fff"/>
    <path d="m8.057,11.951h.5c.083,0,.15-.067.15-.15s-.067-.15-.15-.15h-.5c-.083,0-.15.067-.15.15s.067.15.15.15Z" fill="#fff"/>
    <path d="m9.057,11.651c-.083,0-.15.067-.15.15s.067.15.15.15h.5c.083,0,.15-.067.15-.15s-.067-.15-.15-.15h-.5Z" fill="#fff"/>
    <path d="m11.057,11.651c-.083,0-.15.067-.15.15s.067.15.15.15h.5c.083,0,.15-.067.15-.15s-.067-.15-.15-.15h-.5Z" fill="#fff"/>
    <path d="m10.057,11.651c-.083,0-.15.067-.15.15s.067.15.15.15h.5c.083,0,.15-.067.15-.15s-.067-.15-.15-.15h-.5Z" fill="#fff"/>
    <path d="m5.057,11.651c-.083,0-.15.067-.15.15s.067.15.15.15h.5c.083,0,.15-.067.15-.15s-.067-.15-.15-.15h-.5Z" fill="#fff"/>
    <path d="m12.557,11.651h-.5c-.083,0-.15.067-.15.15s.067.15.15.15h.5c.083,0,.15-.067.15-.15s-.067-.15-.15-.15Z" fill="#fff"/>
    <path d="m3.707,11.801c0-.083-.067-.15-.15-.15h-.5c-.083,0-.15.067-.15.15s.067.15.15.15h.5c.083,0,.15-.067.15-.15Z" fill="#fff"/>
    <path d="m4.057,11.651c-.083,0-.15.067-.15.15s.067.15.15.15h.5c.083,0,.15-.067.15-.15s-.067-.15-.15-.15h-.5Z" fill="#fff"/>
    <path d="m6.057,11.651c-.083,0-.15.067-.15.15s.067.15.15.15h.5c.083,0,.15-.067.15-.15s-.067-.15-.15-.15h-.5Z" fill="#fff"/>
    <path d="m8.401,10.093c-.016.023-.046.075-.051.149-.001.019-.005.095.042.174.047.08.115.114.128.121.099.048.193.024.219.016.093-.028.144-.092.16-.114.336-.435.643-.679.979-1.113l.459-.5c.285.174.414.33.414.33.039.42.145.683.185,1.103-.002.029-.001.074.014.126.008.028.029.095.091.151.019.017.103.09.226.079.111-.01.178-.081.198-.102.021-.022.073-.08.081-.167.002-.026,0-.047-.002-.063-.044-.472-.088-.944-.133-1.416-.002-.022-.006-.05-.016-.081-.015-.045-.037-.078-.053-.1-.272-.339-.319-.544-.591-.883.043-.337.103-.549.154-.896.069.092.087.117.089.119.014.019.034.045.066.088.007.022.021.056.049.091.031.038.065.059.086.07.247.115.609.296.893.432l-.163,2.824c-.002.045.032.084.076.086.002,0,.003,0,.005,0,.043,0,.079-.033.081-.077l.159-2.761c.029.008.089.022.161-.005.067-.024.104-.069.112-.079.009-.012.042-.055.051-.121.01-.074-.015-.13-.021-.142-.027-.057-.069-.088-.088-.1-.054-.026-.118-.057-.183-.09l.032-.558c.002-.045-.032-.084-.077-.086-.002,0-.003,0-.005,0-.043,0-.079.034-.081.077l-.028.489c-.215-.108-.447-.224-.612-.304-.164-.388-.327-.776-.491-1.165-.012-.035-.038-.097-.093-.156-.021-.022-.073-.074-.158-.107-.115-.045-.217-.028-.26-.019-.093.021-.148.035-.243.115-.306.259-.325.492-.457.893-.33,1.137-.27,1.419-.5,2.462-.335.432-.567.779-.902,1.21Z" fill="#fff"/>
    <path d="m10.922,5.256c.323,0,.585-.262.585-.586s-.262-.586-.585-.586-.586.262-.586.586.262.586.586.586Z" fill="#fff"/>
    <path d="m8.457,7.433l.398.104c.208.054.382-.072.436-.279,0,0,.121-.414.154-.551.121-.508.267-.855.267-.91.001-.22-.515-.331-.834-.225-.244.081-.698,1.387-.698,1.387-.054.208.07.42.277.474Z" fill="#fff"/>
    <path d="m4.532,8.594v1.854c0,.182.147.224.329.224s.329-.042.329-.224v-1.848c0-.096.078-.174.174-.174h1.732c.134,0,.218-.145.151-.261,0,0-1.358-2.355-1.374-2.38-.016-.025-.005-.075.039-.075h.535c.134,0,.218-.145.151-.261l-1.586-2.747c-.067-.116-.235-.116-.302,0l-1.586,2.747c-.067.116.017.261.151.261,0,0,.492,0,.537,0,.037,0,.054.046.042.068-.012.021-1.378,2.387-1.378,2.387-.067.116.017.261.151.261h1.738c.093,0,.168.075.168.168Z" fill="#fff"/>
  </g>
</svg>