<?xml version="1.0" encoding="UTF-8"?>
<svg id="b" data-name="ICONS" xmlns="http://www.w3.org/2000/svg" width="5.5mm" height="5.5mm" viewBox="0 0 15.591 15.591">
  <rect x="0" y="0" width="15.591" height="15.591" rx="7.795" ry="7.795" fill="#0072bc"/>
  <path d="m9.4,13.082c-.438,0-.667-.166-.868-.312-.188-.137-.351-.255-.692-.255s-.503.118-.691.255c-.201.146-.429.312-.867.312s-.666-.166-.867-.312c-.187-.136-.349-.254-.688-.254-.083,0-.15-.067-.15-.15s.067-.15.15-.15c.438,0,.665.166.865.312.188.137.35.255.69.255s.503-.118.691-.255c.201-.146.429-.312.867-.312s.667.166.868.312c.188.137.351.255.692.255s.505-.118.693-.255c.201-.146.43-.312.868-.312.083,0,.15.067.15.15s-.067.15-.15.15c-.341,0-.504.118-.692.255-.201.146-.43.312-.869.312Z" fill="#fff"/>
  <path d="m12.605,12.065c-.444,0-.676-.166-.879-.312-.191-.137-.357-.255-.705-.255s-.515.119-.707.256c-.204.146-.436.311-.88.311s-.676-.166-.879-.312c-.191-.137-.357-.255-.705-.255s-.515.119-.707.256c-.204.146-.436.311-.881.311s-.678-.166-.882-.311c-.192-.137-.358-.256-.708-.256s-.517.119-.709.256c-.204.146-.437.311-.882.311-.083,0-.15-.067-.15-.15s.067-.15.15-.15c.35,0,.516-.119.708-.255.205-.146.437-.312.883-.312s.678.166.882.311c.192.137.358.256.708.256s.515-.119.707-.256c.204-.146.436-.311.881-.311s.676.166.879.312c.191.137.357.255.705.255s.514-.119.706-.255c.204-.146.436-.312.881-.312s.676.166.879.312c.191.137.357.255.705.255.083,0,.15.067.15.15s-.067.15-.15.15Z" fill="#fff"/>
  <g>
    <path d="m12.601,8.389c.02-.518-.24-1.061-.702-1.295-.033-.017-.072-.018-.105-.003-.034.015-.059.044-.07.079-.111.388-.462.659-.854.659h-1.889l.103-.168h.062c.19,0,.344-.157.344-.35,0-.082-.032-.154-.078-.213l.196-.339.088.054c.05.03.107.046.163.046.053,0,.107-.014.155-.041.169-.095.323-.253.434-.446.263-.456.224-.963-.09-1.154-.118-.072-.26-.09-.411-.051-.237.06-.472.257-.627.525-.111.192-.172.406-.173.603,0,.114.059.221.154.279l.093.057-.197.341c-.018-.003-.034-.011-.053-.011h-.71l-.424-.384v-.348c0-.068-.055-.124-.124-.124h-.378c-.241,0-.436.199-.436.445v1.279h-2.353c-.392,0-.743-.271-.854-.659-.01-.036-.036-.065-.069-.079-.034-.015-.073-.014-.106.003-.609.309-.842,1.056-.622,1.683.359,1.023,1.522.98,2.41.981,1.773,0,3.546,0,5.319,0,.616,0,1.333-.228,1.649-.798.096-.173.146-.37.153-.571Zm-4.589-.874l.064.058c.063.057.144.089.229.089h.49l-.103.168h-.679v-.314Z" fill="#fff"/>
    <path d="m7.594,5.998c.35,0,.634-.291.634-.648s-.284-.648-.634-.648-.634.291-.634.648.285.648.634.648Z" fill="#fff"/>
  </g>
</svg>