<?xml version="1.0" encoding="UTF-8"?>
<svg id="ICONS" xmlns="http://www.w3.org/2000/svg" viewBox="0 0 15.59 15.59">
  <defs>
    <style>
      .cls-1 {
        fill: #fff;
      }
    </style>
  </defs>
  <path class="cls-1" d="M6.38,9.98v-1.03h2.89v1.06c.08.04.17.06.3.06.17,0,.27-.04.38-.11v-4.81c0-.42.27-.78.59-.78s.59.36.59.78c0,.19.15.34.34.34s.34-.15.34-.34c0-.81-.57-1.46-1.27-1.46s-1.27.66-1.27,1.46v1.16h-2.89v-1.16c0-.42.27-.78.59-.78s.59.36.59.78c0,.19.15.34.34.34s.34-.15.34-.34c0-.81-.57-1.46-1.27-1.46s-1.27.66-1.27,1.46v4.85c.09.05.19.08.33.08.15,0,.26-.03.35-.09ZM6.38,6.99h2.89v1.28h-2.89v-1.28Z"/>
  <path class="cls-1" d="M13.11,10.65c-.31,0-.45-.12-.66-.3-.24-.21-.54-.47-1.11-.47s-.87.26-1.11.47c-.21.18-.35.3-.66.3s-.45-.12-.66-.3c-.24-.21-.54-.47-1.11-.47s-.87.26-1.11.47c-.21.18-.35.3-.66.3s-.45-.12-.66-.3c-.24-.21-.54-.47-1.11-.47s-.87.26-1.11.47c-.21.18-.35.3-.66.3-.19,0-.34.15-.34.34s.15.34.34.34c.57,0,.87-.26,1.11-.47.21-.18.35-.3.66-.3s.45.12.66.3c.24.21.54.47,1.11.47s.87-.26,1.11-.47c.21-.18.35-.3.66-.3s.45.12.66.3c.24.21.54.47,1.11.47s.87-.26,1.11-.47c.21-.18.35-.3.66-.3s.45.12.66.3c.24.21.54.47,1.11.47.19,0,.34-.15.34-.34s-.15-.34-.34-.34Z"/>
</svg>