<?xml version="1.0" encoding="UTF-8"?>
<svg id="ICONS" xmlns="http://www.w3.org/2000/svg" viewBox="0 0 15.59 15.59">
  <defs>
    <style>
      .cls-1 {
        fill: #fff;
      }
    </style>
  </defs>
  <path class="cls-1" d="M5.48,7.79c0,.21-.08.39-.23.55-.15.16-.34.24-.58.24s-.41-.08-.57-.23c-.16-.16-.23-.34-.23-.55s.08-.4.23-.56c.15-.16.34-.23.58-.23s.42.08.58.23c.15.15.23.34.23.55Z"/>
  <path class="cls-1" d="M8.6,7.79c0,.21-.08.39-.23.55-.15.16-.34.24-.58.24s-.41-.08-.57-.23c-.16-.16-.23-.34-.23-.55s.08-.4.23-.56c.15-.16.34-.23.58-.23s.42.08.58.23c.15.15.23.34.23.55Z"/>
  <path class="cls-1" d="M11.72,7.79c0,.21-.08.39-.23.55-.15.16-.34.24-.58.24s-.41-.08-.57-.23c-.16-.16-.23-.34-.23-.55s.08-.4.23-.56c.15-.16.34-.23.58-.23s.42.08.58.23c.15.15.23.34.23.55Z"/>
</svg>