<?xml version="1.0" encoding="UTF-8"?>
<svg id="ICONS" xmlns="http://www.w3.org/2000/svg" viewBox="0 0 15.59 15.59">
  <defs>
    <style>
      .cls-1 {
        fill: #fff;
      }
    </style>
  </defs>
  <g>
    <path class="cls-1" d="M7.05,11.45c0,.09.08.17.17.17h.56c.09,0,.17-.08.17-.17s-.08-.17-.17-.17h-.56c-.09,0-.17.08-.17.17Z"/>
    <path class="cls-1" d="M8.34,11.62h.56c.09,0,.17-.08.17-.17s-.08-.17-.17-.17h-.56c-.09,0-.17.08-.17.17s.08.17.17.17Z"/>
    <path class="cls-1" d="M9.46,11.28c-.09,0-.17.08-.17.17s.08.17.17.17h.56c.09,0,.17-.08.17-.17s-.08-.17-.17-.17h-.56Z"/>
    <path class="cls-1" d="M11.71,11.28c-.09,0-.17.08-.17.17s.08.17.17.17h.56c.09,0,.17-.08.17-.17s-.08-.17-.17-.17h-.56Z"/>
    <path class="cls-1" d="M10.58,11.28c-.09,0-.17.08-.17.17s.08.17.17.17h.56c.09,0,.17-.08.17-.17s-.08-.17-.17-.17h-.56Z"/>
    <path class="cls-1" d="M4.98,11.28c-.09,0-.17.08-.17.17s.08.17.17.17h.56c.09,0,.17-.08.17-.17s-.08-.17-.17-.17h-.56Z"/>
    <path class="cls-1" d="M13.39,11.28h-.56c-.09,0-.17.08-.17.17s.08.17.17.17h.56c.09,0,.17-.08.17-.17s-.08-.17-.17-.17Z"/>
    <path class="cls-1" d="M3.46,11.45c0-.09-.08-.17-.17-.17h-.56c-.09,0-.17.08-.17.17s.08.17.17.17h.56c.09,0,.17-.08.17-.17Z"/>
    <path class="cls-1" d="M3.85,11.28c-.09,0-.17.08-.17.17s.08.17.17.17h.56c.09,0,.17-.08.17-.17s-.08-.17-.17-.17h-.56Z"/>
    <path class="cls-1" d="M6.1,11.28c-.09,0-.17.08-.17.17s.08.17.17.17h.56c.09,0,.17-.08.17-.17s-.08-.17-.17-.17h-.56Z"/>
    <path class="cls-1" d="M9.19,10.03s-.04.07-.05.14c0,.02,0,.09.04.16.04.07.11.11.12.11.09.04.18.02.2.01.09-.03.13-.08.15-.1.31-.4.59-.62.9-1.02l.42-.46c.26.16.38.3.38.3.04.39.13.63.17,1.01,0,.03,0,.07.01.12,0,.03.03.09.08.14.02.02.1.08.21.07.1,0,.16-.07.18-.09.02-.02.07-.07.07-.15,0-.02,0-.04,0-.06-.04-.43-.08-.87-.12-1.3,0-.02,0-.05-.02-.07-.01-.04-.03-.07-.05-.09-.25-.31-.29-.5-.54-.81.04-.31.09-.51.14-.82.06.09.08.11.08.11.01.02.03.04.06.08,0,.02.02.05.04.08.03.03.06.05.08.06.23.11.56.27.82.4l-.15,2.6s.03.08.07.08c0,0,0,0,0,0,.04,0,.07-.03.07-.07l.15-2.54s.08.02.15,0c.06-.02.1-.06.1-.07,0-.01.04-.05.05-.11,0-.07-.01-.12-.02-.13-.03-.05-.06-.08-.08-.09-.05-.02-.11-.05-.17-.08l.03-.51s-.03-.08-.07-.08c0,0,0,0,0,0-.04,0-.07.03-.07.07l-.03.45c-.2-.1-.41-.21-.56-.28-.15-.36-.3-.71-.45-1.07-.01-.03-.03-.09-.09-.14-.02-.02-.07-.07-.15-.1-.11-.04-.2-.03-.24-.02-.09.02-.14.03-.22.11-.28.24-.3.45-.42.82-.3,1.05-.25,1.31-.46,2.27-.31.4-.52.72-.83,1.11Z"/>
    <path class="cls-1" d="M11.51,5.58c.3,0,.54-.24.54-.54s-.24-.54-.54-.54-.54.24-.54.54.24.54.54.54Z"/>
    <path class="cls-1" d="M9.24,7.58l.37.1c.19.05.35-.07.4-.26,0,0,.11-.38.14-.51.11-.47.25-.79.25-.84,0-.2-.47-.31-.77-.21-.22.08-.64,1.28-.64,1.28-.05.19.06.39.26.44Z"/>
  </g>
  <circle class="cls-1" cx="5.41" cy="2.04" r=".16"/>
  <circle class="cls-1" cx="4.39" cy="2.63" r=".26"/>
  <circle class="cls-1" cx="7.9" cy="5.47" r=".11"/>
  <circle class="cls-1" cx="10.07" cy="4.23" r=".23"/>
  <circle class="cls-1" cx="5.12" cy="9" r=".23"/>
  <circle class="cls-1" cx="1.55" cy="5.83" r=".23"/>
  <circle class="cls-1" cx="6.41" cy="4.15" r=".11"/>
  <circle class="cls-1" cx="13.56" cy="4.93" r=".11"/>
  <circle class="cls-1" cx="2.41" cy="8.16" r=".11"/>
  <circle class="cls-1" cx="10.4" cy="1.53" r=".11"/>
  <circle class="cls-1" cx="3.09" cy="9" r=".08"/>
  <circle class="cls-1" cx="9.85" cy="3.46" r=".16"/>
  <path class="cls-1" d="M4.06,6.87l-.05-.19c-.12-.41-.44-.73-.85-.85l-.19-.05c-.07-.02-.07-.12,0-.14l.19-.05c.41-.12.73-.44.85-.85l.05-.19c.02-.07.12-.07.14,0l.05.19c.12.41.44.73.85.85l.19.05c.07.02.07.12,0,.14l-.19.05c-.41.12-.73.44-.85.85l-.05.19c-.02.07-.12.07-.14,0Z"/>
  <path class="cls-1" d="M8.23,3.05l-.03-.12c-.07-.26-.28-.46-.54-.54l-.12-.03s-.05-.08,0-.09l.12-.03c.26-.07.46-.28.54-.54l.03-.12s.08-.05.09,0l.03.12c.07.26.28.46.54.54l.12.03s.05.08,0,.09l-.12.03c-.26.07-.46.28-.54.54l-.03.12s-.08.05-.09,0Z"/>
  <path class="cls-1" d="M6.06,7.54l-.02-.07c-.05-.16-.17-.29-.34-.34l-.07-.02s-.03-.05,0-.06l.07-.02c.16-.05.29-.17.34-.34l.02-.07s.05-.03.06,0l.02.07c.05.16.17.29.34.34l.07.02s.03.05,0,.06l-.07.02c-.16.05-.29.17-.34.34l-.02.07s-.05.03-.06,0Z"/>
  <path class="cls-1" d="M12.41,3.57l-.02-.06c-.04-.14-.15-.25-.29-.29l-.06-.02s-.02-.04,0-.05l.06-.02c.14-.04.25-.15.29-.29l.02-.06s.04-.02.05,0l.02.06c.04.14.15.25.29.29l.06.02s.02.04,0,.05l-.06.02c-.14.04-.25.15-.29.29l-.02.06s-.04.02-.05,0Z"/>
</svg>