<?xml version="1.0" encoding="UTF-8"?>
<svg id="ICONS" xmlns="http://www.w3.org/2000/svg" viewBox="0 0 15.59 15.59">
  <defs>
    <style>
      .cls-1 {
        fill: #fff;
      }
    </style>
  </defs>
  <g>
    <path class="cls-1" d="M4.28,9.06h.08s-.02,0-.04,0-.02,0-.04,0Z"/>
    <path class="cls-1" d="M7.64,9.06h.19s-.06,0-.1,0-.06,0-.09,0Z"/>
    <path class="cls-1" d="M14.27,5.95s-.03-.04-.07-.06c-.05-.02-.1-.01-.15-.02-.1,0-.19,0-.29,0-.17,0-.34-.01-.5-.02-.75-.02-1.35.03-2.09.09-.05,0-.11,0-.16-.04-.53-.29-1.06-.59-1.58-.88-.16-.09-.32-.24-.51-.25-.11-.01-.21.03-.31.08-.12.06-.24.1-.36.15-.24.1-.49.2-.73.31-.14.07-.35.17-.35.38-.01.15-.02.3-.04.45,0,.11-.02.21-.03.32,0,.03,0,.07,0,.1l-1.78.42c-.24.06-2.4.7-2.57.75-.13.04-.26.07-.39.11-.01,0-.02,0-.03.02-.02.02,0,.05,0,.08.08.27.15.54.22.81l.02.06.05.17s0,0,.01,0c.38,0,.55-.13.76-.27.22-.16.47-.33.95-.33s.73.18.95.33c.21.15.38.27.76.27s.55-.13.76-.27c.22-.16.47-.33.95-.33s.73.18.94.33c.21.15.38.27.76.27s.55-.13.76-.27c.22-.16.47-.33.95-.33.24,0,.42.04.57.11.2-.12.4-.24.59-.37.62-.43,1.18-.94,1.65-1.57.04-.05.07-.09.11-.14.01-.02.08-.09.08-.11.05-.07.14-.17.14-.27,0-.02,0-.03,0-.05ZM7.51,6.36s0-.26,0-.29c0-.11.02-.22.07-.3.01-.02.03-.05.05-.07.13-.13.35-.22.52-.28.18-.08.35-.15.53-.21.17-.05.38,0,.52.09.13.08.28.15.42.24.15.1.38.21.52.32,0,0-2.64.49-2.64.49Z"/>
  </g>
  <path class="cls-1" d="M9.4,11.08c-.47,0-.72-.18-.93-.33-.2-.15-.38-.27-.74-.27s-.54.13-.74.27c-.22.16-.46.33-.93.33s-.72-.18-.93-.34c-.2-.15-.37-.27-.74-.27-.09,0-.16-.07-.16-.16s.07-.16.16-.16c.47,0,.71.18.93.33.2.15.38.27.74.27s.54-.13.74-.27c.22-.16.46-.33.93-.33s.72.18.93.33c.2.15.38.27.74.27s.54-.13.74-.27c.22-.16.46-.33.93-.33.09,0,.16.07.16.16s-.07.16-.16.16c-.37,0-.54.13-.74.27-.22.16-.46.33-.93.33Z"/>
  <path class="cls-1" d="M12.84,9.99c-.48,0-.73-.18-.94-.33-.21-.15-.38-.27-.76-.27s-.55.13-.76.27c-.22.16-.47.33-.94.33s-.73-.18-.94-.33c-.21-.15-.38-.27-.76-.27s-.55.13-.76.27c-.22.16-.47.33-.95.33s-.73-.18-.95-.33c-.21-.15-.38-.27-.76-.27s-.55.13-.76.27c-.22.16-.47.33-.95.33-.09,0-.16-.07-.16-.16s.07-.16.16-.16c.38,0,.55-.13.76-.27.22-.16.47-.33.95-.33s.73.18.95.33c.21.15.38.27.76.27s.55-.13.76-.27c.22-.16.47-.33.95-.33s.73.18.94.33c.21.15.38.27.76.27s.55-.13.76-.27c.22-.16.47-.33.95-.33s.73.18.94.33c.21.15.38.27.76.27.09,0,.16.07.16.16s-.07.16-.16.16Z"/>
</svg>