<?xml version="1.0" encoding="UTF-8"?>
<svg id="ICONS" xmlns="http://www.w3.org/2000/svg" viewBox="0 0 15.59 15.59">
  <defs>
    <style>
      .cls-1 {
        fill: #fff;
      }
    </style>
  </defs>
  <path class="cls-1" d="M6.75,4.81c.47.11.94-.19,1.04-.66.11-.47-.19-.94-.66-1.05-.47-.11-.94.19-1.04.66-.11.47.19.94.66,1.05Z"/>
  <path class="cls-1" d="M13.46,10.54l-4.26,1.6h-5.18c-.87,0-1.62-.41-1.62-.41-.07-.04-.19-.03-.25.06-.05.08-.04.2.06.26,0,0,.7.47,1.84.47h8.17v-.38s-1.96,0-1.96,0l3.2-1.2v-.39Z"/>
  <polygon class="cls-1" points="4.98 11.95 4.69 11.95 3.77 6.74 4.06 6.74 4.98 11.95"/>
  <rect class="cls-1" x="12.42" y="6.48" width=".29" height="1.79" transform="translate(5.13 19.91) rotate(-89.74)"/>
  <path class="cls-1" d="M6.7,11.44c0-.05.04-1.95.04-2.02,0-.15.04-.34.25-.47.12-.07,1.38-.84,1.38-.84l-1.25-2.07s-1.12.4-1.14.4c-.2.07-.34.1-.54.1-.18,0-1.52,0-1.69,0-.26,0-.44-.22-.44-.44,0-.22.18-.44.44-.44.14,0,1.74,0,1.74,0l2.18-.72c.2-.06.38-.06.58-.06,0,0,1.49,0,1.6,0,.39,0,.51.15.69.45.06.1.81,1.34.87,1.44.12.21.06.47-.15.6-.25.15-.51.01-.61-.14-.07-.12-.89-1.47-.89-1.47h-.72s2.29,3.79,2.29,3.79c0,0,1.06,0,1.61,0,.25,0,.51.2.51.51,0,.32-.25.5-.51.5-.37,0-1.34,0-1.92,0-.2,0-.37-.17-.48-.35-.05-.09-.98-1.62-.98-1.62l-1.81,1.11s-.03,1.78-.03,1.81c-.01.27-.25.49-.54.48-.3-.02-.49-.28-.47-.53Z"/>
</svg>