<?xml version="1.0" encoding="UTF-8"?>
<svg id="ICONS" xmlns="http://www.w3.org/2000/svg" viewBox="0 0 15.59 15.59">
  <defs>
    <style>
      .cls-1 {
        fill: #fff;
      }
    </style>
  </defs>
  <path class="cls-1" d="M7.06,9.61v-.46c0-.19.01-.36.04-.52.03-.15.07-.3.13-.43.06-.14.14-.27.24-.4.1-.13.23-.26.38-.41l.54-.52c.15-.14.28-.29.39-.46.11-.17.16-.37.16-.61,0-.31-.1-.57-.29-.79-.2-.21-.47-.32-.83-.32-.18,0-.35.03-.5.1-.15.07-.28.16-.38.28-.11.12-.19.25-.25.4-.06.15-.09.31-.1.47l-1.48-.13c.05-.38.15-.73.31-1.03s.36-.55.61-.76c.25-.21.53-.37.85-.47.32-.11.66-.16,1.03-.16.34,0,.67.05.98.15.31.1.58.25.82.44.24.2.42.44.56.73.14.29.2.62.2,1,0,.26-.03.48-.08.67s-.14.37-.24.53c-.1.16-.23.31-.38.46-.15.15-.31.3-.5.46-.16.14-.29.26-.39.36s-.18.21-.24.31c-.06.1-.1.22-.13.34-.02.12-.04.27-.04.44v.31h-1.42ZM6.82,11.28c0-.26.09-.48.28-.66.19-.18.41-.28.68-.28s.48.09.67.26c.19.18.29.39.29.65s-.09.48-.28.66c-.19.18-.41.28-.68.28-.13,0-.25-.02-.37-.07s-.22-.11-.31-.19c-.09-.08-.16-.18-.21-.29-.05-.11-.08-.23-.08-.36Z"/>
</svg>