<?xml version="1.0" encoding="UTF-8"?>
<svg xmlns="http://www.w3.org/2000/svg" viewBox="0 0 15.59 15.59">
  <defs>
    <style>
      .cls-1 {
        fill: #fff;
      }

      .cls-2 {
        fill: #021e3a;
      }

      .cls-3 {
        fill: #071f39;
      }
    </style>
  </defs>
  <g id="Firkant">
    <rect class="cls-3" x="0" y="0" width="15.59" height="15.59"/>
  </g>
  <g id="Cirkel">
    <rect class="cls-2" x="0" y="0" width="15.59" height="15.59" rx="7.8" ry="7.8"/>
  </g>
  <g id="ICONS">
    <g>
      <path class="cls-1" d="M6.01,5.49c.14.91-.48,1.75-1.39,1.89-.91.14-1.75-.48-1.89-1.39-.14-.91.48-1.75,1.39-1.89.91-.14,1.75.48,1.89,1.39M4.86,5.67c-.04-.27-.3-.46-.57-.42-.27.04-.46.3-.42.57.04.27.3.46.57.42.27-.04.46-.3.42-.57h0ZM4.86,5.67"/>
      <path class="cls-1" d="M10.97,4.89c.25,1.19-.52,2.36-1.71,2.61-1.19.25-2.36-.52-2.61-1.71-.25-1.19.52-2.36,1.71-2.61,1.19-.25,2.36.52,2.61,1.71M9.46,5.21c-.07-.36-.42-.59-.78-.51-.36.07-.59.43-.51.78.07.36.42.59.78.51.36-.07.59-.42.51-.78h0ZM9.46,5.21"/>
      <path class="cls-1" d="M12.65,7.54s-.06,0-.09.02l-1.51.59c-.09.04-.15.13-.15.23l.03,1.66c0,.1.06.18.15.22l1.5.58s.06.02.09.02c.05,0,.09-.01.13-.04.07-.04.1-.12.1-.2l-.02-2.83c0-.08-.04-.15-.11-.2-.04-.03-.09-.04-.14-.04h0ZM12.65,7.54"/>
      <path class="cls-1" d="M9.37,8.15c-1.01.21-1.99-.19-2.59-.94h-.82s-.1.15-.1.15c-.02.05-.11.14-.27.29-.06.06-.13.11-.2.15-.14.09-.28.15-.44.18-.48.08-.89,0-1.23-.22l.03,3.11c.09.31.19.51.3.59.2.16.36.24.49.25h.86c.1.22.26.35.46.4l.16.02h2.48c.17-.02.29-.06.36-.11.14-.09.23-.2.27-.32.3,0,.5,0,.58-.01.03,0,.14-.04.33-.13.1-.06.21-.16.32-.31.11-.17.16-.34.17-.51l-.03-3.17c-.32.27-.7.47-1.14.57ZM5.4,10.59c-.01.05-.02.08-.03.09-.02.04-.04.07-.08.11-.03.03-.07.06-.11.08,0,0-.04.02-.09.03-.02,0-.04,0-.07,0-.05,0-.09,0-.14-.02-.05-.02-.1-.05-.14-.09-.03-.03-.05-.05-.05-.06-.01-.02-.02-.04-.03-.05,0-.02-.01-.04-.02-.06,0,0,0-.04-.01-.1,0-.01,0-.05.02-.1,0-.02.01-.04.02-.06.02-.04.04-.07.08-.11.03-.03.07-.06.11-.08.05-.02.08-.03.09-.03.02,0,.04,0,.07,0h.05s.04,0,.09.03c.02,0,.04.02.05.03.03.02.07.05.09.08.03.03.05.07.07.1,0,.02.01.04.02.06,0,0,0,.04.01.1,0,.02,0,.05,0,.07ZM6.49,10.8s-.05.04-.08.05l-.05.02s-.07.01-.1.01c-.11,0-.2-.04-.27-.11-.07-.07-.11-.16-.11-.27,0-.11.04-.2.11-.27.07-.07.16-.11.27-.11h.05c.11.02.19.07.25.15.06.08.09.18.08.29-.02.11-.06.19-.14.25Z"/>
    </g>
  </g>
</svg>