<?xml version="1.0" encoding="UTF-8"?>
<svg xmlns="http://www.w3.org/2000/svg" viewBox="0 0 15.59 15.59">
  <defs>
    <style>
      .cls-1 {
        fill: #fff;
      }

      .cls-2 {
        fill: #071f39;
      }
    </style>
  </defs>
  <g id="Firkant">
    <rect class="cls-2" x="0" y="0" width="15.59" height="15.59"/>
  </g>
  <g id="Cirkel">
    <rect class="cls-2" x=".01" y="0" width="15.59" height="15.59" rx="7.79" ry="7.79"/>
  </g>
  <g id="ICONS">
    <path class="cls-1" d="M11.2,10.15c-.49,0-.75.19-.97.35-.21.15-.39.29-.78.29s-.56-.13-.78-.29c-.23-.16-.48-.35-.97-.35s-.75.19-.97.35c-.21.15-.39.29-.77.29s-.56-.13-.77-.29c-.22-.16-.48-.35-.97-.35-.09,0-.17.07-.17.17s.08.17.17.17c.38,0,.56.13.77.29.23.16.48.35.97.35s.75-.19.97-.35c.21-.15.39-.29.77-.29s.56.13.78.29c.23.16.48.35.97.35s.75-.19.97-.35c.21-.15.39-.29.78-.29.09,0,.17-.07.17-.17s-.08-.17-.17-.17Z"/>
    <path class="cls-1" d="M13.04,9.65c-.39,0-.57-.13-.79-.29-.23-.16-.49-.35-.98-.35s-.76.19-.99.35c-.22.15-.4.29-.79.29s-.57-.13-.79-.29c-.23-.16-.49-.35-.98-.35s-.76.19-.99.35c-.22.15-.4.29-.79.29s-.58-.13-.79-.29c-.23-.16-.49-.35-.99-.35s-.76.19-.99.35c-.22.15-.4.29-.79.29-.09,0-.17.07-.17.17s.08.17.17.17c.5,0,.76-.19.99-.35.22-.15.4-.29.79-.29s.58.13.79.29c.23.16.49.35.99.35s.76-.19.99-.35c.22-.15.4-.29.79-.29s.57.13.79.29c.23.16.49.35.98.35s.76-.19.99-.35c.22-.15.4-.29.79-.29s.57.13.79.29c.23.16.49.35.98.35.09,0,.17-.07.17-.17s-.08-.17-.17-.17Z"/>
    <path class="cls-1" d="M12.62,8.41c-.06-.1-.11-.19-.17-.28-.2-.29-.45-.55-.72-.79v-1.93c.15.11.3.23.44.36.22.2.54-.12.32-.32-1.9-1.73-4.93-2.06-7.29-1.21-.65.23-1.26.56-1.81.99-.1.08-.08.24,0,.32.09.1.23.08.32,0,.1-.08.2-.15.3-.22v1.9c-.47.38-.87.83-1.14,1.34.1-.05.2-.11.29-.18.04-.03.09-.06.13-.09.19-.13.43-.24.81-.25.02,0,.03,0,.05,0,0,0,0,0,0,0,.85-.84,2.16-1.38,3.64-1.38s2.81.55,3.66,1.4c.04,0,.07.02.11.03.3.06.52.18.69.3.11.08.22.14.34.19.05.02.1.05.16.06-.04-.08-.09-.15-.14-.22ZM9.84,4.55v-.03c.26.07.52.16.78.27.28.12.54.25.8.41v1.88c-.46-.34-.99-.61-1.58-.8v-1.73ZM7.96,4.29v-.05c.53,0,1.06.07,1.58.19v1.74c-.1-.03-.2-.05-.31-.08,0,0,0,0,0,0-.04,0-.07-.01-.11-.02-.17-.03-.34-.07-.52-.09-.21-.03-.42-.04-.64-.05v-1.65ZM6.14,4.53v-.11c.26-.06.53-.1.8-.13.24-.03.48-.04.72-.05v1.7c-.08,0-.16.02-.24.02-.44.03-.87.09-1.28.19v-1.62ZM4.31,5.41v-.28c.47-.28.99-.49,1.52-.63v1.75c-.56.18-1.07.42-1.52.73v-1.58Z"/>
  </g>
</svg>