<?xml version="1.0" encoding="UTF-8"?>
<svg xmlns="http://www.w3.org/2000/svg" viewBox="0 0 15.59 15.59">
  <defs>
    <style>
      .cls-1 {
        fill: #fff;
      }

      .cls-2 {
        fill: #004712;
      }
    </style>
  </defs>
  <g id="Firkant">
    <rect class="cls-2" x="0" y="0" width="15.59" height="15.59"/>
  </g>
  <g id="Cirkel">
    <rect class="cls-2" x="0" y="0" width="15.59" height="15.59" rx="7.8" ry="7.8"/>
  </g>
  <g id="ICONS">
    <path class="cls-1" d="M13.38,4.57h-.22c-.11.02-.37,0-.56-.03-.18-.02-.45-.07-.59-.1-.13-.05-.4-.09-.57-.13-.18-.02-.43-.02-.56,0-.13.02-.4.07-.58.12-.19.05-.46.09-.59.1l-.55-.03c-.16-.04-.45-.09-.64-.12-.19-.03-.48-.07-.64-.1-.18-.02-.44,0-.61.03l-.59.12-.55.06c-.15,0-.43-.04-.63-.08-.2-.05-.51-.11-.7-.14-.18-.03-.51-.02-.75.03-.24.05-.59.12-.8.15-.2.05-.51.06-.68.06-.17,0-.31-.02-.31-.02l.05.8s.13,0,.3.02c.17.01.48,0,.68-.04.2-.04.57-.11.8-.15.23-.05.56-.07.75-.04.18.03.49.09.69.13.2.04.48.08.63.08l.55-.06.6-.11c.16-.03.43-.05.6-.03.17.02.46.06.65.09.18.04.48.09.64.12l.54.03c.14-.02.4-.06.59-.1.19-.04.45-.1.58-.11.13-.02.38-.01.56.01.18.02.43.07.57.11.14.04.4.09.59.12.19.02.44.04.56.03h.21s-.04-.81-.04-.81"/>
    <path class="cls-1" d="M13.21,3.42c-.12,0-.37-.01-.56-.04-.19-.03-.45-.08-.59-.12-.14-.03-.39-.08-.57-.11l-.35-.02-.55.06-.52.11-.31.05-.47-.02-.73-.12-.53-.08h-.53s-.54.1-.54.1l-.57.07h-.2c-.14.01-.4-.02-.59-.06l-.3-.08-.37-.08h-.43l-.37.06c-.23.05-.6.12-.8.15-.21.04-.51.06-.68.05-.17-.01-.3-.02-.3-.02l-.05.8s.13,0,.31.02c.17.02.48,0,.68-.05.21-.04.56-.1.8-.16.23-.04.57-.06.75-.03.18.03.49.09.7.13.2.05.48.08.63.08l.55-.06.59-.12c.17-.03.43-.04.61-.02.17.01.46.06.64.09.19.03.48.08.64.11l.55.04c.14,0,.4-.05.59-.1.18-.05.45-.09.58-.12.13-.02.38-.01.56.01.17.03.43.08.57.12.14.04.4.09.59.11.19.03.44.04.56.04l.22-.02.04-.8h-.21Z"/>
    <g>
      <circle class="cls-1" cx="4.04" cy="11.91" r=".79" transform="translate(-8.17 14.91) rotate(-85.06)"/>
      <path class="cls-1" d="M5.22,11.18c.1,0,.2-.03.29-.09l1.83-1.29c.22-.16.28-.47.12-.69s-.47-.28-.69-.12l-1.83,1.29c-.22.16-.28.47-.12.69.1.14.25.21.41.21Z"/>
      <path class="cls-1" d="M12.56,8.14l-1.31.46c-.22.03-.44.08-.59.13-.3.12-.65.42-.84.65-.19.24-.41.61-.51.84l-.03.08h-.94l.58-.43c.06-.04.11-.09.15-.15,0,0,0,0,0,0,.01-.02.02-.04.03-.07,0,0,0-.01,0-.02,0-.02.01-.04.01-.06,0-.01,0-.03,0-.04,0-.01,0-.02,0-.03v-.42c0-.21.03-.55.06-.74.02-.14.15-.44.27-.62.03-.05.07-.1.12-.15l.18-.13,1.16-.5-1.18-1.09-.93,1.27h0s-.05.07-.08.11c-.18.27-.36.69-.41.97-.04.24-.07.64-.07.89v.19l-1.09.81s-.02.01-.03.02l-1.97,1.44c-.3.22-.36.64-.15.94.13.18.33.27.54.27.14,0,.27-.04.39-.13l.03-.02h3.22c.14,0,.25-.11.25-.25s-.11-.25-.25-.25h-2.54l1.23-.9h1.63s.02,0,.03,0c.01,0,.02,0,.03,0,.17,0,.34-.1.41-.27l.15-.35c.06-.14.23-.43.38-.63.13-.16.36-.34.45-.37.1-.04.29-.08.47-.09h0s.22,0,.22,0l1.24.24-.35-1.57Z"/>
    </g>
  </g>
</svg>