<?xml version="1.0" encoding="UTF-8"?>
<svg xmlns="http://www.w3.org/2000/svg" viewBox="0 0 15.59 15.59">
  <defs>
    <style>
      .cls-1 {
        fill: #fff;
      }

      .cls-2 {
        fill: #021e3a;
      }

      .cls-3 {
        fill: #071f39;
      }
    </style>
  </defs>
  <g id="Firkant">
    <rect class="cls-3" x="0" y="0" width="15.59" height="15.59"/>
  </g>
  <g id="Cirkel">
    <rect class="cls-2" x="0" y="0" width="15.59" height="15.59" rx="7.8" ry="7.8"/>
  </g>
  <g id="ICONS">
    <path class="cls-1" d="M12.96,4.96l-4.91-2.94c-.14-.08-.31-.08-.45,0l-4.91,2.94c-.21.12-.27.39-.15.6.12.21.39.27.6.15l4.68-2.81,4.68,2.81c.07.04.15.06.22.06.15,0,.29-.08.37-.21.12-.21.06-.47-.15-.6Z"/>
    <g>
      <path class="cls-1" d="M7.05,9.64h3.31c0-.79-.64-1.43-1.43-1.43h-1.89c-.07,0-.12.05-.12.12v1.19c0,.07.05.12.12.12Z"/>
      <path class="cls-1" d="M11.27,8.68c-.15,0-.28.12-.28.28v1.1h-6.32v-2.3c0-.15-.12-.28-.28-.28s-.28.12-.28.28v4.14c0,.15.12.28.28.28s.28-.12.28-.28v-.83h6.32v.83c0,.15.12.28.28.28s.28-.12.28-.28v-2.94c0-.15-.12-.28-.28-.28Z"/>
      <path class="cls-1" d="M5.78,9.64c.37,0,.67-.3.67-.67s-.3-.67-.67-.67-.67.3-.67.67.3.67.67.67Z"/>
    </g>
  </g>
</svg>