<?xml version="1.0" encoding="UTF-8"?>
<svg xmlns="http://www.w3.org/2000/svg" viewBox="0 0 15.59 15.59">
  <defs>
    <style>
      .cls-1 {
        fill: #fff;
      }

      .cls-2 {
        fill: #021e3a;
      }

      .cls-3 {
        fill: #071f39;
      }
    </style>
  </defs>
  <g id="Firkant">
    <rect class="cls-3" x="0" y="0" width="15.59" height="15.59"/>
  </g>
  <g id="Cirkel">
    <rect class="cls-2" x="0" y="0" width="15.59" height="15.59" rx="7.8" ry="7.8"/>
  </g>
  <g id="ICONS">
    <path class="cls-1" d="M13.23,5.2l-5.19-3.11c-.15-.09-.33-.09-.48,0l-5.19,3.11c-.22.13-.29.41-.16.63.13.22.42.29.63.16l4.96-2.97,4.96,2.97c.07.04.16.07.24.07.16,0,.31-.08.4-.22.13-.22.06-.5-.16-.63Z"/>
    <circle class="cls-1" cx="7.87" cy="6.48" r=".86"/>
    <g>
      <path class="cls-1" d="M5.68,7.4l.7.71c.14.14.29.25.45.34v.9l.5-.5c.14-.14.33-.22.53-.22s.39.08.53.22c.07.07.27.27.3.3l.2.2v-.9c.16-.09.31-.2.45-.34l1.06-1.06c.2-.2.2-.52,0-.71-.2-.2-.52-.2-.71,0l-1.06,1.06c-.42.42-1.11.42-1.54,0l-1.06-1.06c-.2-.2-.52-.2-.71,0-.2.2-.2.52,0,.71l.36.36Z"/>
      <path class="cls-1" d="M12.6,9.01c-.1-.1-.23-.15-.36-.15s-.26.05-.36.15l-1.06,1.06c-.21.21-.49.32-.77.32s-.56-.11-.77-.32l-.38-.38-.29-.29c0,.19-.08.36-.21.5l-.36.36h0s.53.53.53.53c.14.14.29.25.45.34v1.38h2.07v-1.38c.16-.09.31-.2.45-.34l1.06-1.06c.2-.2.2-.52,0-.71Z"/>
      <path class="cls-1" d="M8.33,9.18c-.02-.06-.06-.12-.11-.16-.1-.1-.23-.15-.36-.15s-.26.05-.36.15l-1.06,1.06c-.21.21-.49.32-.77.32s-.56-.11-.77-.32l-1.06-1.06c-.1-.1-.23-.15-.36-.15s-.26.05-.36.15c-.2.2-.2.52,0,.71l1.06,1.06c.14.14.29.25.45.34v1.38h2.07v-1.38c.16-.09.31-.2.45-.34l.57-.58.13-.13.36-.36c.15-.15.19-.37.11-.55Z"/>
    </g>
    <circle class="cls-1" cx="5.68" cy="9.18" r=".86"/>
    <circle class="cls-1" cx="10.06" cy="9.16" r=".86"/>
  </g>
</svg>