<?xml version="1.0" encoding="UTF-8"?>
<svg xmlns="http://www.w3.org/2000/svg" viewBox="0 0 15.59 15.59">
  <defs>
    <style>
      .cls-1 {
        fill: #fff;
      }

      .cls-2 {
        fill: #071f39;
      }
    </style>
  </defs>
  <g id="Firkant">
    <rect class="cls-2" x="0" y="0" width="15.59" height="15.59"/>
  </g>
  <g id="Cirkel">
    <rect class="cls-2" x="0" y="0" width="15.59" height="15.59" rx="7.8" ry="7.8"/>
  </g>
  <g id="ICONS">
    <g>
      <path class="cls-1" d="M12.23,3.33c0-.24-.13-.44-.28-.44s-.42.14-.59.31l-1.32,1.3c-.19.19-.38.57-.42.84l-.03.21c-.04.28-.26.64-.5.8-.23.16-.47.51-.52.79l-.13.76c-.05.27-.26.64-.47.82l-1.25,1.08c-.2.17-.57.37-.82.44l-1.59.46c-.27.08-.6.34-.74.59l-.57,1.02c-.12.21-.02.38.22.38.3-.2.75-.53,1.3-.9,1.37-.93,2.48-.63,2.89-.91.99-.69,1.04-2.12,2.62-3.3l2.42-1.62c.16-.1.24-.29.2-.48-.14-.72-.28-1.44-.41-2.17Z"/>
      <path class="cls-1" d="M7,4.4c.35,0,.64-.27.64-.62,0-.35-.27-.64-.62-.64-.35,0-.64.27-.64.62,0,.35.27.64.62.64Z"/>
      <path class="cls-1" d="M4.71,10.08c.09,0,.18-.04.23-.12l.91-1.28c.06-.07.07-.16.05-.23l-.03-1.3.23.05.4.09v.75c-.06.15.02.3.17.34.03.01.06.01.08.01.12,0,.24-.07.27-.2l.29-.99c.02-.07.01-.16-.03-.21l-.61-.6.43-.86,1.14.23s.04.01.08.01c.12,0,.24-.09.27-.21.04-.15-.05-.3-.2-.34l-.48-.14,1.3-.98c.11-.1.14-.28.05-.39-.1-.13-.28-.15-.4-.05l-1.33.83-.85.12c-.09,0-.18.03-.24.11l-1.41,1.64s-.21.25-.22.3c-.01.02-.01.04-.01.07,0,.04,0,.08.02.11l.36,1.46-.7,1.35c-.09.12-.06.29.07.38.04.03.1.06.16.06Z"/>
    </g>
  </g>
</svg>