<?xml version="1.0" encoding="UTF-8"?>
<svg xmlns="http://www.w3.org/2000/svg" viewBox="0 0 15.59 15.59">
  <defs>
    <style>
      .cls-1 {
        fill: #fff;
      }

      .cls-2 {
        fill: #071f39;
      }
    </style>
  </defs>
  <g id="Firkant">
    <rect class="cls-2" x="0" y="0" width="15.59" height="15.59"/>
  </g>
  <g id="Cirkel">
    <rect class="cls-2" x="0" y="0" width="15.59" height="15.59" rx="7.8" ry="7.8"/>
  </g>
  <g id="ICONS">
    <g>
      <path class="cls-1" d="M12.21,3.06c-.54-.29-1.23.43-1.55.83-.31.4-.46,1.12-.07,1.55.21.23.3.03.55.01.09,0,.26.11.33.09.12-.02.34-.25.41-.35.43-.62-.74-1.79.32-2.14Z"/>
      <path class="cls-1" d="M8.01,7.19c-.05-.02-.09-.03-.11-.04-.31-.11-.52-.4-.51-.72,0-.23.11-.44.28-.57.41-.33.61-.87.46-1.38-.15-.49-.53-.95-1.45-.95-2.54,0-4.6,2.06-4.6,4.6s2.06,4.6,4.6,4.6c.04,0,.08,0,.12,0,2.31-.08,3.48-2.57,2.53-4.4-.28-.53-.76-.93-1.33-1.13ZM3,7.95c0-.26.21-.46.46-.46s.46.21.46.46-.21.46-.46.46-.46-.21-.46-.46ZM4,10.31c-.26,0-.46-.21-.46-.46s.21-.46.46-.46.46.21.46.46-.21.46-.46.46ZM4.32,6.47c-.26,0-.46-.21-.46-.46s.21-.46.46-.46.46.21.46.46-.21.46-.46.46ZM5.65,11.5c-.26,0-.46-.21-.46-.46s.21-.46.46-.46.46.21.46.46-.21.46-.46.46ZM6.75,8.83c-.34,0-.61-.27-.61-.61s.27-.61.61-.61.61.27.61.61-.27.61-.61.61ZM7.56,11.29c-.26,0-.46-.21-.46-.46s.21-.46.46-.46.46.21.46.46-.21.46-.46.46Z"/>
      <path class="cls-1" d="M10.82,6.06c-.06.08-.09.19-.09.33v5.49c0,.24.12.43.26.43h.19c.14,0,.26-.19.26-.43v-5.49c0-.13-.04-.25-.09-.33h-.51Z"/>
    </g>
  </g>
</svg>