<?xml version="1.0" encoding="UTF-8"?>
<svg xmlns="http://www.w3.org/2000/svg" viewBox="0 0 15.59 15.59">
  <defs>
    <style>
      .cls-1 {
        fill: #fff;
      }

      .cls-2 {
        fill: #071f39;
      }
    </style>
  </defs>
  <g id="Firkant">
    <rect class="cls-2" x="0" y="0" width="15.59" height="15.59"/>
  </g>
  <g id="Cirkel">
    <rect class="cls-2" x="0" y="0" width="15.59" height="15.59" rx="7.8" ry="7.8"/>
  </g>
  <g id="ICONS">
    <path class="cls-1" d="M12.19,7.38h-.1c-.29-1.69-1.2-2.67-1.51-2.97.08-.11.14-.23.14-.38,0-.36-.29-.65-.65-.65s-.65.29-.65.65.29.65.65.65c.08,0,.16-.02.24-.05.24.22,1.14,1.16,1.43,2.75h-2.18l-.03-.02c-.4-.28-2.49-1.73-4.28-2.62-.09-.04-.19-.04-.27.02-.08.06-.13.15-.12.25l.19,2.12-.15-.05c-.49-.17-.95-.39-1.34-.66l-1.4-.95s-.1-.05-.15-.05c-.04,0-.09.01-.13.03-.09.05-.14.14-.14.24v2.68c0,1.14.93,2.06,2.06,2.06h.34l-.85,1.34c-.06.09-.05.22.02.31.07.09.19.13.3.09.19-.06,1.95-.63,4.1-1.73h.05s5.34-.01,5.34-.01c.6,0,1.08-.49,1.08-1.08,0-1.09-.89-1.98-1.98-1.98ZM9.77,4.03c0-.16.13-.3.3-.3s.3.13.3.3-.13.3-.3.3-.3-.13-.3-.3ZM5.61,5.54c.98.53,2.02,1.19,2.71,1.66l.28.18h-1.91c-.31,0-.64-.03-1.01-.1h-.07s-.16-1.83-.16-1.83l.16.09ZM8.38,9.48c-.23.13-.45.24-.67.35l-.11.06c-.55.28-1.06.53-1.54.74-.68.3-1.25.54-1.62.68l-.28.11,1.34-2.13h3.21l-.34.19ZM13.09,9.9h-4.35l.32-.19c.26-.15.51-.3.77-.46.1-.06.15-.19.12-.3-.03-.12-.14-.2-.26-.2h-4.34c-.09,0-.18.05-.23.13l-.64,1.02h-.68c-.84,0-1.52-.68-1.52-1.52v-2.17l.98.66c.54.37,1.15.64,1.82.83.55.15,1.09.23,1.61.23h5.5c.33,0,.65.12.91.33.04.04.08.09.12.14h-.76c-.16,0-.29.13-.29.29s.13.29.29.29h1.06c.05.13.08.22.09.23v.06s.02.06.02.1c0,.3-.24.54-.54.54Z"/>
  </g>
</svg>