<?xml version="1.0" encoding="UTF-8"?>
<svg xmlns="http://www.w3.org/2000/svg" viewBox="0 0 15.59 15.59">
  <defs>
    <style>
      .cls-1 {
        fill: #fff;
      }

      .cls-2 {
        fill: #071f39;
      }
    </style>
  </defs>
  <g id="Firkant">
    <rect class="cls-2" x="0" y="0" width="15.59" height="15.59"/>
  </g>
  <g id="Cirkel">
    <rect class="cls-2" x="0" y="0" width="15.59" height="15.59" rx="7.79" ry="7.79"/>
  </g>
  <g id="ICONS">
    <g>
      <rect class="cls-1" x="2.82" y="5.3" width="3.25" height="1.02" rx=".14" ry=".14"/>
      <path class="cls-1" d="M5.52,3.39h-2.15c-.07,0-.13-.06-.13-.13v-.29c0-.05.03-.1.08-.12l1.08-.41s.05,0,.07,0l1.08.41c.05.02.08.07.08.12v.29c0,.07-.06.13-.13.13Z"/>
      <path class="cls-1" d="M5.58,6.84s-.04-.08-.09-.08h-2.09s-.09.04-.09.08l-.48,4.7c0,.05.04.1.09.1h3.04c.05,0,.1-.05.09-.1l-.48-4.7ZM4.72,9.39h-.54v-.54c0-.15.12-.27.27-.27s.27.12.27.27v.54ZM4.72,8.22h-.54v-.54c0-.15.12-.27.27-.27s.27.12.27.27v.54Z"/>
      <g>
        <rect class="cls-1" x="4.54" y="3.83" width=".39" height="1.02"/>
        <rect class="cls-1" x="3.97" y="3.83" width=".39" height="1.02"/>
        <path class="cls-1" d="M5.35,3.83h-.24v1.02h.24c.06,0,.1-.05.1-.1v-.82c0-.06-.05-.1-.1-.1Z"/>
        <path class="cls-1" d="M3.8,3.83h-.26c-.06,0-.1.05-.1.1v.82c0,.06.05.1.1.1h.26v-1.02Z"/>
      </g>
    </g>
    <path class="cls-1" d="M14.17,9.47h0c.1,0,.19-.09.18-.2,0-.1-.09-.18-.2-.18h0l-.72.03-.69-.25-.98-.03-.59.2-.34-.52c-.06-.09-.17-.11-.26-.06-.09.06-.11.17-.06.26l.41.63c.04.06.12.1.19.08h.6s-.43,1.79-.43,1.79h0s.02.04.04.04h.3v.22l-.33.71c-.06.12,0,.27.12.33.12.06.27,0,.33-.12l.35-.75h0s.03-.08.03-.11v-.27h.08v1.1c0,.14.11.25.25.25s.25-.11.25-.25v-1.1h.3s.04-.02.04-.04h0s0,0,0,0l-.37-1.77.69.03h0s.04,0,.06,0l.75-.03Z"/>
    <g>
      <circle class="cls-1" cx="9.53" cy="4.12" r=".91"/>
      <path class="cls-1" d="M7.72,8.64h0c-.21,0-.37-.17-.37-.37.02-2.25,1.29-2.75,1.35-2.78.07-.04.12-.04.22-.04.01,0,.02,0,.04,0l1.28.04c.13,0,.16,0,.24-.09l.82-.84c.09-.1.11-.25-.05-.35l-.92-.48c-.13-.05-.22-.18-.22-.33,0-.19.16-.35.35-.35.08,0,.15.02.21.07h0l.93.55c.49.29.58.97.18,1.38l-.99,1.01-.06.12-.21,1.78v.03s.08,4.19.08,4.19c0,.25-.19.45-.44.45,0,0,0,0,0,0-.24,0-.44-.19-.45-.44l-.07-3.6-.4-.05-.68,3.71c-.04.21-.23.37-.44.37-.03,0-.05,0-.08,0-.24-.04-.4-.28-.36-.52l.7-3.83h0s.21-1.77.21-1.77c-.24.37-.47.94-.47,1.78,0,.2-.17.37-.37.37Z"/>
    </g>
    <circle class="cls-1" cx="12.29" cy="7.96" r=".69"/>
  </g>
</svg>