<?xml version="1.0" encoding="UTF-8"?>
<svg xmlns="http://www.w3.org/2000/svg" viewBox="0 0 15.59 15.59">
  <defs>
    <style>
      .cls-1 {
        fill: #fff;
      }

      .cls-2 {
        fill: #071f39;
      }
    </style>
  </defs>
  <g id="Firkant">
    <rect class="cls-2" x="0" y="0" width="15.59" height="15.59"/>
  </g>
  <g id="Cirkel">
    <rect class="cls-2" x="0" y="0" width="15.59" height="15.59" rx="7.8" ry="7.8"/>
  </g>
  <g id="ICONS">
    <path class="cls-1" d="M11.28,10.8c-.48,0-.74.18-.96.34-.21.15-.39.28-.76.28s-.56-.13-.76-.28c-.22-.16-.47-.34-.96-.34s-.73.18-.96.34c-.21.15-.39.28-.76.28s-.55-.13-.76-.28c-.22-.16-.47-.34-.95-.34-.09,0-.17.07-.17.17s.07.17.17.17c.37,0,.55.13.76.28.22.16.47.34.96.34s.73-.18.96-.34c.21-.15.39-.28.76-.28s.56.13.76.28c.22.16.47.34.96.34s.74-.18.96-.34c.21-.15.39-.28.76-.28.09,0,.17-.07.17-.17s-.07-.17-.17-.17Z"/>
    <path class="cls-1" d="M13.1,10.3c-.38,0-.57-.13-.78-.28-.22-.16-.48-.34-.97-.34s-.75.18-.97.34c-.21.15-.39.28-.78.28s-.57-.13-.78-.28c-.22-.16-.48-.34-.97-.34s-.75.18-.97.34c-.21.15-.4.28-.78.28s-.57-.13-.78-.28c-.23-.16-.48-.34-.97-.34s-.75.18-.97.34c-.21.15-.4.28-.78.28-.09,0-.17.07-.17.17s.07.17.17.17c.49,0,.75-.18.97-.34.21-.15.4-.28.78-.28s.57.13.78.28c.23.16.48.34.97.34s.75-.18.97-.34c.21-.15.4-.28.78-.28s.57.13.78.28c.22.16.48.34.97.34s.75-.18.97-.34c.21-.15.4-.28.78-.28s.57.13.78.28c.22.16.48.34.97.34.09,0,.17-.07.17-.17s-.07-.17-.17-.17Z"/>
    <g>
      <path class="cls-1" d="M11.35,6.98c-.11-.44-.56-.72-1-.61-.44.11-.72.56-.61,1,.11.44.56.72,1,.61.44-.11.72-.56.61-1Z"/>
      <path class="cls-1" d="M9,5.82l.88-.03c.05,0,.11.02.16,0,.19-.03.31-.13.32-.3.02-.19-.08-.36-.32-.39l-1.49-.21c-.2-.03-.39.12-.41.33l-.56,2.21-.62.44-1.66,1.18s.01,0,.02.01c.14.1.28.19.46.24.09.02.19.04.32.04.38,0,.57-.13.78-.28.23-.16.48-.34.97-.34s.75.18.97.34c.16.12.31.22.55.26.07.01.14.02.23.02.07,0,.13,0,.19-.02l-.33-1.45-.46-2.05Z"/>
      <path class="cls-1" d="M3.68,7.02c-.76,0-1.38.62-1.38,1.38,0,.31.11.6.29.83.03.04.06.07.09.1.32-.02.5-.14.69-.27.23-.16.48-.34.97-.34.27,0,.47.06.63.13.05-.14.09-.29.09-.45,0-.19-.04-.37-.11-.53-.21-.5-.7-.85-1.27-.85Z"/>
    </g>
  </g>
</svg>