<?xml version="1.0" encoding="UTF-8"?>
<svg xmlns="http://www.w3.org/2000/svg" viewBox="0 0 15.59 15.59">
  <defs>
    <style>
      .cls-1 {
        fill: #fff;
      }

      .cls-2 {
        fill: #021e3a;
      }
    </style>
  </defs>
  <g id="Firkant">
    <rect class="cls-2" x="0" y="0" width="15.59" height="15.59"/>
  </g>
  <g id="Cirkel">
    <rect class="cls-2" x="0" y="0" width="15.59" height="15.59" rx="7.8" ry="7.8"/>
  </g>
  <g id="ICONS">
    <g>
      <path class="cls-1" d="M5.86,6.78c.22.26.47.39.73.39.04,0,.08,0,.12-.01.29-.05.53-.28.68-.64.13-.34.16-.76.09-1.18-.07-.43-.24-.81-.48-1.08-.25-.3-.55-.43-.85-.38-.29.05-.53.28-.68.64-.13.34-.16.76-.09,1.18.07.43.24.81.48,1.08Z"/>
      <path class="cls-1" d="M8.88,7.16s.08.01.12.01c.25,0,.51-.14.73-.39.23-.27.4-.66.48-1.08.07-.43.04-.85-.09-1.18-.14-.36-.38-.59-.68-.64-.29-.05-.6.09-.85.38-.23.27-.4.66-.48,1.08-.07.43-.04.85.09,1.18.14.36.38.59.68.64Z"/>
      <path class="cls-1" d="M5.59,8.7c.14-.31.18-.7.11-1.09-.07-.39-.23-.74-.46-.99-.25-.27-.55-.38-.84-.34-.29.05-.53.26-.68.59-.14.31-.18.7-.11,1.09.07.39.23.74.46.99.21.23.46.35.71.35.04,0,.09,0,.13-.01.29-.05.53-.26.68-.59Z"/>
      <path class="cls-1" d="M11.87,6.87c-.15-.33-.39-.54-.68-.59-.29-.05-.59.07-.84.34-.23.25-.4.6-.46.99-.07.39-.03.78.11,1.09.15.33.39.54.68.59.04,0,.09.01.13.01.25,0,.5-.12.71-.35.23-.25.4-.6.46-.99.07-.39.03-.78-.11-1.09Z"/>
      <path class="cls-1" d="M9.31,9.02v-.02c0-.47-.15-.92-.42-1.26-.26-.33-.75-.39-1.09-.14-.17-.12-.37-.16-.57-.14-.22.03-.43.15-.56.33-.25.33-.38.76-.38,1.21v.02c-.64-.13-1.21.53-1.21,1.35,0,.75.48,1.36,1.06,1.36s.94-.28,1.03-.77c.39.22.87.22,1.27,0,.1.49.46.77,1.03.77s1.06-.61,1.06-1.36c0-.82-.57-1.48-1.21-1.35Z"/>
    </g>
  </g>
</svg>