<?xml version="1.0" encoding="UTF-8"?>
<svg xmlns="http://www.w3.org/2000/svg" viewBox="0 0 15.59 15.59">
  <defs>
    <style>
      .cls-1 {
        fill: #fff;
      }

      .cls-2 {
        fill: #071f39;
      }
    </style>
  </defs>
  <g id="Firkant">
    <rect class="cls-2" x="0" y="0" width="15.59" height="15.59"/>
  </g>
  <g id="Cirkel">
    <rect class="cls-2" x="0" y="0" width="15.59" height="15.59" rx="7.79" ry="7.79"/>
  </g>
  <g id="ICONS">
    <g>
      <circle class="cls-1" cx="6.73" cy="2.83" r=".76"/>
      <path class="cls-1" d="M12.75,9.84h-4.11l-.06.45c.15.12.24.3.28.49h3.89c.26,0,.47-.21.47-.47s-.21-.47-.47-.47Z"/>
      <path class="cls-1" d="M8.27,10.65s-.1-.06-.16-.07h-.04s.1-.74.1-.74l.75-5.48.05-.35.08-.56c.02-.13-.07-.25-.2-.26-.01,0-.02,0-.04,0-.03,0-.06.02-.09.04-.02,0-.03,0-.05.02-.05.04-.08.09-.09.15l-.31,2.27s-.02.16-.04.33l-.3-.28-.93-.87.99.1.09-.68-2.01-.34c-.27-.08-.55.09-.63.36l-.7,2.53-.37,3.02s0,0,0,0h-1.21c-.26,0-.47.21-.47.47s.21.47.47.47h3.54v-.05c.05-.28.23-.51.48-.62l.04-.26h-.34l-.43-3.01s.34-1.25.34-1.25l1.04.97.29.28-.41,3.01-.09.67h-.04s-.03,0-.05,0c-.05,0-.09.03-.13.05-.02.01-.05,0-.07.03-.06.05-.11.12-.12.2,0,0,0,0,0,0,0,0,0,0,0,0l-.08.59-.11.82v.1s-.01,0-.01,0h0s0,.09,0,.13c.03.13.14.23.28.24l.55.08s.03,0,.05,0c0,0,.01,0,.02,0,.07,0,.14-.03.19-.07,0,0,0-.01.01-.02.05-.05.09-.12.11-.19l.08-.57.04-.3.04-.31h0s.04-.33.04-.33c0-.06,0-.12-.03-.18-.02-.05-.06-.1-.1-.13ZM5.14,9.84l.35-2.83.24.07.41,2.76h-1Z"/>
      <path class="cls-1" d="M5.55,11.51c-.2-.15-.44-.31-.88-.31s-.68.17-.88.31c-.19.14-.36.26-.71.26-.08,0-.15.07-.15.15s.07.15.15.15c.45,0,.68-.17.88-.31.19-.14.36-.26.71-.26s.52.12.71.26c.2.15.44.31.88.31.13,0,.25-.02.35-.04l.04-.33c-.11.04-.23.07-.39.07-.35,0-.52-.12-.71-.26Z"/>
      <path class="cls-1" d="M12.61,11.76c-.35,0-.51-.12-.71-.26-.2-.15-.43-.31-.88-.31s-.68.17-.88.31c-.19.14-.36.26-.71.26s-.51-.12-.71-.26c0,0,0,0,0,0l-.05.33c.18.12.4.23.76.23.44,0,.68-.17.88-.31.19-.14.36-.26.71-.26s.51.12.71.26c.2.15.43.31.88.31.08,0,.15-.07.15-.15s-.07-.15-.15-.15Z"/>
    </g>
  </g>
</svg>