<?xml version="1.0" encoding="UTF-8"?>
<svg xmlns="http://www.w3.org/2000/svg" viewBox="0 0 15.59 15.59">
  <defs>
    <style>
      .cls-1 {
        fill: #fff;
        fill-rule: evenodd;
      }

      .cls-2 {
        fill: #004712;
      }
    </style>
  </defs>
  <g id="Firkant">
    <rect class="cls-2" x="0" y="0" width="15.59" height="15.59"/>
  </g>
  <g id="Cirkel">
    <rect class="cls-2" x="0" y="0" width="15.59" height="15.59" rx="7.8" ry="7.8"/>
  </g>
  <g id="ICONS">
    <g id="Layer_2" data-name="Layer 2">
      <g>
        <path class="cls-1" d="M11.49,5.21c.56,0,1.01.14,1.35.4s.56.73.62,1.39h-.81c-.04-.3-.16-.56-.34-.75-.18-.2-.46-.3-.85-.3-.52,0-.91.26-1.13.77-.14.34-.22.75-.22,1.23s.1.91.3,1.25.54.5.99.5c.34,0,.62-.1.81-.32.2-.2.34-.5.42-.87h.81c-.1.64-.32,1.13-.68,1.43-.36.3-.85.44-1.41.44-.64,0-1.15-.24-1.53-.7-.38-.46-.56-1.05-.56-1.75,0-.87.2-1.53.62-2.01.42-.46.97-.7,1.61-.7Z"/>
        <polyline class="cls-1" points="2.13 5.35 3.01 5.35 3.96 9.22 4.93 5.35 5.85 5.35 6.82 9.2 7.83 5.35 8.65 5.35 7.22 10.26 6.36 10.26 5.37 6.46 4.4 10.26 3.54 10.26 2.13 5.35"/>
      </g>
    </g>
  </g>
</svg>