<?xml version="1.0" encoding="UTF-8"?>
<svg xmlns="http://www.w3.org/2000/svg" viewBox="0 0 15.59 15.59">
  <defs>
    <style>
      .cls-1 {
        fill: #fff;
      }

      .cls-2 {
        fill: #071f39;
      }
    </style>
  </defs>
  <g id="Firkant">
    <rect class="cls-2" x="0" y="0" width="15.59" height="15.59"/>
  </g>
  <g id="Cirkel">
    <rect class="cls-2" x="0" y="0" width="15.59" height="15.59" rx="7.8" ry="7.8"/>
  </g>
  <g id="ICONS">
    <g>
      <path class="cls-1" d="M7.66,4.08c.43,0,.78-.35.78-.78s-.35-.78-.78-.78-.78.35-.78.78.35.78.78.78Z"/>
      <path class="cls-1" d="M13.62,7.4h-5.26l.15-1.57,2.1,1.17c.2.13.46.08.6-.12.13-.2.08-.42-.12-.55l-2.78-1.9c-.06-.04-.14-.07-.21-.07l-1.16-.06c-.08,0-.16.01-.23.05l-1.78,1.01c-.18.09-.26.3-.21.49l.22.91c.05.19.15.32.34.32.04,0,.07,0,.11-.02.23-.06.32-.3.25-.53l-.04-.58.75-.32-.11,1.77h-1.91s-2.41,0-2.41,0c-.08,0-.15.07-.15.15s.07.15.15.15h2.41v2.75c.09-.02.19-.03.31-.03.45,0,.68.17.88.31.19.14.36.26.71.26s.51-.12.71-.26c.2-.15.44-.31.88-.31s.68.17.88.31c.19.14.36.26.71.26s.51-.12.71-.26c.2-.15.44-.31.88-.31.08,0,.14.01.21.02v-2.74h2.39c.08,0,.15-.07.15-.15s-.07-.15-.15-.15Z"/>
    </g>
    <path class="cls-1" d="M10.96,12.21c-.44,0-.67.17-.87.31-.19.14-.35.25-.69.25s-.5-.12-.69-.25c-.2-.15-.43-.31-.87-.31s-.67.17-.87.31c-.19.14-.35.25-.69.25s-.5-.12-.69-.25c-.2-.15-.43-.31-.87-.31-.08,0-.15.07-.15.15s.07.15.15.15c.34,0,.5.12.69.25.2.15.43.31.87.31s.67-.17.87-.31c.19-.14.35-.25.69-.25s.5.12.69.25c.2.15.43.31.87.31s.67-.17.87-.31c.19-.14.35-.25.69-.25.08,0,.15-.07.15-.15s-.07-.15-.15-.15Z"/>
    <path class="cls-1" d="M12.61,11.76c-.35,0-.51-.12-.71-.26-.2-.15-.43-.31-.88-.31s-.68.17-.88.31c-.19.14-.36.26-.71.26s-.51-.12-.71-.26c-.2-.15-.43-.31-.88-.31s-.68.17-.88.31c-.19.14-.36.26-.71.26s-.52-.12-.71-.26c-.2-.15-.44-.31-.88-.31s-.68.17-.88.31c-.19.14-.36.26-.71.26-.08,0-.15.07-.15.15s.07.15.15.15c.45,0,.68-.17.88-.31.19-.14.36-.26.71-.26s.52.12.71.26c.2.15.44.31.88.31s.68-.17.88-.31c.19-.14.36-.26.71-.26s.51.12.71.26c.2.15.43.31.88.31s.68-.17.88-.31c.19-.14.36-.26.71-.26s.51.12.71.26c.2.15.43.31.88.31.08,0,.15-.07.15-.15s-.07-.15-.15-.15Z"/>
  </g>
</svg>