<?xml version="1.0" encoding="UTF-8"?>
<svg xmlns="http://www.w3.org/2000/svg" viewBox="0 0 15.59 15.59">
  <defs>
    <style>
      .cls-1 {
        fill: #fff;
      }

      .cls-2 {
        fill: #071f39;
      }
    </style>
  </defs>
  <g id="Firkant">
    <rect class="cls-2" x="0" y="0" width="15.59" height="15.59"/>
  </g>
  <g id="Cirkel">
    <rect class="cls-2" x="0" y="0" width="15.59" height="15.59" rx="7.79" ry="7.79"/>
  </g>
  <g id="ICONS">
    <g>
      <path class="cls-1" d="M8.8,10.88c.07-.01.17,0,.2-.08.02-.05,0-.1-.06-.12-.16-.05-.31-.12-.42-.22.05.18.14.32.28.42Z"/>
      <path class="cls-1" d="M9.19,11.24c-.3-.08-.51-.2-.65-.37-.14-.18-.22-.41-.25-.72,0-.02,0-.05,0-.07,0-.02,0-.03-.01-.05-.03-.09-.1-.15-.19-.16,0,0,0,0,0,0,0,0,0,0,0,0-.1-.01-.2.03-.24.14-.11.28-.16.62-.38.84-.07.07-.17.12-.28.16-.03.01-.06.04-.06.08-.02.06.02.12.08.14.32.08.6-.05.8-.28.04.08.09.15.13.18.19.23.49.35.78.35.11-.02.29,0,.35-.1.02-.06,0-.12-.06-.15Z"/>
      <path class="cls-1" d="M8.02,9.71c-.02-.07-.07-.14-.14-.16l.1-.14c.09.08.13.19.12.31h-.09Z"/>
    </g>
    <path class="cls-1" d="M13.76,10.42s-.29-.92-.45-1.17c-.11-.16-.34-.38-.57-.54.2-.19.54-.66.28-.91-.33-.23-.78.11-1.11.14-.24,0-.7-.21-.86.06-.1.2.1.55.25.71-.21.16-.43.38-.56.54-.19.24-.5,1.17-.5,1.17-.16.48.2.98.71.98h2.1c.51,0,.87-.5.71-.98Z"/>
    <path class="cls-1" d="M4.89,4.36h.64c.1,0,.18.08.18.18v2.82h-1.83v-1.98c0-.56.45-1.01,1.01-1.01Z" transform="translate(6.3 -1.56) rotate(50.77)"/>
    <path class="cls-1" d="M2.59,11.39c-.07,0-.14-.01-.21-.04-.28-.11-.42-.43-.3-.71l.8-1.96v-2.17c0-.3.25-.55.55-.55s.55.25.55.55v2.28c0,.07-.01.14-.04.21l-.84,2.06c-.09.21-.29.34-.51.34Z"/>
    <path class="cls-1" d="M5.45,11.39c-.24,0-.47-.16-.53-.41l-.53-2.04-1.34-2.05c-.17-.25-.09-.59.16-.76.25-.17.59-.09.76.16l1.38,2.13s.06.1.07.16l.55,2.13c.08.29-.1.59-.39.67-.05.01-.09.02-.14.02Z"/>
    <path class="cls-1" d="M7.02,8.18c-.08,0-.16-.02-.24-.08l-1.01-.72c-.12-.09-.19-.23-.17-.38l.15-1.25c.03-.23.23-.38.46-.36.23.03.39.23.36.46l-.12,1.01.81.57c.19.13.23.39.1.57-.08.11-.21.17-.34.17Z"/>
    <circle class="cls-1" cx="7.22" cy="4.21" r="1.04"/>
  </g>
</svg>