<?xml version="1.0" encoding="UTF-8"?>
<svg xmlns="http://www.w3.org/2000/svg" viewBox="0 0 15.59 15.59">
  <defs>
    <style>
      .cls-1 {
        fill: #fff;
      }

      .cls-2 {
        fill: #071f39;
      }
    </style>
  </defs>
  <g id="Firkant">
    <rect class="cls-2" x="0" y="0" width="15.59" height="15.59"/>
  </g>
  <g id="Cirkel">
    <rect class="cls-2" x="0" y="0" width="15.59" height="15.59" rx="7.8" ry="7.8"/>
  </g>
  <g id="ICONS">
    <g>
      <path class="cls-1" d="M12.56,11.65H3.03c-.08,0-.15.07-.15.15s.07.15.15.15h9.52c.08,0,.15-.07.15-.15s-.07-.15-.15-.15Z"/>
      <path class="cls-1" d="M7.07,12.5h-.5c-.08,0-.15.07-.15.15s.07.15.15.15h.5c.08,0,.15-.07.15-.15s-.07-.15-.15-.15Z"/>
      <path class="cls-1" d="M5.07,12.5h-.5c-.08,0-.15.07-.15.15s.07.15.15.15h.5c.08,0,.15-.07.15-.15s-.07-.15-.15-.15Z"/>
      <path class="cls-1" d="M4.07,12.5h-.5c-.08,0-.15.07-.15.15s.07.15.15.15h.5c.08,0,.15-.07.15-.15s-.07-.15-.15-.15Z"/>
      <path class="cls-1" d="M6.07,12.5h-.5c-.08,0-.15.07-.15.15s.07.15.15.15h.5c.08,0,.15-.07.15-.15s-.07-.15-.15-.15Z"/>
      <path class="cls-1" d="M12.02,12.5h-.44c-.08,0-.15.07-.15.15s.07.15.15.15h.44c.08,0,.15-.07.15-.15s-.07-.15-.15-.15Z"/>
      <path class="cls-1" d="M11.07,12.5h-.5c-.08,0-.15.07-.15.15s.07.15.15.15h.5c.08,0,.15-.07.15-.15s-.07-.15-.15-.15Z"/>
      <path class="cls-1" d="M9.07,12.5h-.5c-.08,0-.15.07-.15.15s.07.15.15.15h.5c.08,0,.15-.07.15-.15s-.07-.15-.15-.15Z"/>
      <path class="cls-1" d="M10.07,12.5h-.5c-.08,0-.15.07-.15.15s.07.15.15.15h.5c.08,0,.15-.07.15-.15s-.07-.15-.15-.15Z"/>
      <path class="cls-1" d="M8.07,12.5h-.5c-.08,0-.15.07-.15.15s.07.15.15.15h.5c.08,0,.15-.07.15-.15s-.07-.15-.15-.15Z"/>
      <path class="cls-1" d="M7.12,9.66c.16.22.32.44.48.65.03.04.19.19.19.25.4-.5.78-1.03,1.13-1.57.57-.86,1.36-1.92,1.36-3.01,0-.88-.57-1.72-1.33-2.12-.36-.19-.76-.29-1.16-.29-.89,0-1.73.49-2.17,1.27-.57,1.01-.21,2.01.31,2.95.36.65.76,1.26,1.19,1.86ZM7.79,4.98c.59,0,1.06.48,1.06,1.06s-.48,1.06-1.06,1.06-1.06-.48-1.06-1.06.48-1.06,1.06-1.06Z"/>
    </g>
  </g>
</svg>