<?xml version="1.0" encoding="UTF-8"?>
<svg xmlns="http://www.w3.org/2000/svg" viewBox="0 0 15.59 15.59">
  <defs>
    <style>
      .cls-1 {
        fill: #fff;
      }

      .cls-2 {
        fill: #004712;
      }
    </style>
  </defs>
  <g id="Firkant">
    <rect class="cls-2" x="0" y="0" width="15.59" height="15.59"/>
  </g>
  <g id="Cirkel">
    <rect class="cls-2" x="0" y="0" width="15.59" height="15.59" rx="7.8" ry="7.8"/>
  </g>
  <g id="ICONS">
    <g>
      <path class="cls-1" d="M7.08,5.5c.46,0,.84-.38.84-.84s-.38-.84-.84-.84-.84.38-.84.84.38.84.84.84"/>
      <path class="cls-1" d="M13.51,11.37l-5.61-2.6-1.36.61-.38-.18,1.99-.92s.04.06.05.07c.07.08.17.13.28.13.06,0,.11-.01.16-.03l1.35-.62c.11-.05.19-.16.19-.28,0-.06-.02-.12-.05-.17l1.35-.62c.34.05.98-.09,1.47-.32.66-.31.74-.64.63-.89-.11-.25-.45-.39-1.11-.08-.48.22-.98.62-1.16.91l-2.53,1.17-.4-1.23s-.03-.08-.05-.12c-.13-.26-.4-.44-.71-.44-.05,0-.1,0-.14.01l-1.05.15c-.17.03-.32.11-.44.22-.03.03-1.25,1.06-1.25,1.06-.12.1-.2.26-.2.43,0,.06.01.12.03.18l.2.71-.36-.17-.14-.51c-.02-.07-.03-.14-.03-.22,0-.12.03-.23.07-.34l-2.2-.82v1.26s1.46.75,2.98,1.5l-1.03.47c-.34-.05-.98.09-1.47.32-.37.17-.56.35-.63.52h1.84c.19-.15.34-.31.43-.45l1.34-.62c1.15.57,2.25,1.1,2.67,1.25,3.45,1.26,5.2,1.03,5.2,1.03.11,0,.2-.09.2-.2,0-.08-.05-.16-.12-.19M6.01,8.82l-.33.15-.28-1.02s0-.03,0-.05c0-.06.03-.12.08-.15l.54-.45v1.52Z"/>
    </g>
  </g>
</svg>