<?xml version="1.0" encoding="UTF-8"?>
<svg xmlns="http://www.w3.org/2000/svg" viewBox="0 0 15.59 15.59">
  <defs>
    <style>
      .cls-1 {
        fill: #fff;
      }

      .cls-2 {
        fill: #004712;
      }
    </style>
  </defs>
  <g id="Firkant">
    <rect class="cls-2" x="0" y="0" width="15.59" height="15.59"/>
  </g>
  <g id="Cirkel">
    <rect class="cls-2" x="0" y="0" width="15.59" height="15.59" rx="7.8" ry="7.8"/>
  </g>
  <g id="ICONS">
    <g>
      <path class="cls-1" d="M10.44,8.39s.59-1.22.59-1.22c0,0,.08.11.12.15.12.15.34.19.5.06.16-.12.18-.34.06-.5-.02-.02-.98-1.24-.98-1.24,0,0,.27-1.73.29-1.88.05-.24.01-.75-.52-.9-.05-.01-2.09-.57-2.16-.59-.27-.07-.53.04-.7.21-.17.17-.26.43-.2.72,0,.02.21.96.21.96l-.54,1.42-.6.21c.03-.48-.15-1.02-.58-1.41-.81-.73-1.94-.52-2.49.11-.61.7-.66,1.77.13,2.5.76.7,1.78.5,2.32.03,0,0,.47.46.47.46-.04.16.03.38.24.46.23.09.41-.05.48-.16,0,0,.04.09.16.15.15.07.39.05.49-.17.01,0,2.48-.01,2.48-.01,0,0-.2.41-.21.43-.66-.23-1.68-.04-2.14.9-.48.98.07,2,.81,2.36.78.38,1.89.15,2.36-.81.46-.94,0-1.85-.6-2.24M8.88,11.02c-.64-.31-.91-1.09-.6-1.73.34-.7,1.1-.81,1.51-.68,0,.02-.56,1.13-.56,1.15-.06.12,0,.26.11.32.12.06.26,0,.32-.11,0,0,.56-1.14.56-1.15.32.23.74.89.39,1.61-.28.58-1.04.93-1.73.59ZM8.72,5.77s.08-.16.11-.23c.06-.11.06-.19.03-.3,0,0-.31-1.38-.31-1.38l1.66.46s-.2,1.27-.21,1.36c-.02.13-.01.19.04.25.07.09.66.84.66.84l-.14.28-1.85-1.27ZM7.98,7.29l.57-1.18,1.75,1.19h-2.32ZM6.94,7.04l.28-.72.49-.18-.52,1.06-.26-.16ZM7.79,4.82l.11.48-.34.12.23-.6ZM6.2,6.69h0s.55-.21.55-.21l-.2.51-.36-.31ZM4.6,5.86s.94.85.94.85c-.32.26-1.06.47-1.66-.07-.49-.45-.6-1.26-.09-1.83.48-.53,1.3-.56,1.83-.09.33.29.5.77.4,1.24,0,0-.1.03-.17.12-.07.09-.08.2-.08.2,0,0-.85-.77-.86-.78-.1-.09-.25-.08-.34.02-.09.1-.08.25.02.34Z"/>
      <path class="cls-1" d="M11.69,4.18c.36.18.8.03.98-.34.18-.36.03-.8-.34-.98-.36-.18-.8-.03-.98.34-.18.36-.03.8.34.98"/>
      <path class="cls-1" d="M11.38,13.14c.25,0-.98-.52-1.29-.91-.21-.27-1.98-.54-2.24-.8-.54-.54-.92-1.96-1.57-2.14-.28-.08-1.18-.46-1.13-.59.04-.1-.74-.22-.69-.39.04-.14-.8-.01-.72-.24.04-.12-.61.13-.55-.02,0-.11-.47-.14-.41-.23-.05-.18-.58-.02-.58-.02v4.34c0,.46.41.99,1.04.99,0,0,7.78,0,8.13,0"/>
    </g>
  </g>
</svg>