<?xml version="1.0" encoding="UTF-8"?>
<svg xmlns="http://www.w3.org/2000/svg" viewBox="0 0 15.59 15.59">
  <defs>
    <style>
      .cls-1 {
        fill-rule: evenodd;
      }

      .cls-1, .cls-2 {
        fill: #fff;
      }

      .cls-3 {
        fill: #071f39;
      }
    </style>
  </defs>
  <g id="Firkant">
    <rect class="cls-3" x="0" y="0" width="15.59" height="15.59"/>
  </g>
  <g id="Cirkel">
    <rect class="cls-3" x="0" y="0" width="15.59" height="15.59" rx="7.8" ry="7.8"/>
  </g>
  <g id="ICONS">
    <g>
      <path class="cls-2" d="M6.07,12.5h-.5c-.08,0-.15.07-.15.15s.07.15.15.15h.5c.08,0,.15-.07.15-.15s-.07-.15-.15-.15Z"/>
      <path class="cls-2" d="M7.07,12.5h-.5c-.08,0-.15.07-.15.15s.07.15.15.15h.5c.08,0,.15-.07.15-.15s-.07-.15-.15-.15Z"/>
      <path class="cls-2" d="M4.07,12.5h-.5c-.08,0-.15.07-.15.15s.07.15.15.15h.5c.08,0,.15-.07.15-.15s-.07-.15-.15-.15Z"/>
      <path class="cls-2" d="M5.07,12.5h-.5c-.08,0-.15.07-.15.15s.07.15.15.15h.5c.08,0,.15-.07.15-.15s-.07-.15-.15-.15Z"/>
      <path class="cls-2" d="M8.07,12.5h-.5c-.08,0-.15.07-.15.15s.07.15.15.15h.5c.08,0,.15-.07.15-.15s-.07-.15-.15-.15Z"/>
      <path class="cls-2" d="M9.07,12.5h-.5c-.08,0-.15.07-.15.15s.07.15.15.15h.5c.08,0,.15-.07.15-.15s-.07-.15-.15-.15Z"/>
      <path class="cls-2" d="M11.07,12.5h-.5c-.08,0-.15.07-.15.15s.07.15.15.15h.5c.08,0,.15-.07.15-.15s-.07-.15-.15-.15Z"/>
      <path class="cls-2" d="M12.02,12.5h-.44c-.08,0-.15.07-.15.15s.07.15.15.15h.44c.08,0,.15-.07.15-.15s-.07-.15-.15-.15Z"/>
      <path class="cls-2" d="M10.07,12.5h-.5c-.08,0-.15.07-.15.15s.07.15.15.15h.5c.08,0,.15-.07.15-.15s-.07-.15-.15-.15Z"/>
      <path class="cls-2" d="M8.06,11.65c-.08,0-.15.07-.15.15s.07.15.15.15h.5c.08,0,.15-.07.15-.15s-.07-.15-.15-.15h-.5Z"/>
      <path class="cls-2" d="M9.06,11.65c-.08,0-.15.07-.15.15s.07.15.15.15h.5c.08,0,.15-.07.15-.15s-.07-.15-.15-.15h-.5Z"/>
      <path class="cls-2" d="M7.56,11.65h-.5c-.08,0-.15.07-.15.15s.07.15.15.15h.5c.08,0,.15-.07.15-.15s-.07-.15-.15-.15Z"/>
      <path class="cls-2" d="M12.56,11.65h-.5c-.08,0-.15.07-.15.15s.07.15.15.15h.5c.08,0,.15-.07.15-.15s-.07-.15-.15-.15Z"/>
      <path class="cls-2" d="M10.56,11.95c.08,0,.15-.07.15-.15s-.07-.15-.15-.15h-.5c-.08,0-.15.07-.15.15s.07.15.15.15h.5Z"/>
      <path class="cls-2" d="M3.71,11.8c0-.08-.07-.15-.15-.15h-.5c-.08,0-.15.07-.15.15s.07.15.15.15h.5c.08,0,.15-.07.15-.15Z"/>
      <path class="cls-2" d="M11.56,11.95c.08,0,.15-.07.15-.15s-.07-.15-.15-.15h-.5c-.08,0-.15.07-.15.15s.07.15.15.15h.5Z"/>
      <path class="cls-2" d="M5.06,11.65c-.08,0-.15.07-.15.15s.07.15.15.15h.5c.08,0,.15-.07.15-.15s-.07-.15-.15-.15h-.5Z"/>
      <path class="cls-2" d="M6.06,11.65c-.08,0-.15.07-.15.15s.07.15.15.15h.5c.08,0,.15-.07.15-.15s-.07-.15-.15-.15h-.5Z"/>
      <path class="cls-2" d="M4.06,11.65c-.08,0-.15.07-.15.15s.07.15.15.15h.5c.08,0,.15-.07.15-.15s-.07-.15-.15-.15h-.5Z"/>
      <path class="cls-2" d="M12.56,6.17c-.14,0-.25.11-.25.25v1l-1.86.66v-.98c0-.14-.11-.25-.25-.25s-.25.11-.25.25v3.26c0,.14.11.25.25.25s.25-.11.25-.25v-.54l1.86-.65v.51c0,.14.11.25.25.25s.25-.11.25-.25v-3.26c0-.14-.11-.25-.25-.25ZM12.31,7.78v.33l-1.86.66v-.34l1.86-.65ZM10.45,9.46v-.34l1.86-.65v.33l-1.86.66Z"/>
      <path class="cls-1" d="M2.57,7.79l-.05-.75c0-.21.16-.39.37-.42h.03s0,1.45,0,1.45l-.38.63s-.04.08-.05.13c0,.02,0,.04-.01.07l-.21,1.04c-.01.2.07.4.22.53.15.13.36.18.56.13l-.26-.57.21-1.07.81-.8-.11.44c-.04.18.03.37.18.48l.72.6c-.08.14-.08.31-.01.45.07.14.21.24.37.26l.16-.71s0-.03,0-.04c0-.03,0-.05,0-.08-.01-.07-.05-.13-.1-.18l-.03-.03-.72-.6.27-.83.13.02s.09,0,.14.01c.04,0,.08.01.13.02l.13.03.16.04s.05.01.07.02c.02,0,.04.01.06.02.01,0,.02,0,.04,0h.07s.03.02.04.02c.02,0,.04,0,.05,0,.03,0,.07.01.1.02.03,0,.05,0,.08.01.02,0,.05,0,.07,0,.05,0,.1,0,.14,0,.05,0,.1,0,.15,0,.04,0,.09,0,.13,0h.15s-.54,1.72-.54,1.72c-.07.2-.03.42.12.57.14.15.36.21.56.14l-.21-.5.67-1.83c.4-.02.79.02,1.18.12l.03.81c-.13.06-.22.18-.26.32-.04.14-.01.29.07.41l.67-.48v-1.21c-.02-.18-.15-.34-.32-.39l-.73-.09c.28-.37.39-.84.33-1.3l.34-.97.39.45c-.03.19.1.37.28.41.19.04.37-.08.42-.26l-.33-1.81.21-.31c-.19-.01-.38.07-.5.23-.8-.13-1.59.29-1.94,1.03l-.78-.43.11-.62c.03-.24-.14-.46-.38-.49-.24-.03-.45.14-.48.38l-.4,1.87-.72-.02c-.44,0-.86.14-1.2.41-.46-.03-.85.32-.88.78v1.43c.28-.12.48-.4.48-.72Z"/>
      <path class="cls-1" d="M5.98,3.54c.25-.03.43-.26.4-.52-.03-.26-.26-.44-.52-.41-.25.03-.43.26-.4.52.03.26.26.44.52.41Z"/>
    </g>
  </g>
</svg>