<?xml version="1.0" encoding="UTF-8"?>
<svg xmlns="http://www.w3.org/2000/svg" viewBox="0 0 15.59 15.59">
  <defs>
    <style>
      .cls-1 {
        fill: #071f39;
      }

      .cls-1, .cls-2 {
        stroke-width: 0px;
      }

      .cls-2 {
        fill: #fff;
      }
    </style>
  </defs>
  <g id="Cirkel">
    <rect class="cls-1" x="0" y="0" width="15.59" height="15.59" rx="7.8" ry="7.8"/>
  </g>
  <g id="ICONS">
    <g>
      <path class="cls-2" d="M5.48,7.79c0,.21-.08.39-.23.55-.15.16-.34.24-.58.24s-.41-.08-.57-.23c-.16-.16-.23-.34-.23-.55s.08-.4.23-.56c.15-.16.34-.23.58-.23s.42.08.58.23c.15.15.23.34.23.55Z"/>
      <path class="cls-2" d="M8.6,7.79c0,.21-.08.39-.23.55-.15.16-.34.24-.58.24s-.41-.08-.57-.23c-.16-.16-.23-.34-.23-.55s.08-.4.23-.56c.15-.16.34-.23.58-.23s.42.08.58.23c.15.15.23.34.23.55Z"/>
      <path class="cls-2" d="M11.72,7.79c0,.21-.08.39-.23.55-.15.16-.34.24-.58.24s-.41-.08-.57-.23c-.16-.16-.23-.34-.23-.55s.08-.4.23-.56c.15-.16.34-.23.58-.23s.42.08.58.23c.15.15.23.34.23.55Z"/>
    </g>
  </g>
</svg>