<?xml version="1.0" encoding="UTF-8"?>
<svg xmlns="http://www.w3.org/2000/svg" viewBox="0 0 15.59 15.59">
  <defs>
    <style>
      .cls-1 {
        fill: #071f39;
      }

      .cls-1, .cls-2 {
        stroke-width: 0px;
      }

      .cls-2 {
        fill: #fff;
      }
    </style>
  </defs>
  <g id="Cirkel">
    <rect class="cls-1" x="0" y="0" width="15.59" height="15.59" rx="7.8" ry="7.8"/>
  </g>
  <g id="ICONS">
    <path class="cls-2" d="M9.4,13.08c-.44,0-.67-.17-.87-.31-.19-.14-.35-.25-.69-.25s-.5.12-.69.25c-.2.15-.43.31-.87.31s-.67-.17-.87-.31c-.19-.14-.35-.25-.69-.25-.08,0-.15-.07-.15-.15s.07-.15.15-.15c.44,0,.67.17.87.31.19.14.35.25.69.25s.5-.12.69-.25c.2-.15.43-.31.87-.31s.67.17.87.31c.19.14.35.25.69.25s.5-.12.69-.25c.2-.15.43-.31.87-.31.08,0,.15.07.15.15s-.07.15-.15.15c-.34,0-.5.12-.69.25-.2.15-.43.31-.87.31Z"/>
    <path class="cls-2" d="M12.61,12.06c-.44,0-.68-.17-.88-.31-.19-.14-.36-.26-.71-.26s-.51.12-.71.26c-.2.15-.44.31-.88.31s-.68-.17-.88-.31c-.19-.14-.36-.26-.71-.26s-.51.12-.71.26c-.2.15-.44.31-.88.31s-.68-.17-.88-.31c-.19-.14-.36-.26-.71-.26s-.52.12-.71.26c-.2.15-.44.31-.88.31-.08,0-.15-.07-.15-.15s.07-.15.15-.15c.35,0,.52-.12.71-.26.21-.15.44-.31.88-.31s.68.17.88.31c.19.14.36.26.71.26s.51-.12.71-.26c.2-.15.44-.31.88-.31s.68.17.88.31c.19.14.36.26.71.26s.51-.12.71-.26c.2-.15.44-.31.88-.31s.68.17.88.31c.19.14.36.26.71.26.08,0,.15.07.15.15s-.07.15-.15.15Z"/>
    <g>
      <path class="cls-2" d="M12.6,8.39c.02-.52-.24-1.06-.7-1.3-.03-.02-.07-.02-.11,0-.03.01-.06.04-.07.08-.11.39-.46.66-.85.66h-1.89l.1-.17h.06c.19,0,.34-.16.34-.35,0-.08-.03-.15-.08-.21l.2-.34.09.05c.05.03.11.05.16.05.05,0,.11-.01.16-.04.17-.09.32-.25.43-.45.26-.46.22-.96-.09-1.15-.12-.07-.26-.09-.41-.05-.24.06-.47.26-.63.53-.11.19-.17.41-.17.6,0,.11.06.22.15.28l.09.06-.2.34s-.03-.01-.05-.01h-.71l-.42-.38v-.35c0-.07-.06-.12-.12-.12h-.38c-.24,0-.44.2-.44.44v1.28h-2.35c-.39,0-.74-.27-.85-.66-.01-.04-.04-.06-.07-.08-.03-.01-.07-.01-.11,0-.61.31-.84,1.06-.62,1.68.36,1.02,1.52.98,2.41.98,1.77,0,3.55,0,5.32,0,.62,0,1.33-.23,1.65-.8.1-.17.15-.37.15-.57ZM8.01,7.51l.06.06c.06.06.14.09.23.09h.49l-.1.17h-.68v-.31Z"/>
      <path class="cls-2" d="M7.59,6c.35,0,.63-.29.63-.65s-.28-.65-.63-.65-.63.29-.63.65.28.65.63.65Z"/>
    </g>
  </g>
</svg>