<?xml version="1.0" encoding="UTF-8"?>
<svg id="ICONS" xmlns="http://www.w3.org/2000/svg" viewBox="0 0 15.59 15.59">
  <defs>
    <style>
      .cls-1 {
        fill: #fff;
      }
    </style>
  </defs>
  <path class="cls-1" d="M14,7.21h-4.91c-.39,0-.39.61,0,.61h.46v1.47c.32-.04.52-.17.7-.29.15-.11.29-.2.52-.24v-.94h3.23c.39,0,.39-.61,0-.61Z"/>
  <path class="cls-1" d="M10.9,10.47c-.44,0-.67.17-.87.31-.19.14-.35.25-.69.25s-.5-.12-.69-.25c-.2-.15-.43-.31-.87-.31s-.67.17-.87.31c-.19.14-.35.25-.69.25s-.5-.12-.69-.25c-.2-.15-.43-.31-.87-.31-.08,0-.15.07-.15.15s.07.15.15.15c.34,0,.5.12.69.25.2.15.43.31.87.31s.67-.17.87-.31c.19-.14.35-.25.69-.25s.5.12.69.25c.2.15.43.31.87.31s.67-.17.87-.31c.19-.14.35-.25.69-.25.08,0,.15-.07.15-.15s-.07-.15-.15-.15Z"/>
  <path class="cls-1" d="M12.54,10.02c-.35,0-.51-.12-.71-.26-.2-.15-.43-.31-.88-.31s-.68.17-.88.31c-.19.14-.36.26-.71.26s-.51-.12-.71-.26c-.2-.15-.43-.31-.88-.31s-.68.17-.88.31c-.19.14-.36.26-.71.26s-.52-.12-.71-.26c-.2-.15-.44-.31-.88-.31s-.68.17-.88.31c-.19.14-.36.26-.71.26-.08,0-.15.07-.15.15s.07.15.15.15c.45,0,.68-.17.88-.31.19-.14.36-.26.71-.26s.52.12.71.26c.2.15.44.31.88.31s.68-.17.88-.31c.19-.14.36-.26.71-.26s.51.12.71.26c.2.15.43.31.88.31s.68-.17.88-.31c.19-.14.36-.26.71-.26s.51.12.71.26c.2.15.43.31.88.31.08,0,.15-.07.15-.15s-.07-.15-.15-.15Z"/>
  <path class="cls-1" d="M5.22,6.1c.41-.04.71-.4.67-.8-.04-.41-.4-.71-.8-.67s-.71.4-.67.8c.04.41.4.71.8.67Z"/>
  <path class="cls-1" d="M4.63,8.18l.09.57c.27.02.43.13.6.25.2.15.44.31.88.31.29,0,.48-.07.64-.16l-.19-1.06-.08-.63h.03s.71.24.71.24l.02.56c-.04.22.06.44.28.48.04,0,.07,0,.11,0,.19-.02.27-.15.3-.33l.13-.88c.03-.19-.07-.38-.24-.45l-1.77-.8c-.07-.03-.15-.04-.22-.03l-1.08.16c-.07,0-.14.04-.2.08l-2.47,2.04c-.18.14-.21.35-.07.52.15.18.4.2.58.06l1.89-1.29.07.35Z"/>
</svg>