<?xml version="1.0" encoding="UTF-8"?>
<svg id="ICONS" xmlns="http://www.w3.org/2000/svg" viewBox="0 0 15.59 15.59">
  <defs>
    <style>
      .cls-1 {
        fill-rule: evenodd;
      }

      .cls-1, .cls-2 {
        fill: #fff;
      }
    </style>
  </defs>
  <path class="cls-1" d="M12.53,11.99c.85-.62,1.37-1.58,1.45-2.64-.26.79-.79,1.45-1.51,1.9-.68.47-1.45.81-2.26,1l-.13.49-.23.13.19-.79c.92-.24,1.79-.64,2.58-1.15.13-.11.26-.23.38-.36.34-.3.6-.68.77-1.11.13-.32.15-.68.06-1.02-.21-.56-.62-1.02-1.15-1.26-.51-.24-1.05-.45-1.6-.6.32.21.58.49.77.81.11.38.02.79-.24,1.11.21-.09.41-.19.64-.23.3-.09.62-.08.88.06.21.15.34.38.36.64,0,.26-.11.51-.32.66-.32.26-.72.43-1.11.53l.24-.32.11-.15-1.75.36-.17.28-.19.3c-1.11.4-2.09,1.07-2.84,1.98.3.02.6.08.88.17.04.02.08.06.08.09s-.02.09-.06.11c-.02,0-.06.02-.08.02l-.21.04-.7.19c.92.13,1.84.13,2.75.02.19-.04.38-.08.56-.15l.51-.17.36.06.23.04.87-.64.38-.28-.49-.09-.02-.02ZM9.01,12.12c-.04.13-.17.21-.3.19-.13-.04-.21-.17-.19-.3.04-.13.17-.21.3-.19.13.02.21.17.19.3Z"/>
  <polygon class="cls-1" points="9.8 4.87 9.93 4.87 7.82 11.78 7.67 11.95 9.8 4.87"/>
  <circle class="cls-2" cx="4.9" cy="2.63" r=".49"/>
  <path class="cls-1" d="M5.68,6.77l.09.32v.04c.02.13-.08.24-.21.28s-.26-.04-.3-.17l-.43-1.56-.04.36c0,.09-.02.17-.06.26l-.45.96c-.02.06-.08.11-.13.13-.06.02-.13.02-.19,0-.06-.04-.11-.08-.13-.15-.02-.06-.02-.13.02-.19l.41-.9.02-2.47c.02-.23.19-.41.4-.45.23-.06.45.06.55.24l.36.87.49.11c.06,0,.09.02.11.06.04.04.04.09.04.13-.02.04-.04.09-.08.11-.04.02-.09.02-.13,0l-.56-.13c-.08-.02-.11-.06-.15-.11l-.13-.24v.81l.32,1.05.19.64Z"/>
  <path class="cls-2" d="M7.6,10.39h-.11c-.06,0-.19,0-.3-.02-.09,0-.24-.04-.32-.06-.08-.02-.21-.06-.3-.08-.09-.02-.23-.02-.3,0-.08,0-.21.04-.32.06-.09.02-.24.06-.32.06l-.3-.02c-.09-.02-.24-.04-.34-.06s-.26-.04-.34-.06c-.09,0-.24,0-.32.02l-.32.06-.3.04c-.08,0-.23-.02-.34-.04-.11-.02-.28-.06-.38-.08-.09-.02-.28,0-.4.02-.13.02-.32.08-.43.08-.11.02-.28.04-.36.04-.09,0-.17-.02-.17-.02l.04.43h.17c.09,0,.26,0,.38-.02s.3-.06.43-.08c.13-.04.3-.04.4-.02.09.02.26.06.38.08.11.02.26.04.34.04l.3-.04.32-.06c.08-.02.23-.02.32-.02.09.02.24.04.36.06.09.02.26.06.34.06l.3.02c.08,0,.23-.04.32-.06s.24-.06.32-.06c.08-.02.21,0,.3,0,.09.02.23.04.3.06s.23.06.32.06c.09.02.24.02.3.02h.11l-.08-.41"/>
  <path class="cls-2" d="M7.5,9.77c-.06,0-.21,0-.3-.02-.09-.02-.24-.04-.32-.06-.08-.02-.21-.04-.3-.06h-.19l-.3.04-.28.06-.17.02-.26-.02-.38-.08-.28-.04h-.28l-.3.04-.3.04h-.11c-.08,0-.21-.02-.32-.04l-.17-.04-.21-.04h-.23l-.19.04c-.13.02-.32.06-.43.08-.11.02-.28.04-.38.02-.09,0-.17-.02-.17-.02l-.02.45s.08,0,.17.02c.09,0,.26,0,.36-.02.11-.02.3-.06.43-.09.13-.02.3-.04.4-.02.09.02.26.06.38.08.11.02.26.04.34.04l.3-.04.32-.06c.09-.02.23-.02.32,0,.09,0,.24.04.34.04.09.02.26.04.34.06l.3.02c.08,0,.23-.04.32-.06s.24-.06.32-.06h.3c.09.02.23.04.3.06s.23.06.32.06c.09.02.24.02.3.02h.11l.02-.43-.09.02Z"/>
  <path class="cls-2" d="M7.37,7.81H1.86c-.13,0-.24.11-.24.24s.11.24.24.24h5.51c.13,0,.24-.11.24-.24s-.11-.24-.24-.24Z"/>
  <path class="cls-2" d="M2.57,9.48v-1.3c0-.13-.11-.24-.24-.24s-.24.11-.24.24v1.37"/>
  <path class="cls-2" d="M7.15,9.62v-1.41c0-.13-.11-.24-.24-.24s-.24.11-.24.24v1.32"/>
</svg>