<?xml version="1.0" encoding="UTF-8"?>
<svg id="ICONS" xmlns="http://www.w3.org/2000/svg" viewBox="0 0 15.59 15.59">
  <defs>
    <style>
      .cls-1 {
        fill: #fff;
      }
    </style>
  </defs>
  <path class="cls-1" d="M9.95,10.01c-.15,0-.27.12-.27.27s.12.27.27.27.27-.12.27-.27-.12-.27-.27-.27Z"/>
  <path class="cls-1" d="M12.34,10.09h-.56c-.09-.87-.78-1.56-1.65-1.65v-.56c0-.1-.08-.18-.18-.18s-.18.08-.18.18v.56c-.87.09-1.56.78-1.65,1.65h-.56c-.1,0-.18.08-.18.18s.08.18.18.18h.56c.09.87.78,1.56,1.65,1.65v.56c0,.1.08.18.18.18s.18-.08.18-.18v-.56c.87-.09,1.56-.78,1.65-1.65h.56c.1,0,.18-.08.18-.18s-.08-.18-.18-.18ZM11.1,10.45h.32c-.08.67-.61,1.2-1.28,1.28v-.32c0-.1-.08-.18-.18-.18s-.18.08-.18.18v.32c-.67-.08-1.2-.61-1.28-1.28h.32c.1,0,.18-.08.18-.18s-.08-.18-.18-.18h-.32c.08-.67.61-1.2,1.28-1.28v.32c0,.1.08.18.18.18s.18-.08.18-.18v-.32c.67.08,1.2.61,1.28,1.28h-.32c-.1,0-.18.08-.18.18s.08.18.18.18Z"/>
  <path class="cls-1" d="M7.81,7.48c-.07-.12-.18-.31-.24-.43.76-.44,1.52-.89,2.2-1.41.14-.12.33-.29.36-.46v-.07s-.04-.12-.08-.21l2.83-1.69-.2-.34-2.81,1.68c-.08-.12-.15-.21-.2-.21-.25.09-1.66.98-2.15,1.25-.25.16-.43.23-.48.33-.1.39-.06.56-.49.77-.58.38-1.72.99-2.36,1.46,0,0,.02-.01,0,0-.29.17-2.36,1.31-2.52,1.42-.2.27.23.87.32,1.15l.03.06c.09.16.22.44.35.48.12.04.15-.01.28-.12.35-.3.81-.77,1.17-1.07.16-.15.23-.21.34-.32.57-.16,1.03-.53.74-1.04.03-.04.05-.06.05-.07.27-.18.55-.35.82-.52.06.11.17.29.21.37.04.07.04.05.09.03.46-.27,1.34-.78,1.76-1.03h0ZM4.29,9.34s0,0,0,0c0,0,0,0,0,0,0,0,0,0,0,0Z"/>
</svg>