<?xml version="1.0" encoding="UTF-8"?>
<svg id="ICONS" xmlns="http://www.w3.org/2000/svg" viewBox="0 0 15.59 15.59">
  <defs>
    <style>
      .cls-1 {
        fill: #fff;
        fill-rule: evenodd;
      }
    </style>
  </defs>
  <path class="cls-1" d="M10.47,4.23s.04,0,.05,0c.03,0,.06,0,.1,0,.16.02.31.03.47.04l.25.03c.08.01.15.04.22.09.14.08.25.19.34.33.02.03.05.06.07.1.01.02.03.04.04.05.01.01.02.03.03.04,0,.02.02.03.02.05.01.02.03.05.05.07.04.06.08.12.13.18.09.12.18.25.25.38.01.03.03.06.03.09.02.05.03.09.06.13.02.05.04.1.06.15.02.05.03.1.04.15,0,.05.02.1.04.15.03.15.05.31.04.46,0,.06-.01.11-.03.16,0,0,0,.01,0,.02,0,0,0,0,0,.01-.04.07-.08.14-.12.22-.01.02-.02.04-.04.06,0,0,0,0,0,.01,0,0,0,.01,0,.02-.02.04-.04.07-.06.1-.03.04-.06.08-.09.12l-.03.03s0,0,0,0c-.03.02-.05.03-.08.04-.11.04-.22.07-.33.1-.02,0-.03.01-.05.02-.05.03-.11.04-.17.04-.04,0-.07,0-.11,0-.02,0-.04,0-.06,0,0,0,0,0,0,0h-.03s-.04.01-.06.01c-.02,0-.04,0-.06,0,0,0-.02,0-.03,0,0,0-.01,0-.02,0l-.05-.02s-.1,0-.15,0c0,0-.02,0-.02,0,0,0-.01,0-.02,0-.07,0-.13.01-.2.01-.02,0-.04,0-.06,0-.07.01-.15.02-.22.01-.04,0-.07,0-.11,0-.03,0-.06,0-.09,0-.05-.01-.1-.01-.14,0,0,0,0,0,0,0-.01,0-.02,0-.03,0-.08,0-.17,0-.25,0h-.08s-.08.02-.12.01c-.03,0-.06,0-.09,0,0,0-.01,0-.02,0-.01,0-.02,0-.03-.01-.01,0-.03-.01-.04-.01,0,0-.02,0-.02,0-.03,0-.07.01-.1.01-.06,0-.12,0-.17.01-.05,0-.11,0-.17,0-.04,0-.08,0-.12,0-.04,0-.08,0-.12,0l-.17-.02c-.05,0-.1-.01-.15,0-.11,0-.22,0-.33,0-.01,0-.03,0-.04,0-.08.02-.16.01-.23,0-.04,0-.07,0-.11,0-.14.01-.28.02-.43.03-.03,0-.06,0-.08,0-.01,0-.02,0-.04,0,0,0-.01,0-.02,0-.1,0-.21,0-.31,0-.03,0-.05,0-.08-.01-.03,0-.06,0-.1,0h-.04s-.01,0-.02,0c0,0,0,0-.01,0h-.09s-.03.01-.04.02c-.06.01-.12.02-.18.01-.07,0-.15,0-.22.01-.06,0-.13,0-.19,0-.04,0-.09,0-.13,0h-.03s-.02,0-.02,0c-.2-.02-.4-.02-.61,0,0,0-.02,0-.03,0-.03,0-.06-.01-.09-.02,0,0-.02,0-.03,0,0,0-.02,0-.02,0-.07.01-.15.02-.22.03h-.06s-.02.02-.02.02c-.03,0-.07,0-.1,0-.07-.01-.13-.02-.2-.02-.06,0-.13-.01-.19-.02-.02,0-.04,0-.05,0-.01,0-.02,0-.03,0-.01,0-.03,0-.04,0-.06-.01-.12-.02-.18-.03-.02,0-.04,0-.06-.01-.05-.02-.1-.03-.15-.04-.02,0-.05-.02-.07-.03l-.18-.08-.13-.08s-.09-.05-.13-.08c-.06-.06-.13-.13-.18-.2l-.1-.11s-.04-.06-.05-.09l-.03-.08s-.02-.07-.02-.1c-.01-.05-.03-.11-.06-.15-.01-.02-.02-.04-.03-.07v-.02s-.02-.03-.03-.04c-.02-.04-.04-.08-.04-.13,0-.01,0-.03,0-.04,0-.01,0-.02,0-.03,0,0,0-.02,0-.02,0-.02,0-.04,0-.07,0-.08,0-.16.03-.24v-.02s0-.02.01-.03c0,0,0-.01.01-.02.06-.08.13-.14.22-.18.05-.02.09-.05.13-.09.04-.03.08-.05.12-.07l.12-.07s.09-.04.14-.05c.05-.02.11-.04.16-.06.04-.01.08-.03.12-.04.05-.02.1-.04.14-.07.04-.01.08-.03.11-.05.03-.02.07-.03.1-.04.04-.01.07-.02.1-.04l.18-.06s.04,0,.06,0c0,0,.01,0,.02,0,0,0,0,0,0,0h.21s.04-.02.06-.03c.04-.02.09-.03.14-.03h.07s.04,0,.06-.02c.04-.01.07-.02.1-.04.01,0,.02,0,.04-.01.1-.02.2-.03.3-.03.05,0,.09-.01.13-.03l.06-.02s.01,0,.02,0c0,0,.01,0,.01,0l.03-.02s.01,0,.02,0c0,0,.01,0,.02,0l.35-.05s.07,0,.11-.01c.11-.02.23-.03.34-.04l.19-.02h.04s.02-.01.02-.01c.05-.02.1-.04.15-.06.03-.01.05-.02.08-.02h.09s0,0,.01,0c0,0,.02,0,.03,0,.02,0,.04-.01.05-.02.02,0,.05,0,.07-.01.01,0,.02,0,.03,0,0,0,.01,0,.02,0,0,0,.01,0,.02-.01.01,0,.02,0,.04,0h.07s.01,0,.02-.01c0,0,.01,0,.02,0,.03-.01.05-.03.08-.03.01,0,.02,0,.04,0h.01s.02,0,.02,0c0,0,.02,0,.02,0,.02,0,.04,0,.05,0,.07-.01.14-.02.21-.02.03,0,.07-.01.09-.03.03-.02.06-.04.1-.05.03-.01.07-.03.1-.05.08-.04.16-.06.24-.07.05-.01.11-.02.17-.03.04,0,.08,0,.11,0,0,0,.01,0,.02,0,0,0,.01,0,.02,0,.06-.02.12-.03.18-.04.04-.01.09-.02.13-.02.03,0,.05,0,.08,0,.08,0,.16,0,.24-.02.08,0,.15-.01.23-.01.18-.02.37-.02.55.02.08,0,.16.01.25.02.02,0,.04,0,.05,0ZM11.14,8.06c.09.03.19.05.29.07.12.02.24.07.35.13.07.03.13.06.2.09.02.01.05.03.07.05.03.02.06.05.09.07l.16.12c.08.07.16.15.24.21.07.06.13.13.17.2.07.09.17.17.27.23l.37.25c.05.04.1.09.14.15.02.03.04.05.07.08.03.04.06.07.08.11.01.02.02.04.03.07,0,0,0,.02,0,.03,0,0,0,0,0,0,.02.02.03.05.04.08,0,.03.01.05.01.08,0,.12,0,.24-.03.35,0,.02,0,.04-.01.06-.02.05-.04.1-.05.16-.02.09-.05.18-.08.27-.01.02-.02.04-.03.06l-.02.03s-.04.05-.06.08c-.04.05-.1.1-.16.13-.02.01-.05.03-.07.05-.05.03-.1.05-.16.06-.13.04-.26.05-.39.04-.14,0-.27,0-.4.02-.08,0-.16,0-.24.01-.02,0-.03,0-.05,0-.05,0-.09-.01-.14-.02-.02,0-.04,0-.06,0,0,0-.01,0-.02,0,0,0-.02,0-.02,0-.01,0-.02,0-.03,0,0,0-.02,0-.02,0-.01,0-.02,0-.04,0,0,0-.02,0-.03,0,0,0-.01,0-.02,0h-.03s0,.02-.02.02c0,0-.01,0-.02,0-.12,0-.23,0-.35.02-.03,0-.05,0-.08,0-.01,0-.03,0-.04,0-.04,0-.08-.01-.12,0-.02,0-.05,0-.07,0-.06,0-.13-.02-.19-.05-.03,0-.05-.01-.08-.02-.19-.04-.37-.13-.51-.27-.05-.05-.09-.11-.14-.17-.04-.05-.07-.11-.09-.17l-.09-.24s-.03-.1-.04-.15c-.03-.1-.05-.21-.07-.31,0-.07-.03-.14-.05-.2l-.04-.13-.1-.26c-.02-.05-.04-.1-.06-.15-.02-.05-.04-.1-.05-.16,0-.02-.01-.05-.02-.07,0-.02-.01-.03-.01-.05,0,0,0,0,0-.01,0,0,0-.02,0-.03,0-.03,0-.05.01-.08v-.02s.01-.04.02-.06v-.06s.03-.06.03-.09c0,0,0-.01,0-.02,0,0,.01-.02.02-.03,0,0,0,0,.01-.01,0,0,0-.01,0-.02.01-.04.03-.07.06-.1l.09-.13s.05-.06.09-.08l.15-.09s.08-.03.12-.04c.1-.03.2-.07.29-.11.05-.02.09-.03.14-.04.02,0,.05,0,.07,0h.02s.02,0,.04,0c.12-.02.23-.02.35,0h.11s.04.01.06.02c.04.01.07.02.11.03M5.88,7.93s.07,0,.11,0c.04,0,.07.02.09.05l.13.2s.05.08.06.13l.04.13s0,.03,0,.04c0,.08,0,.17.02.25l.03.11c0,.05,0,.11,0,.16,0,.05,0,.1-.02.15-.01.06-.02.12-.01.18,0,.09,0,.17-.02.26v.04s-.01.01-.02.02c0,0,0,0,0,0,0,.01-.01.02-.02.03,0,0,0,.01,0,.02,0,.06-.03.11-.05.16-.01.02-.02.04-.04.06-.03.04-.05.09-.08.14-.01.03-.03.05-.04.07-.04.05-.07.09-.09.15-.01.02-.02.04-.04.06-.02.04-.05.08-.08.11-.03.04-.07.08-.1.12-.06.08-.13.15-.21.21-.03.03-.07.06-.1.09l-.09.07s-.07.04-.1.06c-.08.05-.15.1-.24.14-.04.01-.07.03-.11.03-.04.01-.07.02-.1.04h-.03s-.04.02-.06.02c-.01,0-.03,0-.04,0-.1.04-.21.07-.32.08-.04,0-.07,0-.11.01-.12.02-.25.02-.37,0-.01,0-.02,0-.03,0-.12,0-.24-.01-.36-.05-.02,0-.04-.01-.06,0-.15,0-.3,0-.45,0-.09,0-.19.02-.28.03-.03,0-.06,0-.09,0-.05,0-.1-.02-.14-.04-.05-.02-.1-.04-.15-.07-.04-.03-.07-.05-.1-.09l-.06-.06s0,0,0-.01c0,0,0,0-.01-.02-.02-.03-.04-.07-.07-.1-.05-.06-.08-.13-.1-.21-.03-.07-.05-.14-.07-.22,0-.03-.02-.06-.03-.09v-.02s-.01-.04-.01-.06v-.11s0-.04.01-.06l.1-.3s.02-.07.04-.1l.1-.18s.03-.05.05-.07c.03-.03.06-.07.08-.11.01-.01.02-.03.03-.05.02-.04.06-.08.09-.12.03-.03.06-.07.09-.1.06-.06.13-.11.2-.15.03-.02.06-.05.09-.08l.09-.1s.04-.03.05-.04c.03-.02.05-.04.08-.06.02-.01.04-.03.05-.04.03-.03.07-.06.1-.09.07-.06.15-.12.22-.18.03-.02.05-.05.07-.07.04-.04.09-.07.15-.09l.2-.11s0,0,.01,0c0,0,.01,0,.02,0h.04s.02-.01.02-.02c0,0,.02,0,.02-.01,0,0,.01,0,.02,0,0,0,0,0,.02,0,.04-.01.08-.02.12-.03h.04s.02-.01.02-.01c.05-.02.1-.04.16-.05h.21s.1-.02.14-.03h.23s.04-.01.06-.02c.05,0,.1-.01.14-.02l.08-.02h.02s.02,0,.04,0c.01,0,.02,0,.04,0,.02,0,.04,0,.06,0,.12-.03.25-.03.37,0,.01,0,.02,0,.04,0,.02,0,.03,0,.05,0h.05s.05,0,.08,0h.02M8.23,8.12c.09,0,.18.04.26.1.05.03.09.06.14.1l.03.02h0c.06.09.11.17.16.26.01.03.02.06.03.09l.02.05s0,.03,0,.04c0,.05,0,.1.02.15.02.11.04.22.08.32,0,.03.02.06.03.09.02.06.03.12.02.18,0,.03,0,.06,0,.09.01.07.03.15.05.22.02.08.03.17.04.25,0,.03,0,.07.01.1,0,.09,0,.18.02.27,0,.09,0,.18-.02.27,0,.06-.03.13-.05.19-.02.05-.05.09-.09.13-.01.01-.02.02-.03.04-.01.01-.02.02-.03.03,0,0-.01,0-.02.01-.01,0-.02.01-.03.02h-.01s-.01.02-.02.03c0,0-.01.01-.02.02,0,0-.02.01-.03.02h-.02c-.07.04-.14.07-.21.1l-.03.02h-.01s-.04.04-.04.04c0,0-.01,0-.02,0-.01,0-.03,0-.04,0-.07,0-.13,0-.19.02-.05,0-.11,0-.16,0-.07,0-.15,0-.22.01-.03,0-.07,0-.1,0h-.04s-.02,0-.02,0c-.03,0-.06,0-.09,0-.08,0-.16-.02-.24-.05l-.13-.03c-.12-.04-.23-.09-.33-.16-.04-.03-.08-.06-.12-.09-.04-.03-.08-.07-.1-.11-.01-.02-.03-.04-.04-.05-.03-.03-.04-.08-.05-.12,0-.01,0-.03,0-.04,0-.03-.01-.05-.02-.07,0-.02-.01-.04-.02-.05,0-.03,0-.06,0-.09-.01-.24,0-.49.03-.73,0-.02,0-.04.01-.06,0-.05.01-.1.01-.16,0-.05,0-.1.01-.14,0-.02,0-.04,0-.06,0-.03,0-.06,0-.08,0-.09.01-.17.04-.26,0-.03.01-.05.02-.08v-.07s.02-.06.04-.09l.06-.17s.03-.06.05-.09c.01-.03.03-.05.05-.07.04-.04.08-.09.12-.14.06-.08.14-.13.24-.17.03-.02.07-.03.1-.04.01,0,.02,0,.04-.01.05-.01.1-.02.15-.01.06,0,.12.02.18.03.05,0,.11,0,.16,0,.07,0,.15,0,.22-.01.04,0,.08,0,.12,0,.01,0,.03,0,.04,0"/>
</svg>