<?xml version="1.0" encoding="UTF-8"?>
<svg id="ICONS" xmlns="http://www.w3.org/2000/svg" viewBox="0 0 15.59 15.59">
  <defs>
    <style>
      .cls-1 {
        fill: #fff;
        fill-rule: evenodd;
      }
    </style>
  </defs>
  <path class="cls-1" d="M6.05,9.63l1.29.92-1.69,1.17.4-2.09ZM6.36,7.85h2.84l.26,1.24-1.68,1.14-1.64-1.15.21-1.22M9.53,9.63l.4,2.09-1.69-1.17,1.29-.92M9.43,2.13c-.02.29-.28.51-.58.49-.29-.02-.51-.28-.49-.58.02-.29.28-.51.58-.49.29.02.51.28.49.58M11.02,1.6v.5l-1.4-.07v-.36l1.4-.07M10.63,2.31v.79c-.02.2-.2.35-.41.34h-.65s0,.89,0,.89v.4s.91.01.91.01v.93s0,2.17,0,2.17h-.08s-.37,0-.37,0l1.19,6.18h-.82s-.1-.49-.1-.49l-.21-1.06-2.34-1.59-2.25,1.6-.31,1.57h-.22s-.08,0-.08,0h-.52s.29-1.55.29-1.55l.88-4.64h-.43s0-1.13,0-1.13v-1.98s1.21,0,1.21,0h1.96s0-1.27,0-1.27c.04-.32.33-.55.65-.52h1.21s0-.63,0-.63h.48"/>
</svg>