<?xml version="1.0" encoding="UTF-8"?>
<svg id="ICONS" xmlns="http://www.w3.org/2000/svg" viewBox="0 0 15.59 15.59">
  <defs>
    <style>
      .cls-1 {
        fill-rule: evenodd;
      }

      .cls-1, .cls-2 {
        fill: #fff;
      }
    </style>
  </defs>
  <g>
    <path class="cls-1" d="M12.95,4.47c0,.06,0,.12-.01.17l-1,.91s-.05,0-.08,0c-.12-.06-.22-.14-.31-.24-.05-.04-.09-.09-.14-.13-.02-.02-.05-.02-.08-.02l-.47.39-1.55-1.58,1.88-1.79s.06-.05.1-.07c.03,0,.06,0,.09,0l.04.68s.01.05.03.07l1.51,1.6Z"/>
    <path class="cls-1" d="M8.25,4.97l.39-.34.26-.22.17.17,1.27,1.3-.03,4.34c0,.32-.27.57-.58.57-.32,0-.58-.25-.59-.57,0-.04,0-.08,0-.12v-2.18s-3.06,0-3.06,0l-1.3,1.3v.94c0,.17-.06.34-.18.46-.12.12-.28.19-.45.2-.17,0-.33-.06-.46-.18-.12-.12-.19-.28-.19-.45v-2.49s.46-.64.46-.64v-1.75s-.83-.82-.83-.82c-.07-.12-.05-.28.06-.37.11-.09.27-.1.38,0l.99.88h3.71Z"/>
  </g>
  <g>
    <path class="cls-2" d="M3.01,13.09v-1.39h.21v.59h.62v-.59h.22v1.39h-.22v-.63h-.62v.63h-.21Z"/>
    <path class="cls-2" d="M4.99,12.84v-.79h.2v1.04h-.13s-.07-.02-.07-.12c-.1.07-.24.13-.37.13-.16,0-.28-.07-.28-.28v-.77h.2v.73c0,.13.07.16.16.16.11,0,.21-.05.29-.1Z"/>
    <path class="cls-2" d="M5.67,12.18c.1-.08.24-.15.4-.15.14,0,.27.06.27.29v.77h-.2v-.72c0-.13-.06-.16-.16-.16-.11,0-.22.05-.3.1v.78h-.2v-1.04h.13s.07.02.08.13Z"/>
    <path class="cls-2" d="M7.26,12.95c-.07.09-.18.15-.33.15-.22,0-.4-.15-.4-.52,0-.41.22-.55.43-.55.14,0,.23.04.3.11v-.44h.11c.08,0,.09.02.09.13v1.25h-.13s-.06-.02-.07-.14ZM7.26,12.81v-.53c-.06-.06-.13-.09-.24-.09-.14,0-.28.07-.28.38,0,.28.11.38.25.38.12,0,.2-.05.27-.14Z"/>
    <path class="cls-2" d="M7.87,12.61c0,.25.12.34.32.34.13,0,.22-.04.29-.1h.07v.14c-.08.05-.19.11-.38.11-.32,0-.49-.2-.49-.53s.2-.54.47-.54.43.16.43.5c0,.03,0,.06,0,.07h-.7ZM7.87,12.48h.5c0-.22-.09-.3-.23-.3-.13,0-.24.08-.26.3Z"/>
    <path class="cls-2" d="M8.72,13.01v-.16h.07s.13.09.26.09c.14,0,.22-.05.22-.15,0-.09-.05-.12-.22-.15-.21-.03-.33-.11-.33-.3s.14-.3.37-.3c.15,0,.24.03.31.07v.15h-.07s-.12-.07-.24-.07c-.13,0-.19.05-.19.13,0,.08.06.12.22.14.23.03.34.11.34.31s-.12.32-.4.32c-.17,0-.27-.05-.34-.09Z"/>
    <path class="cls-2" d="M9.86,12.54l.42-.49h.17v.06l-.32.36.35.56v.06h-.18l-.31-.48-.13.15v.33h-.2v-1.39h.11c.08,0,.09.02.09.13v.7Z"/>
    <path class="cls-2" d="M10.57,12.57c0-.33.21-.54.5-.54s.5.21.5.54-.21.53-.5.53-.5-.2-.5-.53ZM11.35,12.57c0-.25-.11-.38-.29-.38s-.29.13-.29.38.11.37.29.37.29-.12.29-.37Z"/>
    <path class="cls-2" d="M11.65,12.11v-.06h.19l.29.79h0l.28-.79h.17v.06l-.37.98h-.2l-.38-.98Z"/>
  </g>
</svg>