<?xml version="1.0" encoding="UTF-8"?>
<svg id="ICONS" xmlns="http://www.w3.org/2000/svg" viewBox="0 0 15.59 15.59">
  <defs>
    <style>
      .cls-1 {
        fill: #fff;
        fill-rule: evenodd;
      }
    </style>
  </defs>
  <path class="cls-1" d="M9.67,4.45c-.29,1-1.34,1.58-2.34,1.29-1-.29-1.58-1.33-1.29-2.34.29-1,1.33-1.58,2.34-1.29,1,.29,1.58,1.34,1.29,2.34M9.11,6.35c.12,0,.21.01.29.09.08.08.08.21.07.3v5.38c0,.06.02.11.06.14.04.04.09.04.15.04l.75.02c.29,0,.53.24.53.53s-.23.53-.52.53h-5.26c-.29,0-.53-.25-.53-.54,0-.29.23-.53.53-.54l.73-.02c.07,0,.15,0,.2-.06.05-.05.06-.13.06-.2l.04-4.31c0-.08.02-.16-.05-.21-.06-.05-.13-.05-.21-.05l-.69-.02c-.15,0-.29-.05-.4-.15-.11-.1-.17-.25-.17-.4,0-.15.06-.29.17-.39.11-.1.25-.16.4-.15h3.86"/>
</svg>