<?xml version="1.0" encoding="UTF-8"?>
<svg id="ICONS" xmlns="http://www.w3.org/2000/svg" viewBox="0 0 15.59 15.59">
  <defs>
    <style>
      .cls-1 {
        fill: #fff;
      }
    </style>
  </defs>
  <path class="cls-1" d="M12.09,3.55c-.53-.54-1.29-.78-2.12-.7-.81.08-1.6.47-2.23,1.1-1.2,1.2-1.44,2.94-.63,4.05l-2.01,2.01c-.15-.02-.3.02-.42.13l-1.76,1.76c-.2.2-.2.51,0,.71.1.1.23.15.35.15s.26-.05.35-.15l1.76-1.76c.11-.11.15-.27.13-.42l1.99-1.99c.45.37,1.02.56,1.62.56.87,0,1.81-.38,2.54-1.11,1.31-1.31,1.49-3.26.4-4.35ZM12.12,4.81l-.46.46-.55-.55.64-.64c.18.21.3.46.37.74ZM9.83,5.5l-.54.54-.51-.51.54-.54.51.51ZM9.57,4.75l.54-.54.51.51-.54.54-.51-.51ZM9.05,6.29l-.54.54-.51-.51.54-.54.51.51ZM9.29,6.53l.55.55-.54.54-.55-.55.54-.54ZM9.54,6.29l.54-.54.55.55-.54.54-.55-.55ZM10.32,5.5l.54-.54.55.55-.54.54-.55-.55ZM10.81,3.51c.25.06.48.17.69.33l-.64.64-.51-.51.46-.46ZM10.29,3.43s.06,0,.1,0l-.28.28-.24-.24c.14-.02.28-.05.42-.05ZM9.47,3.58l.39.39-.54.54-.58-.58c.24-.15.48-.26.73-.34ZM8.17,4.38c.09-.09.19-.16.29-.24l.62.62-.54.54-.62-.62c.08-.1.16-.2.25-.29ZM7.72,4.95l.58.58-.54.54-.39-.39c.08-.25.2-.49.35-.72ZM7.27,6.08l.24.24-.27.27c0-.17,0-.34.04-.51ZM7.3,7.02l.46-.46.51.51-.63.63c-.16-.2-.27-.43-.33-.68ZM7.87,7.96l.64-.64.55.55-.47.47c-.27-.07-.52-.2-.73-.38ZM9.03,8.4l.28-.28.25.25c-.18.03-.36.04-.53.04ZM9.96,8.27l-.4-.4.54-.54.59.59c-.23.15-.48.27-.72.35ZM11.26,7.47c-.09.09-.19.17-.29.25l-.63-.63.54-.54.63.63c-.08.1-.15.2-.25.29ZM11.72,6.89l-.59-.59.54-.54.4.4c-.08.25-.2.49-.35.72ZM11.91,5.52l.29-.29c0,.18,0,.36-.04.54l-.25-.25Z"/>
</svg>