<?xml version="1.0" encoding="UTF-8"?>
<svg id="ICONS" xmlns="http://www.w3.org/2000/svg" viewBox="0 0 15.59 15.59">
  <defs>
    <style>
      .cls-1 {
        fill: #fff;
      }
    </style>
  </defs>
  <path class="cls-1" d="M9.4,13.02c-.44,0-.67-.17-.87-.31-.19-.14-.35-.25-.69-.25s-.5.12-.69.25c-.2.15-.43.31-.87.31s-.67-.17-.87-.31c-.19-.14-.35-.25-.69-.25-.08,0-.15-.07-.15-.15s.07-.15.15-.15c.44,0,.67.17.87.31.19.14.35.25.69.25s.5-.12.69-.25c.2-.15.43-.31.87-.31s.67.17.87.31c.19.14.35.25.69.25s.5-.12.69-.25c.2-.15.43-.31.87-.31.08,0,.15.07.15.15s-.07.15-.15.15c-.34,0-.5.12-.69.25-.2.15-.43.31-.87.31Z"/>
  <path class="cls-1" d="M12.61,12c-.44,0-.68-.17-.88-.31-.19-.14-.36-.26-.71-.26s-.51.12-.71.26c-.2.15-.44.31-.88.31s-.68-.17-.88-.31c-.19-.14-.36-.26-.71-.26s-.51.12-.71.26c-.2.15-.44.31-.88.31s-.68-.17-.88-.31c-.19-.14-.36-.26-.71-.26s-.52.12-.71.26c-.2.15-.44.31-.88.31-.08,0-.15-.07-.15-.15s.07-.15.15-.15c.35,0,.52-.12.71-.26.21-.15.44-.31.88-.31s.68.17.88.31c.19.14.36.26.71.26s.51-.12.71-.26c.2-.15.44-.31.88-.31s.68.17.88.31c.19.14.36.26.71.26s.51-.12.71-.26c.2-.15.44-.31.88-.31s.68.17.88.31c.19.14.36.26.71.26.08,0,.15.07.15.15s-.07.15-.15.15Z"/>
  <g>
    <path class="cls-1" d="M11.59,2.54c-1-1-2.63-1-3.63,0-.24.24-.43.52-.56.83,0,.01,0,.03,0,.05,0,0,0,0,0,0l-.08,3.32s0,0,0,0l-.11.5-.37.19s-.64-.08-.66-.08l-.29-.23-.05-.56c-.01-.11-.11-.19-.22-.18-.11.01-.19.11-.18.22l.06.65c0,.06.03.11.08.14l.39.39-.07,1.41s-.46.83-.44.89l-.88.11c-.11.01-.19.12-.18.23.01.1.1.18.2.18,0,0,.02,0,.03,0l3.98-.52c.11-.01.19-.12.18-.23-.02-.11-.12-.19-.23-.18l-.78.1-.31-.86s-.03-.06-.06-.08l-.52-.44.07-.5.53-.35c.05-.03.09-.08.11-.14l.12-.52,2.98-.17h0s.04,0,.06-.02c.31-.13.59-.32.83-.56,1-1,1-2.63,0-3.63ZM7.11,9.15s.3.7.31.71l-1.53.2.46-.68s.04-.09.03-.13l.02-.54.18.04.53.41ZM10.02,4.11c.55.55.91,1.61.74,2.38l-3.2.19.05-3.28c.77-.18,1.86.15,2.4.7Z"/>
    <path class="cls-1" d="M6.57,7.28c.2,0,.36-.16.36-.36s-.16-.36-.36-.36-.36.16-.36.36.16.36.36.36Z"/>
  </g>
</svg>