<?xml version="1.0" encoding="UTF-8"?>
<svg id="ICONS" xmlns="http://www.w3.org/2000/svg" viewBox="0 0 15.59 15.59">
  <defs>
    <style>
      .cls-1 {
        fill: #fff;
      }
    </style>
  </defs>
  <path class="cls-1" d="M1.87,7.56v2.09s.01,1.8.01,1.8h.02s.18,0,.37.02c.13,0,.33,0,.52-.02h3.3l.6-.06.64-.12c.17-.03.46-.05.64-.03.18.02.49.06.7.09.2.04.51.09.69.13l.58.03c.15-.02.43-.06.64-.11.2-.05.49-.1.62-.12.14-.03.41-.02.6.01.19.02.47.08.61.11.15.04.43.1.64.13.2.02.47.04.6.03h.21s0,0,0,0L1.87,7.56Z"/>
  <path class="cls-1" d="M13.11,7.51l-7.46-2.5,1.1-.64-.11-.28-1.81.66-2.48-.86s-.02,1.68,1.3,2.35l2.94.99c.23-.18.51-.28.82-.28.62,0,1.13.42,1.29.99l3.54,1.17.98-1.4s.07-.14-.09-.19Z"/>
  <path class="cls-1" d="M7.4,7.21c-.59,0-1.07.48-1.07,1.07s.48,1.07,1.07,1.07,1.07-.48,1.07-1.07-.48-1.07-1.07-1.07ZM7.4,8.81c-.29,0-.53-.24-.53-.53s.24-.53.53-.53.53.24.53.53-.24.53-.53.53Z"/>
  <g>
    <path class="cls-1" d="M6.28,7.55l-4.1-1.39-.17.51,4.07,1.38c.03-.18.1-.35.19-.5Z"/>
    <path class="cls-1" d="M8.73,8.38c-.01.18-.06.36-.15.51l4.34,1.47.17-.51-4.36-1.48Z"/>
  </g>
</svg>