<?xml version="1.0" encoding="UTF-8"?>
<svg id="ICONS" xmlns="http://www.w3.org/2000/svg" viewBox="0 0 15.59 15.59">
  <defs>
    <style>
      .cls-1 {
        fill: #fff;
      }
    </style>
  </defs>
  <path class="cls-1" d="M7.8,2.77c-1.88,0-3.4,1.52-3.4,3.4s3.4,6.65,3.4,6.65c0,0,3.4-4.78,3.4-6.65s-1.52-3.4-3.4-3.4ZM7.8,8.69c-1.46,0-2.64-1.18-2.64-2.64s1.18-2.64,2.64-2.64,2.64,1.18,2.64,2.64-1.18,2.64-2.64,2.64Z"/>
  <path class="cls-1" d="M9.14,4.29l-.16.72h-.99c-.08,0-.18,0-.24.05-.05.04-.09.09-.09.2,0,.21.36.42.43.48s.68.3.69,1.02-.45,1.05-.85,1.05-1.47,0-1.47,0l.19-.74h.94c.09,0,.18-.03.25-.08.06-.04.11-.11.1-.2-.03-.33-.45-.51-.54-.57s-.58-.35-.58-.92c0-.76.55-1,.94-1h1.38Z"/>
</svg>