<?xml version="1.0" encoding="UTF-8"?>
<svg id="ICONS" xmlns="http://www.w3.org/2000/svg" viewBox="0 0 15.59 15.59">
  <defs>
    <style>
      .cls-1 {
        fill: #fff;
      }
    </style>
  </defs>
  <path class="cls-1" d="M12.37,12.07h-.66v-1.04h.78c.16,0,.29-.13.29-.29s-.13-.29-.29-.29h-2.27c-.16,0-.29.13-.29.29s.13.29.29.29h.77s0,1.04,0,1.04h-2.76v-2.58h1.7c.23,0,.42-.19.42-.42s-.19-.42-.42-.42h-4.23c-.23,0-.42.19-.42.42s.19.42.42.42h1.7s0,2.58,0,2.58h-2.74v-1.04h.78c.16,0,.29-.13.29-.29s-.13-.29-.29-.29h-2.27c-.16,0-.29.13-.29.29s.13.29.29.29h.77s0,1.04,0,1.04h-.65c-.23,0-.42.19-.42.42s.19.42.42.42h9.12c.23,0,.42-.19.42-.42s-.19-.42-.42-.42Z"/>
  <path class="cls-1" d="M13.18,5.1L7.79,1.99l-5.37,3.1c-.26.15-.35.48-.2.75.15.26.48.35.75.2l4.83-2.79,4.85,2.8c.26.15.6.06.75-.2.15-.26.06-.6-.2-.75Z"/>
</svg>