<?xml version="1.0" encoding="UTF-8"?>
<svg id="ICONS" xmlns="http://www.w3.org/2000/svg" viewBox="0 0 15.59 15.59">
  <defs>
    <style>
      .cls-1 {
        fill: #fff;
      }
    </style>
  </defs>
  <path class="cls-1" d="M4.35,7.98h7.16c.19,0,.34-.15.34-.34V2.99c0-.19-.15-.34-.34-.34h-7.16c-.19,0-.34.15-.34.34v4.65c0,.19.15.34.34.34ZM4.69,3.33h6.49v3.98h-6.49v-3.98Z"/>
  <path class="cls-1" d="M12.88,9.74c0-.28-.23-.51-.51-.51s-.51.23-.51.51c0,.17.09.32.23.41-.36.37-1.1.64-1.95.64s-1.65-.28-1.99-.68c.11-.09.18-.23.18-.38,0-.28-.23-.51-.51-.51s-.51.23-.51.51c0,.15.06.28.16.37-.34.4-1.12.69-2,.69s-1.58-.26-1.94-.63c.14-.09.24-.24.24-.42,0-.28-.23-.51-.51-.51s-.51.23-.51.51c0,.19.11.35.26.44v2.22c0,.14.11.25.25.25s.25-.11.25-.25v-1.8c.46.33,1.16.54,1.96.54.88,0,1.65-.25,2.1-.64v1.89c0,.14.11.25.25.25s.25-.11.25-.25v-1.87c.45.38,1.2.62,2.07.62.82,0,1.53-.22,1.99-.56v1.82c0,.14.11.25.25.25s.25-.11.25-.25v-2.22c.15-.09.26-.25.26-.44Z"/>
</svg>