<?xml version="1.0" encoding="UTF-8"?>
<svg id="ICONS" xmlns="http://www.w3.org/2000/svg" viewBox="0 0 15.59 15.59">
  <defs>
    <style>
      .cls-1 {
        fill: #fff;
        fill-rule: evenodd;
      }
    </style>
  </defs>
  <path class="cls-1" d="M11.44,7.76c.15,0,.29.09.36.23.07.14.05.3-.03.42l-1.2,1.52c-.16.17-.41.23-.63.15l-1.02-.34-.58,1.07-.58-.08.66-1.31c.12-.25.39-.38.66-.31l.9.23.94-1.19h-.66c-.1,0-.2-.02-.3-.05l-.82-.47c-.07-.06-.09-.17-.04-.25.05-.08.16-.11.24-.07l.76.36c.09.05.18.07.28.07h1.07ZM12.15,7.04c-.07.31-.38.51-.69.44-.31-.07-.51-.38-.44-.69.07-.31.38-.51.69-.44.31.07.51.38.44.69M13,12.26v.62c-.34.04-.69,0-1.02-.08-.53-.17-1.09-.17-1.62-.02-.51.18-1.07.19-1.59.04-.57-.17-1.18-.17-1.74,0-.48.13-.98.13-1.46,0-.57-.17-1.18-.17-1.74.01-.4.13-.83.16-1.24.08v-.64c.41.05.83.02,1.24-.09.57-.19,1.19-.19,1.75.02.58.15,1.2.12,1.76-.09.37-.11.76-.11,1.13,0,.53.2,1.11.23,1.66.08.6-.23,1.26-.23,1.86-.02.33.08.67.11,1.01.08M13,11.3v.62c-.34.04-.68.01-1-.08-.53-.17-1.1-.18-1.63-.03-.52.18-1.08.2-1.6.04-.57-.17-1.18-.17-1.74,0-.48.13-.98.13-1.46,0-.57-.17-1.18-.17-1.74.01-.4.13-.83.16-1.24.08v-.64c.41.05.83.02,1.24-.09.57-.19,1.19-.19,1.75.02.58.15,1.2.12,1.76-.09.37-.11.76-.11,1.13,0,.53.2,1.11.23,1.66.08.6-.23,1.26-.23,1.86-.02.33.09.68.11,1.02.08M11.67,1.84l-4.64,9.01-.59.2-2.72-1.4c.29-.97.79-1.87,1.47-2.63l1.1.58.82.41-1.55-1.57c1.59-2.05,3.7-3.64,6.11-4.59"/>
</svg>