<?xml version="1.0" encoding="UTF-8"?>
<svg id="ICONS" xmlns="http://www.w3.org/2000/svg" viewBox="0 0 15.59 15.59">
  <defs>
    <style>
      .cls-1 {
        fill: #fff;
        fill-rule: evenodd;
      }
    </style>
  </defs>
  <path class="cls-1" d="M13.63,7.68c-.68-.76-1.78-1.02-2.72-.72l-.93-2,.34-.72h.34c.08-.04.17-.13.13-.25-.04-.13-.13-.17-.25-.17h-1.27c-.13,0-.21.08-.21.17,0,.13.04.21.13.25h.04l.34.08-.17.64h-3.87l.3-.89h.68c.08,0,.13,0,.17-.04s.08-.13.08-.17c0-.08-.04-.13-.08-.17s-.13-.04-.17-.04h-1.15l-.04.04-1.02,3.23c-1.27-.25-2.55.51-2.89,1.83-.34,1.32.38,2.63,1.66,3.06,1.27.47,2.68-.25,3.14-1.49.47-1.23-.08-2.63-1.32-3.23l.21-.76,2.55,2.93c0,.3.21.51.42.59s.51,0,.68-.17h.47c.13,1.15,1.02,2.04,2.12,2.21,1.1.21,2.21-.38,2.72-1.4.42-.98.25-2.04-.42-2.8ZM5.68,10.1c-.38.98-1.49,1.44-2.46,1.19-1.06-.3-1.61-1.36-1.36-2.38s1.32-1.66,2.34-1.49l-.51,1.95c-.04.08,0,.21.13.25.08.04.21,0,.25-.13l.72-1.95c.89.47,1.32,1.61.89,2.55ZM11.25,9.13h-1.44c.08-.55.38-1.06.85-1.36v.04l.59,1.32ZM8.27,8.66c-.08,0-.17,0-.21.04l-2.76-3.19h3.87l-.89,3.14ZM9.21,9.13h-.3l-.04-.04.89-3.19.64,1.4c-.64.42-1.06,1.06-1.19,1.83ZM13.71,9.72c-.08.98-.85,1.74-1.87,1.74s-1.87-.76-2.04-1.74l1.95-.08c.08.04.17,0,.21-.04.04-.08.08-.13.04-.21,0-.04,0-.13-.04-.21l-.76-1.57c.55-.21,1.15-.17,1.66.13.59.47.93,1.23.85,2Z"/>
</svg>