<?xml version="1.0" encoding="UTF-8"?>
<svg id="ICONS" xmlns="http://www.w3.org/2000/svg" viewBox="0 0 15.59 15.59">
  <defs>
    <style>
      .cls-1 {
        fill: #fff;
        fill-rule: evenodd;
      }
    </style>
  </defs>
  <path id="hoejre" class="cls-1" d="M9.38,5.37l-1.13-.63.16-.91c.04-.35-.21-.66-.55-.71-.34-.04-.66.2-.7.55l-.58,2.72-1.05-.03c-.63,0-1.25.2-1.75.6-.66-.04-1.23.47-1.28,1.14l-.02,2.08c.43-.17.71-.58.72-1.04l-.07-1.1c0-.31.23-.57.53-.61h.04s.01,2.11.01,2.11l-.55.91c-.03.06-.05.12-.07.19,0,.03-.01.07-.02.1l-.3,1.51c-.02.3.1.58.32.77.22.19.53.26.81.19l-.38-.83.31-1.56,1.19-1.16-.17.64c-.05.26.05.53.26.7l1.05.87c-.12.2-.12.45-.02.66.11.21.31.35.54.37l.23-1.04s0-.04,0-.06c0-.04,0-.08,0-.12-.02-.1-.07-.19-.14-.26l-.05-.05-1.05-.87.39-1.21.2.03c.07,0,.13.01.2.02.06,0,.12.02.18.03l.19.05.24.05s.07.02.1.02c.03,0,.06.02.09.02.02,0,.04,0,.05.01l.1.02s.04,0,.06.01c.03,0,.05.01.08.01.05,0,.1.02.15.02.04,0,.08.01.12.02.03,0,.07,0,.1.01.07,0,.14.01.21.01.07,0,.15.01.22,0,.06,0,.12,0,.19.01h.22s-.79,2.51-.79,2.51c-.1.28-.04.6.17.82.21.22.52.3.81.21l-.31-.73.98-2.66c.58-.03,1.15.02,1.71.17l.04,1.18c-.18.09-.32.26-.37.46-.05.2-.02.42.1.59l.97-.71-.02-1.76c0-.27-.19-.5-.45-.57l-1.06-.13c.4-.54.57-1.23.48-1.9l.49-1.41.57.66c-.04.28.14.54.41.6.27.06.54-.11.61-.38l-.48-2.63.3-.46c-.28-.02-.56.11-.73.34-1.17-.19-2.31.42-2.82,1.5Z"/>
  <path id="hoejre-2" data-name="hoejre" class="cls-1" d="M8.74,2.18c-.05-.37-.38-.64-.75-.59-.37.05-.63.39-.58.76.05.37.38.64.75.59.37-.05.63-.39.58-.76Z"/>
</svg>