<?xml version="1.0" encoding="UTF-8"?>
<svg xmlns="http://www.w3.org/2000/svg" viewBox="0 0 15.59 15.59">
  <defs>
    <style>
      .cls-1 {
        fill: #071f39;
      }

      .cls-1, .cls-2 {
        stroke-width: 0px;
      }

      .cls-2 {
        fill: #fff;
      }
    </style>
  </defs>
  <g id="Firkant">
    <rect class="cls-1" x="0" y="0" width="15.59" height="15.59"/>
  </g>
  <g id="Cirkel">
    <rect class="cls-1" x="0" y="0" width="15.59" height="15.59" rx="7.8" ry="7.8"/>
  </g>
  <g id="ICONS">
    <g>
      <path class="cls-2" d="M6.32,3.56s.16.06.37.14c.22.09.48.24.6.31.04.02.1,0,.12-.03l.11-.15s.02-.05.02-.07v-.12s-.04-.07-.04-.07l-.07-.08.05-.32v-.03s0-.02,0-.02l.23-.02c.06,0,.2-.03.07-.09l-.53-.28v-.03c-.11-.04-.3-.09-.43-.09-.2,0-.37.09-.45.14-.04.03-.04.03-.05.08-.03.11-.06.35-.07.45-.01.09.01.14.04.23,0,.02.02.03.04.04Z"/>
      <path class="cls-2" d="M5.85,10.59c.25,0,.49-.06.73-.17.68-.34,1.02-1.1.86-1.81l.07-.03s.07-.04.09-.07c.19.04.49-.06.45-.25l-.07-.37c.08-.02.15-.07.18-.15l.66-2.03s0-.02,0-.03l.12.11c-.34.48-.41,1.12-.13,1.67.2.39.53.68.94.81.17.06.34.08.51.08.25,0,.5-.06.73-.17.39-.2.68-.53.81-.94.14-.41.1-.85-.09-1.24-.4-.8-1.38-1.12-2.18-.72-.1.05-.19.11-.28.18l-.55-.52s-.03,0-.05-.02c0-.11-.06-.22-.16-.24l-.99-.17-.75-.44c-.24-.14-.42-.19-.58-.19-.1.01-.22.03-.33.07-.54.17-.8,1.34-.77,1.91.02.33.16.63.51.68l.36.05c0,.07,0,.13.05.18l.17.18-.11.4c-.32-.04-.65,0-.95.16-.8.4-1.12,1.38-.72,2.18.29.57.86.9,1.46.9ZM9.29,6.11l.81.76c.09.09.24.08.33-.01.09-.09.08-.24-.01-.33l-.81-.76s.09-.06.14-.09c.58-.29,1.28-.06,1.57.52.14.28.16.59.07.89-.1.3-.3.54-.58.68-.28.14-.59.16-.89.07-.3-.1-.54-.3-.68-.58-.19-.38-.15-.81.06-1.15ZM7.35,8.15l-.07.03c-.26-.5-.7-.67-.76-.7l.36-.78.14.02.37,1.42s-.02,0-.04,0ZM6.83,8.34l-.64.24.19-.66c.19.1.34.24.45.42ZM8.34,5.7l-.49,1.5-.19-.97c-.02-.06-.04-.11-.07-.15l.56-.55.18.18ZM6.18,5.76l-.04-.15.34-.83.94.27.51.06-.68.67s-.04.08-.05.12l-1.01-.15ZM5.32,7.92c.19-.1.41-.14.62-.12l-.31,1.1c-.02.08,0,.17.07.23.06.06.16.08.24.05l1.07-.41c.03.18.02.37-.04.56-.1.3-.3.54-.58.68-.57.29-1.28.06-1.57-.52-.29-.57-.06-1.28.52-1.57Z"/>
      <path class="cls-2" d="M13.59,9l-2.71.65-1.88-.14s-.09.01-.12.04l-1.5,1.55-1.54.18s-.04,0-.05.02l-2.16,1.1c-.07.04-.1.13-.07.2.03.05.08.08.13.08.02,0,.05,0,.07-.02l2.14-1.09,1.57-.19s.07-.02.09-.04l1.49-1.54,1.83.13s.03,0,.05,0l2.74-.66c.08-.02.13-.1.11-.18s-.1-.13-.18-.11Z"/>
      <path class="cls-2" d="M12.12,10.22l-1.13.27-1.68-.12s-.09.01-.12.05l-1.52,1.62-1.71.1c-.08,0-.15.08-.14.16,0,.08.07.14.15.14h0l1.77-.1s.07-.02.1-.05l1.52-1.61,1.63.12s.03,0,.05,0l1.15-.28c.08-.02.13-.1.11-.18s-.1-.13-.18-.11Z"/>
    </g>
  </g>
</svg>