<?xml version="1.0" encoding="UTF-8"?>
<svg id="Firkant" xmlns="http://www.w3.org/2000/svg" viewBox="0 0 15.59 15.59">
  <defs>
    <style>
      .cls-1 {
        fill: #427c7f;
      }

      .cls-1, .cls-2 {
        stroke-width: 0px;
      }

      .cls-2 {
        fill: #fff;
      }
    </style>
  </defs>
  <rect class="cls-1" x="0" y="0" width="15.59" height="15.59"/>
  <g>
    <path class="cls-2" d="m2.09,10.03c-.28,0-.5-.22-.5-.5v-1.38c0-.28.22-.5.5-.5s.5.22.5.5v1.38c0,.28-.22.5-.5.5Zm5.85-1.06c-.21,0-.41-.13-.48-.35-.08-.25-.14-.51-.17-.78-.04-.36-.14-.68-.29-.97-.13-.24-.03-.55.21-.67.25-.13.55-.03.68.21.21.4.34.84.4,1.32.02.2.07.4.12.58.08.26-.06.54-.32.63-.05.02-.1.02-.15.02Zm5.55-.52s-.02,0-.03,0c-.28-.02-.49-.25-.47-.53v-1.87c0-.28.23-.5.5-.5s.5.22.5.5v1.74c0,.06,0,.13,0,.19-.01.27-.24.47-.5.47Z"/>
    <path class="cls-2" d="m1.64,7.56h0s0,.01,0,0Zm.75-1.2c-.21-.17-.25-.48-.09-.7h0c.18-.21.49-.24.7-.08h0c.22.17.25.49.08.7h0c-.1.13-.26.19-.42.19h0c-.1,0-.2-.04-.29-.11Zm3.32-.68c-.26-.1-.39-.38-.3-.64h0c.1-.27.38-.4.64-.31h0c.26.1.4.38.3.64h0c-.07.22-.27.34-.48.33h0s-.1-.01-.16-.03Zm-2.03-.48c-.06-.27.11-.54.38-.6h0c.27-.06.54.11.6.38h0c.06.27-.11.54-.38.6h0s-.09,0-.13,0h0c-.22,0-.41-.16-.47-.39Z"/>
    <path class="cls-2" d="m10.76,10.6c-.05-.27.13-.53.41-.57h0c.28-.04.53.13.57.41h0c.05.28-.13.53-.41.58h0s-.09,0-.13,0h0c-.22-.02-.4-.19-.44-.41Z"/>
    <path class="cls-2" d="m9.34,10.77h0c-.26-.11-.37-.4-.27-.65h0c.11-.26.4-.37.66-.27h0c.25.1.37.4.26.65h0c-.08.21-.29.32-.5.3h0s-.1,0-.15-.03Z"/>
    <path class="cls-2" d="m12.41,10.08c-.2-.18-.22-.49-.04-.71h0c.18-.21.49-.23.71-.04h0c.2.17.22.49.04.7h0c-.11.13-.27.18-.42.17h0c-.1,0-.21-.05-.29-.12Z"/>
  </g>
</svg>