<?xml version="1.0" encoding="UTF-8"?>
<svg xmlns="http://www.w3.org/2000/svg" viewBox="0 0 15.59 15.59">
  <defs>
    <style>
      .cls-1 {
        fill: #071f39;
      }

      .cls-1, .cls-2 {
        stroke-width: 0px;
      }

      .cls-2 {
        fill: #fff;
      }
    </style>
  </defs>
  <g id="Firkant">
    <rect class="cls-1" x="0" y="0" width="15.59" height="15.59"/>
  </g>
  <g id="Cirkel">
    <rect class="cls-1" x="0" y="0" width="15.59" height="15.59" rx="7.8" ry="7.8"/>
  </g>
  <g id="ICONS">
    <g>
      <path class="cls-2" d="M7.07,12.5h-.5c-.08,0-.15.07-.15.15s.07.15.15.15h.5c.08,0,.15-.07.15-.15s-.07-.15-.15-.15Z"/>
      <path class="cls-2" d="M6.07,12.5h-.5c-.08,0-.15.07-.15.15s.07.15.15.15h.5c.08,0,.15-.07.15-.15s-.07-.15-.15-.15Z"/>
      <path class="cls-2" d="M5.07,12.5h-.5c-.08,0-.15.07-.15.15s.07.15.15.15h.5c.08,0,.15-.07.15-.15s-.07-.15-.15-.15Z"/>
      <path class="cls-2" d="M8.07,12.5h-.5c-.08,0-.15.07-.15.15s.07.15.15.15h.5c.08,0,.15-.07.15-.15s-.07-.15-.15-.15Z"/>
      <path class="cls-2" d="M4.07,12.5h-.5c-.08,0-.15.07-.15.15s.07.15.15.15h.5c.08,0,.15-.07.15-.15s-.07-.15-.15-.15Z"/>
      <path class="cls-2" d="M9.07,12.5h-.5c-.08,0-.15.07-.15.15s.07.15.15.15h.5c.08,0,.15-.07.15-.15s-.07-.15-.15-.15Z"/>
      <path class="cls-2" d="M10.07,12.5h-.5c-.08,0-.15.07-.15.15s.07.15.15.15h.5c.08,0,.15-.07.15-.15s-.07-.15-.15-.15Z"/>
      <path class="cls-2" d="M12.02,12.5h-.44c-.08,0-.15.07-.15.15s.07.15.15.15h.44c.08,0,.15-.07.15-.15s-.07-.15-.15-.15Z"/>
      <path class="cls-2" d="M11.07,12.5h-.5c-.08,0-.15.07-.15.15s.07.15.15.15h.5c.08,0,.15-.07.15-.15s-.07-.15-.15-.15Z"/>
      <path class="cls-2" d="M6.91,11.8c0,.08.07.15.15.15h.5c.08,0,.15-.07.15-.15s-.07-.15-.15-.15h-.5c-.08,0-.15.07-.15.15Z"/>
      <path class="cls-2" d="M8.06,11.95h.5c.08,0,.15-.07.15-.15s-.07-.15-.15-.15h-.5c-.08,0-.15.07-.15.15s.07.15.15.15Z"/>
      <path class="cls-2" d="M9.06,11.65c-.08,0-.15.07-.15.15s.07.15.15.15h.5c.08,0,.15-.07.15-.15s-.07-.15-.15-.15h-.5Z"/>
      <path class="cls-2" d="M11.06,11.65c-.08,0-.15.07-.15.15s.07.15.15.15h.5c.08,0,.15-.07.15-.15s-.07-.15-.15-.15h-.5Z"/>
      <path class="cls-2" d="M10.06,11.65c-.08,0-.15.07-.15.15s.07.15.15.15h.5c.08,0,.15-.07.15-.15s-.07-.15-.15-.15h-.5Z"/>
      <path class="cls-2" d="M5.06,11.65c-.08,0-.15.07-.15.15s.07.15.15.15h.5c.08,0,.15-.07.15-.15s-.07-.15-.15-.15h-.5Z"/>
      <path class="cls-2" d="M12.56,11.65h-.5c-.08,0-.15.07-.15.15s.07.15.15.15h.5c.08,0,.15-.07.15-.15s-.07-.15-.15-.15Z"/>
      <path class="cls-2" d="M3.71,11.8c0-.08-.07-.15-.15-.15h-.5c-.08,0-.15.07-.15.15s.07.15.15.15h.5c.08,0,.15-.07.15-.15Z"/>
      <path class="cls-2" d="M4.06,11.65c-.08,0-.15.07-.15.15s.07.15.15.15h.5c.08,0,.15-.07.15-.15s-.07-.15-.15-.15h-.5Z"/>
      <path class="cls-2" d="M6.06,11.65c-.08,0-.15.07-.15.15s.07.15.15.15h.5c.08,0,.15-.07.15-.15s-.07-.15-.15-.15h-.5Z"/>
      <path class="cls-2" d="M8.4,10.09s-.05.08-.05.15c0,.02,0,.09.04.17.05.08.11.11.13.12.1.05.19.02.22.02.09-.03.14-.09.16-.11.34-.43.64-.68.98-1.11l.46-.5c.28.17.41.33.41.33.04.42.15.68.18,1.1,0,.03,0,.07.01.13,0,.03.03.1.09.15.02.02.1.09.23.08.11,0,.18-.08.2-.1.02-.02.07-.08.08-.17,0-.03,0-.05,0-.06-.04-.47-.09-.94-.13-1.42,0-.02,0-.05-.02-.08-.01-.04-.04-.08-.05-.1-.27-.34-.32-.54-.59-.88.04-.34.1-.55.15-.9.07.09.09.12.09.12.01.02.03.05.07.09,0,.02.02.06.05.09.03.04.07.06.09.07.25.12.61.3.89.43l-.16,2.82s.03.08.08.09c0,0,0,0,0,0,.04,0,.08-.03.08-.08l.16-2.76s.09.02.16,0c.07-.02.1-.07.11-.08,0-.01.04-.05.05-.12.01-.07-.02-.13-.02-.14-.03-.06-.07-.09-.09-.1-.05-.03-.12-.06-.18-.09l.03-.56s-.03-.08-.08-.09c0,0,0,0,0,0-.04,0-.08.03-.08.08l-.03.49c-.22-.11-.45-.22-.61-.3-.16-.39-.33-.78-.49-1.16-.01-.04-.04-.1-.09-.16-.02-.02-.07-.07-.16-.11-.11-.05-.22-.03-.26-.02-.09.02-.15.04-.24.11-.31.26-.32.49-.46.89-.33,1.14-.27,1.42-.5,2.46-.33.43-.57.78-.9,1.21Z"/>
      <path class="cls-2" d="M10.92,5.26c.32,0,.59-.26.59-.59s-.26-.59-.59-.59-.59.26-.59.59.26.59.59.59Z"/>
      <path class="cls-2" d="M8.46,7.43l.4.1c.21.05.38-.07.44-.28,0,0,.12-.41.15-.55.12-.51.27-.86.27-.91,0-.22-.51-.33-.83-.22-.24.08-.7,1.39-.7,1.39-.05.21.07.42.28.47Z"/>
      <path class="cls-2" d="M4.53,8.59v1.85c0,.18.15.22.33.22s.33-.04.33-.22v-1.85c0-.1.08-.17.17-.17h1.73c.13,0,.22-.15.15-.26,0,0-1.36-2.36-1.37-2.38-.02-.02,0-.07.04-.07h.54c.13,0,.22-.15.15-.26l-1.59-2.75c-.07-.12-.23-.12-.3,0l-1.59,2.75c-.07.12.02.26.15.26,0,0,.49,0,.54,0,.04,0,.05.05.04.07-.01.02-1.38,2.39-1.38,2.39-.07.12.02.26.15.26h1.74c.09,0,.17.08.17.17Z"/>
    </g>
  </g>
</svg>