<?xml version="1.0" encoding="UTF-8"?>
<svg xmlns="http://www.w3.org/2000/svg" viewBox="0 0 15.59 15.59">
  <defs>
    <style>
      .cls-1 {
        fill: #071f39;
      }

      .cls-1, .cls-2 {
        stroke-width: 0px;
      }

      .cls-2 {
        fill: #fff;
      }
    </style>
  </defs>
  <g id="Firkant">
    <rect class="cls-1" x="0" y="0" width="15.59" height="15.59"/>
  </g>
  <g id="Cirkel">
    <rect class="cls-1" x="0" y="0" width="15.59" height="15.59" rx="7.8" ry="7.8"/>
  </g>
  <g id="ICONS">
    <g>
      <path class="cls-2" d="M10.62,4.84c.13.44-.12.9-.56,1.03s-.9-.12-1.03-.56.12-.9.56-1.03.9.12,1.03.56h0ZM10.62,4.84"/>
      <path class="cls-2" d="M11.26,8.88c-.21,0-.38.17-.38.38,0,.33-.27.59-.59.59h-1.58s.24-1.38.24-1.38c.01-.52-.4-.96-.93-.97h-.04s.4-.31.4-.31l1.92.06s.08,0,.12-.02c.15-.04.27-.18.27-.35,0-.21-.16-.39-.37-.39l-1.32-.04c.03-.2-.01-.42-.15-.59-.12-.16-.31-.26-.51-.29-.2-.03-.4.03-.56.15l-.65.51-2.83-.76.07-.28c.04-.15-.05-.31-.2-.35-.15-.04-.31.05-.35.2l-.07.28-.37-.1c-.15-.04-.31.05-.35.2-.04.15.05.31.2.35l.37.1-.07.28c-.04.15.05.31.2.35.05.01.1.01.15,0,.09-.03.17-.1.2-.2l.07-.28,2.41.65-.81.63c-.32.25-.44.67-.32,1.05.13.38.48.64.88.65l1.09.02.18.84h-2.69c-.21,0-.38.18-.38.39,0,.21.17.38.38.38h5.4c.13,0,.26-.02.38-.06.56-.16.97-.69.97-1.3,0-.21-.17-.38-.38-.38h0ZM11.26,8.88"/>
    </g>
    <path class="cls-2" d="M12.56,11.95H3.03c-.08,0-.15-.07-.15-.15s.07-.15.15-.15h9.52c.08,0,.15.07.15.15s-.07.15-.15.15Z"/>
    <path class="cls-2" d="M12.02,12.8H3.57c-.08,0-.15-.07-.15-.15s.07-.15.15-.15h8.44c.08,0,.15.07.15.15s-.07.15-.15.15Z"/>
  </g>
</svg>