<?xml version="1.0" encoding="UTF-8"?>
<svg xmlns="http://www.w3.org/2000/svg" viewBox="0 0 15.59 15.59">
  <defs>
    <style>
      .cls-1 {
        fill: #071f39;
      }

      .cls-1, .cls-2 {
        stroke-width: 0px;
      }

      .cls-2 {
        fill: #fff;
      }
    </style>
  </defs>
  <g id="Firkant">
    <rect class="cls-1" x="0" y="0" width="15.59" height="15.59"/>
  </g>
  <g id="ICONS">
    <g>
      <path class="cls-2" d="M10.96,12.21c-.44,0-.67.17-.87.31-.19.14-.35.25-.69.25s-.5-.12-.69-.25c-.2-.15-.43-.31-.87-.31s-.67.17-.87.31c-.19.14-.35.25-.69.25s-.5-.12-.69-.25c-.2-.15-.43-.31-.87-.31-.08,0-.15.07-.15.15s.07.15.15.15c.34,0,.5.12.69.25.2.15.43.31.87.31s.67-.17.87-.31c.19-.14.35-.25.69-.25s.5.12.69.25c.2.15.43.31.87.31s.67-.17.87-.31c.19-.14.35-.25.69-.25.08,0,.15-.07.15-.15s-.07-.15-.15-.15Z"/>
      <path class="cls-2" d="M12.61,11.76c-.35,0-.51-.12-.71-.26-.2-.15-.43-.31-.88-.31s-.68.17-.88.31c-.19.14-.36.26-.71.26s-.51-.12-.71-.26c-.2-.15-.43-.31-.88-.31s-.68.17-.88.31c-.19.14-.36.26-.71.26s-.52-.12-.71-.26c-.2-.15-.44-.31-.88-.31s-.68.17-.88.31c-.19.14-.36.26-.71.26-.08,0-.15.07-.15.15s.07.15.15.15c.45,0,.68-.17.88-.31.19-.14.36-.26.71-.26s.52.12.71.26c.2.15.44.31.88.31s.68-.17.88-.31c.19-.14.36-.26.71-.26s.51.12.71.26c.2.15.43.31.88.31s.68-.17.88-.31c.19-.14.36-.26.71-.26s.51.12.71.26c.2.15.43.31.88.31.08,0,.15-.07.15-.15s-.07-.15-.15-.15Z"/>
      <path class="cls-2" d="M9.65,6.53c-.43.11-.7.54-.6.98.11.43.54.7.98.59.43-.11.7-.54.59-.98-.11-.43-.54-.7-.98-.59Z"/>
      <path class="cls-2" d="M5.3,10.38c.22.15.4.29.8.29s.58-.13.8-.29c.23-.16.49-.35.99-.35s.76.19.99.35c.18.13.28.27.64.27.63,0,.83-.3.83-.3l-1.65-2.33h0s-1.12-1.57-1.12-1.57l2.2-.98c.19-.08.27-.31.19-.5-.08-.19-.31-.28-.5-.19l-2.25,1.01c-.18.11-.3.29-.34.49-.04.2,0,.42.12.59l.53.76-3.09,2.4c.42.03.66.19.87.34Z"/>
    </g>
  </g>
</svg>