<?xml version="1.0" encoding="UTF-8"?>
<svg xmlns="http://www.w3.org/2000/svg" viewBox="0 0 15.59 15.59">
  <defs>
    <style>
      .cls-1 {
        fill: #071f39;
      }

      .cls-1, .cls-2 {
        stroke-width: 0px;
      }

      .cls-2 {
        fill: #fff;
      }
    </style>
  </defs>
  <g id="Firkant">
    <rect class="cls-1" x="0" y="0" width="15.59" height="15.59"/>
  </g>
  <g id="Cirkel">
    <rect class="cls-1" x="0" y="0" width="15.59" height="15.59" rx="7.8" ry="7.8"/>
  </g>
  <g id="ICONS">
    <g>
      <path class="cls-2" d="M2.96,7.83c0-.4,0-.8,0-1.19,0-.03,0-.07.02-.09.08-.12.16-.24.24-.36,0-.01.02-.02.04-.04,0,.02,0,.03,0,.04,0,.5,0,1,0,1.51,0,.03-.01.06-.03.08-.08.13-.16.25-.24.38-.02.03-.03.07-.03.1,0,.45,0,.89,0,1.34,0,.23,0,.46,0,.68,0,.22.22.37.43.33.18-.04.29-.19.29-.39,0-.56,0-1.11,0-1.67,0-.04.01-.09.04-.13.09-.15.19-.3.28-.44,0-.02.02-.03.04-.06,0,.19,0,.37,0,.54,0,.03,0,.06.02.09.26.61.52,1.22.78,1.84.08.19.29.28.48.19.19-.08.27-.29.19-.48-.23-.55-.46-1.09-.69-1.64-.02-.04-.01-.07,0-.1.09-.15.18-.3.27-.46.03-.05.05-.06.1-.06.57,0,1.15,0,1.72,0,.02,0,.04,0,.07,0v.06c0,.4,0,.79,0,1.19,0,.38,0,.76,0,1.14,0,.27.23.44.47.37.17-.05.26-.19.26-.39,0-.75,0-1.5,0-2.25,0-.04.01-.09.03-.13.26-.53.52-1.06.78-1.6.02-.05.05-.06.11-.05.39.07.71-.04.96-.35.09-.11.14-.24.22-.37,0,0,.03,0,.05,0,.25.04.47-.14.46-.39,0-.14-.08-.24-.19-.32-.34-.23-.68-.46-1.03-.68-.07-.04-.08-.09-.07-.16.02-.16,0-.45-.01-.43-.71.74-1.43,1.48-2.14,2.21-.02.03-.07.05-.1.05-.23,0-.47,0-.7,0-.02,0-.04,0-.06,0v-.47s.03,0,.05,0c.21.05.41.1.62.14.15.03.27-.02.33-.14.07-.15,0-.32-.17-.37-.22-.06-.44-.11-.66-.17-.05-.01-.13-.01-.15-.05-.03-.03-.01-.1-.01-.16,0-.3-.18-.51-.44-.57-.35-.07-.66.19-.66.55,0,.36,0,.71,0,1.07v.15s-.04,0-.06,0c-.43,0-.86,0-1.29,0-.16,0-.33-.01-.49.01-.41.06-.69.4-.69.81,0,.42,0,.85,0,1.27,0,.02,0,.04,0,.06h.58v-.08ZM8.96,5.42c.06-.11.06-.11.18-.09.15.03.3.06.45.09-.06.36-.48.67-.92.57.1-.19.19-.38.28-.57Z"/>
      <path class="cls-2" d="M5.48,3.82c.31,0,.55-.25.55-.55,0-.3-.25-.55-.55-.55-.3,0-.55.25-.55.55,0,.31.25.55.55.55Z"/>
      <path class="cls-2" d="M6.07,12.5h-.5c-.08,0-.15.07-.15.15s.07.15.15.15h.5c.08,0,.15-.07.15-.15s-.07-.15-.15-.15Z"/>
      <path class="cls-2" d="M7.07,12.5h-.5c-.08,0-.15.07-.15.15s.07.15.15.15h.5c.08,0,.15-.07.15-.15s-.07-.15-.15-.15Z"/>
      <path class="cls-2" d="M4.07,12.5h-.5c-.08,0-.15.07-.15.15s.07.15.15.15h.5c.08,0,.15-.07.15-.15s-.07-.15-.15-.15Z"/>
      <path class="cls-2" d="M5.07,12.5h-.5c-.08,0-.15.07-.15.15s.07.15.15.15h.5c.08,0,.15-.07.15-.15s-.07-.15-.15-.15Z"/>
      <path class="cls-2" d="M8.07,12.5h-.5c-.08,0-.15.07-.15.15s.07.15.15.15h.5c.08,0,.15-.07.15-.15s-.07-.15-.15-.15Z"/>
      <path class="cls-2" d="M9.07,12.5h-.5c-.08,0-.15.07-.15.15s.07.15.15.15h.5c.08,0,.15-.07.15-.15s-.07-.15-.15-.15Z"/>
      <path class="cls-2" d="M11.07,12.5h-.5c-.08,0-.15.07-.15.15s.07.15.15.15h.5c.08,0,.15-.07.15-.15s-.07-.15-.15-.15Z"/>
      <path class="cls-2" d="M12.02,12.5h-.44c-.08,0-.15.07-.15.15s.07.15.15.15h.44c.08,0,.15-.07.15-.15s-.07-.15-.15-.15Z"/>
      <path class="cls-2" d="M10.07,12.5h-.5c-.08,0-.15.07-.15.15s.07.15.15.15h.5c.08,0,.15-.07.15-.15s-.07-.15-.15-.15Z"/>
      <path class="cls-2" d="M8.06,11.65c-.08,0-.15.07-.15.15s.07.15.15.15h.5c.08,0,.15-.07.15-.15s-.07-.15-.15-.15h-.5Z"/>
      <path class="cls-2" d="M9.06,11.65c-.08,0-.15.07-.15.15s.07.15.15.15h.5c.08,0,.15-.07.15-.15s-.07-.15-.15-.15h-.5Z"/>
      <path class="cls-2" d="M7.56,11.65h-.5c-.08,0-.15.07-.15.15s.07.15.15.15h.5c.08,0,.15-.07.15-.15s-.07-.15-.15-.15Z"/>
      <path class="cls-2" d="M12.56,11.65h-.5c-.08,0-.15.07-.15.15s.07.15.15.15h.5c.08,0,.15-.07.15-.15s-.07-.15-.15-.15Z"/>
      <path class="cls-2" d="M10.56,11.95c.08,0,.15-.07.15-.15s-.07-.15-.15-.15h-.5c-.08,0-.15.07-.15.15s.07.15.15.15h.5Z"/>
      <path class="cls-2" d="M3.71,11.8c0-.08-.07-.15-.15-.15h-.5c-.08,0-.15.07-.15.15s.07.15.15.15h.5c.08,0,.15-.07.15-.15Z"/>
      <path class="cls-2" d="M11.56,11.95c.08,0,.15-.07.15-.15s-.07-.15-.15-.15h-.5c-.08,0-.15.07-.15.15s.07.15.15.15h.5Z"/>
      <path class="cls-2" d="M5.06,11.65c-.08,0-.15.07-.15.15s.07.15.15.15h.5c.08,0,.15-.07.15-.15s-.07-.15-.15-.15h-.5Z"/>
      <path class="cls-2" d="M6.06,11.65c-.08,0-.15.07-.15.15s.07.15.15.15h.5c.08,0,.15-.07.15-.15s-.07-.15-.15-.15h-.5Z"/>
      <path class="cls-2" d="M4.06,11.65c-.08,0-.15.07-.15.15s.07.15.15.15h.5c.08,0,.15-.07.15-.15s-.07-.15-.15-.15h-.5Z"/>
      <path class="cls-2" d="M12.56,6.17c-.14,0-.25.11-.25.25v1l-1.86.66v-.98c0-.14-.11-.25-.25-.25s-.25.11-.25.25v3.26c0,.14.11.25.25.25s.25-.11.25-.25v-.54l1.86-.65v.51c0,.14.11.25.25.25s.25-.11.25-.25v-3.26c0-.14-.11-.25-.25-.25ZM12.31,7.78v.33l-1.86.66v-.34l1.86-.65ZM10.45,9.46v-.34l1.86-.65v.33l-1.86.66Z"/>
    </g>
  </g>
</svg>