<?xml version="1.0" encoding="UTF-8"?>
<svg xmlns="http://www.w3.org/2000/svg" viewBox="0 0 15.59 15.59">
  <defs>
    <style>
      .cls-1 {
        fill: #071f39;
      }

      .cls-1, .cls-2 {
        stroke-width: 0px;
      }

      .cls-2 {
        fill: #fff;
      }
    </style>
  </defs>
  <g id="Firkant">
    <rect class="cls-1" x="0" y="0" width="15.59" height="15.59"/>
  </g>
  <g id="ICONS">
    <g>
      <path class="cls-2" d="M6.07,12.5h-.5c-.08,0-.15.07-.15.15s.07.15.15.15h.5c.08,0,.15-.07.15-.15s-.07-.15-.15-.15Z"/>
      <path class="cls-2" d="M7.07,12.5h-.5c-.08,0-.15.07-.15.15s.07.15.15.15h.5c.08,0,.15-.07.15-.15s-.07-.15-.15-.15Z"/>
      <path class="cls-2" d="M5.07,12.5h-.5c-.08,0-.15.07-.15.15s.07.15.15.15h.5c.08,0,.15-.07.15-.15s-.07-.15-.15-.15Z"/>
      <path class="cls-2" d="M8.07,12.5h-.5c-.08,0-.15.07-.15.15s.07.15.15.15h.5c.08,0,.15-.07.15-.15s-.07-.15-.15-.15Z"/>
      <path class="cls-2" d="M4.07,12.5h-.5c-.08,0-.15.07-.15.15s.07.15.15.15h.5c.08,0,.15-.07.15-.15s-.07-.15-.15-.15Z"/>
      <path class="cls-2" d="M11.07,12.5h-.5c-.08,0-.15.07-.15.15s.07.15.15.15h.5c.08,0,.15-.07.15-.15s-.07-.15-.15-.15Z"/>
      <path class="cls-2" d="M9.07,12.5h-.5c-.08,0-.15.07-.15.15s.07.15.15.15h.5c.08,0,.15-.07.15-.15s-.07-.15-.15-.15Z"/>
      <path class="cls-2" d="M12.02,12.5h-.44c-.08,0-.15.07-.15.15s.07.15.15.15h.44c.08,0,.15-.07.15-.15s-.07-.15-.15-.15Z"/>
      <path class="cls-2" d="M10.07,12.5h-.5c-.08,0-.15.07-.15.15s.07.15.15.15h.5c.08,0,.15-.07.15-.15s-.07-.15-.15-.15Z"/>
      <path class="cls-2" d="M9.56,11.65h-.5c-.08,0-.15.07-.15.15s.07.15.15.15h.5c.08,0,.15-.07.15-.15s-.07-.15-.15-.15Z"/>
      <path class="cls-2" d="M8.06,11.65c-.08,0-.15.07-.15.15s.07.15.15.15h.5c.08,0,.15-.07.15-.15s-.07-.15-.15-.15h-.5Z"/>
      <path class="cls-2" d="M7.06,11.65c-.08,0-.15.07-.15.15s.07.15.15.15h.5c.08,0,.15-.07.15-.15s-.07-.15-.15-.15h-.5Z"/>
      <path class="cls-2" d="M11.06,11.95h.5c.08,0,.15-.07.15-.15s-.07-.15-.15-.15h-.5c-.08,0-.15.07-.15.15s.07.15.15.15Z"/>
      <path class="cls-2" d="M9.91,11.8c0,.08.07.15.15.15h.5c.08,0,.15-.07.15-.15s-.07-.15-.15-.15h-.5c-.08,0-.15.07-.15.15Z"/>
      <path class="cls-2" d="M3.71,11.8c0-.08-.07-.15-.15-.15h-.5c-.08,0-.15.07-.15.15s.07.15.15.15h.5c.08,0,.15-.07.15-.15Z"/>
      <path class="cls-2" d="M6.06,11.65c-.08,0-.15.07-.15.15s.07.15.15.15h.5c.08,0,.15-.07.15-.15s-.07-.15-.15-.15h-.5Z"/>
      <path class="cls-2" d="M5.06,11.95h.5c.08,0,.15-.07.15-.15s-.07-.15-.15-.15h-.5c-.08,0-.15.07-.15.15s.07.15.15.15Z"/>
      <path class="cls-2" d="M4.06,11.95h.5c.08,0,.15-.07.15-.15s-.07-.15-.15-.15h-.5c-.08,0-.15.07-.15.15s.07.15.15.15Z"/>
      <path class="cls-2" d="M12.56,11.65h-.5c-.08,0-.15.07-.15.15s.07.15.15.15h.5c.08,0,.15-.07.15-.15s-.07-.15-.15-.15Z"/>
      <path class="cls-2" d="M5.38,9.98s-.06.09-.06.18c0,.02,0,.12.05.21.06.1.14.14.16.15.12.06.24.03.27.02.11-.03.18-.11.2-.14.41-.53.79-.83,1.2-1.36l.56-.61c.35.21.51.4.51.4.05.51.18.84.23,1.35,0,.04,0,.09.02.15.01.03.04.12.11.19.02.02.13.11.28.1.14-.01.22-.1.24-.13.03-.03.09-.1.1-.21,0-.03,0-.06,0-.08-.05-.58-.11-1.16-.16-1.73,0-.03,0-.06-.02-.1-.02-.06-.04-.1-.07-.12-.33-.42-.39-.67-.72-1.08.05-.41.13-.67.19-1.1.08.11.11.14.11.15.02.02.04.06.08.11,0,.03.03.07.06.11.04.05.08.07.11.09.3.14.75.36,1.09.53l-.2,3.46c0,.06.04.1.09.11,0,0,0,0,0,0,.05,0,.1-.04.1-.09l.2-3.38s.11.03.2,0c.08-.03.13-.08.14-.1.01-.01.05-.07.06-.15.01-.09-.02-.16-.03-.17-.03-.07-.08-.11-.11-.12-.07-.03-.14-.07-.22-.11l.04-.68c0-.06-.04-.1-.09-.11,0,0,0,0,0,0-.05,0-.1.04-.1.09l-.03.6c-.26-.13-.55-.27-.75-.37-.2-.48-.4-.95-.6-1.43-.01-.04-.05-.12-.11-.19-.03-.03-.09-.09-.19-.13-.14-.06-.27-.03-.32-.02-.11.03-.18.04-.3.14-.38.32-.4.6-.56,1.09-.4,1.39-.33,1.74-.61,3.02-.41.53-.69.95-1.1,1.48Z"/>
      <path class="cls-2" d="M8.47,4.05c.4,0,.72-.32.72-.72s-.32-.72-.72-.72-.72.32-.72.72.32.72.72.72Z"/>
      <path class="cls-2" d="M5.45,6.72l.49.13c.25.07.47-.09.53-.34,0,0,.15-.51.19-.68.15-.62.33-1.05.33-1.12,0-.27-.63-.41-1.02-.28-.3.1-.86,1.7-.86,1.7-.07.25.09.51.34.58Z"/>
    </g>
  </g>
</svg>