<?xml version="1.0" encoding="UTF-8"?>
<svg xmlns="http://www.w3.org/2000/svg" viewBox="0 0 15.59 15.59">
  <defs>
    <style>
      .cls-1 {
        fill: #fff;
      }

      .cls-2 {
        fill: #071f39;
      }
    </style>
  </defs>
  <g id="Cirkel">
    <rect class="cls-2" x="0" y="0" width="15.59" height="15.59" rx="7.8" ry="7.8"/>
  </g>
  <g id="ICONS">
    <g>
      <path class="cls-1" d="M6.23,6.83c.12,0,.23-.06.3-.18l.71-1.17h.05s.76.1.76.1l-1,1.85c-.1.2-.11.43-.02.64.09.2.27.34.47.38l1.51.22.62,1.66c.07.18.23.29.4.29.05,0,.11-.01.16-.03.22-.1.33-.37.24-.61l-.62-1.66c-.11-.3-.36-.52-.66-.56l-1.18-.18,1.06-1.98c.12-.22.05-.51-.15-.64-.06-.04-.12-.05-.18-.06-.01,0-.03-.01-.04-.01l-1.27-.17c-.3-.06-.6.07-.76.35l-.71,1.17c-.11.18-.06.42.1.54.06.04.13.07.2.07Z"/>
      <path class="cls-1" d="M9.31,4.6c.42,0,.76-.34.76-.76s-.34-.76-.76-.76-.76.34-.76.76.34.76.76.76Z"/>
      <path class="cls-1" d="M9.71,5.98l-.26-.28-.38.72.12.09.04.04c.17.16.38.24.6.24.09,0,.17-.01.26-.04l1.04-.33c.19-.06.3-.28.24-.49-.06-.21-.25-.33-.45-.27l-1.04.33c-.06.02-.12,0-.17-.03Z"/>
      <path class="cls-1" d="M4.48,9.68s.02,0,.02,0l1.65-.09c.19,0,.37-.1.5-.26l.5-.62s-.5-.1-.49-.81l-.61.75-1.59.09c-.24.01-.42.23-.41.49.01.25.2.45.43.45Z"/>
      <path class="cls-1" d="M11.07,12.5h-.5c-.08,0-.15.07-.15.15s.07.15.15.15h.5c.08,0,.15-.07.15-.15s-.07-.15-.15-.15Z"/>
      <path class="cls-1" d="M10.07,12.5h-.5c-.08,0-.15.07-.15.15s.07.15.15.15h.5c.08,0,.15-.07.15-.15s-.07-.15-.15-.15Z"/>
      <path class="cls-1" d="M12.02,12.5h-.44c-.08,0-.15.07-.15.15s.07.15.15.15h.44c.08,0,.15-.07.15-.15s-.07-.15-.15-.15Z"/>
      <path class="cls-1" d="M9.07,12.5h-.5c-.08,0-.15.07-.15.15s.07.15.15.15h.5c.08,0,.15-.07.15-.15s-.07-.15-.15-.15Z"/>
      <path class="cls-1" d="M4.07,12.5h-.5c-.08,0-.15.07-.15.15s.07.15.15.15h.5c.08,0,.15-.07.15-.15s-.07-.15-.15-.15Z"/>
      <path class="cls-1" d="M8.07,12.5h-.5c-.08,0-.15.07-.15.15s.07.15.15.15h.5c.08,0,.15-.07.15-.15s-.07-.15-.15-.15Z"/>
      <path class="cls-1" d="M5.07,12.5h-.5c-.08,0-.15.07-.15.15s.07.15.15.15h.5c.08,0,.15-.07.15-.15s-.07-.15-.15-.15Z"/>
      <path class="cls-1" d="M7.07,12.5h-.5c-.08,0-.15.07-.15.15s.07.15.15.15h.5c.08,0,.15-.07.15-.15s-.07-.15-.15-.15Z"/>
      <path class="cls-1" d="M6.07,12.5h-.5c-.08,0-.15.07-.15.15s.07.15.15.15h.5c.08,0,.15-.07.15-.15s-.07-.15-.15-.15Z"/>
      <path class="cls-1" d="M9.06,11.65c-.08,0-.15.07-.15.15s.07.15.15.15h.5c.08,0,.15-.07.15-.15s-.07-.15-.15-.15h-.5Z"/>
      <path class="cls-1" d="M10.06,11.65c-.08,0-.15.07-.15.15s.07.15.15.15h.5c.08,0,.15-.07.15-.15s-.07-.15-.15-.15h-.5Z"/>
      <path class="cls-1" d="M8.06,11.65c-.08,0-.15.07-.15.15s.07.15.15.15h.5c.08,0,.15-.07.15-.15s-.07-.15-.15-.15h-.5Z"/>
      <path class="cls-1" d="M10.91,11.8c0,.08.07.15.15.15h.5c.08,0,.15-.07.15-.15s-.07-.15-.15-.15h-.5c-.08,0-.15.07-.15.15Z"/>
      <path class="cls-1" d="M3.71,11.8c0-.08-.07-.15-.15-.15h-.5c-.08,0-.15.07-.15.15s.07.15.15.15h.5c.08,0,.15-.07.15-.15Z"/>
      <path class="cls-1" d="M12.56,11.65h-.5c-.08,0-.15.07-.15.15s.07.15.15.15h.5c.08,0,.15-.07.15-.15s-.07-.15-.15-.15Z"/>
      <path class="cls-1" d="M4.06,11.95h.5c.08,0,.15-.07.15-.15s-.07-.15-.15-.15h-.5c-.08,0-.15.07-.15.15s.07.15.15.15Z"/>
      <path class="cls-1" d="M5.06,11.65c-.08,0-.15.07-.15.15s.07.15.15.15h.5c.08,0,.15-.07.15-.15s-.07-.15-.15-.15h-.5Z"/>
      <path class="cls-1" d="M6.06,11.65c-.08,0-.15.07-.15.15s.07.15.15.15h.5c.08,0,.15-.07.15-.15s-.07-.15-.15-.15h-.5Z"/>
      <path class="cls-1" d="M7.06,11.65c-.08,0-.15.07-.15.15s.07.15.15.15h.5c.08,0,.15-.07.15-.15s-.07-.15-.15-.15h-.5Z"/>
    </g>
  </g>
</svg>