<?xml version="1.0" encoding="UTF-8"?>
<svg xmlns="http://www.w3.org/2000/svg" viewBox="0 0 15.59 15.59">
  <defs>
    <style>
      .cls-1 {
        fill: #fff;
      }

      .cls-2 {
        fill: #071f39;
      }
    </style>
  </defs>
  <g id="Firkant">
    <rect class="cls-2" x="0" y="0" width="15.59" height="15.59"/>
  </g>
  <g id="Cirkel">
    <rect class="cls-2" x="0" y="0" width="15.59" height="15.59" rx="7.8" ry="7.8"/>
  </g>
  <g id="ICONS">
    <path class="cls-1" d="M9.4,13.08c-.44,0-.67-.17-.87-.31-.19-.14-.35-.25-.69-.25s-.5.12-.69.25c-.2.15-.43.31-.87.31s-.67-.17-.87-.31c-.19-.14-.35-.25-.69-.25-.08,0-.15-.07-.15-.15s.07-.15.15-.15c.44,0,.67.17.87.31.19.14.35.25.69.25s.5-.12.69-.25c.2-.15.43-.31.87-.31s.67.17.87.31c.19.14.35.25.69.25s.5-.12.69-.25c.2-.15.43-.31.87-.31.08,0,.15.07.15.15s-.07.15-.15.15c-.34,0-.5.12-.69.25-.2.15-.43.31-.87.31Z"/>
    <path class="cls-1" d="M12.61,12.06c-.44,0-.68-.17-.88-.31-.19-.14-.36-.26-.71-.26s-.51.12-.71.26c-.2.15-.44.31-.88.31s-.68-.17-.88-.31c-.19-.14-.36-.26-.71-.26s-.51.12-.71.26c-.2.15-.44.31-.88.31s-.68-.17-.88-.31c-.19-.14-.36-.26-.71-.26s-.52.12-.71.26c-.2.15-.44.31-.88.31-.08,0-.15-.07-.15-.15s.07-.15.15-.15c.35,0,.52-.12.71-.26.21-.15.44-.31.88-.31s.68.17.88.31c.19.14.36.26.71.26s.51-.12.71-.26c.2-.15.44-.31.88-.31s.68.17.88.31c.19.14.36.26.71.26s.51-.12.71-.26c.2-.15.44-.31.88-.31s.68.17.88.31c.19.14.36.26.71.26.08,0,.15.07.15.15s-.07.15-.15.15Z"/>
    <path class="cls-1" d="M13.59,5.94l-2.22.23-1.14-1.38s-.1-.07-.15-.06l-3.85.39c-.06,0-.11.04-.14.09,0,0,0,.01,0,.02h0s-.9,1.57-.9,1.57l-2.25.23c-.33.03-.38.35-.44.65,0,0-.4,1.74-.41,1.92-.01.2.26.28.41.27l8.7-.8c.15-.02.29-.09.39-.19l1.45-1.48-5.35.53s-.01,0-.02,0c-.09,0-.17-.07-.18-.16-.01-.1.06-.18.16-.19l5.76-.57.47-.48c.23-.23.04-.61-.29-.58ZM5.57,6.76l.65-1.13.51,1.02-1.16.12ZM7.81,6.54l-.71.07-.59-1.17,3.5-.36.93,1.13-3.13.32Z"/>
  </g>
</svg>