<svg xmlns="http://www.w3.org/2000/svg" width="5.5mm" height="5.5mm" viewBox="0 0 15.591 15.591">
  <rect width="15.591" height="15.591" fill="#427c7f"/>
  <g>
    <g>
      <path d="M14.3,7.808a.383.383,0,0,0-.138-.156l-1.227-.588-.765-1.818A.678.678,0,0,0,12.021,5a.687.687,0,0,0-.247-.167.7.7,0,0,0-.7.12l-1.524.78-.225.116a.3.3,0,0,0-.16.167,1.527,1.527,0,0,0-.076.184c-.025.082-.17.435-.588,1.4a.545.545,0,0,0-.043.127.435.435,0,0,0,0,.174.4.4,0,0,0,.135.218.386.386,0,0,0,.478.014A.428.428,0,0,0,9.2,7.975l.617-1.5c.3-.154.187-.071.466-.145-.292,1.626-.429,2.264-.789,3.891-.523.674-.885,1.215-1.408,1.889a.473.473,0,0,0-.079.232.479.479,0,0,0,.065.272.491.491,0,0,0,.2.189.476.476,0,0,0,.342.025.489.489,0,0,0,.25-.177c.524-.679,1-1.059,1.528-1.738l.717-.78c.444.273.282.163.772.445.062.655.227,1.065.288,1.721a.56.56,0,0,0,.022.2.5.5,0,0,0,.142.235.453.453,0,0,0,.66-.036.438.438,0,0,0,.127-.261.367.367,0,0,0,0-.1l-.206-2.21A.572.572,0,0,0,12.884,10a.527.527,0,0,0-.083-.156L11.752,8.535c.068-.527.161-.858.241-1.4l.139.185.1.138a.415.415,0,0,0,.076.142.434.434,0,0,0,.134.109l1.361.635a.416.416,0,0,0,.268,0,.411.411,0,0,0,.175-.123.4.4,0,0,0,.079-.189A.4.4,0,0,0,14.3,7.808Zm-2.191-.522.014.018Z" fill="#fff"/>
      <path d="M12.022,4.562a.914.914,0,1,0-.913-.914A.914.914,0,0,0,12.022,4.562Z" fill="#fff"/>
    </g>
    <path d="M6.7,8.171s.262-.032.293.208A.82.82,0,0,1,6.481,9.42l-.244,1.24a8.981,8.981,0,0,1,.438.848c.1.261.345.809.345.809s.065.215-.137.228a.32.32,0,0,1-.326-.157c-.019-.052-.332-.632-.332-.632l-.268-.228-.169.671a.338.338,0,0,1-.15.176c-.111.059-.7.4-.7.4a.191.191,0,0,1-.215-.078c-.1-.124-.085-.183,0-.287s.6-.5.6-.5l-.035-.482-1.2-.248a.977.977,0,0,1-.567.489,4.951,4.951,0,0,0-.75.352v.574a.213.213,0,0,1-.241.163.249.249,0,0,1-.235-.229V11.73l.346-.352-.639.029-.385.417a.2.2,0,0,1-.319.006.208.208,0,0,1,0-.326l.476-.541.613-.211a1.011,1.011,0,0,1,.208-.4,3.343,3.343,0,0,1-.626-.563c-.13-.209-.013-.235-.013-.235s.079-.071.222.072a1.211,1.211,0,0,0,1.089.248c.573-.111,1.932-.407,1.932-.407l-.244-.956s-.033-.384.417-.078Z" fill="#fff"/>
  </g>
</svg>
