<svg xmlns="http://www.w3.org/2000/svg" width="5.5mm" height="5.5mm" viewBox="0 0 15.591 15.591">
  <rect width="15.591" height="15.591" fill="#0072bc"/>
  <path d="M13.419,2.4c-.01-.089-.056-.12-.149-.123,0,0-.253-.047-.457-.063a11.275,11.275,0,0,0-2.7.025c-.888.149-1.711.488-2.6.636a11.273,11.273,0,0,1-2.671-.024A7.888,7.888,0,0,0,2.688,3L2.666,2.77a.392.392,0,0,0,.156-.309.4.4,0,1,0-.8,0,.4.4,0,0,0,.223.353L3.357,13.888a.21.21,0,0,0,.209.189h.021a.209.209,0,0,0,.189-.23l-.345-3.437a7.9,7.9,0,0,1,2.2-.206A11.225,11.225,0,0,0,8.3,10.162c.891-.171,1.7-.529,2.594-.7a10.953,10.953,0,0,1,2.652-.079c.2.011.51.043.51.043.092,0,.11-.037.1-.126ZM2.835,4.078a1.735,1.735,0,0,0,.836-.284,2.531,2.531,0,0,1,1.177-.4,2.533,2.533,0,0,1,1.233.155,1.728,1.728,0,0,0,.875.114,1.718,1.718,0,0,0,.834-.284,2.536,2.536,0,0,1,1.177-.395,2.524,2.524,0,0,1,1.231.156,1.744,1.744,0,0,0,.873.114l.084.837a2.522,2.522,0,0,1-1.231-.156,1.729,1.729,0,0,0-.873-.114,1.722,1.722,0,0,0-.834.284A2.536,2.536,0,0,1,7.04,4.5a2.572,2.572,0,0,1-1.233-.155,1.756,1.756,0,0,0-.875-.114A1.726,1.726,0,0,0,4.1,4.52a2.541,2.541,0,0,1-1.178.4Zm.156,1.636a1.727,1.727,0,0,0,.836-.284,2.547,2.547,0,0,1,1.178-.4,2.535,2.535,0,0,1,1.233.156,1.734,1.734,0,0,0,.875.114,1.722,1.722,0,0,0,.834-.284,2.526,2.526,0,0,1,1.176-.4,2.561,2.561,0,0,1,1.232.156,1.74,1.74,0,0,0,.873.114l.083.837a2.508,2.508,0,0,1-1.231-.156,1.725,1.725,0,0,0-.873-.114,1.733,1.733,0,0,0-.834.284,2.514,2.514,0,0,1-1.176.4,2.545,2.545,0,0,1-1.233-.155,1.734,1.734,0,0,0-.875-.114,1.727,1.727,0,0,0-.836.284,2.547,2.547,0,0,1-1.178.4ZM3.14,7.351a1.726,1.726,0,0,0,.836-.285,2.537,2.537,0,0,1,1.178-.395,2.511,2.511,0,0,1,1.233.156,1.728,1.728,0,0,0,.876.113A1.711,1.711,0,0,0,8.1,6.656a2.537,2.537,0,0,1,1.176-.4,2.547,2.547,0,0,1,1.232.156,1.721,1.721,0,0,0,.872.114l.084.838a2.52,2.52,0,0,1-1.231-.157A1.726,1.726,0,0,0,9.356,7.1a1.712,1.712,0,0,0-.834.284,2.537,2.537,0,0,1-1.176.4,2.549,2.549,0,0,1-1.233-.156,1.747,1.747,0,0,0-.876-.114,1.726,1.726,0,0,0-.835.284,2.535,2.535,0,0,1-1.178.4Zm7.28,1.5a1.718,1.718,0,0,0-.874-.114,1.718,1.718,0,0,0-.833.284,2.526,2.526,0,0,1-1.176.4A2.529,2.529,0,0,1,6.3,9.258a1.756,1.756,0,0,0-.875-.114,1.737,1.737,0,0,0-.836.285,2.537,2.537,0,0,1-1.178.395l-.084-.837A1.727,1.727,0,0,0,4.167,8.7a2.547,2.547,0,0,1,1.178-.4,2.525,2.525,0,0,1,1.233.156,1.741,1.741,0,0,0,.875.114,1.724,1.724,0,0,0,.833-.284,2.524,2.524,0,0,1,1.177-.4,2.52,2.52,0,0,1,1.231.156,1.736,1.736,0,0,0,.873.114L11.651,9A2.532,2.532,0,0,1,10.42,8.848Z" fill="#fff"/>
</svg>
