<svg xmlns="http://www.w3.org/2000/svg" viewBox="0 0 128.16 128.16"><defs><style>.cls-1{fill:#0073bc;}.cls-2{fill:#fff;}</style></defs><g id="Isolation_Mode" data-name="Isolation Mode"><rect class="cls-1" width="128.16" height="128.16"/><path class="cls-2" d="M72.75,64.39h42.07c3.22,0,3.23-5,0-5H72.75c-3.21,0-3.22,5,0,5Z"/><circle class="cls-2" cx="39.8" cy="42.45" r="6.32"/><path class="cls-2" d="M105.34,81.3c-.37-.18-.74-.38-1.1-.6a14,14,0,0,1-2-1.65c-3.06-2.82-7-4.26-11.12-3.22A15.47,15.47,0,0,0,86,78.34a24.55,24.55,0,0,1-4.64,3.07,6.24,6.24,0,0,1-3.6.46,9.27,9.27,0,0,1-4.22-2.47c-3.14-2.84-6.93-4.55-11.21-3.84a13,13,0,0,0-4.85,2c-1.54,1-2.79,2.37-4.4,3.26a6.92,6.92,0,0,1-7.75-.49c-1.45-1-2.62-2.34-4.21-3.18a14.34,14.34,0,0,0-5.34-1.58c-4.12-.4-7.7,1.42-10.53,4.26a7.92,7.92,0,0,1-3.05,2,6.38,6.38,0,0,1-1.6.18c-1.67-.11-3.23.42-3.69,2.1A3,3,0,0,0,19,87.73h0a11.7,11.7,0,0,0,6.69-1,15.38,15.38,0,0,0,4.46-3.39,6.25,6.25,0,0,1,3.12-1.7,7.16,7.16,0,0,1,3.73.2,11.62,11.62,0,0,1,3.73,2.43,13.56,13.56,0,0,0,10.93,3.26,13.27,13.27,0,0,0,4.94-1.85c1.56-1,2.81-2.34,4.39-3.28a6.26,6.26,0,0,1,3.85-1,5.71,5.71,0,0,1,1.66.4,9.07,9.07,0,0,1,2.2,1.34c1.68,1.35,3.14,2.85,5.15,3.73a11.88,11.88,0,0,0,5.57,1.1,14.41,14.41,0,0,0,5.65-1.69c1.7-.89,3.08-2.18,4.68-3.22a7.71,7.71,0,0,1,4.7-1.56,5.36,5.36,0,0,1,2,.64,11.52,11.52,0,0,1,2.3,1.82,14.65,14.65,0,0,0,8.64,4,3,3,0,0,0,3-3,2.93,2.93,0,0,0-2.88-3A6.53,6.53,0,0,1,105.34,81.3Z"/><path class="cls-2" d="M78.58,78h.11a3.18,3.18,0,0,0,1.1-.25A13.8,13.8,0,0,0,82.49,76c.38-.29.76-.58,1.15-.86a20.23,20.23,0,0,1,4.57-2.51V64.76a5,5,0,1,0-10,0V77.84A1.77,1.77,0,0,0,78.58,78Z"/><path class="cls-2" d="M41.1,77.11a14.34,14.34,0,0,0-5.34-1.58,10.8,10.8,0,0,0-1.13,0c-.17,0-.34,0-.51,0L34.51,80,44,79.23A16.31,16.31,0,0,0,41.1,77.11Z"/><path class="cls-2" d="M15.48,72.39h0l17-9.25a.36.36,0,0,1,.53.29l.72,8.08c.28,0,.57,0,.86,0,.5,0,1,0,1.51.07a18.16,18.16,0,0,1,6.82,2A18.34,18.34,0,0,1,46.29,76c.46.39.9.77,1.32,1.06a3.41,3.41,0,0,0,2,.72,3,3,0,0,0,1.13-.25l-.43-15.65a.39.39,0,0,1,.54-.36l4.75,2a.82.82,0,0,1,.5.78L55.88,70a2.94,2.94,0,0,0,1.94,2.79,15.55,15.55,0,0,1,3.41-1.1,3,3,0,0,0,.49-1.17h0l1.77-8A3.16,3.16,0,0,0,62,59.07L47.88,51.15A3.58,3.58,0,0,0,46,50.68L36,51a3.37,3.37,0,0,0-1.84.61L12.34,66.75a1.51,1.51,0,0,0-.26.18L12,67h0a3.24,3.24,0,0,0,2,5.79A3.06,3.06,0,0,0,15.48,72.39Z"/></g></svg>