<svg xmlns="http://www.w3.org/2000/svg" width="5.5mm" height="5.5mm" viewBox="0 0 15.591 15.591">
  <rect width="15.591" height="15.591" fill="#0072bc"/>
  <g>
    <path d="M9.1,3.83a5.539,5.539,0,0,1,.685,1.5.256.256,0,0,0,.329.171c.89-.306,1.479-.634,1.419-.914-.345-1.62-2.217-2.641-4.344-2.4a.018.018,0,0,0,0,.035,4.048,4.048,0,0,1,.786.434A4.385,4.385,0,0,1,9.1,3.83Z" fill="#fff"/>
    <path d="M4.413,6.535a.239.239,0,0,0,.221-.278A5.035,5.035,0,0,1,4.6,4.715a4.661,4.661,0,0,1,.967-2.256.018.018,0,0,0-.02-.029C3.592,3.062,2.3,4.671,2.635,6.238,2.7,6.527,3.418,6.6,4.413,6.535Z" fill="#fff"/>
    <path d="M13.793,11.569l-2.626-.921c-.118-.042-.239-.08-.36-.115a6.366,6.366,0,0,0-2.644-.18l-.7-4.218c.609-.125,1.207-.27,1.743-.426A.251.251,0,0,0,9.373,5.4a5.364,5.364,0,0,0-.667-1.475,4.237,4.237,0,0,0-1.085-1.13,3.839,3.839,0,0,0-.957-.5c-.032-.012-.063-.022-.093-.031a.212.212,0,0,0-.109-.006h0c-.083.016-.164.034-.245.053a.227.227,0,0,0-.113.068,4.419,4.419,0,0,0-.648.955,4.48,4.48,0,0,0-.437,1.4A4.878,4.878,0,0,0,5.05,6.225a.3.3,0,0,0,.328.246c.517-.058,1.075-.144,1.636-.248l.7,4.209a6.4,6.4,0,0,0-.782.217l-.376.132-2.2.6c-.07.02-.135.071-.079.112s.257.181.355.266a.792.792,0,0,0,1.214,0,1.711,1.711,0,0,1,2.447,0,.789.789,0,0,0,1.211,0,1.708,1.708,0,0,1,2.445,0,.8.8,0,0,0,.6.283l.011,0,1.151-.038a.227.227,0,0,0,.075-.441Z" fill="#fff"/>
    <path d="M12.6,12.732a.9.9,0,0,1-.681-.312,1.592,1.592,0,0,0-2.29,0,.9.9,0,0,1-1.367,0,1.593,1.593,0,0,0-2.291,0,.907.907,0,0,1-1.369,0,1.6,1.6,0,0,0-2.294,0,.912.912,0,0,1-.686.312.352.352,0,1,0,0,.7,1.592,1.592,0,0,0,1.148-.485.907.907,0,0,1,1.37,0,1.6,1.6,0,0,0,2.293,0,.9.9,0,0,1,1.366,0,1.6,1.6,0,0,0,2.293,0,.9.9,0,0,1,1.364,0,1.583,1.583,0,0,0,1.144.486.352.352,0,0,0,0-.7Z" fill="#fff"/>
  </g>
</svg>
