<svg xmlns="http://www.w3.org/2000/svg" width="5.5mm" height="5.5mm" viewBox="0 0 15.591 15.591">
  <rect width="15.591" height="15.591" fill="#427c7f"/>
  <g>
    <path d="M11.262,12.368,9.7,11.989l1.3-.33a.477.477,0,0,0-.235-.925l-3.04.772-3.169-.772a.477.477,0,1,0-.227.926l1.423.347-1.427.362a.477.477,0,0,0,.117.94.483.483,0,0,0,.118-.015l3.17-.8,3.305.8a.445.445,0,0,0,.114.014.477.477,0,0,0,.113-.941Z" fill="#fff"/>
    <path d="M6.814,10.658c.086-.106-.589-.488-.675-1.256a2.553,2.553,0,0,1,.22-1.177,4.629,4.629,0,0,0,.33-.722c.111-.369-.09-.725-.025-.735.361-.057.484,1.353.659,1.349.2,0,.377-.749.44-1.271.12-1.006-.117-1.635.062-1.71s.271.542.491.852A4.256,4.256,0,0,1,9.241,8a2.87,2.87,0,0,1-.156,1.569c-.3.7-.837,1.008-.769,1.1a2.473,2.473,0,0,0,1.487-.7,2.889,2.889,0,0,0,.769-1.475A3.912,3.912,0,0,0,10.2,6.062a7.8,7.8,0,0,0-1.208-1.79c-.449-.565-1.682-2.122-2.009-1.93-.073.043-.064.152-.078.33A4.7,4.7,0,0,1,6.334,4.21C5.8,5.329,5.639,5.332,5.22,6.25a3.882,3.882,0,0,0-.533,1.82A2.711,2.711,0,0,0,5.22,9.64C5.742,10.322,6.726,10.767,6.814,10.658Z" fill="#fff"/>
  </g>
</svg>
