<svg xmlns="http://www.w3.org/2000/svg" width="5.5mm" height="5.5mm" viewBox="0 0 15.591 15.591">
  <rect width="15.591" height="15.591" fill="#0072bc"/>
  <g>
    <path d="M5.049,8.567l4.082-.005a.222.222,0,0,0,.227-.247c-.111-.928-.667-4.253-3.038-6.122a.236.236,0,0,0-.372.144L4.825,8.3A.229.229,0,0,0,5.049,8.567Z" fill="#fff"/>
    <path d="M13.371,12.22a.973.973,0,0,1-.731-.334,1.706,1.706,0,0,0-2.453,0,.97.97,0,0,1-1.465,0,1.709,1.709,0,0,0-2.455,0,.97.97,0,0,1-1.466,0,1.715,1.715,0,0,0-2.458,0,.981.981,0,0,1-.735.335.377.377,0,1,0,0,.754,1.714,1.714,0,0,0,1.23-.519.972.972,0,0,1,1.468,0,1.712,1.712,0,0,0,2.457,0,.968.968,0,0,1,1.464,0,1.71,1.71,0,0,0,2.455,0,.967.967,0,0,1,1.462,0,1.7,1.7,0,0,0,1.227.52.377.377,0,0,0,0-.754Z" fill="#fff"/>
    <path d="M14,7.564a.364.364,0,0,0-.363.363v.328a.359.359,0,0,0-.23-.087.373.373,0,0,0-.372.372.367.367,0,0,0,.132.279c-.012.689-.257,1.021-.767,1.1a.5.5,0,0,0-.521-.5H2.306a.487.487,0,0,0-.459.719l.748.88a1.669,1.669,0,0,1,.977-.295,1.835,1.835,0,0,1,1.312.552.847.847,0,0,0,1.3,0,1.833,1.833,0,0,1,2.622,0,.844.844,0,0,0,1.3,0,1.834,1.834,0,0,1,1.311-.552,1.756,1.756,0,0,1,.333.04l.563-.593c.684-.052,1.042-.464,1.084-1.259l.009,0a.359.359,0,0,0,.23-.087v2.085a.363.363,0,1,0,.726,0V7.927A.363.363,0,0,0,14,7.564Z" fill="#fff"/>
  </g>
</svg>
