<svg xmlns="http://www.w3.org/2000/svg" viewBox="0 0 128.16 128.16"><defs><style>.cls-1{fill:#0073bc;}.cls-2{fill:#fff;}</style></defs><g id="Isolation_Mode" data-name="Isolation Mode"><rect class="cls-1" width="128.16" height="128.16"/><path class="cls-2" d="M105.08,85c-.37-.19-.74-.38-1.09-.6a13.53,13.53,0,0,1-2-1.66c-3.06-2.81-7-4.25-11.11-3.22A15.54,15.54,0,0,0,85.72,82a23.73,23.73,0,0,1-4.64,3.06,6.33,6.33,0,0,1-3.6.47,9.29,9.29,0,0,1-4.22-2.48c-3.14-2.83-6.93-4.54-11.21-3.83a13.06,13.06,0,0,0-4.85,2c-1.54,1-2.79,2.37-4.39,3.26A7,7,0,0,1,45.05,84c-1.45-1-2.61-2.34-4.21-3.18a14.15,14.15,0,0,0-5.34-1.58c-4.12-.4-7.7,1.41-10.53,4.26a7.78,7.78,0,0,1-3,2,6.33,6.33,0,0,1-1.6.18c-1.66-.11-3.23.41-3.69,2.09a3,3,0,0,0,2.09,3.69h0a11.69,11.69,0,0,0,6.69-1A15.38,15.38,0,0,0,29.87,87,6.1,6.1,0,0,1,33,85.34a7.06,7.06,0,0,1,3.73.2A11.35,11.35,0,0,1,40.45,88a13.57,13.57,0,0,0,10.93,3.26,13.27,13.27,0,0,0,4.94-1.85c1.57-1,2.81-2.35,4.39-3.28a6.31,6.31,0,0,1,3.86-1,5.73,5.73,0,0,1,1.65.4,9,9,0,0,1,2.2,1.33c1.68,1.36,3.14,2.85,5.15,3.74a11.77,11.77,0,0,0,5.57,1.09A14.32,14.32,0,0,0,84.8,90c1.69-.89,3.08-2.18,4.67-3.22a7.73,7.73,0,0,1,4.71-1.56,5,5,0,0,1,2,.64,11.52,11.52,0,0,1,2.3,1.82,14.71,14.71,0,0,0,8.64,4,3,3,0,0,0,3-3,2.93,2.93,0,0,0-2.87-3A6.52,6.52,0,0,1,105.08,85Z"/><path class="cls-2" d="M89.93,75.64a15.22,15.22,0,0,1,3.66-.45,16.36,16.36,0,0,1,11.14,4.61l.43.4a6.71,6.71,0,0,0,.94.8c.25.16.55.31.78.43a3.53,3.53,0,0,0,.67.25,7.32,7.32,0,0,1,2.54.65V70.43a4,4,0,0,0-4.2-4c-.78,0-1.57.08-2.38.14-12.85.83-17.83,5-19.9,12.07A19.39,19.39,0,0,1,89.93,75.64Z"/><path class="cls-2" d="M19.9,81.62l.58,0,.35,0a5,5,0,0,0,1.31-.94,17.14,17.14,0,0,1,12.23-5.5c.5,0,1,0,1.52.08a18.27,18.27,0,0,1,6.82,2A18.22,18.22,0,0,1,46,79.65c.47.4.91.77,1.32,1.07l.14.08c-1.77-8.4-6.62-13.31-21.38-14.23-1.91-.12-3.73-.21-5.46-.26a4,4,0,0,0-4.12,4v12A8.31,8.31,0,0,1,19.9,81.62Z"/><path class="cls-2" d="M103,71.13a49.22,49.22,0,0,0-6.73-7V48a42.41,42.41,0,0,1,3.64,2.93c1.78,1.62,4.44-1,2.65-2.65C86.88,34,62.05,31.3,42.59,38.27a52.48,52.48,0,0,0-14.87,8.16,1.89,1.89,0,0,0,0,2.65,1.92,1.92,0,0,0,2.66,0c.8-.63,1.64-1.23,2.49-1.81v16.1a51.53,51.53,0,0,0-5.59,5.26c-2.16,2.38,1.37,5.92,3.54,3.54A45.32,45.32,0,0,1,57.14,57.84a44.83,44.83,0,0,1,29.64,5.67A45.94,45.94,0,0,1,99.44,74.66a2.52,2.52,0,0,0,3.54,0A2.55,2.55,0,0,0,103,71.13ZM35.37,61.48V45.69a51.54,51.54,0,0,1,12.48-5.17V55.07a50.08,50.08,0,0,0-5.73,2.37A47.07,47.07,0,0,0,35.37,61.48Zm15-7.2V39.9a61.7,61.7,0,0,1,6.55-1.09c2-.22,4-.34,5.93-.38V52.36A50.7,50.7,0,0,0,50.35,54.28Zm15-1.92V38.43a62.09,62.09,0,0,1,13,1.59V54.39c-.86-.25-1.73-.49-2.6-.7A49.75,49.75,0,0,0,65.33,52.36Zm15.46,2.85V40.67a53.56,53.56,0,0,1,6.38,2.23,47,47,0,0,1,6.58,3.38v15.9A50.07,50.07,0,0,0,80.79,55.21Z"/></g></svg>