<?xml version="1.0" encoding="UTF-8"?><svg xmlns="http://www.w3.org/2000/svg" viewBox="0 0 15.59055 15.59055"><defs><style>.cls-1{fill:#fff;}.cls-2{fill:#746d51;}</style></defs><g id="NAMES"><rect class="cls-2" width="15.59055" height="15.59055"/></g><g id="ICONS"><g><path class="cls-1" d="m3.17161,9.97976h.48863v1.38924c0,.06582.023.12395.05449.17662.06138.1026.1687.17479.29692.17479.12828,0,.2356-.07219.29692-.17479.03149-.05267.05449-.1108.05449-.17662v-1.38924h7.02881v1.38924c0,.06582.023.12395.05449.17662.06138.1026.1687.17479.29692.17479.12828,0,.2356-.07219.29692-.17479.03149-.05267.05449-.1108.05449-.17662v-1.38924h.49734v-.75025H3.17161v.75025Z"/><path class="cls-1" d="m11.56581,5.13233v-.31765c0-.1941-.15731-.35141-.35141-.35141-.19404,0-.35135.15731-.35135.35141v.31765h-5.97117v-.31765c0-.1941-.15737-.35141-.35141-.35141-.1941,0-.35141.15731-.35141.35141v.31765h-1.01739v1.05332h9.42036v-1.05332h-1.02622Z"/><polygon class="cls-1" points="10.86305 6.59963 4.89188 6.59963 4.18906 6.59963 3.17167 6.59963 3.17167 7.65301 4.18906 7.65301 4.18906 8.81558 4.89188 8.81558 4.89188 7.65301 10.86305 7.65301 10.86305 8.81558 11.56581 8.81558 11.56581 7.65301 12.59203 7.65301 12.59203 6.59963 11.56581 6.59963 10.86305 6.59963"/></g></g></svg>