<svg xmlns="http://www.w3.org/2000/svg" width="5.5mm" height="5.5mm" viewBox="0 0 15.591 15.591">
  <rect width="15.591" height="15.591" fill="#427c7f"/>
  <path d="M2.2,10.055a1.224,1.224,0,1,0,0-1.731,1.223,1.223,0,0,0,0,1.731ZM11.3,5.837l2.749-2.749a.142.142,0,0,0,0-.2l-.47-.471a.142.142,0,0,0-.2,0L10.63,5.164l-.158.159-.809-.168h0c-.07-.015-.133-.05-.183,0L3.229,11.406c-.05.05-.028.118,0,.183.484,1.1.55,1.165,1.649,1.649.065.029.133.05.183,0l6.251-6.251c.051-.05.015-.113,0-.183L11.145,6Z" fill="#fff" fill-rule="evenodd"/>
</svg>
