<svg xmlns="http://www.w3.org/2000/svg" width="5.5mm" height="5.5mm" viewBox="0 0 15.591 15.591">
  <rect width="15.591" height="15.591" fill="#427c7f"/>
  <g>
    <path d="M5.431,11.324a3.678,3.678,0,0,0,1.1-.167.638.638,0,1,1,.984-.536c0,.021,0,.041-.006.062a3.7,3.7,0,1,0-2.079.641ZM3.515,9.686,4.649,8.551a1.4,1.4,0,0,0,.116.087L4,10.05A2.809,2.809,0,0,1,3.515,9.686Zm1.812.752a2.8,2.8,0,0,1-1.143-.289l.763-1.412a1.206,1.206,0,0,0,.38.1Zm.208,0V8.832a1.144,1.144,0,0,0,.143-.02l.46,1.541A2.811,2.811,0,0,1,5.535,10.439Zm1.41-1.1a.729.729,0,0,0-.716.6L5.876,8.752a1.22,1.22,0,0,0,.337-.2L7,9.342C6.984,9.341,6.965,9.335,6.945,9.335Zm.549.2L6.359,8.4a1.238,1.238,0,0,0,.087-.115l1.414.764A2.8,2.8,0,0,1,7.494,9.539Zm.464-.669L6.545,8.106a1.235,1.235,0,0,0,.1-.38H8.246A2.8,2.8,0,0,1,7.958,8.87Zm.288-1.351H6.641a1.33,1.33,0,0,0-.021-.143l1.538-.459A2.839,2.839,0,0,1,8.246,7.519Zm-.147-.8-1.539.46a1.2,1.2,0,0,0-.2-.336L7.494,5.706A2.81,2.81,0,0,1,8.1,6.717ZM7.347,5.56,6.213,6.694A1.2,1.2,0,0,0,6.1,6.608L6.86,5.2A2.887,2.887,0,0,1,7.347,5.56ZM5.535,4.808A2.794,2.794,0,0,1,6.677,5.1L5.915,6.509a1.181,1.181,0,0,0-.38-.1Zm.27,2.815a.375.375,0,1,1-.374-.375A.374.374,0,0,1,5.805,7.623ZM5.327,4.808V6.413a1.144,1.144,0,0,0-.143.02L4.725,4.9A2.725,2.725,0,0,1,5.327,4.808Zm-.8.146.459,1.539a1.229,1.229,0,0,0-.336.2L3.515,5.559A2.839,2.839,0,0,1,4.526,4.954Zm-1.158.752L4.5,6.841a1.243,1.243,0,0,0-.086.116L3,6.194A2.855,2.855,0,0,1,3.368,5.706Zm-.463.67,1.412.763a1.235,1.235,0,0,0-.1.38h-1.6A2.8,2.8,0,0,1,2.905,6.376Zm-.289,1.35H4.221c0,.049.011.1.02.143L2.7,8.328A2.829,2.829,0,0,1,2.616,7.726ZM4.3,8.068a1.211,1.211,0,0,0,.2.336L3.368,9.539a2.81,2.81,0,0,1-.6-1.011Z" fill="#fff"/>
    <path d="M13.012,3.783H11.373V3.51h-.921v.273H8.813a.453.453,0,0,0,0,.9h1.639v.17h.253V7.893h-.573a.208.208,0,0,0-.208.208v4.763h-.29a.526.526,0,0,0-.484.332H3.333a.33.33,0,1,1,0-.66H6.1a1,1,0,0,0,1-1v-.549a.432.432,0,1,0-.415.017v.532a.584.584,0,0,1-.584.583H3.333a.746.746,0,0,0,0,1.492h5.8A.526.526,0,0,0,9.639,14h2.413a.528.528,0,0,0,.527-.527v-.081a.528.528,0,0,0-.523-.527H11.9V8.1a.208.208,0,0,0-.207-.208H11.12V4.858h.253v-.17h1.639a.453.453,0,0,0,0-.9Z" fill="#fff"/>
  </g>
</svg>
