<svg xmlns="http://www.w3.org/2000/svg" width="5.5mm" height="5.5mm" viewBox="0 0 15.591 15.591">
  <rect width="15.591" height="15.591" fill="#427c7f"/>
  <g>
    <path d="M11.025,10.111a.233.233,0,0,0-.159.439c.97.35,1.55.846,1.55,1.329,0,.878-1.9,1.819-4.729,1.819s-4.728-.941-4.728-1.819a.233.233,0,1,0-.466,0c0,1.282,2.282,2.286,5.194,2.286s5.195-1,5.195-2.286C12.882,11.171,12.222,10.543,11.025,10.111Z" fill="#fff"/>
    <path d="M4.152,4.8c.788-.335,1.323-.85,1.2-1.15s-.87-.271-1.658.064-1.323.85-1.195,1.15S3.365,5.137,4.152,4.8Z" fill="#fff"/>
    <path d="M8.242,8.724H9.756v2.719c-.378.054-.672.227-.69.47.026.245.44.445.923.445s.9-.2.925-.491c-.019-.205-.314-.372-.691-.424V8.724h1.494a.964.964,0,0,0,.964-.963V7.273a.233.233,0,0,0-.233-.233H10.223V6.689h.465a1.282,1.282,0,0,0,1.28-1.281V1.67H8.011V5.408a1.282,1.282,0,0,0,1.28,1.281h.465V7.04H7.511a.233.233,0,0,0-.233.233v.488A.965.965,0,0,0,8.242,8.724Zm1.981-2.5V2.953h.382v3a.267.267,0,0,1-.268.267ZM11.5,5.408a.81.81,0,0,1-.467.73.7.7,0,0,0,.037-.183v-3h.43Zm-3.024,0V2.953h.43V5.938a.763.763,0,0,0,.041.2A.813.813,0,0,1,8.477,5.408Zm1.181.814a.284.284,0,0,1-.284-.284V2.953h.382V6.222Zm2.557,1.539a.5.5,0,0,1-.5.5h-.461a.916.916,0,0,0,.153-.486V7.507h.806Zm-1.273-.254v.264a.487.487,0,0,1-.486.486h-.233v-.75Zm-1.186,0v.75H9.5a.482.482,0,0,1-.482-.481V7.507Zm-2.011,0h.806v.269a.912.912,0,0,0,.151.481h-.46a.5.5,0,0,1-.5-.5Z" fill="#fff"/>
  </g>
</svg>
