<svg xmlns="http://www.w3.org/2000/svg" width="5.5mm" height="5.5mm" viewBox="0 0 15.591 15.591">
  <rect width="15.591" height="15.591" fill="#021e3a"/>
  <g>
    <path d="M13.718,5.405,8.087,2.03a.5.5,0,0,0-.515,0L1.942,5.405a.5.5,0,0,0,.515.86L7.83,3.044,13.2,6.265a.5.5,0,0,0,.515-.86Z" fill="#fff"/>
    <path d="M12.619,12.918H12.08a.485.485,0,0,0,.029-.143V10.6a.5.5,0,0,0-1,0v.819h-6.7V9.531a.5.5,0,0,0-1,0v3.248a.5.5,0,0,0,.028.139H2.948a.376.376,0,1,0,0,.752h9.671a.376.376,0,0,0,0-.752Zm-8.213-.139V12.42h6.7v.355a.518.518,0,0,0,.028.143H4.378A.464.464,0,0,0,4.406,12.779Z" fill="#fff"/>
    <path d="M5.786,10.284a.72.72,0,1,0-.719-.72A.72.72,0,0,0,5.786,10.284Z" fill="#fff"/>
    <path d="M4.775,10.8a.376.376,0,0,0,.376.376H6.9l.011,0h3.488a.219.219,0,0,0,.22-.22A1.368,1.368,0,0,0,9.246,9.581H6.871a.219.219,0,0,0-.22.22v.618h-1.5A.377.377,0,0,0,4.775,10.8Z" fill="#fff"/>
  </g>
</svg>
