<svg xmlns="http://www.w3.org/2000/svg" width="5.5mm" height="5.5mm" viewBox="0 0 15.591 15.591">
  <rect width="15.591" height="15.591" fill="#427c7f"/>
  <g>
    <path d="M6.572,10.23a.481.481,0,0,0-.026-.129.523.523,0,0,0-.084-.159L5.4,8.613c.069-.536.164-.871.245-1.421.11.146.278.417.323.472a.429.429,0,0,0,.136.11l1.383.646a.431.431,0,0,0,.273,0,.411.411,0,0,0,.177-.126A.4.4,0,0,0,8.014,8.1a.409.409,0,0,0-.033-.225.391.391,0,0,0-.141-.159l-1.246-.6q-.389-.924-.778-1.847a.663.663,0,0,0-.147-.247.693.693,0,0,0-.251-.17.707.707,0,0,0-.413-.029c-.148.034-1.334.679-1.851.944l-.228.118a.295.295,0,0,0-.162.169,1.688,1.688,0,0,0-.078.187c-.026.084-.173.443-.6,1.421a.517.517,0,0,0-.044.129.414.414,0,0,0,0,.177.4.4,0,0,0,.376.313.411.411,0,0,0,.247-.077.425.425,0,0,0,.14-.163l.627-1.522.474-.148s-.437,2.3-.8,3.954c-.531.685-.9,1.235-1.43,1.92a.486.486,0,0,0-.081.235.494.494,0,0,0,.067.277.5.5,0,0,0,.2.192.492.492,0,0,0,.347.026.6.6,0,0,0,.254-.181l2.281-2.558c.452.277.785.452.785.452s.291,1.865.315,1.947a.523.523,0,0,0,.144.24.462.462,0,0,0,.671-.037.455.455,0,0,0,.129-.265.381.381,0,0,0,0-.1Z" fill="#fff"/>
    <path d="M5.671,4.576a.929.929,0,1,0-.929-.929A.928.928,0,0,0,5.671,4.576Z" fill="#fff"/>
    <path d="M8.425,11.148a.947.947,0,1,0,.946.946A.947.947,0,0,0,8.425,11.148Z" fill="#fff"/>
    <path d="M12.785,11.93v-7.9l0,0,0-.488a.312.312,0,0,0-.429-.28l-2.4,1.1a.311.311,0,0,0-.026.565l2.331,1.126V11.93c-.69.062-1.215.36-1.215.72,0,.4.661.732,1.477.732S14,13.054,14,12.65C14,12.29,13.475,11.992,12.785,11.93Z" fill="#fff"/>
  </g>
</svg>
