<svg xmlns="http://www.w3.org/2000/svg" width="5.5mm" height="5.5mm" viewBox="0 0 15.591 15.591">
  <rect width="15.591" height="15.591" fill="#021e3a"/>
  <path d="M13.865,6.906,8,2.108a.324.324,0,0,0-.411,0l-5.864,4.8a.189.189,0,0,0,.12.336H3.254v6.093a.22.22,0,0,0,.22.221h2.19a.221.221,0,0,0,.22-.221V9.708a.22.22,0,0,1,.22-.22H9.237a.219.219,0,0,1,.22.22v3.627a.221.221,0,0,0,.221.221h2.189a.221.221,0,0,0,.221-.221V7.242h1.657A.189.189,0,0,0,13.865,6.906ZM7.8,6.62a.775.775,0,1,1,.775-.774A.774.774,0,0,1,7.8,6.62Z" fill="#fff"/>
</svg>
