<svg xmlns="http://www.w3.org/2000/svg" width="5.5mm" height="5.5mm" viewBox="0 0 15.591 15.591">
  <rect width="15.591" height="15.591" fill="#427c7f"/>
  <g>
    <path d="M13.776,13.044l-3.19-5.526a.3.3,0,0,0-.514,0l-3.19,5.526a.3.3,0,0,0,.257.445H8.463a.534.534,0,0,0,.461-.266l1.148-1.988a.3.3,0,0,1,.514,0l1.15,1.991a.523.523,0,0,0,.455.263h1.328A.3.3,0,0,0,13.776,13.044Z" fill="#fff"/>
    <path d="M7.806,9.973S5.935,6.728,5.913,6.694a.067.067,0,0,1,.054-.1H6.7a.24.24,0,0,0,.208-.36L4.727,2.447a.239.239,0,0,0-.415,0L2.127,6.231a.24.24,0,0,0,.208.36h.739a.069.069,0,0,1,.057.094l-1.9,3.288a.24.24,0,0,0,.208.36H3.835a.23.23,0,0,1,.231.231V13.07a.454.454,0,0,0,.907,0v-2.5a.24.24,0,0,1,.24-.239H7.6A.24.24,0,0,0,7.806,9.973Z" fill="#fff"/>
  </g>
</svg>
