<svg xmlns="http://www.w3.org/2000/svg" width="5.5mm" height="5.5mm" viewBox="0 0 15.591 15.591">
  <rect width="15.591" height="15.591" fill="#427c7f"/>
  <path d="M8.605,9.326H8.6V2.753l0-.5a.317.317,0,0,0-.437-.285L5.718,3.092a.317.317,0,0,0-.027.575L8.067,4.814V9.288c-.051-.005-.106,0-.156-.01s-.1-.006-.158-.006c-2,0-4.521-1.04-4.521.187s2.523,4.26,4.521,4.26,3.618-1,3.618-2.223C11.371,10.415,10.267,9.526,8.605,9.326ZM8.194,12.1c-.765,0-1.385-.336-1.385-.748,0-.367.486-.673,1.126-.737h.132v.532a.266.266,0,1,0,.532,0v-.532h.006c.641.064.973.37.973.737C9.578,11.765,8.959,12.1,8.194,12.1Z" fill="#fff"/>
</svg>
