<svg xmlns="http://www.w3.org/2000/svg" width="5.5mm" height="5.5mm" viewBox="0 0 15.591 15.591">
  <rect width="15.591" height="15.591" fill="#746d51"/>
  <g>
    <path d="M12.724,10.711a.358.358,0,0,0-.2.066v-.3a.352.352,0,1,0-.7,0v.414c-.434-.043-.83-.283-.83-1.3V7.736l.13.025.061.011a.442.442,0,0,0,.534-.451.456.456,0,0,0-.223-.372c-.4-.262-.792-.528-1.191-.787-.076-.049-.084-.187-.084-.187l-.009-.407a.043.043,0,0,0-.019-.026.047.047,0,0,0-.054,0S8.519,7.036,7.8,7.781c-.029.03-.22.285-.22.285l-3.7.028a4.119,4.119,0,0,0-.567.013.928.928,0,0,0-.8.94c0,.491,0,.983,0,1.474,0,.025,0,.049,0,.074h.668v-.1c0-.461,0-.921,0-1.382a.214.214,0,0,1,.027-.108c.088-.141.181-.279.272-.418.01-.015.024-.027.042-.048,0,.025.006.038.006.05q0,.871,0,1.743a.184.184,0,0,1-.031.092c-.092.148-.188.292-.279.441a.258.258,0,0,0-.036.12q0,.775,0,1.551c0,.264,0,.528.006.791a.417.417,0,0,0,.5.379.429.429,0,0,0,.341-.449c0-.645,0-1.29,0-1.935a.3.3,0,0,1,.042-.148c.1-.173.215-.342.324-.513l.05-.068c0,.223,0,.424,0,.626a.265.265,0,0,0,.018.1q.448,1.062.9,2.123a.423.423,0,1,0,.777-.334c-.266-.63-.53-1.262-.8-1.892a.118.118,0,0,1,.011-.12c.105-.175.21-.351.309-.529a.12.12,0,0,1,.121-.069c.663,0,1.326,0,1.989,0,.024,0,.049,0,.081,0v.065q0,.687,0,1.374c0,.44,0,.881,0,1.321a.425.425,0,1,0,.847-.02q0-1.3,0-2.6a.351.351,0,0,1,.034-.146c.3-.616.6-1.231.9-1.847l.149-.294.33-.654c.064-.128.064-.128.207-.1s.291.056.437.084V9.6c0,.952.361,1.433,1.064,1.508v2.262a.352.352,0,1,0,.7,0v-2a.358.358,0,1,0,.2-.655Z" fill="#fff"/>
    <path d="M13.3,4.839,8.036,1.683a.467.467,0,0,0-.481,0L2.29,4.839a.468.468,0,1,0,.481.8L7.8,2.631l5.023,3.012a.469.469,0,1,0,.482-.8Z" fill="#fff"/>
  </g>
</svg>
