<svg xmlns="http://www.w3.org/2000/svg" viewBox="0 0 128.16 128.16"><defs><style>.cls-1{fill:#0073bc;}.cls-2{fill:#fff;}</style></defs><g id="Isolation_Mode" data-name="Isolation Mode"><rect class="cls-1" width="128.16" height="128.16"/><path class="cls-2" d="M104.24,66.92H96l-5.9-13L88.76,51a3,3,0,0,0-2.59-1.49H40.48A3,3,0,0,0,37.89,51Q34.46,59,31,66.92H21.88a1.27,1.27,0,0,0-1.27,1.27v3.3a1.27,1.27,0,0,0,1.27,1.27h6.59c-.23.54-.47,1.07-.7,1.61a3.78,3.78,0,0,0-.3,1.31h-.12v28.63a2.57,2.57,0,0,0,2.57,2.57h7.3a2.57,2.57,0,0,0,2.57-2.57V93.82H87.33v10.49a2.57,2.57,0,0,0,2.57,2.57h7.29a2.58,2.58,0,0,0,2.58-2.57V75.68H99.7a3.83,3.83,0,0,0-.33-1.31l-.74-1.61h5.61a1.27,1.27,0,0,0,1.27-1.27v-3.3A1.27,1.27,0,0,0,104.24,66.92ZM41.8,57l.63-1.47H84.25l7.25,16h-56Zm5.38,23.35a2.76,2.76,0,0,1-2.76,2.76h-7a3.73,3.73,0,0,1-3.73-3.73,2.1,2.1,0,0,1,2.1-2.1h9.28a2.1,2.1,0,0,1,2.1,2.1Zm43.24,2.76h-7a2.75,2.75,0,0,1-2.76-2.76v-1a2.1,2.1,0,0,1,2.1-2.1h9.28a2.1,2.1,0,0,1,2.1,2.1A3.73,3.73,0,0,1,90.42,83.11Z"/><path class="cls-2" d="M67.64,16.31a13.1,13.1,0,1,0,8.53,12.28A13.18,13.18,0,0,0,67.64,16.31Zm-1,22.25a10.61,10.61,0,1,1,7-10A10.7,10.7,0,0,1,66.68,38.56Z"/><path class="cls-2" d="M67.77,31.53l-3.35-3.35-.11-.11V20.62a1.25,1.25,0,0,0-2.5,0v8a1.31,1.31,0,0,0,.08.43l0,.07a1.46,1.46,0,0,0,.22.33l0,0,3.36,3.35.47.48a1.25,1.25,0,0,0,1.77-1.77Z"/></g></svg>