<svg xmlns="http://www.w3.org/2000/svg" width="5.5mm" height="5.5mm" viewBox="0 0 15.591 15.591">
  <rect width="15.591" height="15.591" fill="#427c7f"/>
  <g>
    <path d="M7.077,11.54a8.519,8.519,0,0,0-.422-.82l.235-1.2a.792.792,0,0,0,.5-1.006c-.03-.232-.284-.2-.284-.2L5.81,8.571c-.435-.3-.4.076-.4.076l.236.924s-1.314.286-1.869.393a1.165,1.165,0,0,1-1.052-.239c-.139-.139-.215-.069-.215-.069s-.113.025.013.226a3.226,3.226,0,0,0,.605.545.988.988,0,0,0-.2.382l-.592.2-.46.523a.2.2,0,0,0,0,.315.2.2,0,0,0,.309-.006l.372-.4.617-.028-.334.341v.768a.24.24,0,0,0,.227.221.206.206,0,0,0,.233-.157v-.555a4.818,4.818,0,0,1,.725-.341.944.944,0,0,0,.548-.472l1.164.239.034.467a7.541,7.541,0,0,0-.58.485c-.082.1-.094.158,0,.277a.186.186,0,0,0,.208.076s.574-.328.681-.384a.332.332,0,0,0,.145-.171l.164-.649.258.221s.3.561.322.611a.308.308,0,0,0,.315.151c.2-.012.132-.22.132-.22S7.172,11.792,7.077,11.54Z" fill="#fff"/>
    <path d="M13.769,9.6S12.1,6.708,12.082,6.678a.06.06,0,0,1,.048-.092h.657a.214.214,0,0,0,.185-.321L11.025,2.892a.215.215,0,0,0-.371,0L8.707,6.265a.214.214,0,0,0,.185.321h.659a.06.06,0,0,1,.051.083C9.587,6.7,7.91,9.6,7.91,9.6a.214.214,0,0,0,.185.321H10.23a.206.206,0,0,1,.206.206v2.234a.4.4,0,0,0,.808,0V10.135a.214.214,0,0,1,.214-.214h2.126A.214.214,0,0,0,13.769,9.6Z" fill="#fff"/>
  </g>
</svg>
