<svg xmlns="http://www.w3.org/2000/svg" width="5.5mm" height="5.5mm" viewBox="0 0 15.591 15.591">
  <rect width="15.591" height="15.591" fill="#427c7f"/>
  <path d="M11.594,2.841A2.247,2.247,0,0,0,9.348,5.088v.953a2.244,2.244,0,0,0,1.729,2.181v1.3a3.555,3.555,0,0,0-.646.019.549.549,0,0,0-.353.292c-.078.185.035.347.233.424l.192.074a15.892,15.892,0,0,1-6.012,0,.662.662,0,0,1,.115-.047c.269,0,.456-.1.46-.395,0-.238-.166-.359-.486-.363H4.109V8.91C7,8.473,4.647,3.447,3.782,1.787a.307.307,0,0,0-.551.01C2.447,3.447.375,8.353,3.153,8.9v.611L3,9.507c-.622.039-.792.112-.784.365.016.539.47.364.791.44l.149.071v3.108a.478.478,0,1,0,.956,0V10.877A5.229,5.229,0,0,0,7.7,12.327a5.506,5.506,0,0,0,3.377-1.561v2.725a.478.478,0,1,0,.956,0V10.367l.215-.052c.339-.043.651-.023.671-.409.012-.251-.139-.35-.61-.412l-.276.009V8.243a2.245,2.245,0,0,0,1.808-2.2V5.088A2.247,2.247,0,0,0,11.594,2.841Z" fill="#fff"/>
</svg>
