<svg xmlns="http://www.w3.org/2000/svg" width="5.5mm" height="5.5mm" viewBox="0 0 15.591 15.591">
  <rect width="15.591" height="15.591" fill="#427c7f"/>
  <path d="M13,2.363a3.031,3.031,0,0,0-2.556-.812A4.605,4.605,0,0,0,7.759,2.9a3.877,3.877,0,0,0-.793,4.92L3.85,10.936l-.1-.1L1.781,12.8l.814.814,1.967-1.966-.1-.1L7.576,8.432a3.03,3.03,0,0,0,1.764.541A4.494,4.494,0,0,0,12.455,7.6C14.047,6.007,14.29,3.659,13,2.363ZM8.467,5.118l.7.665-.582.589-.7-.664ZM7.46,5.3l-.1-.093a3.605,3.605,0,0,1,.344-.816l.334.32Zm5.088-2.114a2.06,2.06,0,0,1,.389.976l-.066.066-.7-.664ZM11.056,2.5l.083-.084a2.09,2.09,0,0,1,1,.36l-.383.388Zm.282,1.082-.675.684-.7-.664.675-.684Zm-1.119-1.07-.676.684-.332-.317a3.54,3.54,0,0,1,.981-.392ZM9.555,4.016l.7.664-.675.685L8.88,4.7Zm.032,2.172.7.665L9.7,7.442l-.695-.664ZM8.592,7.2l.7.664-.227.231a2.1,2.1,0,0,1-.986-.37Zm1.533.652.582-.589.35.334a3.756,3.756,0,0,1-.8.377Zm.57-1.413L10,5.77l.676-.684.695.665Zm.393-1.767.675-.684.7.664-.676.684Zm1.8.386.016.015a3.481,3.481,0,0,1-.36.986l-.331-.317ZM8.716,3.215l.414.4L8.455,4.3l-.416-.4a4.253,4.253,0,0,1,.331-.386A4.207,4.207,0,0,1,8.716,3.215ZM7.272,6.329l.2-.2.695.664-.511.518A2.065,2.065,0,0,1,7.272,6.329Zm4.272.917-.425-.405.676-.685.419.4a4.232,4.232,0,0,1-.369.431C11.749,7.084,11.645,7.162,11.544,7.246Z" fill="#fff"/>
</svg>
