<svg xmlns="http://www.w3.org/2000/svg" width="5.5mm" height="5.5mm" viewBox="0 0 15.591 15.591">
  <rect width="15.591" height="15.591" fill="#0072bc"/>
  <g>
    <path d="M12.79,12.653a.884.884,0,0,1-.666-.3,1.553,1.553,0,0,0-2.236,0,.882.882,0,0,1-1.334,0,1.553,1.553,0,0,0-2.236,0,.885.885,0,0,1-1.337,0,1.558,1.558,0,0,0-2.24,0,.886.886,0,0,1-.668.3.344.344,0,1,0,0,.687,1.553,1.553,0,0,0,1.119-.474.886.886,0,0,1,1.338,0,1.558,1.558,0,0,0,2.238,0,.883.883,0,0,1,1.335,0,1.557,1.557,0,0,0,2.237,0,.881.881,0,0,1,1.332,0,1.546,1.546,0,0,0,1.118.475.344.344,0,1,0,0-.687Z" fill="#fff"/>
    <path d="M4.278,11.03l.03,0,4.447-.582A.229.229,0,1,0,8.7,9.991l-.872.115a.225.225,0,0,0,0-.145l-.345-.82a.222.222,0,0,0-.064-.087l-.586-.492L6.905,8,7.5,7.613a.233.233,0,0,0,.118-.154l.137-.619,3.31-.159.006,0a.2.2,0,0,0,.071-.014A2.864,2.864,0,1,0,7.4,2.923a.224.224,0,0,0-.005.052c0,.012-.012.02-.012.033L7.34,6.593l-.146.663-.412.215c-.018-.008-.03-.026-.05-.028L6.58,7.425a.439.439,0,0,0,.139-.787.433.433,0,0,0-.331-.072.443.443,0,0,0-.175.8c.022.015.05.012.074.023L6.1,7.367c-.022,0-.039.013-.059.017l-.322-.252-.06-.625A.24.24,0,0,0,5.412,6.3a.229.229,0,0,0-.206.25l.071.723a.226.226,0,0,0,.086.157l.433.437-.07.717c0,.01.007.017.007.026s-.008.014-.008.023l.074.8-.554.813a.218.218,0,0,0-.018.2l-.978.128a.229.229,0,0,0,.029.457ZM7.839,3.176a2.4,2.4,0,0,1,3.047,3.056L7.8,6.379ZM6.224,9.624a.228.228,0,0,0,.039-.15l.023-.6.2.04.593.454.324.769c0,.01.015.012.02.02l-1.714.225Z" fill="#fff"/>
  </g>
</svg>
