<svg xmlns="http://www.w3.org/2000/svg" width="5.5mm" height="5.5mm" viewBox="0 0 15.591 15.591">
  <rect width="15.591" height="15.591" fill="#021e3a"/>
  <path d="M13.987,6.5c-1.6-2.051-4.659-1.555-6.32-3.492l.12-.208a.249.249,0,1,0-.431-.248L1.61,12.513a.249.249,0,0,0,.091.34.243.243,0,0,0,.124.033.248.248,0,0,0,.216-.124L5.178,7.323C6.839,9.26,9.9,8.764,11.5,10.815c.03.039.073.04.1,0L14,6.643a.139.139,0,0,0-.013-.144M12.072,9.654a3.853,3.853,0,0,0-.874-.782q-.274.474-.547.948a6.014,6.014,0,0,0-1.1-.556q.274-.474.547-.948c-.386-.152-.786-.28-1.186-.407q-.273.474-.547.948c-.4-.128-.8-.255-1.185-.408L7.725,7.5a5.97,5.97,0,0,1-1.1-.555l-.547.948a3.871,3.871,0,0,1-.817-.715l.546-.948a3.9,3.9,0,0,0,.818.715l.588-1.02a5.947,5.947,0,0,0,1.1.555L7.725,7.5c.386.153.786.28,1.186.408L9.5,6.889c.4.128.8.255,1.186.407q-.3.51-.589,1.02a6.014,6.014,0,0,1,1.1.556l.588-1.02a3.853,3.853,0,0,1,.874.782Zm1.2-2.086a3.853,3.853,0,0,0-.874-.782l-.588,1.02a5.89,5.89,0,0,0-1.1-.556q.294-.51.589-1.02c-.386-.152-.786-.28-1.186-.407l-.589,1.02c-.4-.128-.8-.256-1.186-.408q.3-.51.589-1.02a5.947,5.947,0,0,1-1.1-.555L7.24,5.879a3.867,3.867,0,0,1-.818-.714l.589-1.02a3.871,3.871,0,0,0,.817.715l.574-1a5.943,5.943,0,0,0,1.1.556l-.573.994c.386.152.786.28,1.186.408l.573-1c.4.128.8.256,1.186.408L11.3,6.23a5.912,5.912,0,0,1,1.1.556l.574-.995a3.853,3.853,0,0,1,.874.782Z" fill="#fff"/>
</svg>
