<svg xmlns="http://www.w3.org/2000/svg" width="5.5mm" height="5.5mm" viewBox="0 0 15.591 15.591">
  <rect width="15.591" height="15.591" fill="#427c7f"/>
  <path d="M13.005,8.394a.046.046,0,0,1,.037-.071h.51a.165.165,0,0,0,.143-.248L12.186,5.459a.167.167,0,0,0-.288,0L10.389,8.075a.165.165,0,0,0,.143.248h.511a.048.048,0,0,1,.04.065l-.344.6c-.538-.934-1.5-2.593-1.511-2.617a.066.066,0,0,1,.053-.1h.729a.237.237,0,0,0,.205-.355L8.056,2.169a.237.237,0,0,0-.41,0L5.487,5.909a.236.236,0,0,0,.205.355h.731a.067.067,0,0,1,.056.092L4.907,9.079c-.216-.376-.39-.676-.4-.685a.046.046,0,0,1,.037-.071h.509A.165.165,0,0,0,5.2,8.075L3.692,5.459a.166.166,0,0,0-.287,0L1.9,8.075a.165.165,0,0,0,.144.248H2.55a.048.048,0,0,1,.039.065L1.277,10.66a.166.166,0,0,0,.144.249H3.076a.159.159,0,0,1,.159.16V12.8a.314.314,0,0,0,.627,0V11.075a.166.166,0,0,1,.166-.166H5.676a.166.166,0,0,0,.144-.249l-.4-.7H7.175a.228.228,0,0,1,.228.229v2.476a.448.448,0,0,0,.9,0V10.2a.237.237,0,0,1,.237-.237h1.638l-.4.7a.166.166,0,0,0,.143.249h1.655a.16.16,0,0,1,.16.16V12.8a.313.313,0,0,0,.626,0V11.075a.166.166,0,0,1,.166-.166H14.17a.166.166,0,0,0,.143-.249S13.02,8.418,13.005,8.394Z" fill="#fff"/>
</svg>
