<svg xmlns="http://www.w3.org/2000/svg" width="5.5mm" height="5.5mm" viewBox="0 0 15.591 15.591">
  <rect width="15.591" height="15.591" fill="#427c7f"/>
  <path d="M6.369,6.777,4.417,10.156a.247.247,0,0,0,.214.37H7.092a.237.237,0,0,1,.237.238v2.575a.466.466,0,0,0,.932,0V10.773a.247.247,0,0,1,.247-.247h2.451a.247.247,0,0,0,.214-.37S9.25,6.822,9.228,6.787a.069.069,0,0,1,.055-.106h.758a.247.247,0,0,0,.213-.37L8.009,2.422a.247.247,0,0,0-.427,0L5.336,6.311a.247.247,0,0,0,.214.37s.7,0,.76,0A.07.07,0,0,1,6.369,6.777Z" fill="#fff"/>
</svg>
