<svg xmlns="http://www.w3.org/2000/svg" width="5.5mm" height="5.5mm" viewBox="0 0 15.591 15.591">
  <rect width="15.591" height="15.591" fill="#021e3a"/>
  <g>
    <path d="M5.517,11.359a.844.844,0,0,0,1.294,0,1.821,1.821,0,0,1,2.606,0,.841.841,0,0,0,1.291,0,1.82,1.82,0,0,1,2.605,0,.915.915,0,0,0,.537.291.175.175,0,0,0,.116-.158V8.826a.187.187,0,0,0-.186-.187H11.121c-.172,0-4.475,1.9-5.859,2.515C5.357,11.223,5.443,11.294,5.517,11.359Z" fill="#fff"/>
    <path d="M13.957,12.327A.966.966,0,0,1,13.23,12a1.7,1.7,0,0,0-2.44,0,.963.963,0,0,1-1.456,0,1.7,1.7,0,0,0-2.441,0,.965.965,0,0,1-1.458,0,1.7,1.7,0,0,0-2.445,0,.975.975,0,0,1-.73.333.375.375,0,1,0,0,.75,1.7,1.7,0,0,0,1.222-.517.967.967,0,0,1,1.46,0,1.7,1.7,0,0,0,2.444,0,.963.963,0,0,1,1.455,0,1.7,1.7,0,0,0,2.442,0,.962.962,0,0,1,1.454,0,1.689,1.689,0,0,0,1.22.518.375.375,0,0,0,0-.75Z" fill="#fff"/>
    <path d="M2.27,11.7l.207-.007,8.014-3.5a1.44,1.44,0,0,0,.2-.192.123.123,0,0,0,.023-.04,1.387,1.387,0,0,0-.033-1.04A1.373,1.373,0,0,0,9.5,6.094a.131.131,0,0,0-.1.041.134.134,0,0,0-.034.106.947.947,0,0,1-.547,1L2.879,9.832a.945.945,0,0,1-1.1-.276.13.13,0,0,0-.2,0,1.395,1.395,0,0,0,.38,2.077A.532.532,0,0,0,2.27,11.7Z" fill="#fff"/>
  </g>
</svg>
