<svg xmlns="http://www.w3.org/2000/svg" width="5.5mm" height="5.5mm" viewBox="0 0 15.591 15.591">
  <rect width="15.591" height="15.591" fill="#746d51"/>
  <g>
    <path d="M5.961,3.907a.892.892,0,1,0-.891-.891A.892.892,0,0,0,5.961,3.907Z" fill="#fff"/>
    <path d="M9.9,6.489,6.709,4.306a.432.432,0,0,0-.246-.079L5.145,4.149a.494.494,0,0,0-.265.059L2.844,5.358a.505.505,0,0,0-.236.571l.256,1.042c.059.217.167.364.393.364a.749.749,0,0,0,.128-.019.464.464,0,0,0,.285-.6l-.039-.669.826-.354.039-.02-.029.767V7.8l-.138.924.343,1.564s-.8,2.052-.8,2.092a.573.573,0,0,0,.069.3.485.485,0,0,0,.226.206.511.511,0,0,0,.374.03.547.547,0,0,0,.285-.2c.2-.256.878-1.482.878-1.482L5.84,9.754l.513,1.162s.075,1.691.084,1.73a.607.607,0,0,0,.158.266.518.518,0,0,0,.393.138.542.542,0,0,0,.344-.177c.04-.04.171-2.469.171-2.469L6.749,8.457l.029-.482.02-.158.039-.678.059-.8.049-.433,2.4,1.338a.505.505,0,0,0,.689-.138A.424.424,0,0,0,9.9,6.489Z" fill="#fff"/>
    <path d="M12.137,11.327a.863.863,0,1,0,.863.862A.862.862,0,0,0,12.137,11.327Z" fill="#fff"/>
  </g>
</svg>
