<svg xmlns="http://www.w3.org/2000/svg" width="5.5mm" height="5.5mm" viewBox="0 0 15.591 15.591">
  <rect width="15.591" height="15.591" fill="#746d51"/>
  <g>
    <path d="M4.48,8V7.91q0-.648,0-1.3a.2.2,0,0,1,.026-.1c.082-.132.169-.262.255-.392A.422.422,0,0,1,4.8,6.074a.458.458,0,0,1,.006.047q0,.817,0,1.636a.17.17,0,0,1-.029.086c-.086.139-.177.275-.262.414a.239.239,0,0,0-.033.113c0,.486,0,.971,0,1.456,0,.248,0,.5.006.743a.39.39,0,0,0,.472.355.4.4,0,0,0,.32-.421c0-.605,0-1.211,0-1.816a.287.287,0,0,1,.04-.14c.1-.162.2-.321.3-.481.011-.017.024-.032.047-.064,0,.209,0,.4,0,.587a.25.25,0,0,0,.017.1q.42,1,.845,1.994a.4.4,0,1,0,.73-.314c-.25-.592-.5-1.185-.75-1.776a.111.111,0,0,1,.01-.113c.1-.164.2-.329.291-.5a.11.11,0,0,1,.113-.064c.622,0,1.245,0,1.867,0,.023,0,.047,0,.076,0V9.273c0,.414,0,.827,0,1.24a.4.4,0,1,0,.8-.019c0-.814,0-1.629,0-2.444A.331.331,0,0,1,9.7,7.913c.28-.578.564-1.155.845-1.733a.087.087,0,0,1,.115-.056A1.021,1.021,0,0,0,11.7,5.742a3.433,3.433,0,0,0,.237-.4L12,5.349a.414.414,0,0,0,.5-.423.428.428,0,0,0-.21-.349c-.373-.246-.743-.5-1.117-.739a.152.152,0,0,1-.079-.175,1.39,1.39,0,0,0-.011-.47Q9.918,4.4,8.754,5.6a.176.176,0,0,1-.108.053c-.255,0-.509,0-.764,0-.023,0-.045,0-.069,0V5.138l.052.008.673.157A.294.294,0,0,0,8.9,5.149a.285.285,0,0,0-.188-.4c-.238-.067-.478-.125-.717-.187-.058-.015-.136-.015-.167-.053S7.81,4.4,7.808,4.337a.606.606,0,0,0-.483-.615.6.6,0,0,0-.722.6c0,.387,0,.774,0,1.161v.162c-.027,0-.048,0-.069,0-.466,0-.933,0-1.4,0a3.942,3.942,0,0,0-.533.012.873.873,0,0,0-.752.882c0,.462,0,.923,0,1.385,0,.023,0,.046,0,.069Zm6.512-2.71c.06-.121.06-.121.195-.1l.492.095a.832.832,0,0,1-1,.615Z" fill="#fff"/>
    <path d="M7.217,3.555a.6.6,0,0,0,0-1.2.6.6,0,0,0-.6.6A.6.6,0,0,0,7.217,3.555Z" fill="#fff"/>
    <path d="M11.735,8.459a.4.4,0,0,0-.248.756c1.17.384,1.9.938,1.9,1.446,0,.93-2.39,1.97-5.588,1.97s-5.59-1.04-5.59-1.97a.4.4,0,0,0-.795,0c0,1.576,2.745,2.765,6.385,2.765s6.383-1.189,6.383-2.765C14.179,9.758,13.311,8.976,11.735,8.459Z" fill="#fff"/>
  </g>
</svg>
