<svg xmlns="http://www.w3.org/2000/svg" width="5.5mm" height="5.5mm" viewBox="0 0 15.591 15.591">
  <rect width="15.591" height="15.591" fill="#746d51"/>
  <g>
    <path d="M5.087,6.371a1.376,1.376,0,0,0,1.02.547A1.08,1.08,0,0,0,6.276,6.9a1.3,1.3,0,0,0,.945-.895A3.164,3.164,0,0,0,7.35,4.354a3.169,3.169,0,0,0-.667-1.52A1.3,1.3,0,0,0,5.5,2.3a1.293,1.293,0,0,0-.946.9A3.174,3.174,0,0,0,4.42,4.851,3.182,3.182,0,0,0,5.087,6.371Z" fill="#fff"/>
    <path d="M9.315,6.9a1.061,1.061,0,0,0,.169.014A1.374,1.374,0,0,0,10.5,6.371a3.173,3.173,0,0,0,.667-1.52A3.174,3.174,0,0,0,11.042,3.2,1.293,1.293,0,0,0,10.1,2.3a1.3,1.3,0,0,0-1.189.533,3.177,3.177,0,0,0-.666,1.52,3.165,3.165,0,0,0,.128,1.655A1.3,1.3,0,0,0,9.315,6.9Z" fill="#fff"/>
    <path d="M4.712,9.063a2.707,2.707,0,0,0,.155-1.527,2.708,2.708,0,0,0-.65-1.391,1.309,1.309,0,0,0-1.172-.471,1.308,1.308,0,0,0-.953.831,2.709,2.709,0,0,0-.154,1.528,2.711,2.711,0,0,0,.649,1.391,1.379,1.379,0,0,0,.992.486,1.107,1.107,0,0,0,.181-.016A1.307,1.307,0,0,0,4.712,9.063Z" fill="#fff"/>
    <path d="M13.5,6.505a1.21,1.21,0,0,0-2.125-.36,2.708,2.708,0,0,0-.65,1.391,2.724,2.724,0,0,0,.155,1.527,1.307,1.307,0,0,0,.952.831,1.119,1.119,0,0,0,.182.016A1.379,1.379,0,0,0,13,9.424a2.712,2.712,0,0,0,.65-1.391A2.709,2.709,0,0,0,13.5,6.505Z" fill="#fff"/>
    <path d="M9.918,9.505V9.484a2.82,2.82,0,0,0-.592-1.765,1.129,1.129,0,0,0-1.531-.2,1.131,1.131,0,0,0-.8-.192,1.167,1.167,0,0,0-.783.463,2.846,2.846,0,0,0-.535,1.69v.021c-.894-.177-1.7.745-1.7,1.889A1.74,1.74,0,0,0,5.461,13.3a1.322,1.322,0,0,0,1.448-1.082,1.832,1.832,0,0,0,1.777,0A1.319,1.319,0,0,0,10.13,13.3a1.741,1.741,0,0,0,1.486-1.91C11.616,10.25,10.811,9.327,9.918,9.505Z" fill="#fff"/>
  </g>
</svg>
