<svg xmlns="http://www.w3.org/2000/svg" width="5.5mm" height="5.5mm" viewBox="0 0 15.591 15.591">
  <rect width="15.591" height="15.591" fill="#746d51"/>
  <g>
    <path d="M12.893,7.65c-.905.1-3.538,1.954-4.53,3.649L8.292,8.483a4.132,4.132,0,0,1-.994,0L7.227,11.3C6.236,9.6,3.6,7.752,2.7,7.65c.045,1.137,2.619,5.16,4.489,5.251l-.008.3c0,.606,1.232.606,1.232,0L8.4,12.9C10.274,12.81,12.847,8.787,12.893,7.65Z" fill="#fff"/>
    <path d="M7.8,8.053a4.2,4.2,0,0,0,3.958-4.248A2.516,2.516,0,0,0,9.58,4.814,3.732,3.732,0,0,0,7.8,1.936,3.73,3.73,0,0,0,6.011,4.814,2.518,2.518,0,0,0,3.837,3.805,4.2,4.2,0,0,0,7.8,8.053Z" fill="#fff"/>
  </g>
</svg>
