<svg xmlns="http://www.w3.org/2000/svg" width="5.5mm" height="5.5mm" viewBox="0 0 15.591 15.591">
  <rect width="15.591" height="15.591" fill="#746d51"/>
  <g>
    <path d="M9.181,1.507a4.387,4.387,0,0,0-3.24,7.364L4.93,9.882a.827.827,0,0,0-.907.175l-1.9,1.9a.827.827,0,1,0,1.17,1.17l1.9-1.9a.827.827,0,0,0,.175-.907L6.4,9.3a4.36,4.36,0,0,0,2.786,1.022,4.405,4.405,0,0,0,0-8.81Zm0,8.189a3.784,3.784,0,1,1,3.783-3.785A3.789,3.789,0,0,1,9.181,9.7Z" fill="#fff"/>
    <path d="M10.7,5.535A1.089,1.089,0,1,0,9.614,4.446v.187H8.861V4.446A1.089,1.089,0,1,0,7.772,5.535h.186v.753H7.772A1.089,1.089,0,1,0,8.861,7.377V7.19h.753v.187A1.089,1.089,0,1,0,10.7,6.288h-.186V5.535ZM7.772,4.858a.392.392,0,0,1-.392-.393h0a.393.393,0,0,1,.785,0v.393Zm.411,2.519a.393.393,0,1,1-.392-.393h.392Zm1.6-.925H8.7V5.371H9.778Zm.924.513a.393.393,0,1,1-.392.393V6.965ZM10.31,4.839V4.446a.393.393,0,1,1,.392.393Z" fill="#fff"/>
  </g>
</svg>
