<svg xmlns="http://www.w3.org/2000/svg" width="5.5mm" height="5.5mm" viewBox="0 0 15.591 15.591">
  <rect width="15.591" height="15.591" fill="#021e3a"/>
  <g>
    <circle cx="6.245" cy="9.083" r="0.83" fill="#fff"/>
    <path d="M5.044,10.567a.37.37,0,0,0,.37.37H7.485c.011,0,.017.011.028.011h4.426a.216.216,0,0,0,.216-.216v-.384A1.347,1.347,0,0,0,10.808,9H8.015A.719.719,0,0,0,7.3,9.72V10.2H5.414A.371.371,0,0,0,5.044,10.567Z" fill="#fff"/>
    <path d="M13.255,11.342H3.836V7.74l9.59-3.534a.493.493,0,0,0-.341-.925L2.165,7.305a.493.493,0,0,0,.17.956.487.487,0,0,0,.171-.031L2.849,8.1v3.238H2.335a.494.494,0,0,0,0,.987h10.92a.494.494,0,1,0,0-.987Z" fill="#fff"/>
  </g>
</svg>
