<svg xmlns="http://www.w3.org/2000/svg" viewBox="0 0 15.59 15.59"><defs><style>.cls-1{fill:#577b7d;}.cls-2{fill:#fff;}</style></defs><g id="NAMES"><rect class="cls-1" width="15.59" height="15.59"/><path class="cls-2" d="M8.19,1.83a.38.38,0,0,0-.38-.38.37.37,0,0,0-.37.38V3h.75Z"/><path class="cls-2" d="M7.44,13.76a.37.37,0,0,0,.37.38.38.38,0,0,0,.38-.38V9.93H7.44Z"/><rect class="cls-2" x="7.44" y="5.73" width="0.75" height="1.41"/><polygon class="cls-2" points="11.49 3.42 9.73 3.42 8.19 3.42 7.44 3.42 5.3 3.42 4.1 3.42 4.1 5.25 5.3 5.25 7.44 5.25 8.19 5.25 9.73 5.25 11.49 5.25 12.42 4.34 11.49 3.42"/><polygon class="cls-2" points="8.19 7.62 7.44 7.62 5.3 7.62 4.1 7.62 3.17 8.54 4.1 9.45 5.3 9.45 7.44 9.45 8.19 9.45 9.73 9.45 11.49 9.45 11.49 7.62 9.73 7.62 8.19 7.62"/></g></svg>