<svg xmlns="http://www.w3.org/2000/svg" width="5.5mm" height="5.5mm" viewBox="0 0 15.591 15.591">
  <rect width="15.591" height="15.591" fill="#0072bc"/>
  <g>
    <path d="M11.124,11.161a1.032,1.032,0,0,1-1.032,1.032H9.728a.625.625,0,0,0,.011-.116V11.033H9.407a1.7,1.7,0,0,1-1.621-1.2A1.7,1.7,0,0,1,6.58,10.982l.49.336a1.278,1.278,0,0,0,1.134.15v.609a.608.608,0,0,0,.022.161.645.645,0,0,0,.228,1.25h1.638a2.327,2.327,0,0,0,2.327-2.327V9.824a3.119,3.119,0,0,1-1.295.983Z" fill="#fff"/>
    <path d="M11.938,2.1h-.333a.481.481,0,0,0-.481.481v.462h1.3V2.584A.481.481,0,0,0,11.938,2.1Z" fill="#fff"/>
    <path d="M11.124,5.048a3.119,3.119,0,0,1,1.3.983V3.713H11.124Z" fill="#fff"/>
    <path d="M7.193,9.337a.361.361,0,0,1,.361-.361h.463a.361.361,0,0,1,.361.361,1.03,1.03,0,0,0,1.029,1.029h.554a2.439,2.439,0,0,0,0-4.877H5.61a2.439,2.439,0,0,0,0,4.877h.554A1.03,1.03,0,0,0,7.193,9.337Z" fill="#fff"/>
  </g>
</svg>
