<svg xmlns="http://www.w3.org/2000/svg" width="5.5mm" height="5.5mm" viewBox="0 0 15.591 15.591">
  <rect width="15.591" height="15.591" fill="#746d51"/>
  <path d="M14.015,6.432,8.067,2.866a.526.526,0,0,0-.544,0L1.575,6.432a.529.529,0,0,0,.272.983.522.522,0,0,0,.272-.075l.3-.178a.705.705,0,0,0,.671.961.72.72,0,0,0,0,1.44.72.72,0,0,0,0,1.439.72.72,0,0,0,0,1.44h9.357a.72.72,0,0,0,0-1.44.72.72,0,1,0,0-1.439.72.72,0,1,0,0-1.44.72.72,0,0,0,.72-.72A.706.706,0,0,0,13.1,7.12l.367.22a.529.529,0,1,0,.544-.908ZM6.146,7.4c.042,0,.083-.007.124-.007a1.643,1.643,0,0,1,1.067.469l.486.433-.563.394-.406-.363a.769.769,0,0,0-.728-.275l-1.018.006A1.579,1.579,0,0,1,6.146,7.4ZM4.358,8.988a.355.355,0,0,1-.321-.145.254.254,0,0,1,0-.258.386.386,0,0,1,.347-.178l1.95-.026a.319.319,0,0,1,.229.1.586.586,0,0,0,.052.039l.4.317a2.158,2.158,0,0,1-.533.158l-2.115,0Zm3.723.322c-1.058.618-2.23,1.1-2.945.056L6.64,9.3a4.356,4.356,0,0,0,1.077-.475,5.1,5.1,0,0,1,1.1-.5c.333-.019.513.124.537.262a.24.24,0,0,1-.055.181.56.56,0,0,1-.383.176h0A2.423,2.423,0,0,0,8.1,9.3Zm2.094-.051a1.117,1.117,0,0,1-.82.589,1.651,1.651,0,0,1-1.192-.212,2.121,2.121,0,0,1,.6-.31,1.166,1.166,0,0,0,.752-.246.69.69,0,0,0-.3-1.123,1.286,1.286,0,0,0-1.086.235L7.646,7.7a2.028,2.028,0,0,1,1.7-.33,1.35,1.35,0,0,1,.889.753A1.3,1.3,0,0,1,10.175,9.259Zm1.5-.425a.386.386,0,0,1-.347.178l-.732.009a1.7,1.7,0,0,0,.005-.59h.752a.357.357,0,0,1,.322.144A.26.26,0,0,1,11.675,8.834Z" fill="#fff"/>
</svg>
