<svg xmlns="http://www.w3.org/2000/svg" width="5.5mm" height="5.5mm" viewBox="0 0 15.591 15.591">
  <rect width="15.591" height="15.591" fill="#427c7f"/>
  <path d="M10.924,8.833a5.892,5.892,0,0,0,1.445-2.67A.137.137,0,0,0,12.2,6,5.9,5.9,0,0,0,9.531,7.441,5.748,5.748,0,0,0,8.166,9.825V9a.871.871,0,0,0,0-1.6V7.3A5.877,5.877,0,0,0,10.9,5.839a5.907,5.907,0,0,0,1.445-2.67A.137.137,0,0,0,12.175,3a5.892,5.892,0,0,0-2.67,1.445A5.218,5.218,0,0,0,8.529,5.84a5.143,5.143,0,0,0,.274-1.6,5.9,5.9,0,0,0-.866-2.91.137.137,0,0,0-.237,0,5.894,5.894,0,0,0-.866,2.91,5.184,5.184,0,0,0,.273,1.6,5.183,5.183,0,0,0-.976-1.394A5.887,5.887,0,0,0,3.461,3a.136.136,0,0,0-.167.167,5.887,5.887,0,0,0,1.445,2.67A5.856,5.856,0,0,0,7.47,7.3v.108a.871.871,0,0,0,0,1.6v.82A5.745,5.745,0,0,0,6.105,7.441,5.9,5.9,0,0,0,3.435,6a.137.137,0,0,0-.168.167,5.9,5.9,0,0,0,1.445,2.67A5.888,5.888,0,0,0,7.47,10.3v.651a.863.863,0,0,0-.748-.448.874.874,0,0,0,0,1.748A.863.863,0,0,0,7.47,11.8v2.207a.348.348,0,1,0,.7,0V11.8a.863.863,0,0,0,.748.448.874.874,0,0,0,0-1.748.864.864,0,0,0-.748.449V10.3A5.882,5.882,0,0,0,10.924,8.833Z" fill="#fff"/>
</svg>
