<svg xmlns="http://www.w3.org/2000/svg" viewBox="0 0 128.16 128.16"><defs><style>.cls-1{fill:#417d81;}.cls-2{fill:#fff;}</style></defs><g id="Isolation_Mode" data-name="Isolation Mode"><rect class="cls-1" width="128.16" height="128.16"/><path class="cls-2" d="M97.81,88.94,90.16,72.45,88.57,69a2.11,2.11,0,0,0-.21-.46Q83.16,57.36,78,46.15c-.94-2-1.87-4-2.81-6-.84-1.82-3.85-2-5-.36H52.65c-1.13-1.58-4.14-1.49-5,.36L40.27,56.58h6.54q1.65-3.69,3.32-7.38l.18-.4q2.5,5.4,5,10.82l12.19,26.3,2.8,6a3,3,0,0,0,4.11,1.08,3.07,3.07,0,0,0,1.07-4.11c-.41-.89-.82-1.77-1.24-2.66H90q1.33,2.84,2.65,5.69a3,3,0,0,0,4.1,1.08A3.08,3.08,0,0,0,97.81,88.94ZM72.61,48.81q1.38,3,2.74,5.9H70C70.84,52.75,71.73,50.78,72.61,48.81Zm-17-2.66L54.43,43.5h14L63.75,54a4.09,4.09,0,0,0-.24.75H59.63Zm10,21.62-4.32-9.31H77.09l.54,1.17,3.78,8.14H65.69Zm8.13,14.76H72.53L67.85,72.45c-.14-.31-.28-.62-.43-.93H83.14q2.56,5.51,5.11,11Z"/><path class="cls-2" d="M58.7,74l-.42-.92H24.33c-4.2,0-8.44-.18-12.64,0h-.18a1.25,1.25,0,0,0,0,2.5H59.43Z"/><path class="cls-2" d="M115.62,73.12H93.78l1.16,2.5h7.87c4.2,0,8.44.19,12.64,0h.17A1.25,1.25,0,0,0,115.62,73.12Z"/><path class="cls-2" d="M115.62,64.78H89.91L91,67.16s0,.09,0,.12h11.74c4.2,0,8.44.19,12.64,0h.17A1.25,1.25,0,0,0,115.62,64.78Z"/><path class="cls-2" d="M54.41,64.78H24.33c-4.2,0-8.44-.18-12.64,0a1.08,1.08,0,0,1-.18,0,1.25,1.25,0,0,0,0,2.5H55.57Z"/><path class="cls-2" d="M24.48,53.52V84.38c0,3.22,5,3.22,5,0V53.52c0-3.21-5-3.22-5,0Z"/><path class="cls-2" d="M106.3,53.52V84.38c0,3.22,5,3.22,5,0V53.52c0-3.21-5-3.22-5,0Z"/><path class="cls-2" d="M115.62,56.45H86.05l.93,2,.23.49h15.6c4.2,0,8.44.18,12.64,0a1,1,0,0,1,.17,0A1.25,1.25,0,0,0,115.62,56.45Z"/><path class="cls-2" d="M50.33,56.45h-26c-4.2,0-8.44-.19-12.64,0h-.18a1.25,1.25,0,0,0,0,2.5H51.7l-1.16-2.5Z"/></g></svg>