<svg xmlns="http://www.w3.org/2000/svg" width="5.5mm" height="5.5mm" viewBox="0 0 15.591 15.591">
  <rect width="15.591" height="15.591" fill="#0072bc"/>
  <g>
    <path d="M4.331,7.445l2.989,0a.164.164,0,0,0,.167-.181A7.05,7.05,0,0,0,5.261,2.776a.173.173,0,0,0-.272.1L4.166,7.247A.168.168,0,0,0,4.331,7.445Z" fill="#fff"/>
    <path d="M2.536,9.244a1.787,1.787,0,0,1,1.238-.477,1.884,1.884,0,0,1,1.346.566.871.871,0,0,0,1.335,0A1.881,1.881,0,0,1,7.8,8.767a1.793,1.793,0,0,1,1.248.485l.609-.642a.356.356,0,0,0-.327-.541H2.321a.356.356,0,0,0-.336.526Z" fill="#fff"/>
    <path d="M14.218,10.69a.387.387,0,0,0-.387-.387,1,1,0,0,1-.751-.342,1.748,1.748,0,0,0-2.517,0,1,1,0,0,1-1.5,0,1.75,1.75,0,0,0-2.519,0,1,1,0,0,1-1.506,0,1.756,1.756,0,0,0-2.523,0,1,1,0,0,1-.752.342.387.387,0,1,0,0,.774,1.746,1.746,0,0,0,1.26-.533,1,1,0,0,1,1.507,0,1.755,1.755,0,0,0,2.521,0,.995.995,0,0,1,1.5,0,1.753,1.753,0,0,0,2.519,0,.991.991,0,0,1,1.5,0,1.747,1.747,0,0,0,1.26.534A.387.387,0,0,0,14.218,10.69Z" fill="#fff"/>
    <path d="M10.258,9.556a.264.264,0,1,0-.264-.264A.264.264,0,0,0,10.258,9.556Z" fill="#fff"/>
    <path d="M11.761,10.768a.264.264,0,1,0,.264.264A.264.264,0,0,0,11.761,10.768Z" fill="#fff"/>
    <path d="M12.541,11.548a.264.264,0,1,0,.264.264A.264.264,0,0,0,12.541,11.548Z" fill="#fff"/>
    <path d="M13.321,12.328a.264.264,0,1,0,.264.264A.264.264,0,0,0,13.321,12.328Z" fill="#fff"/>
  </g>
</svg>
