<svg xmlns="http://www.w3.org/2000/svg" width="5.5mm" height="5.5mm" viewBox="0 0 15.591 15.591">
  <rect width="15.591" height="15.591" fill="#0072bc"/>
  <g>
    <path d="M9.836,8.725a.43.43,0,0,0,.16,0,.326.326,0,0,0,.318-.3A.334.334,0,0,0,10,8.045l-1.459-.2a.352.352,0,0,0-.4.318l-.551,2.165L5.343,11.876a.925.925,0,0,0,.333.205h.462a1.108,1.108,0,0,0,.4-.259,1.769,1.769,0,0,1,2.531,0,1.1,1.1,0,0,0,.4.259h.228L8.974,8.755Z" fill="#fff"/>
    <path d="M13.477,12.735a.936.936,0,0,1-.706-.323,1.65,1.65,0,0,0-2.371,0,.934.934,0,0,1-1.414,0,1.651,1.651,0,0,0-2.372,0,.936.936,0,0,1-1.416,0,1.656,1.656,0,0,0-2.375,0,.943.943,0,0,1-.709.324.364.364,0,1,0,0,.728,1.648,1.648,0,0,0,1.187-.5.941.941,0,0,1,1.419,0,1.652,1.652,0,0,0,2.373,0,.936.936,0,0,1,1.414,0,1.651,1.651,0,0,0,2.372,0,.936.936,0,0,1,1.413,0,1.64,1.64,0,0,0,1.185.5.364.364,0,0,0,0-.728Z" fill="#fff"/>
    <path d="M2.34,6.333a.471.471,0,0,0,.249-.069L7.8,3.144,13,6.264a.486.486,0,0,0,.5-.833L8.045,2.161a.481.481,0,0,0-.5,0L2.09,5.431a.486.486,0,0,0,.25.9Z" fill="#fff"/>
    <path d="M10.677,10.868a.809.809,0,1,0-.978-.593A.809.809,0,0,0,10.677,10.868Z" fill="#fff"/>
  </g>
</svg>
