<svg xmlns="http://www.w3.org/2000/svg" width="5.5mm" height="5.5mm" viewBox="0 0 15.591 15.591">
  <rect width="15.591" height="15.591" fill="#021e3a"/>
  <g>
    <circle cx="9.536" cy="6.559" r="0.711" fill="#fff"/>
    <path d="M7.714,2.329H3.182V9.152a4.536,4.536,0,0,0,4.531,4.531h0a4.536,4.536,0,0,0,4.531-4.531V2.329ZM5.162,6.559a.711.711,0,1,1,.711.711A.711.711,0,0,1,5.162,6.559ZM7.7,11.167A2.006,2.006,0,0,1,5.706,9.161v-.22H7.7Zm3.348-2.015a3.336,3.336,0,0,1-3.332,3.332h0V11.169H9.721v-.221A2.007,2.007,0,0,0,7.714,8.941V3.528h3.332Z" fill="#fff"/>
  </g>
</svg>
