<svg xmlns="http://www.w3.org/2000/svg" width="5.5mm" height="5.5mm" viewBox="0 0 15.591 15.591">
  <rect width="15.591" height="15.591" fill="#ef6545"/>
  <g>
    <path d="M4.685,3.967A1.124,1.124,0,1,0,3.561,2.843,1.124,1.124,0,0,0,4.685,3.967" fill="#fff"/>
    <path d="M10.624,3.967A1.124,1.124,0,1,0,9.5,2.843a1.123,1.123,0,0,0,1.124,1.124" fill="#fff"/>
    <path d="M5.8,4.373H3.63A1.22,1.22,0,0,0,2.386,5.567l.207,3.6A1.2,1.2,0,0,0,3.445,10.3a.2.2,0,0,1,.147.177l.31,2.665a.8.8,0,0,0,.81.727h0a.8.8,0,0,0,.81-.727l.31-2.665a.2.2,0,0,1,.148-.177,1.2,1.2,0,0,0,.851-1.133l.207-3.6A1.22,1.22,0,0,0,5.8,4.373" fill="#fff"/>
    <path d="M13.182,10.026l-1.005-4.3a1.479,1.479,0,0,0-1.536-1.135A1.479,1.479,0,0,0,9.1,5.729l-.995,4.3a1.221,1.221,0,0,0,.912,1.539h.624l.182,1.579a.819.819,0,0,0,1.627,0l.182-1.579h.634C12.776,11.565,13.324,10.834,13.182,10.026Z" fill="#fff"/>
  </g>
</svg>
