<svg xmlns="http://www.w3.org/2000/svg" width="5.5mm" height="5.5mm" viewBox="0 0 15.591 15.591">
  <rect width="15.591" height="15.591" fill="#ef6545"/>
  <g>
    <path d="M9.7,13.191H8.859V9.172a.459.459,0,0,0,.01-.051.435.435,0,0,0-.01-.052V9.011H8.847a.392.392,0,0,0-.376-.289H6.2a.4.4,0,1,0,0,.8h.529v3.672H5.9a.4.4,0,0,0,0,.8H9.7a.4.4,0,0,0,0-.8Z" fill="#fff"/>
    <path d="M8.854,6.8A1.059,1.059,0,1,0,7.8,7.86,1.059,1.059,0,0,0,8.854,6.8Z" fill="#fff"/>
    <path d="M14.044,5.49,8.069,1.908a.527.527,0,0,0-.547,0L1.546,5.49a.532.532,0,0,0,.274.988A.522.522,0,0,0,2.093,6.4L7.8,2.985,13.5,6.4a.532.532,0,1,0,.547-.912Z" fill="#fff"/>
  </g>
</svg>
