<svg xmlns="http://www.w3.org/2000/svg" width="5.5mm" height="5.5mm" viewBox="0 0 15.591 15.591">
  <rect width="15.591" height="15.591" fill="#021e3a"/>
  <g>
    <path d="M13.439,9.513a.735.735,0,0,0-1.47,0,.715.715,0,0,0,.149.421,2.334,2.334,0,0,1-1.959.947,2.468,2.468,0,0,1-1.839-.855.737.737,0,1,0-1.06-.016,2.33,2.33,0,0,1-1.9.871,2.493,2.493,0,0,1-1.9-.928.721.721,0,0,0,.161-.44.735.735,0,1,0-1.076.641.373.373,0,0,0-.019.1v2.707a.361.361,0,0,0,.722,0v-2.2a3.1,3.1,0,0,0,2.114.842,3.085,3.085,0,0,0,2.073-.737v2.09a.361.361,0,1,0,.721,0v-2.09a3.1,3.1,0,0,0,2,.737,3.05,3.05,0,0,0,2.184-.844v2.2a.361.361,0,1,0,.721,0V10.249a.334.334,0,0,0-.019-.1A.73.73,0,0,0,13.439,9.513Z" fill="#fff"/>
    <path d="M4.094,8h7.7a.36.36,0,0,0,.361-.361v-5a.36.36,0,0,0-.361-.36h-7.7a.361.361,0,0,0-.361.36v5A.361.361,0,0,0,4.094,8Zm.361-5H11.43v4.28H4.455Z" fill="#fff"/>
  </g>
</svg>
