<svg xmlns="http://www.w3.org/2000/svg" width="5.5mm" height="5.5mm" viewBox="0 0 15.591 15.591">
  <rect width="15.591" height="15.591" fill="#0072bc"/>
  <g>
    <path d="M5.591,8.567l4.081-.005A.222.222,0,0,0,9.9,8.315c-.111-.928-.666-4.253-3.038-6.122a.237.237,0,0,0-.372.144L5.366,8.3A.229.229,0,0,0,5.591,8.567Z" fill="#fff"/>
    <path d="M3.136,11.018a1.669,1.669,0,0,1,.977-.295,1.835,1.835,0,0,1,1.312.552.848.848,0,0,0,1.3,0,1.832,1.832,0,0,1,2.621,0,.844.844,0,0,0,1.3,0,1.834,1.834,0,0,1,1.311-.552,1.777,1.777,0,0,1,.334.04l.574-.605a.486.486,0,0,0-.447-.739H2.847a.487.487,0,0,0-.459.719Z" fill="#fff"/>
    <path d="M13.913,12.22a.974.974,0,0,1-.732-.334,1.706,1.706,0,0,0-2.453,0,.969.969,0,0,1-1.464,0,1.71,1.71,0,0,0-2.456,0,.97.97,0,0,1-1.466,0,1.715,1.715,0,0,0-2.458,0,.981.981,0,0,1-.735.335.377.377,0,1,0,0,.754,1.714,1.714,0,0,0,1.23-.519.972.972,0,0,1,1.468,0,1.712,1.712,0,0,0,2.457,0,.969.969,0,0,1,1.465,0,1.709,1.709,0,0,0,2.454,0,.967.967,0,0,1,1.462,0,1.7,1.7,0,0,0,1.228.52.377.377,0,0,0,0-.754Z" fill="#fff"/>
  </g>
</svg>
