<svg xmlns="http://www.w3.org/2000/svg" width="5.5mm" height="5.5mm" viewBox="0 0 15.591 15.591">
  <rect width="15.591" height="15.591" fill="#0072bc"/>
  <path d="M13.736,5.313a1,1,0,0,1-.753-.346,1.764,1.764,0,0,0-2.535,0,1,1,0,0,1-1.512,0A1.758,1.758,0,0,0,7.668,4.43a1.693,1.693,0,0,0-.532.086L4.541,1.921A.727.727,0,0,0,3.513,2.95L5.854,5.291a1.009,1.009,0,0,1-.97-.324,1.769,1.769,0,0,0-2.539,0,1.007,1.007,0,0,1-.757.346.39.39,0,1,0,0,.779,1.758,1.758,0,0,0,1.268-.537,1,1,0,0,1,1.517,0,1.764,1.764,0,0,0,1.27.537,1.617,1.617,0,0,0,.811-.2l1.43,1.43a.725.725,0,0,0,.514.213.75.75,0,0,0,.147-.029l3.017,3.016a.389.389,0,0,0-.077.743l1.463.6a.39.39,0,0,0,.424-.636L9.1,6.953a.716.716,0,0,0-.185-.661L7.848,5.228a1.114,1.114,0,0,1,.575.327,1.766,1.766,0,0,0,2.536,0,1.009,1.009,0,0,1,.757-.346,1,1,0,0,1,.753.346,1.758,1.758,0,0,0,1.267.537.39.39,0,1,0,0-.779Z" fill="#fff"/>
</svg>
