<svg xmlns="http://www.w3.org/2000/svg" width="5.5mm" height="5.5mm" viewBox="0 0 15.591 15.591">
  <rect width="15.591" height="15.591" fill="#0072bc"/>
  <g>
    <path d="M4.2,10.183a6.306,6.306,0,0,1-.468.691,2.336,2.336,0,0,0-.614,1.247A1.134,1.134,0,0,0,4.2,13.3a1.134,1.134,0,0,0,1.082-1.178,2.338,2.338,0,0,0-.615-1.247A6.159,6.159,0,0,1,4.2,10.183Z" fill="#fff"/>
    <path d="M12.482,4.121H11.5a.535.535,0,0,0-.534.534v.089H9.155V4.362a.143.143,0,0,0-.142-.142H8.587V3.5a.636.636,0,0,0,.1-.1l1.3.133a.564.564,0,1,0,0-1.12L8.683,2.55a.687.687,0,0,0-1.073,0L6.316,2.418a.564.564,0,1,0,0,1.12L7.61,3.405a.685.685,0,0,0,.1.1V4.22H7.28a.142.142,0,0,0-.141.142v.382H6.425A3.242,3.242,0,0,0,3.18,7.989V8.07H3.108a.142.142,0,0,0-.142.141V9.285a.142.142,0,0,0,.142.142H5.321a.142.142,0,0,0,.142-.142V8.211a.142.142,0,0,0-.142-.141H5.249V7.989A1.177,1.177,0,0,1,6.425,6.814H6.8a1.56,1.56,0,0,0,.52.545,1.548,1.548,0,0,0,1.659,0,1.56,1.56,0,0,0,.52-.545h1.465V6.9a.535.535,0,0,0,.534.535h.987a.142.142,0,0,0,.142-.142V4.263A.142.142,0,0,0,12.482,4.121Z" fill="#fff"/>
  </g>
</svg>
