<svg xmlns="http://www.w3.org/2000/svg" width="5.5mm" height="5.5mm" viewBox="0 0 15.591 15.591">
  <rect width="15.591" height="15.591" fill="#0072bc"/>
  <g>
    <path d="M9,7.507a.385.385,0,0,0,.323.2l3.238.117h.014a.386.386,0,0,0,.217-.7A16.2,16.2,0,0,0,8.76,5.005L7.8,3.769a.386.386,0,0,0-.642.426Z" fill="#fff"/>
    <path d="M13.5,8.388,9.042,8.161l-.075.061A7.047,7.047,0,0,1,6.69,9.543v-.6h.124a.515.515,0,0,0,0-1.03H2.561a.515.515,0,1,0,0,1.03h.1l-.013.922a2.163,2.163,0,0,0-1.573.947.491.491,0,0,0-.021.5.485.485,0,0,0,.427.252h0l9.846-.121a12.45,12.45,0,0,0,2.712-1,.87.87,0,0,0,.552-.757C14.6,9.024,13.681,8.489,13.5,8.388Z" fill="#fff"/>
  </g>
</svg>
