<?xml version="1.0" encoding="UTF-8"?>
<svg xmlns="http://www.w3.org/2000/svg" viewBox="0 0 15.59 15.59">
  <defs>
    <style>
      .cls-1 {
        fill: #427c7f;
      }

      .cls-1, .cls-2 {
        stroke-width: 0px;
      }

      .cls-2 {
        fill: #fff;
      }
    </style>
  </defs>
  <g id="Firkant">
    <rect class="cls-1" x="0" y="0" width="15.59" height="15.59"/>
  </g>
  <g id="ICONS">
    <g>
      <path class="cls-2" d="m13.5,6.55c-.07,0-.13-.01-.2-.04-.06-.03-.11-.06-.16-.11-.04-.04-.08-.1-.11-.16-.02-.06-.03-.13-.03-.19,0-.07.01-.13.03-.19.03-.06.07-.12.11-.17.05-.04.1-.08.16-.1.13-.05.26-.05.39,0,.06.02.11.06.16.1.05.05.08.11.11.17.02.06.04.12.04.19,0,.06-.02.13-.04.19-.03.06-.06.12-.11.16-.05.05-.1.08-.16.11-.07.03-.13.04-.19.04Z"/>
      <path class="cls-2" d="m10.51,11c-.27-.03-.48-.27-.46-.54h0c.02-.28.26-.48.54-.46h0c.27.02.48.26.46.54h0c-.02.26-.24.46-.5.46h-.04Zm1.62-.75c-.17-.22-.13-.53.09-.7h0c.21-.17.53-.13.7.09h0c.17.21.13.53-.09.7h0c-.09.07-.2.1-.31.1h0c-.15,0-.29-.06-.39-.19Zm-3.8-.23c-.2-.19-.21-.51-.02-.71h0c.2-.19.52-.2.71,0h0c.2.2.2.51,0,.71h0c-.1.1-.23.15-.36.15h0c-.12,0-.25-.04-.34-.14Zm5.1-1.38c-.28-.03-.48-.27-.45-.55h0c.03-.27.27-.47.55-.44h0c.27.03.47.27.45.55h0c-.03.25-.25.45-.5.45h0s-.04,0-.05-.01Zm-6.13-.77c-.04-.28.16-.53.43-.56h0c.28-.03.53.16.56.44h0c.03.27-.16.52-.44.56h-.06c-.25,0-.46-.19-.49-.44Zm-5.25.03c-.27-.03-.47-.28-.44-.55h0c.03-.28.28-.47.55-.44h0c.28.03.47.27.44.55h0c-.02.25-.24.44-.49.44h-.06Zm4.53-1.6h0c-.2-.2-.2-.51,0-.71h0c.19-.19.51-.19.7,0h0c.19.19.19.51,0,.71h0c-.1.1-.23.15-.36.15h0c-.12,0-.25-.05-.35-.15Zm-3.9-.38c-.16-.22-.12-.53.1-.7h0c.22-.17.54-.12.7.1h0c.17.22.13.53-.09.7h-.01c-.09.07-.19.1-.3.1h0c-.15,0-.3-.07-.4-.2Zm2.34-.33c-.28-.02-.48-.27-.45-.54h0c.02-.28.26-.48.54-.46h0c.27.03.48.27.45.55h0c-.02.26-.24.45-.49.45h-.05Z"/>
      <path class="cls-2" d="m2.09,10.03c-.07,0-.13-.02-.19-.04-.07-.03-.12-.06-.17-.11-.09-.09-.14-.22-.14-.35,0-.14.05-.26.14-.36.05-.04.1-.08.17-.1.12-.05.26-.06.38,0,.06.02.11.06.16.1.09.1.15.22.15.36,0,.13-.06.26-.15.35-.05.05-.1.08-.16.11-.06.02-.13.04-.19.04Z"/>
    </g>
  </g>
</svg>