<svg xmlns="http://www.w3.org/2000/svg" width="5.5mm" height="5.5mm" viewBox="0 0 15.591 15.591">
  <rect width="15.591" height="15.591" fill="#ef6545"/>
  <g>
    <path d="M10.131,6.023,8.442,5.386v-.3a.151.151,0,0,0-.105-.143l-1.906-.6a.3.3,0,0,0-.29-.255.3.3,0,0,0-.3.3V9.547a.3.3,0,0,0,.6,0V7.081l1.634-.512v.294a.152.152,0,0,0,.064.124A.155.155,0,0,0,8.276,7l1.855-.7a.15.15,0,0,0,0-.281Z" fill="#fff"/>
    <path d="M10.12,1.583H5.471a1.206,1.206,0,0,0-1.2,1.2V12.8a1.207,1.207,0,0,0,1.2,1.2H10.12a1.205,1.205,0,0,0,1.2-1.2V2.787A1.2,1.2,0,0,0,10.12,1.583ZM10.864,12.8a.745.745,0,0,1-.744.744H5.471a.745.745,0,0,1-.744-.744V11.621h6.137Zm0-1.643H4.727V2.787a.745.745,0,0,1,.744-.745H10.12a.745.745,0,0,1,.744.745Z" fill="#fff"/>
    <path d="M7.136,12.8H8.454a.23.23,0,1,0,0-.459H7.136a.23.23,0,1,0,0,.459Z" fill="#fff"/>
  </g>
</svg>
