<svg xmlns="http://www.w3.org/2000/svg" width="5.5mm" height="5.5mm" viewBox="0 0 15.591 15.591">
  <rect width="15.591" height="15.591" fill="#0072bc"/>
  <g>
    <path d="M7.8,10.31a1.879,1.879,0,0,1,1.359.571.888.888,0,0,0,.674.315.562.562,0,0,0,.434-.125.978.978,0,0,0,.176-.329,11.124,11.124,0,0,0-.37-7.778.288.288,0,0,0-.484-.034L5.258,8.915a.277.277,0,0,0,.107.414A5.635,5.635,0,0,0,7.8,10.31Z" fill="#fff"/>
    <path d="M13.894,12a1.01,1.01,0,0,1-.757-.347,1.769,1.769,0,0,0-2.545,0,1,1,0,0,1-1.518,0,1.772,1.772,0,0,0-2.547,0,1.007,1.007,0,0,1-1.521,0,1.774,1.774,0,0,0-2.549,0A1.015,1.015,0,0,1,1.7,12a.391.391,0,1,0,0,.782,1.767,1.767,0,0,0,1.275-.54,1.008,1.008,0,0,1,1.522,0,1.774,1.774,0,0,0,2.549,0,1,1,0,0,1,1.518,0,1.77,1.77,0,0,0,2.546,0,1,1,0,0,1,1.516,0,1.76,1.76,0,0,0,1.272.54.391.391,0,1,0,0-.782Z" fill="#fff"/>
  </g>
</svg>
