<?xml version="1.0" encoding="UTF-8"?>
<svg id="ICONS" xmlns="http://www.w3.org/2000/svg" viewBox="0 0 15.59 15.59">
  <defs>
    <style>
      .cls-1 {
        stroke-width: .25px;
      }

      .cls-1, .cls-2 {
        fill: none;
        stroke: #fff;
        stroke-miterlimit: 10;
      }

      .cls-2 {
        stroke-linecap: round;
        stroke-width: .5px;
      }

      .cls-3 {
        fill: #fff;
        stroke-width: 0px;
      }
    </style>
  </defs>
  <g>
    <path class="cls-3" d="M8.93,10.84c-.08,0-.15.07-.15.15s.07.15.15.15h.5c.08,0,.15-.07.15-.15s-.07-.15-.15-.15h-.5Z"/>
    <path class="cls-3" d="M9.93,10.84c-.08,0-.15.07-.15.15s.07.15.15.15h.5c.08,0,.15-.07.15-.15s-.07-.15-.15-.15h-.5Z"/>
    <path class="cls-3" d="M10.78,10.99c0,.08.07.15.15.15h.5c.08,0,.15-.07.15-.15s-.07-.15-.15-.15h-.5c-.08,0-.15.07-.15.15Z"/>
    <path class="cls-3" d="M3.58,10.99c0-.08-.07-.15-.15-.15h-.5c-.08,0-.15.07-.15.15s.07.15.15.15h.5c.08,0,.15-.07.15-.15Z"/>
    <path class="cls-3" d="M12.43,10.84h-.5c-.08,0-.15.07-.15.15s.07.15.15.15h.5c.08,0,.15-.07.15-.15s-.07-.15-.15-.15Z"/>
    <path class="cls-3" d="M3.93,11.14h.5c.08,0,.15-.07.15-.15s-.07-.15-.15-.15h-.5c-.08,0-.15.07-.15.15s.07.15.15.15Z"/>
    <path class="cls-3" d="M4.93,10.84c-.08,0-.15.07-.15.15s.07.15.15.15h.5c.08,0,.15-.07.15-.15s-.07-.15-.15-.15h-.5Z"/>
    <path class="cls-3" d="M5.93,10.84c-.08,0-.15.07-.15.15s.07.15.15.15h.5c.08,0,.15-.07.15-.15s-.07-.15-.15-.15h-.5Z"/>
  </g>
  <line class="cls-2" x1="6.91" y1="10.24" x2="8.41" y2="11.74"/>
  <line class="cls-2" x1="8.41" y1="10.24" x2="6.91" y2="11.74"/>
  <g>
    <g>
      <path class="cls-1" d="M12.92,4.74l-3.35,3.49s-.01,0-.02.01l-2.15.77c-.12.03-.23-.08-.21-.2l.58-2.25s0-.01.01-.02c0,0,2.91-3.04,3.35-3.49.65-.53,2.25,1.19,1.78,1.68Z"/>
      <path class="cls-3" d="M7.33,8.07c.77,0,.76.73.76.73l-.85.17s.16-.51.09-.89Z"/>
    </g>
    <g>
      <path class="cls-3" d="M9.62,8c-.35-.97-1.21-1.37-1.6-1.51l3.18-3.31s.05,0,.07,0c.44,0,1.48.15,1.53,1.57l-3.17,3.25Z"/>
      <path class="cls-3" d="M11.26,3.3c.49,0,1.32.18,1.4,1.34l-3,3.12c-.35-.76-1-1.15-1.43-1.33l3.01-3.14s0,0,.01,0M11.26,3.05c-.08,0-.13,0-.13,0l-3.35,3.49s1.42.32,1.78,1.68l3.35-3.49c-.05-1.56-1.26-1.69-1.65-1.69h0Z"/>
    </g>
  </g>
</svg>