<?xml version="1.0" encoding="UTF-8"?>
<svg id="ICONS" xmlns="http://www.w3.org/2000/svg" viewBox="0 0 15.59 15.59">
  <defs>
    <style>
      .cls-1 {
        fill: #fff;
        stroke-width: 0px;
      }
    </style>
  </defs>
  <g>
    <path class="cls-1" d="M5.3,9.36c-.18.18-.28.26-.49.26s-.31-.08-.49-.26c-.2-.2-.48-.47-1-.47s-.8.27-1,.47c-.18.18-.28.26-.49.26-.2,0-.37.16-.37.37s.16.37.37.37c.52,0,.8-.27,1-.47.18-.18.28-.26.49-.26s.31.08.49.26c.2.2.48.47,1,.47s.8-.27,1-.47c.09-.09.16-.15.23-.2l.22-.79c-.5.01-.77.27-.96.47Z"/>
    <path class="cls-1" d="M13.79,9.62c-.22,0-.31-.08-.49-.26-.2-.2-.48-.47-1-.47s-.8.27-1,.47c-.18.18-.28.26-.49.26s-.31-.08-.49-.26c-.18-.18-.43-.41-.86-.46l-.2.72s.03,0,.05,0c.22,0,.31.08.49.26.2.2.48.47,1,.47s.8-.27,1-.47c.18-.18.28-.26.49-.26s.31.08.49.26c.2.2.48.47,1,.47.2,0,.37-.16.37-.37s-.16-.37-.37-.37Z"/>
  </g>
  <g>
    <path class="cls-1" d="M6.3,6.41c-.52,0-.8.27-1,.47-.18.18-.28.26-.49.26s-.31-.08-.49-.26c-.2-.2-.48-.47-1-.47s-.8.27-1,.47c-.18.18-.28.26-.49.26-.2,0-.37.16-.37.37s.16.37.37.37c.52,0,.8-.27,1-.47.18-.18.28-.26.49-.26s.31.08.49.26c.2.2.48.47,1,.47s.8-.27,1-.47c.18-.18.28-.26.49-.26.18,0,.27.06.4.17l.21-.75c-.16-.09-.35-.15-.61-.15Z"/>
    <path class="cls-1" d="M13.79,7.14c-.22,0-.31-.08-.49-.26-.2-.2-.48-.47-1-.47s-.8.27-1,.47c-.18.18-.28.26-.49.26s-.31-.08-.49-.26c-.07-.07-.14-.14-.23-.21l-.22.79c.2.19.47.41.95.41.52,0,.8-.27,1-.47.18-.18.28-.26.49-.26s.31.08.49.26c.2.2.48.47,1,.47.2,0,.37-.16.37-.37s-.16-.37-.37-.37Z"/>
  </g>
  <path class="cls-1" d="M10.49,3.19l-1.94-.54c-.08-.02-.16.02-.18.1-.02.08.02.16.1.18h.02s-2.47,8.89-2.47,8.89c-.12.44.14.9.58,1.03l.29.08c.44.12.9-.14,1.03-.58l2.47-8.88h.02c.08.03.16-.02.18-.09s-.02-.16-.1-.18Z"/>
</svg>