<svg xmlns="http://www.w3.org/2000/svg" viewBox="0 0 128.16 128.16"><defs><style>.cls-1{fill:#fff;}</style></defs><g id="Isolation_Mode" data-name="Isolation Mode"><path class="cls-1" d="M73.28,64.39h42.07c3.22,0,3.22-5,0-5H73.28c-3.22,0-3.22,5,0,5Z"/><circle class="cls-1" cx="40.32" cy="42.45" r="6.32"/><path class="cls-1" d="M105.86,81.3a11.56,11.56,0,0,1-1.09-.6,14,14,0,0,1-2-1.65c-3.06-2.82-7-4.26-11.12-3.22a15.52,15.52,0,0,0-5.19,2.51,24.16,24.16,0,0,1-4.63,3.07,6.27,6.27,0,0,1-3.61.46A9.32,9.32,0,0,1,74,79.4c-3.14-2.84-6.93-4.55-11.2-3.84a12.93,12.93,0,0,0-4.85,2c-1.54,1-2.8,2.37-4.4,3.26a6.92,6.92,0,0,1-7.75-.49c-1.45-1-2.62-2.34-4.21-3.18a14.33,14.33,0,0,0-5.35-1.58c-4.11-.4-7.7,1.42-10.52,4.26a7.92,7.92,0,0,1-3.05,2,6.45,6.45,0,0,1-1.61.18c-1.66-.11-3.23.42-3.69,2.1a3,3,0,0,0,2.1,3.69h0a11.65,11.65,0,0,0,6.68-1,15.42,15.42,0,0,0,4.47-3.39,6.18,6.18,0,0,1,3.11-1.7,7.15,7.15,0,0,1,3.73.2,11.51,11.51,0,0,1,3.73,2.43,13.58,13.58,0,0,0,10.94,3.26,13.41,13.41,0,0,0,4.94-1.85c1.56-1,2.8-2.34,4.39-3.28a6.26,6.26,0,0,1,3.85-1,5.65,5.65,0,0,1,1.65.4,9.07,9.07,0,0,1,2.2,1.34c1.68,1.35,3.15,2.85,5.16,3.73a11.84,11.84,0,0,0,5.56,1.1,14.45,14.45,0,0,0,5.66-1.69c1.69-.89,3.08-2.18,4.67-3.22A7.75,7.75,0,0,1,95,81.47a5.37,5.37,0,0,1,2,.64,11,11,0,0,1,2.3,1.82,14.65,14.65,0,0,0,8.64,4,3,3,0,0,0,3-3A2.93,2.93,0,0,0,108,82,6.6,6.6,0,0,1,105.86,81.3Z"/><path class="cls-1" d="M79.11,78h.11a3.18,3.18,0,0,0,1.1-.25A14.1,14.1,0,0,0,83,76l1.14-.86a20.66,20.66,0,0,1,4.57-2.51V64.76a5,5,0,0,0-10,0V77.84A2.07,2.07,0,0,0,79.11,78Z"/><path class="cls-1" d="M41.63,77.11a14.33,14.33,0,0,0-5.35-1.58,10.61,10.61,0,0,0-1.12,0c-.18,0-.35,0-.52,0L35,80l9.45-.76A17.09,17.09,0,0,0,41.63,77.11Z"/><path class="cls-1" d="M16,72.39h0l17-9.25a.36.36,0,0,1,.53.29l.71,8.08c.29,0,.58,0,.87,0,.5,0,1,0,1.51.07a18.16,18.16,0,0,1,6.82,2A18.24,18.24,0,0,1,46.81,76c.47.39.91.77,1.33,1.06a3.39,3.39,0,0,0,2,.72,3,3,0,0,0,1.13-.25l-.43-15.65a.38.38,0,0,1,.53-.36l4.75,2a.82.82,0,0,1,.5.78L56.41,70a2.94,2.94,0,0,0,1.94,2.79,15.38,15.38,0,0,1,3.41-1.1,2.88,2.88,0,0,0,.48-1.17h0l1.77-8a3.16,3.16,0,0,0-1.53-3.43L48.41,51.15a3.61,3.61,0,0,0-1.93-.47L36.53,51a3.37,3.37,0,0,0-1.84.61L12.86,66.75a2,2,0,0,0-.26.18l0,0h0a3.24,3.24,0,0,0,1.95,5.79A3.07,3.07,0,0,0,16,72.39Z"/></g></svg>