<svg xmlns="http://www.w3.org/2000/svg" viewBox="0 0 128.16 128.16"><defs><style>.cls-1{fill:#fff;}</style></defs><g id="Isolation_Mode" data-name="Isolation Mode"><path class="cls-1" d="M51.78,52.66c-4.3,0-6.58,2.23-8.25,3.86C42,58,41.25,58.67,39.47,58.67s-2.57-.7-4.06-2.15c-1.67-1.63-4-3.86-8.26-3.86s-6.58,2.23-8.25,3.86c-1.49,1.45-2.28,2.15-4.06,2.15a3,3,0,0,0,0,6c4.3,0,6.58-2.23,8.25-3.86,1.49-1.45,2.28-2.15,4.06-2.15s2.58.7,4.07,2.15c1.67,1.63,4,3.86,8.25,3.86s6.58-2.23,8.25-3.86c1.49-1.45,2.28-2.15,4.06-2.15a4.34,4.34,0,0,1,3.3,1.43l1.71-6.16A9.84,9.84,0,0,0,51.78,52.66Z"/><path class="cls-1" d="M113.32,58.67c-1.77,0-2.57-.7-4.06-2.15-1.66-1.63-4-3.86-8.25-3.86s-6.58,2.23-8.25,3.86c-1.48,1.45-2.28,2.15-4.06,2.15s-2.56-.7-4-2.15a21.38,21.38,0,0,0-1.93-1.71l-1.79,6.45a10.52,10.52,0,0,0,7.77,3.41c4.3,0,6.59-2.23,8.25-3.86,1.49-1.45,2.29-2.15,4.06-2.15s2.57.7,4.06,2.15c1.67,1.63,4,3.86,8.25,3.86a3,3,0,0,0,0-6Z"/><path class="cls-1" d="M43.53,77C42,78.4,41.25,79.1,39.47,79.1s-2.57-.7-4.06-2.16c-1.67-1.62-3.95-3.85-8.26-3.85s-6.58,2.23-8.25,3.85c-1.49,1.46-2.28,2.16-4.06,2.16a3,3,0,0,0,0,6c4.3,0,6.58-2.23,8.25-3.86,1.49-1.45,2.29-2.15,4.06-2.15s2.58.7,4.07,2.15c1.67,1.63,4,3.86,8.25,3.86s6.58-2.23,8.25-3.86a10.5,10.5,0,0,1,1.92-1.62l1.81-6.51C47.37,73.22,45.15,75.36,43.53,77Z"/><path class="cls-1" d="M113.32,79.1c-1.77,0-2.57-.7-4.06-2.15-1.66-1.63-4-3.86-8.25-3.86S94.43,75.32,92.76,77c-1.48,1.45-2.28,2.15-4.05,2.15s-2.57-.7-4.06-2.15a11.27,11.27,0,0,0-7-3.78L76,79.11l.44,0c1.78,0,2.57.7,4.06,2.15,1.66,1.63,4,3.86,8.25,3.86s6.58-2.23,8.25-3.86c1.48-1.45,2.28-2.15,4.05-2.15s2.57.7,4.06,2.15c1.67,1.63,4,3.86,8.25,3.86a3,3,0,0,0,0-6Z"/><path class="cls-1" d="M86.19,26.2,70.25,21.76A1.18,1.18,0,0,0,69.62,24l.16.05-20.33,73a6.87,6.87,0,0,0,4.77,8.45l2.41.67a6.87,6.87,0,0,0,8.45-4.77l20.32-73,.16,0a1.18,1.18,0,0,0,.63-2.28ZM62.57,100.51a4.61,4.61,0,0,1-5.68,3.21l-1.62-.45a4.61,4.61,0,0,1-3.2-5.68l7.57-27.2,11.52-.73Z"/></g></svg>