<svg xmlns="http://www.w3.org/2000/svg" width="5.5mm" height="5.5mm" viewBox="0 0 15.591 15.591">
  <path d="M13.253,2.4c-.01-.088-.055-.118-.146-.121,0,0-.25-.047-.45-.062A11.108,11.108,0,0,0,10,2.246c-.874.147-1.683.48-2.558.626a11.061,11.061,0,0,1-2.627-.024A7.787,7.787,0,0,0,2.7,3l-.022-.223a.386.386,0,0,0,.154-.3.392.392,0,1,0-.784,0,.388.388,0,0,0,.219.347L3.357,13.708a.208.208,0,0,0,.206.187l.021,0a.207.207,0,0,0,.185-.226l-.339-3.38a7.756,7.756,0,0,1,2.164-.2,11.065,11.065,0,0,0,2.62-.04c.877-.168,1.675-.521,2.551-.69a10.751,10.751,0,0,1,2.609-.078c.2.011.5.042.5.042.091,0,.109-.036.1-.124ZM9.473,3.812l.449-.119a.013.013,0,0,0,.01-.009l.145-.441a.015.015,0,0,1,.027,0l.252.39a.014.014,0,0,0,.012.007l.464,0a.015.015,0,0,1,.012.024l-.293.36a.012.012,0,0,0,0,.014l.142.442a.015.015,0,0,1-.02.018l-.433-.167a.017.017,0,0,0-.014,0L9.847,4.6a.015.015,0,0,1-.024-.013l.026-.463a.016.016,0,0,0-.006-.013l-.375-.274A.015.015,0,0,1,9.473,3.812Zm.537,3.262a.51.51,0,1,1,.3-.655A.51.51,0,0,1,10.01,7.074ZM7.182,4.083l.449-.119a.013.013,0,0,0,.01-.009l.145-.442a.016.016,0,0,1,.027,0l.252.39a.014.014,0,0,0,.012.007l.464,0a.015.015,0,0,1,.012.024l-.293.36a.017.017,0,0,0,0,.014l.142.442a.014.014,0,0,1-.019.018L7.947,4.6a.016.016,0,0,0-.015,0l-.376.272a.015.015,0,0,1-.024-.013L7.558,4.4a.015.015,0,0,0-.006-.013l-.375-.275A.015.015,0,0,1,7.182,4.083Zm.824,2.8.185-1.4a.223.223,0,0,1,.229-.229l.929.02a.21.21,0,0,1,.225.217A.205.205,0,0,1,9.4,5.7a.266.266,0,0,1-.1.011l-.538.083L9.45,7.81a.52.52,0,0,1-.41-.137,1.117,1.117,0,0,0-1.586.187.523.523,0,0,1-.372.231A.461.461,0,0,1,6.735,8ZM4.891,4.354l.449-.119a.016.016,0,0,0,.011-.01L5.5,3.784a.014.014,0,0,1,.026,0l.252.39a.015.015,0,0,0,.012.007h.465a.015.015,0,0,1,.011.025l-.293.36a.017.017,0,0,0,0,.014l.142.442a.014.014,0,0,1-.019.018L5.656,4.87a.017.017,0,0,0-.014,0l-.377.272a.015.015,0,0,1-.023-.013l.025-.464a.014.014,0,0,0-.006-.012L4.886,4.38A.015.015,0,0,1,4.891,4.354Zm7.033,4.021a1.033,1.033,0,0,1-.779-.228.589.589,0,0,0-.885.105,1.041,1.041,0,0,1-1.486.176.589.589,0,0,0-.886.1A1.042,1.042,0,0,1,6.4,8.708a.592.592,0,0,0-.888.105,1.039,1.039,0,0,1-.707.4.23.23,0,1,1-.054-.456.594.594,0,0,0,.42-.255A1.043,1.043,0,0,1,6.66,8.329a.591.591,0,0,0,.887-.105,1.042,1.042,0,0,1,1.487-.176.589.589,0,0,0,.885-.105A1.041,1.041,0,0,1,11.4,7.768a.594.594,0,0,0,.467.15.23.23,0,1,1,.053.457Z" fill="#fff"/>
</svg>
