<?xml version="1.0" encoding="UTF-8"?><svg id="Layer_2" xmlns="http://www.w3.org/2000/svg" viewBox="0 0 13.12848 10.82811"><defs><style>.cls-1{fill:#fff;}</style></defs><g id="ICONS"><g><path class="cls-1" d="M3.81848,6.42119l4.08118-.005c.13654-.00012,.24384-.11139,.22748-.24695-.11139-.92828-.66681-4.2533-3.03851-6.12207-.13403-.10553-.34027-.02374-.37177,.14398l-1.12268,5.9599c-.02643,.14044,.08136,.27032,.2243,.27014Z"/><path class="cls-1" d="M12.14032,10.07396c-.34857,0-.50079-.13257-.73157-.33392-.26514-.23175-.59515-.52045-1.22559-.52045-.63147,0-.9624,.2887-1.22754,.52045-.23175,.20135-.38397,.33392-.7326,.33392-.3476,0-.50079-.13257-.73157-.33392-.2652-.23175-.59613-.52045-1.22754-.52045-.63147,0-.96191,.2887-1.22803,.52045-.23077,.20135-.38348,.33392-.73212,.33392-.34961,0-.50232-.13354-.73407-.3349-.26611-.23077-.59711-.51947-1.229-.51947-.63196,0-.96289,.28772-1.229,.51947-.23175,.20135-.38446,.3349-.73456,.3349-.20819,0-.37714,.16888-.37714,.37708s.16895,.37708,.37714,.37708c.6319,0,.96338-.2887,1.22949-.51947,.23175-.20129,.38446-.33484,.73407-.33484s.50232,.13354,.73407,.33484c.26611,.23077,.59705,.51947,1.229,.51947,.63141,0,.96191-.2887,1.22803-.52045,.23077-.20129,.38348-.33386,.73212-.33386,.34857,0,.50128,.13257,.73254,.33484,.2652,.23077,.59613,.51947,1.22656,.51947,.63147,0,.9624-.2887,1.22754-.52045,.23175-.20129,.38397-.33386,.7326-.33386,.34766,0,.49988,.13257,.72961,.33386,.26617,.23175,.59613,.52045,1.22754,.52045,.20819,0,.37714-.16888,.37714-.37708s-.16895-.37708-.37714-.37708Z"/><path class="cls-1" d="M12.76544,5.41844c-.20044,0-.36304,.1626-.36304,.36304v.32739c-.06384-.05139-.14166-.08661-.22998-.08661-.20551,0-.37219,.16663-.37219,.37213,0,.11292,.05286,.21082,.1322,.27917-.01294,.68805-.25751,1.02081-.76764,1.09772,.00696-.25757-.20953-.49817-.52081-.49817H1.07489c-.39795,0-.65033,.39545-.4588,.71887l.74811,.87964c.23541-.15753,.53607-.29431,.9765-.29431,.67908,0,1.04486,.31915,1.31195,.55194,.22491,.19537,.34863,.30341,.65112,.30341,.30145,0,.42523-.10803,.6496-.30341,.2666-.23279,.63196-.55194,1.31055-.55194,.67853,0,1.04388,.31915,1.31097,.55194,.22394,.19537,.34766,.30341,.64813,.30341,.30151,0,.42523-.10803,.64911-.30341,.26715-.23279,.63245-.55194,1.31104-.55194,.12463,0,.22845,.02032,.33325,.03943l.56238-.59259c.68378-.05219,1.04242-.46375,1.08374-1.25897,.00348,.00012,.00641,.00201,.00989,.00201,.08832,0,.16614-.03528,.22998-.08679v2.08435c0,.20038,.1626,.36304,.36304,.36304s.36304-.16266,.36304-.36304v-2.98328c0-.20044-.1626-.36304-.36304-.36304Z"/></g></g></svg>