<svg xmlns="http://www.w3.org/2000/svg" width="5.5mm" height="5.5mm" viewBox="0 0 15.591 15.591">
  <g>
    <path d="M7.005,6.087a.975.975,0,1,0-.974-.975.974.974,0,0,0,.974.975" fill="#fff"/>
    <path d="M10.41,3.342a.975.975,0,1,0-.975-.975.975.975,0,0,0,.975.975" fill="#fff"/>
    <path d="M11.566,5.044l-3.573,1.4L4.8,6.4l.182-.89a.575.575,0,0,0,.055-.22.524.524,0,0,0-.348-.6.539.539,0,0,0-.708.336l-.675,1.7a.557.557,0,0,0,.322.735L6.047,8.743l1.368,2.613s-.886,1.7-1.014,2a.462.462,0,0,0,.256.66.536.536,0,0,0,.164.026.7.7,0,0,0,.35-.106c.026-.015.06-.038.088-.056,0,0,1.459-1.615,1.57-1.744a.632.632,0,0,0,.126-.465c-.026-.109-.169-.464-.126-.538s.185-.078.288-.028a1.426,1.426,0,0,1,.567.842,2.555,2.555,0,0,1-.381.726s-.5.742-.755,1.175.34.7.7.486a21.235,21.235,0,0,0,1.715-2.024s.477-.479-.3-1.736C10.162,9.747,9.11,7.743,9.11,7.743l2.856-1.9.014-.013a.43.43,0,0,0,.234-.391A.449.449,0,0,0,11.566,5.044Z" fill="#fff"/>
  </g>
</svg>
