<svg xmlns="http://www.w3.org/2000/svg" width="5.5mm" height="5.5mm" viewBox="0 0 15.591 15.591">
  <path d="M13.784,9.114a.439.439,0,0,0-.307.126V8.831a.359.359,0,1,0-.718,0V9.36c-.565-.034-1.1-.3-1.1-1.6V5.5l.181.035.074.013A.537.537,0,0,0,12.563,5a.553.553,0,0,0-.271-.452c-.483-.318-.962-.642-1.447-.956-.093-.06-.1-.227-.1-.227l-.011-.495a.06.06,0,0,0-.023-.032.06.06,0,0,0-.066,0S8.675,4.649,7.8,5.554c-.035.036-.267.346-.267.346l-4.5.034a5.1,5.1,0,0,0-.689.016A1.128,1.128,0,0,0,1.37,7.092c0,.6,0,1.194,0,1.792,0,.03,0,.06.005.09h.812V8.857c0-.56,0-1.12,0-1.68a.252.252,0,0,1,.033-.13c.107-.172.219-.34.33-.508A.67.67,0,0,1,2.6,6.48a.57.57,0,0,1,.008.061c0,.706,0,1.412,0,2.118a.226.226,0,0,1-.037.111c-.112.18-.229.356-.339.536a.293.293,0,0,0-.044.146q0,.943,0,1.885c0,.32,0,.641.008.961a.505.505,0,0,0,.61.46.52.52,0,0,0,.414-.545c0-.784,0-1.567,0-2.351a.371.371,0,0,1,.051-.181c.127-.21.262-.415.394-.622.014-.022.031-.042.061-.083,0,.27,0,.515,0,.76a.316.316,0,0,0,.022.126q.544,1.292,1.094,2.581a.514.514,0,1,0,.944-.406c-.323-.766-.644-1.533-.969-2.3a.144.144,0,0,1,.012-.146c.128-.213.255-.426.376-.643a.144.144,0,0,1,.147-.083c.805,0,1.611,0,2.417,0,.03,0,.06,0,.1,0v1.749c0,.535,0,1.07,0,1.605A.517.517,0,1,0,8.9,12.2q0-1.582,0-3.163a.438.438,0,0,1,.042-.178c.363-.748.731-1.5,1.094-2.244l.181-.357.4-.795c.078-.155.078-.156.252-.123l.553.107V7.76c0,1.2.431,1.778,1.339,1.835v2.746a.359.359,0,0,0,.718,0V9.864a.438.438,0,1,0,.307-.75Z" fill="#fff"/>
</svg>
