<svg xmlns="http://www.w3.org/2000/svg" viewBox="0 0 128.16 128.16"><defs><style>.cls-1{fill:#fff;}</style></defs><g id="Isolation_Mode" data-name="Isolation Mode"><path class="cls-1" d="M105.14,85c-.37-.19-.74-.38-1.1-.6a13.45,13.45,0,0,1-2-1.66c-3.06-2.81-7-4.25-11.12-3.22A15.59,15.59,0,0,0,85.78,82a24,24,0,0,1-4.64,3.06,6.33,6.33,0,0,1-3.6.47,9.29,9.29,0,0,1-4.22-2.48c-3.14-2.83-6.93-4.54-11.21-3.83a13,13,0,0,0-4.85,2c-1.54,1-2.79,2.37-4.4,3.26A6.94,6.94,0,0,1,45.11,84c-1.45-1-2.62-2.34-4.21-3.18a14.15,14.15,0,0,0-5.34-1.58c-4.12-.4-7.7,1.41-10.53,4.26a7.85,7.85,0,0,1-3.05,2,6.33,6.33,0,0,1-1.6.18c-1.66-.11-3.23.41-3.69,2.09a3,3,0,0,0,2.09,3.69h0a11.69,11.69,0,0,0,6.69-1A15.38,15.38,0,0,0,29.93,87a6.1,6.1,0,0,1,3.12-1.7,7.06,7.06,0,0,1,3.73.2A11.45,11.45,0,0,1,40.51,88a13.57,13.57,0,0,0,10.93,3.26,13.27,13.27,0,0,0,4.94-1.85c1.56-1,2.81-2.35,4.39-3.28a6.29,6.29,0,0,1,3.86-1,5.73,5.73,0,0,1,1.65.4,9,9,0,0,1,2.2,1.33c1.68,1.36,3.14,2.85,5.15,3.74a11.75,11.75,0,0,0,5.57,1.09A14.23,14.23,0,0,0,84.85,90c1.7-.89,3.08-2.18,4.68-3.22a7.71,7.71,0,0,1,4.7-1.56,5,5,0,0,1,2,.64,11.52,11.52,0,0,1,2.3,1.82,14.71,14.71,0,0,0,8.64,4,3,3,0,0,0,3-3,2.93,2.93,0,0,0-2.87-3A6.52,6.52,0,0,1,105.14,85Z"/><path class="cls-1" d="M90,75.64a15.09,15.09,0,0,1,3.66-.45,16.36,16.36,0,0,1,11.14,4.61l.43.4a6.71,6.71,0,0,0,.94.8c.25.16.55.31.78.43a3.3,3.3,0,0,0,.67.25,7.32,7.32,0,0,1,2.54.65V70.43a4,4,0,0,0-4.2-4c-.78,0-1.57.08-2.38.14-12.85.83-17.83,5-19.9,12.07A19.39,19.39,0,0,1,90,75.64Z"/><path class="cls-1" d="M20,81.62l.57,0,.35,0a4.81,4.81,0,0,0,1.32-.94,17.14,17.14,0,0,1,12.23-5.5c.5,0,1,0,1.51.08a18.16,18.16,0,0,1,6.82,2,18.32,18.32,0,0,1,3.33,2.38c.46.4.9.77,1.32,1.07l.14.08c-1.77-8.4-6.62-13.31-21.39-14.23-1.9-.12-3.72-.21-5.45-.26a4,4,0,0,0-4.12,4v12A8.31,8.31,0,0,1,20,81.62Z"/><path class="cls-1" d="M103,71.13a48.75,48.75,0,0,0-6.74-7V48a39.52,39.52,0,0,1,3.64,2.93c1.79,1.62,4.45-1,2.66-2.65C86.94,34,62.11,31.3,42.65,38.27a52.34,52.34,0,0,0-14.87,8.16,1.87,1.87,0,0,0,2.65,2.65c.81-.63,1.64-1.23,2.49-1.81v16.1a51.43,51.43,0,0,0-5.58,5.26c-2.16,2.38,1.36,5.92,3.54,3.54A45.32,45.32,0,0,1,57.2,57.84a44.83,44.83,0,0,1,29.64,5.67A46.08,46.08,0,0,1,99.5,74.66a2.52,2.52,0,0,0,3.54,0A2.55,2.55,0,0,0,103,71.13ZM35.42,61.48V45.69a51.78,51.78,0,0,1,12.49-5.17V55.07a50.23,50.23,0,0,0-5.74,2.37A47.62,47.62,0,0,0,35.42,61.48Zm15-7.2V39.9A61.27,61.27,0,0,1,57,38.81c2-.22,3.95-.34,5.93-.38V52.36A50.7,50.7,0,0,0,50.41,54.28Zm15-1.92V38.43a62.09,62.09,0,0,1,13,1.59V54.39c-.86-.25-1.73-.49-2.6-.7A49.84,49.84,0,0,0,65.39,52.36Zm15.46,2.85V40.67a53.56,53.56,0,0,1,6.38,2.23,46.31,46.31,0,0,1,6.57,3.38v15.9A49.85,49.85,0,0,0,80.85,55.21Z"/></g></svg>