<?xml version="1.0" encoding="UTF-8"?><svg id="ICONS" xmlns="http://www.w3.org/2000/svg" viewBox="0 0 15.59055 15.59055"><defs><style>.cls-1{fill:#fff;}</style></defs><path class="cls-1" d="m3.17164,9.97976h.48863v1.38924c0,.06582.023.12395.05449.17662.06138.1026.1687.17479.29692.17479.12828,0,.2356-.07219.29692-.17479.03149-.05267.05449-.1108.05449-.17662v-1.38924h7.02881v1.38924c0,.06582.023.12395.05449.17662.06138.1026.1687.17479.29692.17479.12828,0,.2356-.07219.29692-.17479.03149-.05267.05449-.1108.05449-.17662v-1.38924h.49734v-.75025H3.17164v.75025Z"/><path class="cls-1" d="m11.56584,5.13233v-.31765c0-.1941-.15731-.35141-.35141-.35141-.19404,0-.35135.15731-.35135.35141v.31765h-5.97117v-.31765c0-.1941-.15737-.35141-.35141-.35141-.1941,0-.35141.15731-.35141.35141v.31765h-1.01739v1.05332h9.42036v-1.05332h-1.02622Z"/><polygon class="cls-1" points="10.86308 6.59963 4.89191 6.59963 4.18909 6.59963 3.1717 6.59963 3.1717 7.65301 4.18909 7.65301 4.18909 8.81558 4.89191 8.81558 4.89191 7.65301 10.86308 7.65301 10.86308 8.81558 11.56584 8.81558 11.56584 7.65301 12.59206 7.65301 12.59206 6.59963 11.56584 6.59963 10.86308 6.59963"/></svg>