<svg xmlns="http://www.w3.org/2000/svg" width="5.5mm" height="5.5mm" viewBox="0 0 15.591 15.591">
  <g>
    <path d="M13.6,3.2H11.5a.234.234,0,0,0-.234.234V6.174a.234.234,0,0,0,.234.234h.777V8.379a1.1,1.1,0,0,0-.84.96,2.224,2.224,0,0,0-.732-.133,2.251,2.251,0,0,0-.65.1L8.9,6.557A.23.23,0,0,0,8.849,6.1H7.543a.23.23,0,0,0,0,.46H8.4a.187.187,0,0,0,.013.04l.638,1.519L6.693,11,5.236,7.532H5.9a.23.23,0,0,0,0-.46H4.591a.23.23,0,0,0,0,.46h.155a.2.2,0,0,0,.015.059l.46,1.094-.566.8a2.237,2.237,0,1,0,1.137,2.185h.813a.226.226,0,0,0,.2-.082L9.257,8.6l.37.881a2.23,2.23,0,0,0,1.787,4.072v.237a.258.258,0,0,0,.516,0v-.48a2.233,2.233,0,0,0,0-3.734V9.444a.6.6,0,1,1,1.2,0V13.79a.258.258,0,1,0,.515,0V9.444a1.1,1.1,0,0,0-.86-1.065V6.408H13.6a.234.234,0,0,0,.234-.234V3.432A.234.234,0,0,0,13.6,3.2ZM3.567,13.22a1.777,1.777,0,1,1,.821-3.353L3.374,11.305a.2.2,0,0,0-.026.183.2.2,0,0,0,.2.185H5.328A1.776,1.776,0,0,1,3.567,13.22ZM4,11.213l.762-1.082a1.776,1.776,0,0,1,.563,1.082Zm1.789,0a2.235,2.235,0,0,0-.76-1.46l.4-.568.852,2.028ZM10.7,13.22a1.777,1.777,0,0,1-.894-3.312l.64,1.523a.23.23,0,1,0,.424-.179l-.64-1.522a1.769,1.769,0,0,1,1.183.088v3.251A1.782,1.782,0,0,1,10.7,13.22Zm1.777-1.777a1.769,1.769,0,0,1-.548,1.279V10.164A1.77,1.77,0,0,1,12.478,11.443Zm.188-6.428h-.25v.658a.152.152,0,0,1-.153.153h-.2a.152.152,0,0,1-.153-.153V3.962a.153.153,0,0,1,.153-.153h.6a.608.608,0,1,1,0,1.206Z" fill="#fff"/>
    <path d="M12.617,4.217h-.2v.4h.2c.153,0,.215-.077.215-.2S12.77,4.217,12.617,4.217Z" fill="#fff"/>
  </g>
</svg>
