<svg xmlns="http://www.w3.org/2000/svg" width="5.5mm" height="5.5mm" viewBox="0 0 15.591 15.591">
  <g>
    <path d="M4.757,5.034a.713.713,0,0,1,.647.382q.341.6.679,1.205.492.873.983,1.745a.14.14,0,0,0,.094.075L9.877,9.2a1.538,1.538,0,0,1,.7.418l2.751,2.812a.507.507,0,0,1,0,.727.513.513,0,0,1-.733-.006q-.878-.888-1.754-1.777a.252.252,0,0,0-.111-.066q-1.882-.531-3.766-1.059a1.268,1.268,0,0,1-.583-.337.726.726,0,0,1-.1-.136q-1.052-1.842-2.1-3.685A.7.7,0,0,1,4.6,5.059,1.149,1.149,0,0,1,4.757,5.034Z" fill="#fff"/>
    <path d="M13.821,9.961c.1.058-.729,1.008-.818.892l-.391-.511a3.606,3.606,0,0,1-.394.09,1,1,0,1,1,.9-1.163,1.214,1.214,0,0,1,.012.241.091.091,0,0,0,.057.1C13.38,9.71,13.719,9.9,13.821,9.961Z" fill="#fff"/>
    <path d="M9.8,8.7l-.645-.179c-.531-.148-1.063-.3-1.6-.444a.3.3,0,0,1-.251-.238.355.355,0,0,1,.01-.145c.066-.244.135-.487.2-.73A.283.283,0,0,1,7.9,6.753l2.207.623.056.018Z" fill="#fff"/>
    <path d="M3.856,5.11,1.783,3.327a.064.064,0,0,1,0-.1l1.284-.934a.063.063,0,0,1,.093.019S4.492,4.546,4.522,4.6a.1.1,0,0,1,0,.1l-.553.412A.088.088,0,0,1,3.856,5.11Z" fill="#fff"/>
    <path d="M10.114,8.79l.367-1.315a1.471,1.471,0,0,1,.528.206.688.688,0,0,1,.18.847.7.7,0,0,1-.815.34C10.29,8.845,10.208,8.818,10.114,8.79Z" fill="#fff"/>
  </g>
</svg>
