<svg xmlns="http://www.w3.org/2000/svg" width="5.5mm" height="5.5mm" viewBox="0 0 15.591 15.591">
  <g>
    <path d="M13.54,12.267a.954.954,0,0,1-.714-.326,1.666,1.666,0,0,0-2.4,0,.946.946,0,0,1-1.429,0,1.668,1.668,0,0,0-2.4,0,.948.948,0,0,1-1.432,0,1.673,1.673,0,0,0-2.4,0,.956.956,0,0,1-.717.327.369.369,0,1,0,0,.737,1.666,1.666,0,0,0,1.2-.508.95.95,0,0,1,1.434,0,1.671,1.671,0,0,0,2.4,0,.945.945,0,0,1,1.43,0,1.669,1.669,0,0,0,2.4,0,.944.944,0,0,1,1.429,0,1.661,1.661,0,0,0,1.2.508.369.369,0,0,0,0-.737Z" fill="#fff"/>
    <path d="M7.652,10.456A1.759,1.759,0,0,0,9.409,8.7V3.683a1.086,1.086,0,1,0-.737,0V8.7a1.02,1.02,0,1,1-2.039,0V8.494a.369.369,0,0,0,.549-.445L6.6,6.668A.368.368,0,0,0,5.9,6.81V8.7A1.759,1.759,0,0,0,7.652,10.456ZM9.04,2.322a.35.35,0,1,1-.349.349A.35.35,0,0,1,9.04,2.322Z" fill="#fff"/>
  </g>
</svg>
