<svg xmlns="http://www.w3.org/2000/svg" width="5.5mm" height="5.5mm" viewBox="0 0 15.591 15.591">
  <g>
    <path d="M6.4,6.34l.924-.5a.432.432,0,0,0,.051.171.439.439,0,0,0,.6.176l2.2-1.194a.436.436,0,0,0,.061-.732l2.044-1.11a.44.44,0,0,0-.42-.774L4.347,6.454a.379.379,0,0,0-.037.031.262.262,0,0,0-.04.011L1.529,7.984a.441.441,0,0,0-.176.6l.724,1.332a.438.438,0,0,0,.3.221.441.441,0,0,0,.362-.086L4.424,8.712l.559.043a.441.441,0,0,0,.46-.329L5.7,7.418l.636-.345A.439.439,0,0,0,6.4,6.34Z" fill="#fff"/>
    <path d="M12.908,9.42h-.05a2.681,2.681,0,0,0-2.2-2.2V7.1a.44.44,0,0,0-.88,0V7.22a2.681,2.681,0,0,0-2.2,2.2h-.17a.44.44,0,0,0,0,.88h.17a2.681,2.681,0,0,0,2.2,2.2v.142a.44.44,0,0,0,.88,0V12.5a2.68,2.68,0,0,0,2.2-2.2h.05a.44.44,0,1,0,0-.88ZM10.656,11.6a.439.439,0,0,0-.878,0,1.8,1.8,0,0,1-1.306-1.31.435.435,0,0,0,0-.868,1.8,1.8,0,0,1,1.3-1.309v.016a.44.44,0,0,0,.88,0V8.116a1.8,1.8,0,0,1,1.3,1.3h-.088a.44.44,0,1,0,0,.88h.088A1.8,1.8,0,0,1,10.656,11.6Z" fill="#fff"/>
    <circle cx="10.217" cy="9.86" r="0.437" fill="#fff"/>
  </g>
</svg>
