<svg xmlns="http://www.w3.org/2000/svg" width="5.5mm" height="5.5mm" viewBox="0 0 15.591 15.591">
  <g>
    <path d="M4.681,8.72a.54.54,0,1,0-.54-.54A.54.54,0,0,0,4.681,8.72Z" fill="#fff"/>
    <path d="M5.214,8.916H4.174a.586.586,0,0,0-.6.573l.1,1.731a.577.577,0,0,0,.41.545.1.1,0,0,1,.07.085L4.3,13.131a.384.384,0,0,0,.39.349h0a.383.383,0,0,0,.389-.349l.15-1.281a.1.1,0,0,1,.07-.085.576.576,0,0,0,.409-.545l.1-1.731A.586.586,0,0,0,5.214,8.916Z" fill="#fff"/>
    <path d="M7.638,8.72a.54.54,0,1,0-.54-.54A.54.54,0,0,0,7.638,8.72Z" fill="#fff"/>
    <path d="M8.171,8.916H7.131a.586.586,0,0,0-.6.573l.1,1.731a.577.577,0,0,0,.41.545.1.1,0,0,1,.07.085l.149,1.281a.384.384,0,0,0,.39.349h0a.383.383,0,0,0,.389-.349l.15-1.281a.1.1,0,0,1,.07-.085.576.576,0,0,0,.409-.545l.1-1.731A.586.586,0,0,0,8.171,8.916Z" fill="#fff"/>
    <path d="M10.6,8.72a.54.54,0,1,0-.54-.54A.54.54,0,0,0,10.6,8.72Z" fill="#fff"/>
    <path d="M11.128,8.916h-1.04a.586.586,0,0,0-.6.573l.1,1.731a.577.577,0,0,0,.41.545.1.1,0,0,1,.07.085l.149,1.281a.384.384,0,0,0,.39.349h0A.383.383,0,0,0,11,13.131l.15-1.281a.1.1,0,0,1,.07-.085.576.576,0,0,0,.409-.545l.1-1.731A.586.586,0,0,0,11.128,8.916Z" fill="#fff"/>
    <path d="M13.626,5.429,8.05,2.087a.5.5,0,0,0-.51,0L1.965,5.429a.5.5,0,1,0,.51.851L7.8,3.092,13.116,6.28a.488.488,0,0,0,.254.071.5.5,0,0,0,.256-.922Z" fill="#fff"/>
  </g>
</svg>
