<svg xmlns="http://www.w3.org/2000/svg" width="5.5mm" height="5.5mm" viewBox="0 0 15.591 15.591">
  <path d="M12.658,13.084H11.529l-1.37-2.336A4.061,4.061,0,0,0,11.19,9.656l.477.275a.743.743,0,0,0-.059.229l-.01.3a.508.508,0,0,0,.508.508h.506a.508.508,0,0,0,.508-.508l-.01-.3a.755.755,0,0,0-.751-.712.727.727,0,0,0-.4.133L11.4,9.263a3.886,3.886,0,0,0,0-3.546l.618-.357a.463.463,0,0,0,.084.017h.506a.507.507,0,0,0,.508-.507l-.01-.3a.752.752,0,0,0-1.5,0l-.01.3a.506.506,0,0,0,.039.2l-.447.258A4.02,4.02,0,0,0,8.017,3.474V3.15h.03a.507.507,0,0,0,.507-.507l-.009-.3a.753.753,0,0,0-1.5,0l-.01.3a.508.508,0,0,0,.508.507h.03v.324A4.03,4.03,0,0,0,4.44,5.242L4.028,5a.506.506,0,0,0,.027-.134l-.01-.3a.752.752,0,0,0-1.5,0l-.01.3a.507.507,0,0,0,.507.507h.507a.493.493,0,0,0,.172-.035l.508.294a3.877,3.877,0,0,0,0,3.708l-.474.274a.732.732,0,0,0-.459-.17.755.755,0,0,0-.751.712l-.01.3a.508.508,0,0,0,.507.508h.507a.508.508,0,0,0,.508-.508l-.01-.3A.737.737,0,0,0,4,9.991l.439-.254a4.076,4.076,0,0,0,1.032,1.047l-1.349,2.3H2.929a.336.336,0,0,0,0,.671h9.729a.336.336,0,0,0,0-.671Zm-1.907,0H8.017V11.506a3.992,3.992,0,0,0,1.566-.414ZM9.244,10.515a3.323,3.323,0,0,1-1.227.319V8.423Zm-1.674.319a3.341,3.341,0,0,1-1.178-.292L7.57,8.535Zm2.247-.67L8.663,8.2l1.949,1.125A3.386,3.386,0,0,1,9.817,10.164ZM11.161,7.49a3.33,3.33,0,0,1-.336,1.439L8.636,7.665a.863.863,0,0,0,.036-.175.849.849,0,0,0-.036-.175l2.189-1.264A3.327,3.327,0,0,1,11.161,7.49Zm-.549-1.832L8.442,6.91a.86.86,0,0,0-.425-.253V4.145A3.359,3.359,0,0,1,10.612,5.658ZM7.57,4.145V6.657a.857.857,0,0,0-.358.185L5.026,5.58A3.358,3.358,0,0,1,7.57,4.145ZM4.426,7.49a3.319,3.319,0,0,1,.38-1.52L6.97,7.219a.849.849,0,0,0-.055.271.838.838,0,0,0,.055.27L4.806,9.01A3.322,3.322,0,0,1,4.426,7.49Zm.6,1.909,1.9-1.1L5.814,10.2A3.386,3.386,0,0,1,5.026,9.4Zm1.028,1.72a3.994,3.994,0,0,0,1.516.387v1.578H4.9Z" fill="#fff"/>
</svg>
