<svg xmlns="http://www.w3.org/2000/svg" width="5.5mm" height="5.5mm" viewBox="0 0 15.591 15.591">
  <g>
    <path d="M4.213,7.2l7.029.017a1.318,1.318,0,0,0,1.294-1.384l-.023-.676A1.309,1.309,0,0,0,11.1,3.878l-7,.659A1.339,1.339,0,0,0,4.213,7.2Z" fill="#fff"/>
    <path d="M13.444,10.023l-.806-1.389a1.219,1.219,0,0,0-1.059-.593h-.39A1.165,1.165,0,0,0,10,9.372l.242,1.389a1.193,1.193,0,0,0,1.193.958h.952A1.147,1.147,0,0,0,13.444,10.023Z" fill="#fff"/>
    <path d="M4.681,8.041H3.667a.9.9,0,0,0-.683.326L1.68,9.9a1.06,1.06,0,0,0,.648,1.754l1.631.067a.932.932,0,0,0,.882-.592l.688-1.6A1.039,1.039,0,0,0,4.681,8.041Z" fill="#fff"/>
    <path d="M8.129,8.187H7.662A1.1,1.1,0,0,0,6.579,9.211l-.111,1.283A1.109,1.109,0,0,0,7.55,11.719h.468A1.1,1.1,0,0,0,9.1,10.7l.112-1.283A1.11,1.11,0,0,0,8.129,8.187Z" fill="#fff"/>
  </g>
</svg>
