<svg xmlns="http://www.w3.org/2000/svg" width="5.5mm" height="5.5mm" viewBox="0 0 15.591 15.591">
  <g>
    <path d="M6.268,10.18V9.07h3.12v1.142a.7.7,0,0,0,.326.069.678.678,0,0,0,.411-.12v-5.2c0-.459.292-.846.637-.846s.638.387.638.846a.368.368,0,1,0,.736,0,1.492,1.492,0,0,0-1.374-1.583A1.492,1.492,0,0,0,9.388,4.957V6.208H6.268V4.957c0-.459.292-.846.637-.846s.638.387.638.846a.368.368,0,1,0,.736,0A1.492,1.492,0,0,0,6.905,3.374,1.492,1.492,0,0,0,5.531,4.957V10.2a.7.7,0,0,0,.355.082A.682.682,0,0,0,6.268,10.18Zm0-3.235h3.12V8.333H6.268Z" fill="#fff"/>
    <path d="M13.54,10.908a.947.947,0,0,1-.713-.327,1.667,1.667,0,0,0-2.4,0,.944.944,0,0,1-1.429,0,1.668,1.668,0,0,0-2.4,0,.947.947,0,0,1-1.432,0,1.671,1.671,0,0,0-2.4,0,.952.952,0,0,1-.716.327.369.369,0,1,0,0,.737,1.665,1.665,0,0,0,1.2-.509.948.948,0,0,1,1.433,0,1.669,1.669,0,0,0,2.4,0,.945.945,0,0,1,1.43,0,1.667,1.667,0,0,0,2.4,0,.944.944,0,0,1,1.429,0,1.657,1.657,0,0,0,1.2.509.369.369,0,0,0,0-.737Z" fill="#fff"/>
  </g>
</svg>
