<svg xmlns="http://www.w3.org/2000/svg" width="5.5mm" height="5.5mm" viewBox="0 0 15.591 15.591">
  <path d="M11.7,4.19,8,1.532a.344.344,0,0,0-.4,0L3.887,4.19A.2.2,0,0,0,4,4.554H4.47v9.168a.4.4,0,0,0,.8,0v-.641L7.706,11.62l2.614,1.569v.533a.4.4,0,0,0,.8,0V4.554h.464A.2.2,0,0,0,11.7,4.19ZM5.271,6.236V4.729a.176.176,0,0,1,.175-.175H7.531a.175.175,0,0,1,.175.175V6.236a.175.175,0,0,1-.175.176H5.446A.176.176,0,0,1,5.271,6.236Zm0,5.91V10.159l1.655.994Zm5.048.107-1.835-1.1,1.835-1.1Zm0-3.136L7.706,10.685,5.272,9.224V8.3H10.32Z" fill="#fff"/>
</svg>
