<svg id="ICONS" xmlns="http://www.w3.org/2000/svg" viewBox="0 0 15.59 15.59"><defs><style>.cls-1{fill:#fff;}.cls-2{fill:#2279be;}.cls-3{fill:none;}</style></defs><path class="cls-1" d="M8.4,6.55l2.17,1V6.07a.32.32,0,0,0-.32-.32H5.34A.32.32,0,0,0,5,6.07V7.52l2.17-1A1.5,1.5,0,0,1,8.4,6.55Z"/><path class="cls-1" d="M7.8,4.47a.26.26,0,0,1-.21-.12H6.33a.2.2,0,0,0-.2.19v.71H9.46V4.54a.2.2,0,0,0-.2-.19H8A.25.25,0,0,1,7.8,4.47Z"/><polygon class="cls-2" points="5.79 7.72 4.49 8.31 4.49 8.31 5.79 7.72 5.79 7.72"/><path class="cls-3" d="M9.56,8.51A.25.25,0,1,0,9.35,9l1.14.51.1,0a.25.25,0,0,0,.23-.15A.26.26,0,0,0,10.69,9Z"/><path class="cls-3" d="M6,8.51,4.89,9a.26.26,0,0,0-.13.33A.24.24,0,0,0,5,9.49l.1,0L6.22,9a.24.24,0,0,0,.13-.33A.25.25,0,0,0,6,8.51Z"/><path class="cls-1" d="M8,7.1v3.54a2,2,0,0,1,1.2.58.93.93,0,0,0,1.42,0,2.61,2.61,0,0,1,.56-.4l.22-1.91a.59.59,0,0,0-.33-.59l-1.34-.6L8.19,7,8,7m-.5,0L7.39,7l-1.6.71-1.31.59a.56.56,0,0,0-.33.58l.22,1.91a2.25,2.25,0,0,1,.6.42,1,1,0,0,0,.71.33.94.94,0,0,0,.71-.33,2.14,2.14,0,0,1,1.15-.57V7.1M6.22,9l-1.13.51-.1,0a.24.24,0,0,1-.23-.15A.26.26,0,0,1,4.89,9L6,8.51a.25.25,0,0,1,.33.12A.24.24,0,0,1,6.22,9Zm4.6.38a.25.25,0,0,1-.23.15l-.1,0L9.35,9a.25.25,0,1,1,.21-.45l1.13.5A.26.26,0,0,1,10.82,9.34Z"/><path class="cls-1" d="M13.89,12.31a1,1,0,0,1-.75-.35,1.78,1.78,0,0,0-2.55,0,1,1,0,0,1-1.52,0,1.74,1.74,0,0,0-1.27-.54A1.76,1.76,0,0,0,6.53,12,1,1,0,0,1,5,12a1.78,1.78,0,0,0-1.28-.54A1.76,1.76,0,0,0,2.46,12a1,1,0,0,1-.76.35.38.38,0,0,0-.39.39.39.39,0,0,0,.39.39A1.76,1.76,0,0,0,3,12.55a1,1,0,0,1,1.52,0,1.78,1.78,0,0,0,1.28.54A1.76,1.76,0,0,0,7,12.55a1,1,0,0,1,1.52,0,1.78,1.78,0,0,0,2.55,0,1,1,0,0,1,1.51,0,1.78,1.78,0,0,0,1.27.54.4.4,0,0,0,.4-.39A.39.39,0,0,0,13.89,12.31Z"/><path class="cls-1" d="M8.07,2.77A.28.28,0,0,0,7.8,2.5a.27.27,0,0,0-.27.27V3.85h.54Z"/><path class="cls-1" d="M7.8,4.47A.25.25,0,0,0,8,4.35H7.59A.26.26,0,0,0,7.8,4.47Z"/><polygon class="cls-2" points="7.59 4.35 6.33 4.35 6.33 4.35 7.59 4.35 7.59 4.35"/><polygon class="cls-2" points="8 4.35 8 4.35 9.26 4.35 9.26 4.35 8 4.35"/><polygon class="cls-2" points="8 4.35 8 4.35 7.59 4.35 7.59 4.35 8 4.35"/></svg>