<svg xmlns="http://www.w3.org/2000/svg" width="5.5mm" height="5.5mm" viewBox="0 0 15.591 15.591">
  <path d="M11.038,3a.434.434,0,0,0-.433-.433H4.985A.434.434,0,0,0,4.552,3V4.749c0,1.62,1.979,2.4,1.979,3.242S4.552,9.616,4.552,11.232v1.732a.434.434,0,0,0,.433.433h5.62a.434.434,0,0,0,.433-.433V11.232c0-1.607-1.927-2.307-1.927-3.241s1.927-1.625,1.927-3.253Zm-.866,1.74c0,.528-.359.926-.907,1.473a2.622,2.622,0,0,0-1.02,1.78A2.638,2.638,0,0,0,9.269,9.777c.545.545.9.941.9,1.455v1.082H9.933L8.42,10.859a.912.912,0,0,0-1.249,0L5.658,12.314H5.419V11.232c0-.577.493-1.063.97-1.533A2.519,2.519,0,0,0,7.4,7.991,2.517,2.517,0,0,0,6.389,6.284c-.586-.578-.97-1-.97-1.535V3.658h4.753Z" fill="#fff"/>
</svg>
