<svg xmlns="http://www.w3.org/2000/svg" viewBox="0 0 128.16 128.16"><defs><style>.cls-1{fill:#fff;}</style></defs><g id="Isolation_Mode" data-name="Isolation Mode"><path class="cls-1" d="M106.41,66.92H98.16q-3-6.49-5.9-13c-.45-1-.89-1.94-1.33-2.91a3,3,0,0,0-2.59-1.49H42.66A2.93,2.93,0,0,0,40.07,51Q36.62,59,33.18,66.92H24.05a1.27,1.27,0,0,0-1.27,1.27v3.3a1.27,1.27,0,0,0,1.27,1.27h6.6c-.24.54-.47,1.07-.7,1.61a3.8,3.8,0,0,0-.31,1.31h-.12v28.63a2.57,2.57,0,0,0,2.58,2.57h7.29A2.57,2.57,0,0,0,42,104.31V93.82H89.5v10.49a2.57,2.57,0,0,0,2.57,2.57h7.3a2.57,2.57,0,0,0,2.57-2.57V75.68h-.06a4.09,4.09,0,0,0-.34-1.31l-.73-1.61h5.6a1.27,1.27,0,0,0,1.27-1.27v-3.3A1.27,1.27,0,0,0,106.41,66.92ZM44,57l.64-1.47H86.43q3.61,8,7.25,16h-56Zm5.38,23.35a2.75,2.75,0,0,1-2.76,2.76h-7a3.73,3.73,0,0,1-3.74-3.73,2.1,2.1,0,0,1,2.1-2.1h9.28a2.1,2.1,0,0,1,2.1,2.1ZM92.6,83.11h-7a2.76,2.76,0,0,1-2.76-2.76v-1a2.1,2.1,0,0,1,2.1-2.1h9.28a2.1,2.1,0,0,1,2.1,2.1A3.73,3.73,0,0,1,92.6,83.11Z"/><path class="cls-1" d="M69.82,16.31a13.1,13.1,0,1,0,8.52,12.28A13.17,13.17,0,0,0,69.82,16.31Zm-1,22.25a10.62,10.62,0,1,1,7-10A10.72,10.72,0,0,1,68.86,38.56Z"/><path class="cls-1" d="M70,31.53l-3.36-3.35-.11-.11V20.62a1.26,1.26,0,0,0-1.25-1.25A1.27,1.27,0,0,0,64,20.62v8a1.32,1.32,0,0,0,.09.43l0,.07a1.42,1.42,0,0,0,.21.33s0,0,0,0l3.35,3.35.48.48a1.27,1.27,0,0,0,1.77,0A1.29,1.29,0,0,0,70,31.53Z"/></g></svg>