<svg xmlns="http://www.w3.org/2000/svg" width="5.5mm" height="5.5mm" viewBox="0 0 15.591 15.591">
  <g>
    <path d="M10.727,7.757a.3.3,0,0,0-.384,0L7.88,9.772a.177.177,0,0,0,.112.314h.414v2.857a.1.1,0,0,0,.1.1H9.536a.1.1,0,0,0,.1-.1v-1.7a.1.1,0,0,1,.1-.1h1.469a.1.1,0,0,1,.1.1v1.7a.1.1,0,0,0,.1.1h1.027a.1.1,0,0,0,.1-.1V10.086h.53a.177.177,0,0,0,.112-.314Z" fill="#fff"/>
    <path d="M4.693,7.757a.3.3,0,0,0-.384,0L1.846,9.772a.177.177,0,0,0,.112.314h.414v2.857a.1.1,0,0,0,.1.1H3.5a.1.1,0,0,0,.1-.1v-1.7a.1.1,0,0,1,.1-.1H5.177a.1.1,0,0,1,.1.1v1.7a.1.1,0,0,0,.1.1H6.411a.1.1,0,0,0,.1-.1V10.086h.53a.177.177,0,0,0,.112-.314Z" fill="#fff"/>
    <path d="M4.941,4.44h.413V7.3a.1.1,0,0,0,.1.1H6.484a.1.1,0,0,0,.1-.1V5.6a.1.1,0,0,1,.1-.1H8.16a.1.1,0,0,1,.1.1V7.3a.1.1,0,0,0,.1.1H9.393a.1.1,0,0,0,.1-.1V4.44h.53a.177.177,0,0,0,.112-.314L7.676,2.111a.3.3,0,0,0-.384,0L4.829,4.126A.177.177,0,0,0,4.941,4.44Z" fill="#fff"/>
    <path d="M12.812,4.482a.028.028,0,0,1,.023-.044h.315a.1.1,0,0,0,.089-.154l-.934-1.617a.1.1,0,0,0-.178,0l-.933,1.617a.1.1,0,0,0,.088.154H11.6a.029.029,0,0,1,.025.04l-.812,1.405a.1.1,0,0,0,.089.154h1.024a.1.1,0,0,1,.1.1V7.207a.194.194,0,0,0,.388,0V6.14a.1.1,0,0,1,.1-.1h1.02a.1.1,0,0,0,.089-.154Z" fill="#fff"/>
  </g>
</svg>
