<svg xmlns="http://www.w3.org/2000/svg" width="5.5mm" height="5.5mm" viewBox="0 0 15.591 15.591">
  <path d="M14.084,7.036a9.63,9.63,0,0,0-2.5-.72V5.392l1.265-.6a.331.331,0,0,0,.2-.284.328.328,0,0,0-.175-.3l-1.159-.646a.4.4,0,0,0-.374-.008.33.33,0,0,0-.19.292v2.4a23.605,23.605,0,0,0-3.3-.234V5L9.3,4.317a.379.379,0,0,0,.227-.325.374.374,0,0,0-.2-.339L8,2.914a.46.46,0,0,0-.428-.009.377.377,0,0,0-.217.334V6.015a23,23,0,0,0-3.36.277v-.9l1.265-.6a.331.331,0,0,0,.2-.284.328.328,0,0,0-.175-.3L4.12,3.568a.4.4,0,0,0-.374-.008.331.331,0,0,0-.19.292V6.368a9.092,9.092,0,0,0-2.211.668.356.356,0,0,0-.211.406H1.127l.011.023.27,2.182a.6.6,0,0,0,.224.4l.165.131a.6.6,0,0,1,.22.369l.205,1.186a.6.6,0,0,0,.079.211c.175.279.779.947,2.665,1.294a.441.441,0,0,0,.513-.436V11.479a.441.441,0,0,1,.441-.441H9.509a.44.44,0,0,1,.441.441V12.8a.442.442,0,0,0,.516.436c2.421-.445,2.727-1.421,2.727-1.421H13.2l.219-1.269a.606.606,0,0,1,.22-.369l.166-.131a.6.6,0,0,0,.223-.4l.273-2.2A.4.4,0,0,0,14.084,7.036ZM7.715,9.082a14.773,14.773,0,0,1-5.28-.715c-.518-.449.591-.741.591-.741a16.225,16.225,0,0,1,4.689-.61,16.223,16.223,0,0,1,4.688.61c.72.189.664.568.6.737A14.719,14.719,0,0,1,7.715,9.082Z" fill="#fff"/>
</svg>
