<svg xmlns="http://www.w3.org/2000/svg" width="5.5mm" height="5.5mm" viewBox="0 0 15.591 15.591">
  <g>
    <path d="M12.549,12.207a.835.835,0,0,1-.63-.289,1.471,1.471,0,0,0-2.116,0,.832.832,0,0,1-1.261,0,1.471,1.471,0,0,0-2.116,0,.836.836,0,0,1-1.264,0,1.475,1.475,0,0,0-2.119,0,.84.84,0,0,1-.632.289.325.325,0,1,0,0,.65,1.468,1.468,0,0,0,1.059-.449.837.837,0,0,1,1.265,0,1.473,1.473,0,0,0,2.118,0,.833.833,0,0,1,1.262,0,1.472,1.472,0,0,0,2.117,0,.83.83,0,0,1,1.259,0,1.466,1.466,0,0,0,1.058.449.325.325,0,0,0,0-.65Z" fill="#fff"/>
    <circle cx="6.124" cy="5.986" r="0.675" fill="#fff"/>
    <path d="M5.125,7.191a.325.325,0,0,0,.325.325H7.186A.3.3,0,0,0,7.258,7.5h3.477a.19.19,0,0,0,.19-.19V7.1A1.183,1.183,0,0,0,9.742,5.919H7.609a.632.632,0,0,0-.631.631v.316H5.45A.324.324,0,0,0,5.125,7.191Z" fill="#fff"/>
    <path d="M2.948,7.788a.434.434,0,1,0,0,.867h7.977a.434.434,0,0,0,0-.867H4.2V4.918l6.313-2.326a.434.434,0,0,0-.3-.814L2.8,4.511a.433.433,0,0,0,.15.84.417.417,0,0,0,.15-.027l.235-.086v2.55Z" fill="#fff"/>
    <path d="M13.18,8.023a.326.326,0,0,0-.325.325v.294a.325.325,0,0,0-.205-.078.334.334,0,0,0-.334.333.329.329,0,0,0,.119.25c-.014.705-.277,1.014-.884,1.014h-.024a1.178,1.178,0,0,0-.606-.756.108.108,0,0,0-.1,0,.112.112,0,0,0-.064.072.821.821,0,0,1-.78.6H4.362a.821.821,0,0,1-.78-.6.113.113,0,0,0-.16-.069A1.209,1.209,0,0,0,3,11.186a.452.452,0,0,0,.1.1,1.477,1.477,0,0,1,1-.365,1.579,1.579,0,0,1,1.13.476.731.731,0,0,0,1.121,0,1.579,1.579,0,0,1,2.26,0,.727.727,0,0,0,1.118,0,1.579,1.579,0,0,1,1.13-.476,1.456,1.456,0,0,1,.558.11,1.183,1.183,0,0,0,.15-.551c0-.034-.01-.065-.013-.1.7,0,1.044-.387,1.084-1.147l.009,0a.325.325,0,0,0,.205-.078v1.866a.325.325,0,0,0,.65,0V8.348A.325.325,0,0,0,13.18,8.023Z" fill="#fff"/>
  </g>
</svg>
