<svg xmlns="http://www.w3.org/2000/svg" width="5.5mm" height="5.5mm" viewBox="0 0 15.591 15.591">
  <g>
    <path d="M13.811,5.668a.363.363,0,0,0-.363.363v.327a.368.368,0,0,0-.23-.086.373.373,0,0,0-.373.372.365.365,0,0,0,.133.279c-.015.787-.309,1.132-.987,1.132h-.027a1.319,1.319,0,0,0-.677-.844.124.124,0,0,0-.108,0,.122.122,0,0,0-.071.081.917.917,0,0,1-.871.672H8.309l.105-.171h.063a.352.352,0,0,0,.271-.575l.2-.346.09.055a.322.322,0,0,0,.167.047.317.317,0,0,0,.158-.042,1.219,1.219,0,0,0,.443-.455c.269-.465.229-.983-.091-1.178A.537.537,0,0,0,9.3,5.244a1.11,1.11,0,0,0-.64.536A1.262,1.262,0,0,0,8.48,6.4a.334.334,0,0,0,.157.285l.095.058-.2.348a.323.323,0,0,0-.054-.011H7.752l-.433-.391V6.328A.126.126,0,0,0,7.193,6.2H6.807a.45.45,0,0,0-.445.454V7.961h-2.4a.917.917,0,0,1-.872-.672.126.126,0,0,0-.178-.078A1.349,1.349,0,0,0,2.443,9.2a.486.486,0,0,0,.1.091,1.662,1.662,0,0,1,1.13-.42A1.766,1.766,0,0,1,4.934,9.4a.815.815,0,0,0,1.252,0,1.765,1.765,0,0,1,2.524,0,.812.812,0,0,0,1.249,0,1.766,1.766,0,0,1,1.262-.531A1.634,1.634,0,0,1,11.859,9a1.336,1.336,0,0,0,.153-.594c0-.038-.012-.073-.015-.11.778,0,1.167-.433,1.211-1.281l.01,0a.363.363,0,0,0,.23-.087V9.014a.363.363,0,0,0,.726,0V6.031A.364.364,0,0,0,13.811,5.668Zm-5.8,2.293H7.319V7.64l.065.059a.347.347,0,0,0,.234.091h.5Z" fill="#fff"/>
    <path d="M6.893,6.093a.662.662,0,1,0-.647-.662A.656.656,0,0,0,6.893,6.093Z" fill="#fff"/>
    <path d="M13.105,10.34a.932.932,0,0,1-.7-.322,1.644,1.644,0,0,0-2.363,0,.932.932,0,0,1-1.409,0,1.645,1.645,0,0,0-2.364,0,.935.935,0,0,1-1.412,0,1.648,1.648,0,0,0-2.367,0,.94.94,0,0,1-.706.322.363.363,0,1,0,0,.726,1.641,1.641,0,0,0,1.183-.5.935.935,0,0,1,1.414,0,1.647,1.647,0,0,0,2.365,0,.932.932,0,0,1,1.409,0,1.645,1.645,0,0,0,2.364,0,.929.929,0,0,1,1.407,0,1.641,1.641,0,0,0,1.182.5.363.363,0,0,0,0-.726Z" fill="#fff"/>
  </g>
</svg>
