<svg xmlns="http://www.w3.org/2000/svg" width="5.5mm" height="5.5mm" viewBox="0 0 15.591 15.591">
  <g>
    <path d="M13.116,1.933a1.26,1.26,0,0,0-.706.367L10.781,3.909a1.8,1.8,0,0,0-.442.885l-.057.421a1.33,1.33,0,0,1-.505.809l-.155.1a1.407,1.407,0,0,0-.526.806L8.907,8.007a1.7,1.7,0,0,1-.487.855L6.828,10.228a2.86,2.86,0,0,1-.9.485L3.894,11.3a1.461,1.461,0,0,0-.757.6l-.725,1.3c-.14.252-.02.457.268.457H12.927a.524.524,0,0,0,.523-.523V2.455C13.45,2.168,13.3,1.933,13.116,1.933Z" fill="#fff"/>
    <path d="M7.2,3.736a.753.753,0,1,0-.737-.768A.753.753,0,0,0,7.2,3.736Z" fill="#fff"/>
    <path d="M4.462,10.522a.31.31,0,0,0,.272-.142L5.825,8.845a.306.306,0,0,0,.059-.281L5.846,7.01l.27.056.48.109-.017.893a.319.319,0,0,0,.22.407.258.258,0,0,0,.093.016.331.331,0,0,0,.327-.235l.346-1.188a.284.284,0,0,0-.035-.256L6.8,6.1l.512-1.028,1.359.273c.027,0,.053.014.094.015A.344.344,0,0,0,9.1,5.113a.338.338,0,0,0-.234-.408l-.573-.172L9.842,3.356A.354.354,0,0,0,9.9,2.888a.343.343,0,0,0-.482-.064l-1.587,1-1.013.146a.376.376,0,0,0-.285.129L4.854,6.058a1.394,1.394,0,0,0-.263.361.161.161,0,0,0-.015.08.222.222,0,0,0,.024.135L5.03,8.38,4.191,9.993a.318.318,0,0,0,.085.458A.327.327,0,0,0,4.462,10.522Z" fill="#fff"/>
  </g>
</svg>
