<svg xmlns="http://www.w3.org/2000/svg" width="5.5mm" height="5.5mm" viewBox="0 0 15.591 15.591">
  <g>
    <path d="M12.234,5.424A1.809,1.809,0,0,0,12.354,4h0c-.072-.21-.152-.4-.229-.579a3.528,3.528,0,0,1-.3-.9l-.018-.169c-.005-.091-.017-.165-.017-.165a.234.234,0,0,0-.447,0s-.012.074-.016.154l-.017.172a3.527,3.527,0,0,1-.3.912c-.077.18-.157.369-.229.579a1.806,1.806,0,0,0,.121,1.424.514.514,0,0,0,.286.223.455.455,0,0,0-.088.257v.785a.455.455,0,0,0-.17.351v5.933a.465.465,0,0,0,.464.465h.341a.465.465,0,0,0,.465-.465V7.04a.456.456,0,0,0-.171-.351V5.9a.445.445,0,0,0-.088-.257A.524.524,0,0,0,12.234,5.424Z" fill="#fff"/>
    <path d="M8.127,7.312,8.011,7.27a.823.823,0,0,1-.551-.783.812.812,0,0,1,.3-.617,1.418,1.418,0,0,0,.5-1.5A1.434,1.434,0,0,0,6.7,3.35a4.972,4.972,0,0,0,0,9.944c.043,0,.086,0,.129,0A3.257,3.257,0,0,0,9.563,8.538,2.585,2.585,0,0,0,8.127,7.312Zm-5.416.829a.5.5,0,1,1,.5.5A.5.5,0,0,1,2.711,8.141ZM3.786,10.69a.5.5,0,1,1,.5-.5A.5.5,0,0,1,3.786,10.69Zm.355-4.152a.5.5,0,1,1,.5-.5A.5.5,0,0,1,4.141,6.538ZM5.57,11.972a.5.5,0,1,1,.5-.5A.5.5,0,0,1,5.57,11.972Zm1.2-2.884a.659.659,0,1,1,.659-.659A.659.659,0,0,1,6.769,9.088Zm.873,2.655a.5.5,0,1,1,.5-.5A.5.5,0,0,1,7.642,11.743Z" fill="#fff"/>
  </g>
</svg>
