<svg xmlns="http://www.w3.org/2000/svg" width="5.5mm" height="5.5mm" viewBox="0 0 15.591 15.591">
  <path d="M13.59,12.429,11.832,4.138a2.285,2.285,0,0,0-2.225-1.8H5.736A2.273,2.273,0,0,0,3.5,4.2L2,12.443a.506.506,0,1,0,1,.181l1.5-8.241A1.262,1.262,0,0,1,5.736,3.346h.405v7.447H5.889a.506.506,0,1,0,0,1.011H9.412a.506.506,0,0,0,0-1.011H9.159V3.346h.448a1.269,1.269,0,0,1,1.236,1L12.6,12.638a.506.506,0,0,0,.494.4.468.468,0,0,0,.105-.011A.506.506,0,0,0,13.59,12.429ZM8.653,10.793H6.647V3.346H8.653Z" fill="#fff"/>
</svg>
