<svg xmlns="http://www.w3.org/2000/svg" width="5.5mm" height="5.5mm" viewBox="0 0 15.591 15.591">
  <g>
    <path d="M6.3,3.029l-2.41-.494a.247.247,0,0,0-.291.192l-1.927,9.4a.246.246,0,0,0,.192.29l2.411.494a.245.245,0,0,0,.29-.192L6.49,3.32A.247.247,0,0,0,6.3,3.029Zm-2.161,8.1a.739.739,0,1,1-.575-.872A.739.739,0,0,1,4.137,11.127Zm1.624-6.7L4.97,8.283a.245.245,0,0,1-.29.192l-1.447-.3a.246.246,0,0,1-.191-.291l.79-3.857a.246.246,0,0,1,.29-.192l1.447.3A.246.246,0,0,1,5.761,4.426Z" fill="#fff"/>
    <rect x="4.451" y="3.972" width="0.492" height="1.477" rx="0.196" transform="translate(-0.86 8.367) rotate(-78.42)" fill="#fff"/>
    <rect x="4.303" y="4.696" width="0.492" height="1.477" rx="0.196" transform="matrix(0.201, -0.98, 0.98, 0.201, -1.687, 8.801)" fill="#fff"/>
    <rect x="4.155" y="5.419" width="0.492" height="1.477" rx="0.196" transform="translate(-2.514 9.232) rotate(-78.416)" fill="#fff"/>
    <path d="M9.61,2.829H7.149a.246.246,0,0,0-.246.246v9.6a.246.246,0,0,0,.246.246H9.61a.246.246,0,0,0,.246-.246v-9.6A.246.246,0,0,0,9.61,2.829Zm-1.231,9.1a.739.739,0,1,1,.739-.738A.738.738,0,0,1,8.379,11.934Zm.985-3.691a.246.246,0,0,1-.246.246H7.641A.246.246,0,0,1,7.4,8.243V4.305a.246.246,0,0,1,.246-.246H9.118a.246.246,0,0,1,.246.246Z" fill="#fff"/>
    <rect x="7.641" y="4.551" width="1.477" height="0.492" rx="0.196" fill="#fff"/>
    <rect x="7.641" y="5.29" width="1.477" height="0.492" rx="0.196" fill="#fff"/>
    <rect x="7.641" y="6.028" width="1.477" height="0.492" rx="0.196" fill="#fff"/>
    <path d="M13.055,2.829H10.594a.246.246,0,0,0-.246.246v9.6a.246.246,0,0,0,.246.246h2.461a.245.245,0,0,0,.245-.246v-9.6A.245.245,0,0,0,13.055,2.829Zm-1.231,9.1a.739.739,0,1,1,.738-.738A.739.739,0,0,1,11.824,11.934Zm.985-3.691a.247.247,0,0,1-.247.246H11.086a.246.246,0,0,1-.246-.246V4.305a.246.246,0,0,1,.246-.246h1.476a.247.247,0,0,1,.247.246Z" fill="#fff"/>
    <rect x="11.096" y="4.551" width="1.476" height="0.492" rx="0.196" fill="#fff"/>
    <rect x="11.096" y="5.29" width="1.476" height="0.492" rx="0.196" fill="#fff"/>
    <rect x="11.086" y="6.028" width="1.476" height="0.492" rx="0.196" fill="#fff"/>
  </g>
</svg>
