<svg xmlns="http://www.w3.org/2000/svg" width="5.5mm" height="5.5mm" viewBox="0 0 15.591 15.591">
  <path d="M7.8,1.881a4.9,4.9,0,0,0-4.9,4.9c0,3.872,4.864,7.513,4.864,7.513S12.7,10.653,12.7,6.781A4.9,4.9,0,0,0,7.8,1.881Zm3.48,5.588h-.6L10.3,8.12a.327.327,0,0,1-.32.173.346.346,0,0,1-.3-.21L9.237,7.045l-.163.343a.346.346,0,0,1-.313.2H7.943l-.7,1.292a.347.347,0,0,1-.3.18.436.436,0,0,1-.051,0A.347.347,0,0,1,6.6,8.782L6.12,6.472l-.4.977a.347.347,0,0,1-.321.216H4.244a.347.347,0,0,1,0-.693H5.17l.737-1.82a.346.346,0,0,1,.66.06l.516,2.5.35-.642a.348.348,0,0,1,.3-.18h.8l.4-.842a.325.325,0,0,1,.319-.2.347.347,0,0,1,.312.21l.474,1.109.126-.221a.344.344,0,0,1,.3-.174h.8a.346.346,0,0,1,0,.692Z" fill="#fff"/>
</svg>
