<svg xmlns="http://www.w3.org/2000/svg" width="5.5mm" height="5.5mm" viewBox="0 0 15.591 15.591">
  <g>
    <path d="M6.2,7.415a.879.879,0,0,0,1.1-.18l.43.248V8.744a.1.1,0,0,0,.1.1h.153a.1.1,0,0,0,.1-.1V7.483l.429-.248a.88.88,0,0,0,1.1.18,4.336,4.336,0,0,0,1.1-1.654,4.327,4.327,0,0,0-1.984.129.881.881,0,0,0-.395,1.043l-.255.147V5.763A.882.882,0,0,0,8.788,4.9a4.341,4.341,0,0,0-.881-1.783A4.341,4.341,0,0,0,7.026,4.9a.88.88,0,0,0,.707.863V7.08l-.255-.147A.881.881,0,0,0,7.083,5.89,4.328,4.328,0,0,0,5.1,5.761,4.334,4.334,0,0,0,6.2,7.415Z" fill="#fff"/>
    <path d="M14.748,9.8a.507.507,0,0,0-.634-.334l-.074.023a.236.236,0,0,0-.191-.126,9.3,9.3,0,0,0-3.481.575,9.275,9.275,0,0,1,3.006-.834.252.252,0,0,0,.234-.271.237.237,0,0,0-.272-.233A9.053,9.053,0,0,0,9.666,9.75,9.223,9.223,0,0,1,12.51,8.336a.253.253,0,1,0-.131-.489c-.147.039-3.449.947-4.438,3.238H7.864c-.988-2.291-4.291-3.2-4.438-3.238a.256.256,0,0,0-.31.179.253.253,0,0,0,.179.31A9.171,9.171,0,0,1,6.153,9.759,9.039,9.039,0,0,0,2.469,8.6a.232.232,0,0,0-.271.233.251.251,0,0,0,.233.271,9.277,9.277,0,0,1,3,.833,9.307,9.307,0,0,0-3.479-.574.24.24,0,0,0-.19.123L1.7,9.468a.507.507,0,1,0-.3.968l5.314,1.64.92.015c.014,0,.026.008.04.008H9.026l5.387-1.663A.506.506,0,0,0,14.748,9.8ZM3.2,9.93a6.865,6.865,0,0,1,2.814.868Zm6.587.874a6.871,6.871,0,0,1,2.838-.876Z" fill="#fff"/>
  </g>
</svg>
