<svg xmlns="http://www.w3.org/2000/svg" width="5.5mm" height="5.5mm" viewBox="0 0 15.591 15.591">
  <path d="M14.489,6.147,9.774,2.289a.307.307,0,0,0-.388,0L6.293,4.82l-.928-.759a.306.306,0,0,0-.387,0L1.091,7.242a.179.179,0,0,0,.113.317h.45v5.07a.2.2,0,0,0,.2.2H13.675a.2.2,0,0,0,.18-.22V6.468l0,0h.523A.178.178,0,0,0,14.489,6.147ZM9.512,10.319A.888.888,0,0,1,8.4,10.138l-.432.249v1.271a.1.1,0,0,1-.1.1H7.718a.1.1,0,0,1-.1-.1V10.387l-.432-.249a.888.888,0,0,1-1.109.181A4.369,4.369,0,0,1,4.967,8.653a4.36,4.36,0,0,1,2,.13.887.887,0,0,1,.4,1.051l.256.148V8.654a.886.886,0,0,1-.711-.869,4.372,4.372,0,0,1,.887-1.8,4.372,4.372,0,0,1,.887,1.8.888.888,0,0,1-.711.87V9.982l.256-.148a.887.887,0,0,1,.4-1.051,4.36,4.36,0,0,1,2-.13A4.369,4.369,0,0,1,9.512,10.319Z" fill="#fff"/>
</svg>
