<svg xmlns="http://www.w3.org/2000/svg" width="5.5mm" height="5.5mm" viewBox="0 0 15.591 15.591">
  <path d="M13.388,6.805,7.677,2.154a.316.316,0,0,0-.4,0L1.589,6.833a.184.184,0,0,0,.117.326l1.49,0,.014,5.923a.214.214,0,0,0,.214.214l.949,0,2.744-.007.773,0,2.745-.006.948,0a.215.215,0,0,0,.214-.215l-.014-5.923,1.49,0A.184.184,0,0,0,13.388,6.805ZM9.394,10.011a.983.983,0,0,1-1.227-.2l-.477.277,0,1.4a.109.109,0,0,1-.109.109h-.17a.111.111,0,0,1-.11-.109l0-1.4-.478-.275a.983.983,0,0,1-1.226.2A4.844,4.844,0,0,1,4.365,8.181a4.816,4.816,0,0,1,2.21.138A.981.981,0,0,1,7.017,9.48l.284.163,0-1.468a.98.98,0,0,1-.789-.959,4.825,4.825,0,0,1,.976-1.988A4.828,4.828,0,0,1,8.47,7.211a.981.981,0,0,1-.784.963l0,1.468.284-.165a.98.98,0,0,1,.436-1.163,4.824,4.824,0,0,1,2.209-.148A4.834,4.834,0,0,1,9.394,10.011Z" fill="#fff"/>
</svg>
