<svg xmlns="http://www.w3.org/2000/svg" width="5.5mm" height="5.5mm" viewBox="0 0 15.591 15.591">
  <path d="M12.144,4.067H4.485a.828.828,0,0,1,0-1.656h7.659a.207.207,0,1,0,0-.414H4.485A1.243,1.243,0,0,0,3.243,3.239l0,9.112a1.244,1.244,0,0,0,1.243,1.243h7.662a.207.207,0,0,0,.207-.207V4.275A.207.207,0,0,0,12.144,4.067ZM9.828,10.136a.893.893,0,0,1-1.116-.183l-.435.251v1.278a.1.1,0,0,1-.1.1H8.023a.1.1,0,0,1-.1-.1V10.2l-.435-.251a.892.892,0,0,1-1.115.183A4.391,4.391,0,0,1,5.256,8.46a4.4,4.4,0,0,1,2.01.13.893.893,0,0,1,.4,1.058l.258.149V8.461a.892.892,0,0,1-.716-.874A4.4,4.4,0,0,1,8.1,5.78a4.393,4.393,0,0,1,.892,1.807.892.892,0,0,1-.716.874V9.8l.259-.149a.894.894,0,0,1,.4-1.058,4.389,4.389,0,0,1,2.011-.13A4.4,4.4,0,0,1,9.828,10.136Z" fill="#fff"/>
</svg>
