<svg xmlns="http://www.w3.org/2000/svg" width="5.5mm" height="5.5mm" viewBox="0 0 15.591 15.591">
  <g>
    <path d="M10.6,5.47h0a.3.3,0,1,0-.025-.609h0L9.4,4.912l-1.376-.4-1.154-.02-1.117.288-.551-.849a.3.3,0,1,0-.511.333L5.36,5.286a.306.306,0,0,0,.314.134l.969.014L5.956,8.317h0v0a.061.061,0,0,0,.061.059h.487v.351L5.971,9.883a.4.4,0,1,0,.718.333L7.256,9l0-.01A.4.4,0,0,0,7.3,8.817V8.378h.122v1.78a.4.4,0,1,0,.792,0V8.378h.492a.061.061,0,0,0,.061-.059v0h0l-.6-2.854,1.113.049h0a.349.349,0,0,0,.1.013Z" fill="#fff"/>
    <rect x="1.829" y="12.607" width="1.886" height="1.645" rx="0.293" fill="#fff"/>
    <rect x="4.327" y="11.699" width="1.886" height="2.553" rx="0.293" fill="#fff"/>
    <rect x="6.825" y="10.763" width="1.886" height="3.489" rx="0.293" fill="#fff"/>
    <rect x="9.35" y="12.366" width="1.886" height="1.886" rx="0.293" fill="#fff"/>
    <rect x="11.875" y="11.699" width="1.886" height="2.553" rx="0.293" fill="#fff"/>
    <path d="M6.132,3.265c.375-.379.615-.532.75-.5a.878.878,0,0,0-.361.7.894.894,0,1,0,1.787,0,.878.878,0,0,0-.2-.543c.137-.038.352.155.67.633.347.522,1,.033,1,.033-.5.042-.227-.685-.8-1.123-.5-.388-.947.165-1.042.3a.816.816,0,0,0-.84-.126c-.081-.17-.405-.752-.958-.477-.642.32-.517,1.086-1,.949C5.144,3.105,5.692,3.711,6.132,3.265Z" fill="#fff"/>
  </g>
</svg>
