<svg xmlns="http://www.w3.org/2000/svg" width="5.5mm" height="5.5mm" viewBox="0 0 15.591 15.591">
  <path d="M12.875,12.359h-.949V10.981h.949a.378.378,0,1,0,0-.755H10.222a.378.378,0,1,0,0,.755h.949v1.378H5.465V10.08a.228.228,0,0,1,.227-.228H7.955a.227.227,0,0,0,.2-.341S6.377,6.433,6.357,6.4a.064.064,0,0,1,.051-.1h.7a.227.227,0,0,0,.2-.341L5.232,2.372a.228.228,0,0,0-.4,0L2.765,5.962a.227.227,0,0,0,.2.341h.7a.064.064,0,0,1,.054.088c-.016.029-1.8,3.12-1.8,3.12a.227.227,0,0,0,.2.341H4.385a.22.22,0,0,1,.219.22v2.287H3.042a.378.378,0,0,0,0,.755h9.833a.378.378,0,1,0,0-.755Z" fill="#fff"/>
</svg>
