<?xml version="1.0" encoding="UTF-8"?>
<svg id="ICONS" xmlns="http://www.w3.org/2000/svg" viewBox="0 0 15.59 15.59">
  <defs>
    <style>
      .cls-1 {
        fill: #fff;
        stroke-width: 0px;
      }
    </style>
  </defs>
  <rect class="cls-1" x="5.49" y="5.14" width="4.6" height="1.44" rx=".14" ry=".14"/>
  <path class="cls-1" d="M9.32,2.43h-3.05c-.1,0-.18-.08-.18-.18v-.41c0-.08.05-.15.12-.17l1.54-.59s.07-.01.1,0l1.54.59c.07.03.12.1.12.17v.41c0,.1-.08.18-.18.18Z"/>
  <path class="cls-1" d="M9.41,7.33c0-.07-.06-.12-.13-.12h-2.96c-.07,0-.12.05-.13.12l-.68,6.67c0,.08.05.14.13.14h4.32c.08,0,.14-.07.13-.14l-.68-6.67ZM8.18,10.95h-.77v-.77c0-.21.17-.38.38-.38s.38.17.38.38v.77ZM8.18,9.29h-.77v-.77c0-.21.17-.38.38-.38s.38.17.38.38v.77Z"/>
  <g>
    <rect class="cls-1" x="7.93" y="3.06" width=".56" height="1.44"/>
    <rect class="cls-1" x="7.12" y="3.06" width=".56" height="1.44"/>
    <path class="cls-1" d="M9.08,3.06h-.34v1.44h.34c.08,0,.14-.06.14-.14v-1.16c0-.08-.06-.14-.14-.14Z"/>
    <path class="cls-1" d="M6.87,3.06h-.37c-.08,0-.14.06-.14.14v1.16c0,.08.06.14.14.14h.37v-1.44Z"/>
  </g>
</svg>