<svg xmlns="http://www.w3.org/2000/svg" width="5.5mm" height="5.5mm" viewBox="0 0 15.591 15.591">
  <g>
    <g>
      <path d="M5.781,9.183a.5.5,0,1,0-.5-.5A.5.5,0,0,0,5.781,9.183Z" fill="#fff"/>
      <path d="M8.808,9.183a.5.5,0,1,0-.5-.5A.5.5,0,0,0,8.808,9.183Z" fill="#fff"/>
      <path d="M10.8,11.21a.245.245,0,0,0-.036-.036l-.6-.467a.638.638,0,0,0-.123-.068l.4-.9h.007a.236.236,0,0,0-.063-.467l-.208.028L9.2,9.434a.432.432,0,0,0-.3-.125H8.718a.431.431,0,0,0-.431.431v1.288a.47.47,0,0,0,.037.182H7.778a.253.253,0,0,0-.037-.036l-.6-.467a.5.5,0,0,0-.129-.065l.4-.9h.007a.236.236,0,0,0-.063-.467L7.156,9.3l-.985.133a.427.427,0,0,0-.3-.126H5.689a.431.431,0,0,0-.431.431v1.288a.47.47,0,0,0,.037.182H2.259a1.387,1.387,0,0,0,1.383,1.383H5.629l-.4.878a.249.249,0,0,0,.017.237.624.624,0,0,0,.431.213.3.3,0,0,0,.229-.1,4.5,4.5,0,0,0,.407-.991.661.661,0,0,0,.016-.24H8.658l-.4.878a.249.249,0,0,0,.017.237.624.624,0,0,0,.431.213.3.3,0,0,0,.229-.1,4.5,4.5,0,0,0,.407-.991.661.661,0,0,0,.017-.24h2.656A1.388,1.388,0,0,0,13.4,11.21ZM6.3,9.893l.793-.107-.36.8a.764.764,0,0,0-.165.03l-.277.1Zm3.029,0,.792-.107-.346.775a.37.37,0,0,0-.18.057l-.275.1Z" fill="#fff"/>
    </g>
    <path d="M13.576,4.152l-1.728-1.2a1.03,1.03,0,0,0-.575-.186c-.6-.009-1.939-.013-3.227-.012s-2.628,0-3.228.012a1.027,1.027,0,0,0-.574.186l-1.728,1.2c-.158.076-.114.368.056.368H3.2V6.782a.305.305,0,0,0,.306.3h8.942a.3.3,0,0,0,.305-.3V4.52h.768C13.689,4.52,13.733,4.228,13.576,4.152Z" fill="#fff"/>
  </g>
</svg>
