<svg xmlns="http://www.w3.org/2000/svg" width="5.5mm" height="5.5mm" viewBox="0 0 15.591 15.591">
  <g>
    <path d="M6.868,3.372A.862.862,0,1,0,5.9,2.629.863.863,0,0,0,6.868,3.372Z" fill="#fff"/>
    <path d="M4.282,6.7c.084.2.206.328.423.3a.706.706,0,0,0,.12-.035.448.448,0,0,0,.2-.611L4.9,5.715l.748-.443.035-.024.068.74.066,1.537L5.54,8.948s.071,2.267.076,2.3a.542.542,0,0,0,.1.284.466.466,0,0,0,.243.17.5.5,0,0,0,.362-.019.537.537,0,0,0,.249-.224,6.87,6.87,0,0,0,.076-1.73l.367-1.347L7.4,8.325l.637,1.049s.284,1.613.3,1.649a.583.583,0,0,0,.184.235.5.5,0,0,0,.4.083.526.526,0,0,0,.308-.213c.033-.043-.146-2.388-.146-2.388L8.106,6.967l.055.049L8.07,5.589l-.007-.421,2.469.981a.486.486,0,0,0,.643-.218.41.41,0,0,0-.21-.577L7.636,3.66a.416.416,0,0,0-.246-.045l-1.274.09a.485.485,0,0,0-.247.09L4.061,5.154a.487.487,0,0,0-.155.576Z" fill="#fff"/>
    <path d="M11.414,10.872a.334.334,0,0,0-.354.332c-.007.015-.064.066-.216.1-.5.1-5.726.761-6.1.791a.472.472,0,0,1-.325-.07.355.355,0,0,0-.5.007.36.36,0,0,0,0,.5,1.1,1.1,0,0,0,.764.274c.037,0,.076,0,.116,0,.4-.034,5.637-.7,6.177-.8.62-.124.785-.528.785-.747A.376.376,0,0,0,11.414,10.872Z" fill="#fff"/>
    <path d="M5.647,12.923a.448.448,0,1,0,.448.448A.448.448,0,0,0,5.647,12.923Z" fill="#fff"/>
    <circle cx="10.615" cy="12.776" r="0.448" fill="#fff"/>
  </g>
</svg>
