<svg xmlns="http://www.w3.org/2000/svg" width="5.5mm" height="5.5mm" viewBox="0 0 15.591 15.591">
  <g>
    <path d="M13.1,5.21a1.177,1.177,0,1,1-1.177-1.177A1.178,1.178,0,0,1,13.1,5.21Zm0,0" fill="#fff"/>
    <path d="M12.356,10.955a.539.539,0,0,0-.67.366.838.838,0,0,1-1.04.569L8.5,11.255l.87-1.781A1.345,1.345,0,0,0,8.49,7.786l-.056-.019L9.11,7.5l2.591.853a.532.532,0,0,0,.169.027.539.539,0,0,0,.169-1.052l-1.783-.588A1.077,1.077,0,0,0,8.893,5.268L7.805,5.7,4.262,3.537l.211-.345a.405.405,0,1,0-.692-.421l-.21.345-.462-.281a.405.405,0,0,0-.421.692l.461.28-.21.346a.4.4,0,0,0,.691.422l.211-.347L6.858,6.067,5.505,6.6a1.346,1.346,0,0,0,.088,2.535L7.064,9.6,6.97,10.81,3.3,9.743A.539.539,0,1,0,3,10.778l7.345,2.149A1.963,1.963,0,0,0,10.88,13a1.924,1.924,0,0,0,1.843-1.38.542.542,0,0,0-.367-.669Zm0,0" fill="#fff"/>
  </g>
</svg>
