<svg xmlns="http://www.w3.org/2000/svg" width="5.5mm" height="5.5mm" viewBox="0 0 15.591 15.591">
  <path d="M13.117,10.033c0-.027,0-.053,0-.08a1.081,1.081,0,0,0-.326-.561,1.107,1.107,0,0,0-.582-.28A7.08,7.08,0,0,1,9.344,7.8a5.926,5.926,0,0,1-2.4-4.121A.562.562,0,0,0,6.4,3.2H6.387l-2.911.151a.569.569,0,0,0-.4.162A.562.562,0,0,0,2.9,3.92v.006L3.165,8.71a1.179,1.179,0,0,1-.007.214L3.02,11.041v.012a.57.57,0,0,0,.568.569H4.16l-.377.821H2.655a.281.281,0,0,0,0,.561h8.651a1.87,1.87,0,0,0,1.868-1.865l.041-.9A.271.271,0,0,0,13.117,10.033Zm-8.734,2.41.377-.821h.852a.567.567,0,0,0,.568-.55l.01-.312.651.685a.571.571,0,0,0,.412.177H8.689l.385.821Zm6.923,0H9.676l-.385-.821h2.4a1.106,1.106,0,0,0,.619-.189,2.624,2.624,0,0,0,.289-.239A1.3,1.3,0,0,1,11.306,12.443Z" fill="#fff"/>
</svg>
