<svg xmlns="http://www.w3.org/2000/svg" width="5.5mm" height="5.5mm" viewBox="0 0 15.591 15.591">
  <g>
    <path d="M4.585,7.829l3.156,0a.173.173,0,0,0,.176-.191A7.443,7.443,0,0,0,5.567,2.9a.184.184,0,0,0-.288.112L4.411,7.62A.177.177,0,0,0,4.585,7.829Z" fill="#fff"/>
    <path d="M2.611,10.287a1.594,1.594,0,0,1,2.269,0,.734.734,0,0,0,1.127,0,1.59,1.59,0,0,1,2.273,0l.039.033.83-1.257A.376.376,0,0,0,8.8,8.5H2.235a.376.376,0,0,0-.354.556Z" fill="#fff"/>
    <path d="M8.08,10.812a1.385,1.385,0,0,0-.936-.342,1.475,1.475,0,0,0-1.065.451.841.841,0,0,1-1.271,0,1.485,1.485,0,0,0-2.132,0,.846.846,0,0,1-.636.29.327.327,0,1,0,0,.654,1.479,1.479,0,0,0,1.066-.451.842.842,0,0,1,1.272,0,1.484,1.484,0,0,0,2.131,0,.843.843,0,0,1,.635-.29.738.738,0,0,1,.523.2.327.327,0,0,0,.413-.507Z" fill="#fff"/>
    <path d="M13.715,9.254H11.4a.787.787,0,0,0-.491.172L8.167,11.615a.162.162,0,0,0,.1.289h5.447a.162.162,0,0,0,.163-.162V9.417A.163.163,0,0,0,13.715,9.254Z" fill="#fff"/>
  </g>
</svg>
