<svg xmlns="http://www.w3.org/2000/svg" viewBox="0 0 128.16 128.16"><defs><style>.cls-1{fill:#fff;}</style></defs><g id="Isolation_Mode" data-name="Isolation Mode"><rect class="cls-1" x="37.21" y="73.27" width="59.02" height="5.82" rx="1.82"/><path class="cls-1" d="M106.72,97.67c-.37-.18-.74-.38-1.1-.6a14,14,0,0,1-2-1.65c-3.06-2.82-7-4.26-11.12-3.22a15.47,15.47,0,0,0-5.18,2.51,24.55,24.55,0,0,1-4.64,3.07,6.24,6.24,0,0,1-3.6.46,9.27,9.27,0,0,1-4.22-2.47c-3.14-2.84-6.93-4.55-11.21-3.84a13,13,0,0,0-4.85,2c-1.54,1-2.79,2.37-4.4,3.26a6.92,6.92,0,0,1-7.75-.49c-1.45-1-2.62-2.34-4.21-3.18a14.34,14.34,0,0,0-5.34-1.58c-4.12-.4-7.7,1.42-10.53,4.26a7.85,7.85,0,0,1-3.05,2,6.38,6.38,0,0,1-1.6.18c-1.66-.11-3.23.42-3.69,2.1a3,3,0,0,0,2.09,3.69h0a11.7,11.7,0,0,0,6.69-1,15.38,15.38,0,0,0,4.46-3.39A6.25,6.25,0,0,1,34.63,98a7.16,7.16,0,0,1,3.73.2,11.62,11.62,0,0,1,3.73,2.43A13.57,13.57,0,0,0,53,103.9,13.27,13.27,0,0,0,58,102.05c1.56-1,2.81-2.34,4.39-3.28a6.26,6.26,0,0,1,3.85-1,5.71,5.71,0,0,1,1.66.4,9.07,9.07,0,0,1,2.2,1.34c1.68,1.35,3.14,2.85,5.15,3.73a11.88,11.88,0,0,0,5.57,1.1,14.41,14.41,0,0,0,5.65-1.69c1.7-.89,3.08-2.18,4.68-3.22a7.71,7.71,0,0,1,4.7-1.56,5.36,5.36,0,0,1,2,.64,11.52,11.52,0,0,1,2.3,1.82,14.65,14.65,0,0,0,8.64,4,3,3,0,0,0,3-3,2.93,2.93,0,0,0-2.88-3A6.53,6.53,0,0,1,106.72,97.67Z"/><path class="cls-1" d="M91.57,88.32a14.63,14.63,0,0,1,3.66-.46,16.38,16.38,0,0,1,11.14,4.61l.43.4a7.37,7.37,0,0,0,.93.8c.26.16.56.32.79.43a3.3,3.3,0,0,0,.67.25,7.54,7.54,0,0,1,2.54.65V83.1a4,4,0,0,0-4.2-4l-2.38.14c-12.85.84-17.84,5-19.9,12.08A18.9,18.9,0,0,1,91.57,88.32Z"/><path class="cls-1" d="M21.54,94.3h.57l.35,0a4.46,4.46,0,0,0,1.31-.94A17.21,17.21,0,0,1,36,87.85c.5,0,1,0,1.51.07a18.16,18.16,0,0,1,6.82,2,18.34,18.34,0,0,1,3.33,2.39c.46.39.9.77,1.32,1.06l.14.09c-1.77-8.41-6.62-13.32-21.39-14.24-1.9-.12-3.72-.2-5.45-.26a4,4,0,0,0-4.12,4V95A8.31,8.31,0,0,1,21.54,94.3Z"/><circle class="cls-1" cx="69.86" cy="27.96" r="4.36"/><path class="cls-1" d="M79.91,46.9h0l-.12,0h0l-5.3-2.51a.74.74,0,0,1-.35-.37l-3.81-8.8a3,3,0,0,0-4.06-1.46c-2.71,1.4-6.64,3.4-8.22,4.15-2.52,1.19-2.12,1.85-2.52,2.78L52.84,46.9a1.92,1.92,0,0,0-.14.33l0,.06h0a1.89,1.89,0,0,0-.08.53,1.94,1.94,0,0,0,3.62,1h0l0,0a2.37,2.37,0,0,0,.14-.32l3-6.82a.55.55,0,0,1,.43-.33l1.44-.23a.14.14,0,0,1,.16.16L57.87,58.93a1.32,1.32,0,0,1-.24.54l-6.52,8.61h0a2.35,2.35,0,0,0,3.43,3.22h0L65.27,59.45a.5.5,0,0,1,.63-.1l2.91,1.73a.74.74,0,0,1,.36.54l1.28,8.07a2.36,2.36,0,0,0,4.72,0,2.63,2.63,0,0,0,0-.49l-1.19-11a1,1,0,0,0-.23-.55l-4.81-5.8a1.19,1.19,0,0,1-.25-1l1.16-5.8A.13.13,0,0,1,70,45l1.3,2a.94.94,0,0,0,.38.33l6.37,3h0a2,2,0,0,0,.94.25,1.94,1.94,0,0,0,.89-3.66Z"/></g></svg>