<svg xmlns="http://www.w3.org/2000/svg" viewBox="0 0 128.16 128.16"><defs><style>.cls-1{fill:#fff;}</style></defs><g id="Isolation_Mode" data-name="Isolation Mode"><path class="cls-1" d="M98.33,88.94,90.68,72.45c-.52-1.15-1.05-2.29-1.58-3.43a2.15,2.15,0,0,0-.22-.46q-5.19-11.2-10.39-22.41c-.93-2-1.87-4-2.8-6-.84-1.82-3.86-2-5-.36H53.17c-1.13-1.58-4.13-1.49-5,.36L40.79,56.58h6.54Q49,52.9,50.65,49.21l.18-.4q2.52,5.4,5,10.82l12.2,26.3c.93,2,1.86,4,2.8,6A3,3,0,0,0,75,93.05,3.08,3.08,0,0,0,76,88.94c-.41-.89-.83-1.77-1.24-2.66H90.51L93.15,92a3,3,0,0,0,4.11,1.08A3.06,3.06,0,0,0,98.33,88.94ZM73.14,48.81c.91,2,1.83,3.94,2.74,5.9h-5.4C71.37,52.75,72.25,50.78,73.14,48.81Zm-17-2.66L55,43.5H69L64.28,54a4.13,4.13,0,0,0-.25.75H60.16Q58.17,50.44,56.19,46.15Zm10,21.62q-2.16-4.65-4.31-9.31H77.62l.54,1.17c1.26,2.72,2.51,5.43,3.77,8.14H66.21Zm8.13,14.76H73.05L68.38,72.45,68,71.52H83.67l5.1,11Z"/><path class="cls-1" d="M59.23,74l-.43-.92H24.86c-4.2,0-8.45-.18-12.64,0H12a1.25,1.25,0,0,0,0,2.5H60Z"/><path class="cls-1" d="M116.15,73.12H94.31l1.15,2.5h7.88c4.19,0,8.44.19,12.63,0h.18A1.25,1.25,0,0,0,116.15,73.12Z"/><path class="cls-1" d="M116.15,64.78H90.44l1.1,2.38a1.34,1.34,0,0,0,.06.12h11.74c4.19,0,8.44.19,12.63,0h.18A1.25,1.25,0,0,0,116.15,64.78Z"/><path class="cls-1" d="M54.94,64.78H24.86c-4.2,0-8.45-.18-12.64,0a1.08,1.08,0,0,1-.18,0,1.25,1.25,0,0,0,0,2.5H56.09Z"/><path class="cls-1" d="M25,53.52V84.38c0,3.22,5,3.22,5,0V53.52c0-3.21-5-3.22-5,0Z"/><path class="cls-1" d="M106.83,53.52V84.38c0,3.22,5,3.22,5,0V53.52c0-3.21-5-3.22-5,0Z"/><path class="cls-1" d="M116.15,56.45H86.57l.94,2,.22.49h15.61c4.19,0,8.44.18,12.63,0a1.08,1.08,0,0,1,.18,0A1.25,1.25,0,0,0,116.15,56.45Z"/><path class="cls-1" d="M50.86,56.45h-26c-4.2,0-8.45-.19-12.64,0H12A1.25,1.25,0,0,0,12,59H52.23l-1.16-2.5Z"/></g></svg>