<svg xmlns="http://www.w3.org/2000/svg" width="5.5mm" height="5.5mm" viewBox="0 0 15.591 15.591">
  <g>
    <path d="M4.147,11.494a.438.438,0,0,0,.3.08.534.534,0,0,0,.254-.117L7.138,9.579c.352.319.617.528.617.528S7.7,11.8,7.71,11.877a.455.455,0,0,0,.087.235.415.415,0,0,0,.6.079.406.406,0,0,0,.158-.213.327.327,0,0,0,.013-.088l.187-2.015a.52.52,0,0,0,0-.118A.5.5,0,0,0,8.7,9.6a14.26,14.26,0,0,1-.609-1.4l.342-.789s.175.414.206.47a.4.4,0,0,0,.1.12l1.112.8a.383.383,0,0,0,.241.042.35.35,0,0,0,.281-.237.37.37,0,0,0,.008-.2.353.353,0,0,0-.1-.163l-1-.733q-.189-.879-.38-1.758a.614.614,0,0,0-.083-.23,4.131,4.131,0,0,0-.958-.394v0l-.552-.942.478-1.4a.385.385,0,0,0,0-.192.364.364,0,0,0-.12-.2.366.366,0,0,0-.44-.011.387.387,0,0,0-.1.122.445.445,0,0,0-.046.113c-.292.911-.405,1.24-.437,1.312a1.357,1.357,0,0,0-.059.172.306.306,0,0,0-.017.095A.3.3,0,0,0,6.6,4.3c.027.067.054.136.085.215.141.356.4,1.064.566,1.459-.226.472-.424.961-.424.961-.269.678-.745,1.5-1.149,2.447-.582.515-1,.94-1.58,1.455a.438.438,0,0,0,.05.653Z" fill="#fff"/>
    <path d="M8.23,4.134A.833.833,0,1,0,9.2,3.469.834.834,0,0,0,8.23,4.134Z" fill="#fff"/>
    <path d="M8.686,2.939a.633.633,0,1,0-.632-.632A.632.632,0,0,0,8.686,2.939Z" fill="#fff"/>
    <path d="M13.465,12.976l-1.538-.338-.769.032-1.306.054a1.072,1.072,0,0,0-.275.048l-1.027.32a1.066,1.066,0,0,1-.654,0L6.8,12.365a1.126,1.126,0,0,0-.236-.049l-1.579-.144a1.124,1.124,0,0,0-.232,0l-2.768.715.085-.018-.085.018c-.491.1-.456.937.019.94s10.894.085,11.476.085S14.1,13.115,13.465,12.976Zm-11.309-.12Z" fill="#fff"/>
  </g>
</svg>
