<svg xmlns="http://www.w3.org/2000/svg" width="5.5mm" height="5.5mm" viewBox="0 0 15.591 15.591">
  <path d="M3.316,4.433A1.074,1.074,0,0,1,4.453,5.869,1.075,1.075,0,0,1,3.316,4.433M2.57,6.92a1.075,1.075,0,0,1,1.817-.235A1.075,1.075,0,0,1,2.57,6.92ZM5.978,4.3A1.074,1.074,0,0,1,5.257,5.98,1.074,1.074,0,0,1,5.978,4.3Zm6.3.137a1.074,1.074,0,0,1-1.137,1.436A1.075,1.075,0,0,1,12.274,4.433Zm.747,2.487A1.075,1.075,0,0,0,11.2,6.685,1.075,1.075,0,0,0,13.021,6.92ZM9.612,4.3a1.074,1.074,0,0,1,.721,1.684A1.075,1.075,0,0,1,9.612,4.3ZM7.8,3.2a1.074,1.074,0,0,0,0-1.832A1.075,1.075,0,0,0,7.8,3.2Zm2.161-.269a1.074,1.074,0,0,1-1.617.86A1.074,1.074,0,0,1,9.956,2.932Zm-4.322,0a1.075,1.075,0,0,1,1.618.86A1.075,1.075,0,0,1,5.634,2.932ZM7.8,3.474a.246.246,0,0,0-.236.233l-.5,4.506L4.987,6.154a.237.237,0,0,0-.371.294l2.237,3.636-.419,3.789c-.022.183.053.338.257.349H8.9c.2-.011.279-.166.257-.349l-.419-3.789,2.237-3.636a.237.237,0,0,0-.371-.294L8.531,8.213l-.5-4.506A.246.246,0,0,0,7.8,3.474Z" fill="#fff" fill-rule="evenodd"/>
</svg>
