<svg xmlns="http://www.w3.org/2000/svg" width="5.5mm" height="5.5mm" viewBox="0 0 15.591 15.591">
  <g>
    <path d="M13.229,12.369a.894.894,0,0,1-.674-.309,1.577,1.577,0,0,0-2.268,0,.9.9,0,0,1-1.353,0,1.577,1.577,0,0,0-2.268,0,.9.9,0,0,1-1.355,0,1.582,1.582,0,0,0-2.271,0,.9.9,0,0,1-.678.309.349.349,0,1,0,0,.7,1.576,1.576,0,0,0,1.135-.48.9.9,0,0,1,1.356,0,1.58,1.58,0,0,0,2.27,0,.9.9,0,0,1,1.354,0,1.578,1.578,0,0,0,2.268,0,.893.893,0,0,1,1.351,0,1.569,1.569,0,0,0,1.133.481.349.349,0,0,0,0-.7Z" fill="#fff"/>
    <path d="M14.382,7.826,8.413,7.8,8.4,7.736,8.577,6.1,10.85,7.362a.464.464,0,0,0,.644-.129.4.4,0,0,0-.128-.591L8.36,4.584a.459.459,0,0,0-.233-.077l-1.25-.069a.415.415,0,0,0-.245.054L4.71,5.58a.463.463,0,0,0-.229.531l.241.986c.057.207.164.343.37.343a.468.468,0,0,0,.121-.016.436.436,0,0,0,.274-.57l-.039-.63.812-.35L6.19,7.537l-.047.254-4.931-.02h0a.348.348,0,0,0,0,.7l2.87.012v2.406c.034,0,.06-.011.1-.011a1.7,1.7,0,0,1,1.211.509.783.783,0,0,0,1.2,0,1.7,1.7,0,0,1,2.423,0,.779.779,0,0,0,1.2,0,1.694,1.694,0,0,1,1.211-.509c.034,0,.059.009.091.01V8.511l2.866.012h0a.349.349,0,0,0,0-.7Z" fill="#fff"/>
    <path d="M7.651,4.2a.842.842,0,1,0-.842-.842A.842.842,0,0,0,7.651,4.2Z" fill="#fff"/>
  </g>
</svg>
