<svg xmlns="http://www.w3.org/2000/svg" width="5.5mm" height="5.5mm" viewBox="0 0 15.591 15.591">
  <g>
    <path d="M13.013,11.714a.4.4,0,1,0,0-.8h-2.83a.4.4,0,1,0,0,.8H11.2v1.47H8.3V9.721h1.989a.5.5,0,0,0,0-1.006H5.3a.5.5,0,0,0,0,1.006H7.292v3.463h-3v-1.47H5.3a.4.4,0,0,0,0-.8H2.473a.4.4,0,1,0,0,.8H3.485v1.47H2.526a.4.4,0,0,0,0,.805H13.013a.4.4,0,1,0,0-.805H12v-1.47Z" fill="#fff"/>
    <path d="M13.7,5.68,8.054,2.294a.5.5,0,0,0-.517,0L1.887,5.68a.5.5,0,1,0,.517.862L7.8,3.312l5.392,3.23a.485.485,0,0,0,.258.072A.5.5,0,0,0,13.7,5.68Z" fill="#fff"/>
  </g>
</svg>
