<svg xmlns="http://www.w3.org/2000/svg" width="5.5mm" height="5.5mm" viewBox="0 0 15.591 15.591">
  <path d="M13.616,7.9l.005,0-.036-.081-.846-1.925h0a2.576,2.576,0,0,0-1.973-1.52l-.188-.326a1.159,1.159,0,0,0-2.107.765l.053.307a2.615,2.615,0,0,0-.268.325.993.993,0,0,0-.114-.066.955.955,0,0,0-.782.092,2.63,2.63,0,0,0-.289-.351l.053-.307a1.11,1.11,0,0,0-.744-1.19,1.107,1.107,0,0,0-1.364.425l-.187.326a2.578,2.578,0,0,0-1.974,1.52h0L2.007,7.815,1.97,7.9l.005,0a2.862,2.862,0,0,0-.283,1.211,2.922,2.922,0,0,0,5.822.38l.009,0,.019-.168.085-.752a1.1,1.1,0,0,0,.338.006l.082.728.021.186.009,0a2.922,2.922,0,0,0,5.822-.38A2.862,2.862,0,0,0,13.616,7.9Zm-8.989,3A1.786,1.786,0,1,1,6.412,9.111,1.788,1.788,0,0,1,4.627,10.9Zm6.336,0a1.786,1.786,0,1,1,1.784-1.788A1.788,1.788,0,0,1,10.963,10.9Z" fill="#fff"/>
</svg>
