<svg xmlns="http://www.w3.org/2000/svg" width="5.5mm" height="5.5mm" viewBox="0 0 15.591 15.591">
  <g>
    <path d="M13.186,7.921h-.231V5.9a.241.241,0,0,0-.24-.241H9.789a.241.241,0,0,0-.241.241V7.921H9.394a.241.241,0,0,0-.24.241v1.2a.241.241,0,0,0,.24.24h.251a1.748,1.748,0,0,1-3.465,0H6.5a.241.241,0,0,0,.24-.24v-1.2a.241.241,0,0,0-.24-.241H6.2A5.045,5.045,0,0,0,1.917,3.2a.25.25,0,0,0-.191.056.239.239,0,0,0-.084.182V6.3a.241.241,0,0,0,.156.226,1.753,1.753,0,0,1,1.108,1.4h-.2a.241.241,0,0,0-.241.241v1.2a.241.241,0,0,0,.241.24h.2a5.01,5.01,0,0,0,10.011,0h.268a.241.241,0,0,0,.241-.24v-1.2A.241.241,0,0,0,13.186,7.921ZM10.03,6.139h2.444V7.883H10.03ZM6.258,9.121H2.948V8.4h3.31ZM2.123,6.137V3.73A4.571,4.571,0,0,1,5.729,7.921H3.412A2.251,2.251,0,0,0,2.123,6.137Zm5.79,7.772A4.555,4.555,0,0,1,3.37,9.6H5.688a2.237,2.237,0,0,0,4.449,0h2.318A4.554,4.554,0,0,1,7.913,13.909Zm5.033-4.788H9.635V8.4h3.311Z" fill="#fff"/>
    <path d="M11.184,3.628a4.9,4.9,0,0,1,.364-.539,1.82,1.82,0,0,0,.479-.971.846.846,0,1,0-1.686,0,1.812,1.812,0,0,0,.479.971A4.9,4.9,0,0,1,11.184,3.628Z" fill="#fff"/>
    <path d="M10.042,4.718a4.827,4.827,0,0,1,.638.124,5.008,5.008,0,0,1-.123-.639,1.816,1.816,0,0,0-.348-1.025.883.883,0,0,0-1.245-.053A.883.883,0,0,0,9.017,4.37,1.813,1.813,0,0,0,10.042,4.718Z" fill="#fff"/>
    <path d="M11.751,4.842a4.842,4.842,0,0,1,.639-.124,1.816,1.816,0,0,0,1.025-.348.884.884,0,0,0,.053-1.245.883.883,0,0,0-1.245.053A1.823,1.823,0,0,0,11.874,4.2,4.84,4.84,0,0,1,11.751,4.842Z" fill="#fff"/>
  </g>
</svg>
