<?xml version="1.0" encoding="UTF-8"?>
<svg xmlns="http://www.w3.org/2000/svg" viewBox="0 0 15.59 15.59">
  <defs>
    <style>
      .cls-1 {
        fill: #fff;
      }

      .cls-2 {
        fill: #071f39;
      }
    </style>
  </defs>
  <g id="Firkant">
    <rect class="cls-2" x="0" y="0" width="15.59" height="15.59"/>
  </g>
  <g id="Cirkel">
    <rect class="cls-2" x="0" y="0" width="15.59" height="15.59" rx="7.79" ry="7.79"/>
  </g>
  <g id="ICONS">
    <circle class="cls-1" cx="6.68" cy="2.18" r=".99"/>
    <path class="cls-1" d="M8.46,5.93l-.18-.17-.35-.33-.97-.9,1.03.11.1-.71-1.4-.15s-.05-.03-.08-.04l-.6-.17c-.28-.08-.58.09-.65.37l-.72,2.63h0s-.02.04-.02.06l-.38,3.09c-.03.21.13.41.34.44.02,0,.03,0,.05,0,.19,0,.36-.15.39-.34l.37-3.03.25.07.68,2.99c.04.18.2.3.38.3.03,0,.06,0,.09-.01.21-.05.34-.26.29-.47l-.7-3.07s0,0,0,0l.35-1.29,1.08,1,.16.15c.06.05.13.08.2.09.01,0,.03,0,.04,0,.1,0,.19-.04.26-.11.13-.15.13-.37-.02-.51Z"/>
    <path class="cls-1" d="M12.94,10.11h-4.27l-.06.47c.15.13.25.31.29.51h4.05c.27,0,.49-.22.49-.49s-.22-.49-.49-.49Z"/>
    <path class="cls-1" d="M7.15,10.39l.04-.27H2.98c-.27,0-.49.22-.49.49s.22.49.49.49h3.68v-.06c.05-.3.24-.53.49-.65Z"/>
    <path class="cls-1" d="M6.5,12.12c-.07.03-.15.05-.26.05-.28,0-.4-.11-.59-.27-.21-.19-.48-.42-.99-.42s-.77.23-.99.42c-.19.16-.31.27-.59.27-.17,0-.3.14-.3.3s.14.3.3.3c.51,0,.77-.23.99-.42.19-.16.31-.27.59-.27s.4.11.59.27c.21.19.48.42.99.42.07,0,.13-.01.2-.02,0-.05-.02-.1,0-.15l.07-.48Z"/>
    <path class="cls-1" d="M12.54,12.17c-.28,0-.4-.11-.59-.27-.21-.19-.48-.42-.99-.42s-.77.23-.99.42c-.19.16-.31.27-.59.27-.26,0-.38-.09-.55-.23l-.09.68c.16.09.36.16.64.16.51,0,.77-.23.99-.42.19-.16.31-.27.59-.27s.4.11.59.27c.21.19.48.42.99.42.17,0,.3-.14.3-.3s-.14-.3-.3-.3Z"/>
    <path class="cls-1" d="M8.88,3.2c-.13-.02-.26.08-.27.21l-.32,2.36.18.17c.14.13.15.36.02.51-.07.08-.17.11-.26.11-.01,0-.03,0-.04,0l-.49,3.57-.1.7h-.05c-.19-.03-.36.1-.39.28,0,0,0,0,0,.01l-.08.62-.12.85v.1c-.04.19.09.37.28.39l.57.08c.19.03.37-.11.39-.3l.08-.59.09-.65.05-.33c0-.07,0-.13-.03-.18-.05-.11-.14-.19-.27-.21h-.05s.1-.77.1-.77l.78-5.69.05-.36.08-.58c.02-.13-.08-.26-.21-.27Z"/>
  </g>
</svg>