<?xml version="1.0" encoding="UTF-8"?>
<svg id="a" data-name="ICONS" xmlns="http://www.w3.org/2000/svg" width="5.5mm" height="5.5mm" viewBox="0 0 15.591 15.591">
  <path d="m12.557,11.651H3.033c-.083,0-.15.067-.15.15s.067.15.15.15h9.523c.083,0,.15-.067.15-.15s-.067-.15-.15-.15Z" fill="#fff"/>
  <path d="m7.074,12.499h-.5c-.083,0-.15.067-.15.15s.067.15.15.15h.5c.083,0,.15-.067.15-.15s-.067-.15-.15-.15Z" fill="#fff"/>
  <path d="m5.074,12.499h-.5c-.083,0-.15.067-.15.15s.067.15.15.15h.5c.083,0,.15-.067.15-.15s-.067-.15-.15-.15Z" fill="#fff"/>
  <path d="m4.074,12.499h-.5c-.083,0-.15.067-.15.15s.067.15.15.15h.5c.083,0,.15-.067.15-.15s-.067-.15-.15-.15Z" fill="#fff"/>
  <path d="m6.074,12.499h-.5c-.083,0-.15.067-.15.15s.067.15.15.15h.5c.083,0,.15-.067.15-.15s-.067-.15-.15-.15Z" fill="#fff"/>
  <path d="m12.017,12.499h-.442c-.083,0-.15.067-.15.15s.067.15.15.15h.442c.083,0,.15-.067.15-.15s-.067-.15-.15-.15Z" fill="#fff"/>
  <path d="m11.074,12.499h-.5c-.083,0-.15.067-.15.15s.067.15.15.15h.5c.083,0,.15-.067.15-.15s-.067-.15-.15-.15Z" fill="#fff"/>
  <path d="m9.074,12.499h-.5c-.083,0-.15.067-.15.15s.067.15.15.15h.5c.083,0,.15-.067.15-.15s-.067-.15-.15-.15Z" fill="#fff"/>
  <path d="m10.074,12.499h-.5c-.083,0-.15.067-.15.15s.067.15.15.15h.5c.083,0,.15-.067.15-.15s-.067-.15-.15-.15Z" fill="#fff"/>
  <path d="m8.074,12.499h-.5c-.083,0-.15.067-.15.15s.067.15.15.15h.5c.083,0,.15-.067.15-.15s-.067-.15-.15-.15Z" fill="#fff"/>
  <path d="m7.122,9.655c.156.219.316.436.479.65.033.043.193.192.193.249.402-.505.778-1.032,1.135-1.569.571-.857,1.359-1.925,1.355-3.005-.003-.877-.565-1.717-1.328-2.121-.357-.189-.758-.288-1.162-.288-.892,0-1.733.493-2.169,1.271-.567,1.009-.21,2.006.311,2.951.355.646.758,1.262,1.186,1.862Zm.672-4.672c.588,0,1.065.477,1.065,1.065s-.477,1.065-1.065,1.065-1.065-.477-1.065-1.065.477-1.065,1.065-1.065Z" fill="#fff"/>
</svg>