<?xml version="1.0" encoding="UTF-8"?>
<svg id="a" data-name="ICONS" xmlns="http://www.w3.org/2000/svg" width="5.5mm" height="5.5mm" viewBox="0 0 15.591 15.591">
  <line x1="12.557" y1="11.801" x2="3.033" y2="11.801" fill="none" stroke="#fff" stroke-linecap="round" stroke-linejoin="round" stroke-width=".3"/>
  <line x1="3.574" y1="12.648" x2="12.017" y2="12.648" fill="none" stroke="#fff" stroke-linecap="round" stroke-linejoin="round" stroke-width=".3"/>
  <g>
    <path d="m3.044,7.962h-.072c-.113,0-.183-.122-.127-.22,0,0,1.149-1.99,1.159-2.008.01-.018-.004-.057-.035-.057-.037,0-.451,0-.451,0-.113,0-.183-.122-.127-.22l1.334-2.31c.056-.098.197-.098.254,0l1.334,2.31c.056.098-.014.22-.127.22h-.45c-.037,0-.046.042-.033.063.005.008.108.186.3.519,0,0-1.217.742-1.831,1.288l-1.127.414Z" fill="#fff"/>
    <g>
      <path d="m13.268,8.544l-2.071-.487-1.545-1.11c-.319-.229-.703-.353-1.096-.353h-1.659c-.402,0-.794.129-1.117.368l-1.411,1.036s-.471.104-.624.154c-.263.086-.459.186-.523.393l-.022.07c-.139.448-.221.913-.244,1.382l-.005.11h.896c-.008-.054-.017-.109-.017-.165,0-.595.482-1.078,1.078-1.078s1.078.482,1.078,1.078c0,.057-.008.111-.017.165h4.51c-.008-.054-.017-.109-.017-.165,0-.595.482-1.078,1.078-1.078s1.078.482,1.078,1.078c0,.057-.008.111-.017.165h1.033v-1.1c0-.221-.152-.412-.367-.463Zm-5.653-.541h-2.433s1.153-.979,1.505-1.036c.151-.025.384-.036.674-.034h.254v1.07Zm.345,0v-1.07h.1c.29-.002.523.01.674.034.353.057,1.505,1.036,1.505,1.036h-2.279Z" fill="#fff"/>
      <path d="m4.909,9.27c-.371,0-.671.301-.671.671,0,.054.019.102.031.152.071.295.324.519.641.519s.57-.224.641-.519c.012-.05.031-.098.031-.152,0-.371-.301-.671-.672-.671Z" fill="#fff"/>
      <path d="m11.548,9.27c-.371,0-.671.301-.671.671,0,.054.019.102.031.152.071.295.324.519.641.519s.57-.224.641-.519c.012-.05.031-.098.031-.152,0-.371-.301-.671-.672-.671Z" fill="#fff"/>
    </g>
  </g>
</svg>