<?xml version="1.0" encoding="UTF-8"?>
<svg id="ICONS" xmlns="http://www.w3.org/2000/svg" viewBox="0 0 15.59 15.59">
  <defs>
    <style>
      .cls-1 {
        fill: #fff;
        stroke-width: 0px;
      }
    </style>
  </defs>
  <path class="cls-1" d="m11.04,11c-.26,0-.48-.2-.5-.46-.02-.27.18-.52.46-.54.55-.04,1.04-.26,1.39-.6.2-.19.51-.19.71,0,.19.2.19.51,0,.71-.52.51-1.24.83-2.02.89-.01,0-.03,0-.04,0Zm-1.91-.47c-.09,0-.19-.03-.27-.08-.63-.4-1.1-.99-1.36-1.71-.09-.26.04-.55.3-.64.26-.09.55.04.64.3.18.51.52.93.96,1.21.23.15.3.46.15.69-.09.15-.26.23-.42.23Zm-7.04-.5c-.28,0-.5-.22-.5-.5v-1.48c0-.28.22-.5.5-.5s.5.22.5.5v1.48c0,.28-.22.5-.5.5Zm11.4-1.58s-.02,0-.03,0c-.28-.02-.49-.25-.47-.53v-1.87c0-.28.23-.5.5-.5s.5.22.5.5v1.74c0,.06,0,.13,0,.19-.01.27-.24.47-.5.47Zm-6.04-1.3c-.18,0-.35-.1-.44-.27-.25-.47-.63-.83-1.12-1.06-.25-.12-.36-.41-.25-.66.12-.25.41-.36.66-.25.69.32,1.24.84,1.59,1.5.13.24.03.55-.21.68-.07.04-.15.06-.23.06Zm-4.88-.5c-.1,0-.2-.03-.29-.09-.23-.16-.28-.47-.12-.7.43-.6,1.09-1.03,1.87-1.19.27-.06.54.11.59.38s-.11.54-.38.59c-.37.08-.9.28-1.26.8-.1.14-.25.21-.41.21Z"/>
</svg>