<?xml version="1.0" encoding="UTF-8"?>
<svg id="ICONS" xmlns="http://www.w3.org/2000/svg" viewBox="0 0 15.59 15.59">
  <defs>
    <style>
      .cls-1 {
        fill: none;
        stroke: #fff;
        stroke-linecap: round;
        stroke-linejoin: round;
        stroke-width: .8px;
      }

      .cls-2 {
        fill: #fff;
        stroke-width: 0px;
      }
    </style>
  </defs>
  <path class="cls-2" d="m9.84,5.42c-.54-.08-1.08.03-1.56.28-.3.15-.65.15-.95,0-.49-.25-1.02-.36-1.56-.28-1.72.24-2.87,2.18-2.56,4.33s1.95,3.69,3.67,3.45c.34-.05.56-.22.93-.23.41-.02.6.18.93.23,1.72.24,3.36-1.3,3.67-3.45.31-2.15-.84-4.09-2.56-4.33Z"/>
  <path class="cls-2" d="m11.56,2.21s.06,1.19-.63,1.89-1.89.63-1.89.63c0,0-.06-1.19.63-1.89s1.89-.63,1.89-.63Z"/>
  <path class="cls-1" d="m7.86,4.73s.21-1.26-1-1.65"/>
</svg>