<?xml version="1.0" encoding="UTF-8"?>
<svg id="a" data-name="ICONS" xmlns="http://www.w3.org/2000/svg" width="5.5mm" height="5.5mm" viewBox="0 0 15.591 15.591">
  <path d="m6.228,6.825c.117,0,.231-.062.3-.176l.713-1.175.051-.006.764.102-.997,1.852c-.103.195-.111.433-.021.636.091.203.267.343.473.376l1.509.22.616,1.665c.068.183.23.294.4.294.054,0,.109-.011.161-.034.221-.097.328-.371.239-.612l-.616-1.665c-.111-.3-.362-.515-.656-.561l-1.176-.183,1.065-1.976c.12-.224.052-.512-.154-.644-.057-.037-.118-.054-.18-.06-.014-.004-.025-.012-.04-.014l-1.272-.169c-.297-.063-.597.072-.763.347l-.713,1.175c-.11.181-.065.424.101.543.061.044.13.065.198.065Z" fill="#fff"/>
  <path d="m9.313,4.602c.422,0,.763-.342.763-.763s-.342-.763-.763-.763-.763.342-.763.763.342.763.763.763Z" fill="#fff"/>
  <path d="m9.707,5.98l-.264-.279-.382.722.12.091.04.044c.169.159.381.243.598.243.086,0,.172-.013.257-.04l1.041-.33c.19-.06.3-.278.244-.486-.055-.208-.254-.329-.445-.267l-1.04.33c-.059.019-.119.007-.167-.029Z" fill="#fff"/>
  <path d="m4.477,9.68c.008,0,.015,0,.023,0l1.648-.093c.189-.009.37-.103.495-.257l.498-.621s-.503-.099-.493-.81l-.605.752-1.588.09c-.238.014-.421.235-.408.494.012.251.202.446.43.446Z" fill="#fff"/>
  <path d="m11.074,12.499h-.5c-.083,0-.15.067-.15.15s.067.15.15.15h.5c.083,0,.15-.067.15-.15s-.067-.15-.15-.15Z" fill="#fff"/>
  <path d="m10.074,12.499h-.5c-.083,0-.15.067-.15.15s.067.15.15.15h.5c.083,0,.15-.067.15-.15s-.067-.15-.15-.15Z" fill="#fff"/>
  <path d="m12.017,12.499h-.442c-.083,0-.15.067-.15.15s.067.15.15.15h.442c.083,0,.15-.067.15-.15s-.067-.15-.15-.15Z" fill="#fff"/>
  <path d="m9.074,12.499h-.5c-.083,0-.15.067-.15.15s.067.15.15.15h.5c.083,0,.15-.067.15-.15s-.067-.15-.15-.15Z" fill="#fff"/>
  <path d="m4.074,12.499h-.5c-.083,0-.15.067-.15.15s.067.15.15.15h.5c.083,0,.15-.067.15-.15s-.067-.15-.15-.15Z" fill="#fff"/>
  <path d="m8.074,12.499h-.5c-.083,0-.15.067-.15.15s.067.15.15.15h.5c.083,0,.15-.067.15-.15s-.067-.15-.15-.15Z" fill="#fff"/>
  <path d="m5.074,12.499h-.5c-.083,0-.15.067-.15.15s.067.15.15.15h.5c.083,0,.15-.067.15-.15s-.067-.15-.15-.15Z" fill="#fff"/>
  <path d="m7.074,12.499h-.5c-.083,0-.15.067-.15.15s.067.15.15.15h.5c.083,0,.15-.067.15-.15s-.067-.15-.15-.15Z" fill="#fff"/>
  <path d="m6.074,12.499h-.5c-.083,0-.15.067-.15.15s.067.15.15.15h.5c.083,0,.15-.067.15-.15s-.067-.15-.15-.15Z" fill="#fff"/>
  <path d="m9.057,11.651c-.083,0-.15.067-.15.15s.067.15.15.15h.5c.083,0,.15-.067.15-.15s-.067-.15-.15-.15h-.5Z" fill="#fff"/>
  <path d="m10.057,11.651c-.083,0-.15.067-.15.15s.067.15.15.15h.5c.083,0,.15-.067.15-.15s-.067-.15-.15-.15h-.5Z" fill="#fff"/>
  <path d="m8.057,11.651c-.083,0-.15.067-.15.15s.067.15.15.15h.5c.083,0,.15-.067.15-.15s-.067-.15-.15-.15h-.5Z" fill="#fff"/>
  <path d="m10.906,11.801c0,.083.067.15.15.15h.5c.083,0,.15-.067.15-.15s-.067-.15-.15-.15h-.5c-.083,0-.15.067-.15.15Z" fill="#fff"/>
  <path d="m3.707,11.801c0-.083-.067-.15-.15-.15h-.5c-.083,0-.15.067-.15.15s.067.15.15.15h.5c.083,0,.15-.067.15-.15Z" fill="#fff"/>
  <path d="m12.557,11.651h-.5c-.083,0-.15.067-.15.15s.067.15.15.15h.5c.083,0,.15-.067.15-.15s-.067-.15-.15-.15Z" fill="#fff"/>
  <path d="m4.057,11.951h.5c.083,0,.15-.067.15-.15s-.067-.15-.15-.15h-.5c-.083,0-.15.067-.15.15s.067.15.15.15Z" fill="#fff"/>
  <path d="m5.057,11.651c-.083,0-.15.067-.15.15s.067.15.15.15h.5c.083,0,.15-.067.15-.15s-.067-.15-.15-.15h-.5Z" fill="#fff"/>
  <path d="m6.057,11.651c-.083,0-.15.067-.15.15s.067.15.15.15h.5c.083,0,.15-.067.15-.15s-.067-.15-.15-.15h-.5Z" fill="#fff"/>
  <path d="m7.057,11.651c-.083,0-.15.067-.15.15s.067.15.15.15h.5c.083,0,.15-.067.15-.15s-.067-.15-.15-.15h-.5Z" fill="#fff"/>
</svg>