<?xml version="1.0" encoding="UTF-8"?>
<svg id="a" data-name="ICONS" xmlns="http://www.w3.org/2000/svg" width="5.5mm" height="5.5mm" viewBox="0 0 15.591 15.591">
  <path d="m6.319,3.556c.049.017.162.057.371.144.22.092.481.24.604.313.039.023.101-.003.121-.026l.108-.145c.014-.023.022-.045.018-.068l-.004-.124-.04-.068-.068-.084.051-.321-.01-.031c-.005-.012.001-.016.012-.015l.227-.023c.064-.006.197-.027.073-.092l-.532-.28-.013-.03c-.096-.042-.282-.092-.421-.089-.2.004-.374.093-.448.143-.042.028-.042.032-.054.081-.026.109-.062.35-.075.45-.011.087.013.141.041.226.006.017.02.03.04.039Z" fill="#fff"/>
  <path d="m5.851,10.588c.245,0,.494-.056.728-.173.68-.342,1.016-1.098.856-1.809l.075-.028c.039-.015.068-.041.093-.07.192.039.485-.062.449-.248l-.071-.369c.079-.016.149-.07.176-.152l.662-2.027c.003-.009.006-.019.007-.029l.12.112c-.337.476-.407,1.117-.127,1.673.195.388.529.677.942.813.168.056.34.083.512.083.25,0,.499-.058.729-.174.388-.195.677-.53.813-.942.136-.413.104-.853-.092-1.241-.403-.801-1.383-1.125-2.183-.722-.1.05-.193.11-.277.176l-.553-.518c-.013-.012-.031-.009-.046-.017.007-.11-.057-.222-.16-.24l-.986-.174-.747-.436c-.237-.138-.42-.194-.579-.191-.103.011-.218.034-.325.069-.537.172-.803,1.343-.772,1.908.018.33.156.633.508.678l.361.046c-.009.066.004.132.052.185l.166.179-.114.402c-.323-.044-.652.009-.95.159-.801.403-1.125,1.382-.722,2.183.285.567.86.895,1.455.895Zm3.434-4.474l.814.763c.093.087.238.083.326-.011.087-.093.082-.238-.011-.325l-.811-.76c.045-.031.093-.06.143-.085.576-.289,1.276-.056,1.565.518.14.278.163.594.066.89-.098.296-.305.536-.583.676-.277.139-.594.163-.89.065-.296-.098-.535-.305-.675-.583-.19-.378-.155-.812.057-1.147Zm-1.939,2.033l-.075.028c-.257-.503-.703-.673-.761-.699l.362-.776.139.018.37,1.423c-.012.003-.024.001-.036.006Zm-.511.194l-.64.243.188-.658c.185.095.341.237.452.415Zm1.502-2.638l-.489,1.498-.187-.969c-.017-.063-.039-.111-.065-.154l.563-.552.179.177Zm-2.161.052l-.037-.15.336-.83.939.273.509.063-.684.67c-.034.033-.043.078-.052.121l-1.013-.147Zm-.851,2.165c.193-.097.406-.136.615-.121l-.313,1.1c-.024.084.002.174.066.233.065.059.157.077.237.046l1.069-.406c.031.184.016.374-.044.556-.098.296-.305.536-.583.676-.574.289-1.276.056-1.565-.518-.289-.574-.057-1.276.518-1.565Z" fill="#fff"/>
  <path d="m13.589,9.004l-2.715.652-1.876-.136c-.041-.004-.087.013-.118.045l-1.505,1.549-1.544.185c-.018.002-.035.007-.051.015l-2.161,1.098c-.073.038-.103.128-.065.202.026.052.079.082.134.082.023,0,.046-.005.068-.016l2.137-1.086,1.57-.188c.034-.004.066-.02.09-.044l1.493-1.537,1.83.132c.017.001.03,0,.046-.003l2.737-.657c.08-.02.13-.101.11-.181s-.102-.127-.181-.111Z" fill="#fff"/>
  <path d="m12.121,10.217l-1.128.271-1.679-.122c-.046-.007-.09.013-.12.046l-1.523,1.619-1.711.099c-.083.005-.146.076-.141.159.004.08.07.141.149.141h.009l1.771-.102c.038-.002.074-.019.101-.047l1.516-1.61,1.631.118c.015.002.03,0,.046-.003l1.15-.276c.08-.02.13-.101.11-.181s-.103-.131-.181-.111Z" fill="#fff"/>
</svg>