<?xml version="1.0" encoding="UTF-8"?>
<svg id="ICONS" xmlns="http://www.w3.org/2000/svg" viewBox="0 0 15.59 15.59">
  <defs>
    <style>
      .cls-1 {
        fill: #fff;
        stroke-width: 0px;
      }
    </style>
  </defs>
  <g>
    <path class="cls-1" d="M8.34,6.4l2.01.89v-1.34c0-.16-.13-.3-.3-.3h-4.54c-.16,0-.3.13-.3.3v1.34l2.01-.89c.36-.16.76-.16,1.12,0Z"/>
    <path class="cls-1" d="M7.59,4.36h-1.17c-.1,0-.18.08-.18.18v.65h3.08v-.65c0-.1-.08-.18-.18-.18h-1.55Z"/>
    <path class="cls-1" d="M7.55,6.79s-.09.02-.14.04l-1.48.66-1.21.54c-.21.09-.33.31-.31.54l.22,1.91c.25.01.53.07.74.18.26.14.5.4.81.4s.43-.11.66-.31c.2-.17.2-.31.72-.38v-3.57ZM8.01,6.89v3.45c.52.07.53.21.72.38.23.2.35.31.66.31s.54-.25.81-.4c.21-.11.49-.17.74-.18l.22-1.91c.03-.23-.1-.45-.31-.54l-1.21-.54-1.48-.66s-.09-.03-.14-.04v.12ZM6.33,8.64l-1.05.47s-.06.02-.09.02c-.09,0-.17-.05-.21-.14-.05-.12,0-.25.12-.31l1.05-.47c.12-.05.25,0,.31.12s0,.25-.12.31ZM9.12,8.33c.05-.12.19-.17.31-.12l1.05.47c.12.05.17.19.12.31-.04.09-.12.14-.21.14-.03,0-.06,0-.09-.02l-1.05-.47c-.12-.05-.17-.19-.12-.31Z"/>
    <path class="cls-1" d="M8.03,2.9c0-.14-.11-.25-.25-.25s-.25.11-.25.25v1h.5v-1Z"/>
  </g>
  <path class="cls-1" d="M9.36,13.08c-.44,0-.67-.17-.87-.31-.19-.14-.35-.25-.69-.25s-.5.12-.69.25c-.2.15-.43.31-.87.31s-.67-.17-.87-.31c-.19-.14-.35-.25-.69-.25-.08,0-.15-.07-.15-.15s.07-.15.15-.15c.44,0,.67.17.87.31.19.14.35.25.69.25s.5-.12.69-.25c.2-.15.43-.31.87-.31s.67.17.87.31c.19.14.35.25.69.25s.5-.12.69-.25c.2-.15.43-.31.87-.31.08,0,.15.07.15.15s-.07.15-.15.15c-.34,0-.5.12-.69.25-.2.15-.43.31-.87.31Z"/>
  <path class="cls-1" d="M12.56,12.06c-.44,0-.68-.17-.88-.31-.19-.14-.36-.26-.71-.26s-.51.12-.71.26c-.2.15-.44.31-.88.31s-.68-.17-.88-.31c-.19-.14-.36-.26-.71-.26s-.51.12-.71.26c-.2.15-.44.31-.88.31s-.68-.17-.88-.31c-.19-.14-.36-.26-.71-.26s-.52.12-.71.26c-.2.15-.44.31-.88.31-.08,0-.15-.07-.15-.15s.07-.15.15-.15c.35,0,.52-.12.71-.26.21-.15.44-.31.88-.31s.68.17.88.31c.19.14.36.26.71.26s.51-.12.71-.26c.2-.15.44-.31.88-.31s.68.17.88.31c.19.14.36.26.71.26s.51-.12.71-.26c.2-.15.44-.31.88-.31s.68.17.88.31c.19.14.36.26.71.26.08,0,.15.07.15.15s-.07.15-.15.15Z"/>
</svg>