<?xml version="1.0" encoding="UTF-8"?>
<svg id="a" data-name="ICONS" xmlns="http://www.w3.org/2000/svg" width="5.5mm" height="5.5mm" viewBox="0 0 15.591 15.591">
  <path d="m10.962,12.215c-.438,0-.667.166-.868.312-.188.137-.352.255-.693.255s-.504-.118-.692-.255c-.201-.146-.43-.312-.868-.312s-.666.166-.867.312c-.188.137-.351.255-.691.255s-.502-.118-.69-.255c-.2-.146-.428-.312-.865-.312-.083,0-.15.067-.15.15s.067.15.15.15c.34,0,.502.118.688.254.201.146.429.312.867.312s.666-.166.867-.312c.188-.137.351-.255.691-.255s.504.118.692.255c.201.146.43.312.868.312s.668-.166.869-.312c.188-.137.352-.255.692-.255.083,0,.15-.067.15-.15s-.067-.15-.15-.15Z" fill="#fff"/>
  <path d="m12.605,11.765c-.348,0-.514-.119-.705-.255-.203-.146-.435-.312-.879-.312s-.677.166-.881.312c-.192.137-.357.255-.706.255s-.514-.119-.705-.255c-.203-.146-.435-.312-.879-.312s-.677.166-.881.311c-.192.137-.358.256-.707.256s-.516-.119-.708-.256c-.204-.146-.437-.311-.882-.311s-.678.166-.883.312c-.192.137-.358.255-.708.255-.083,0-.15.067-.15.15s.067.15.15.15c.445,0,.678-.165.882-.311.192-.137.359-.256.709-.256s.516.119.708.256c.204.146.437.311.882.311s.677-.166.881-.311c.192-.137.358-.256.707-.256s.514.119.705.255c.203.146.435.312.879.312s.676-.165.88-.311c.192-.137.358-.256.707-.256s.514.119.705.255c.203.146.435.312.879.312.083,0,.15-.067.15-.15s-.067-.15-.15-.15Z" fill="#fff"/>
  <path d="m9.645,6.533c-.435.106-.702.544-.596.979.106.434.545.7.98.594.434-.106.701-.544.595-.979-.106-.434-.544-.701-.978-.595Z" fill="#fff"/>
  <path d="m5.302,10.383c.217.155.404.288.798.288s.58-.134.797-.288c.23-.164.491-.351.993-.351s.762.187.991.351c.184.131.282.274.642.274.627,0,.828-.296.828-.296l-1.645-2.326-.009-.004-1.119-1.569,2.204-.983c.189-.084.274-.306.19-.495-.084-.189-.309-.275-.495-.189l-2.251,1.007c-.176.11-.301.29-.343.493-.041.203.002.417.12.587l.527.765-3.094,2.397c.415.03.659.19.868.339Z" fill="#fff"/>
</svg>