<?xml version="1.0" encoding="UTF-8"?>
<svg id="a" data-name="ICONS" xmlns="http://www.w3.org/2000/svg" width="5.5mm" height="5.5mm" viewBox="0 0 15.591 15.591">
  <path d="m2.963,7.831c0-.398-.001-.796,0-1.194,0-.031.007-.067.024-.093.076-.122.156-.241.235-.361.008-.013.02-.024.036-.042.003.022.005.032.005.043,0,.502,0,1.004-.002,1.506,0,.027-.012.056-.027.079-.079.128-.163.253-.241.381-.018.03-.031.069-.031.104-.002.447-.003.894-.002,1.34,0,.228-.003.456.005.683.008.216.223.373.434.327.182-.039.294-.186.294-.388,0-.557,0-1.115.001-1.672,0-.043.014-.091.037-.128.09-.149.186-.295.28-.443.01-.016.022-.03.043-.059,0,.193,0,.367,0,.541,0,.03.004.063.016.09.259.612.518,1.224.778,1.835.083.194.293.277.485.194.187-.081.267-.292.187-.482-.23-.545-.458-1.091-.69-1.635-.017-.04-.012-.069.009-.103.091-.152.182-.303.268-.458.025-.045.054-.059.104-.059.573.002,1.146.001,1.719.001.021,0,.043.002.07.003v.056c0,.396,0,.792,0,1.188,0,.38-.002.761,0,1.141.001.266.23.443.474.369.166-.05.259-.187.259-.387,0-.75,0-1.5.003-2.25,0-.042.011-.088.029-.126.258-.532.52-1.063.778-1.596.025-.052.049-.061.106-.051.387.069.715-.043.961-.352.086-.108.143-.24.218-.37.005,0,.029.005.053.009.253.044.475-.142.462-.389-.007-.14-.076-.244-.193-.322-.343-.226-.684-.456-1.029-.68-.066-.043-.083-.086-.072-.161.023-.159.006-.45-.01-.433-.713.738-1.426,1.476-2.141,2.213-.025.025-.066.048-.1.049-.234.004-.469.002-.703,0-.021,0-.042-.003-.064-.005v-.467c.019.003.034.004.049.008.206.048.413.096.619.144.148.035.27-.018.329-.141.071-.148-.008-.322-.173-.368-.219-.061-.44-.114-.66-.172-.053-.014-.125-.014-.154-.049-.028-.034-.013-.105-.014-.159-.009-.295-.181-.513-.445-.566-.351-.07-.662.187-.665.554-.003.356,0,.712,0,1.068v.149c-.025.002-.045.005-.064.005-.429,0-.858-.001-1.287,0-.164,0-.329-.011-.49.012-.408.057-.691.396-.693.812-.002.425,0,.849,0,1.274,0,.021.002.043.003.064h.578v-.083Zm5.994-2.412c.056-.111.056-.111.179-.088.151.029.302.058.453.087-.058.356-.483.669-.917.566.097-.192.191-.379.285-.565Z" fill="#fff"/>
  <path d="m5.482,3.822c.308-.002.551-.245.551-.552,0-.304-.248-.552-.552-.553-.302,0-.553.252-.551.554.002.307.247.552.553.55Z" fill="#fff"/>
  <path d="m6.074,12.499h-.5c-.083,0-.15.067-.15.15s.067.15.15.15h.5c.083,0,.15-.067.15-.15s-.067-.15-.15-.15Z" fill="#fff"/>
  <path d="m7.074,12.499h-.5c-.083,0-.15.067-.15.15s.067.15.15.15h.5c.083,0,.15-.067.15-.15s-.067-.15-.15-.15Z" fill="#fff"/>
  <path d="m4.074,12.499h-.5c-.083,0-.15.067-.15.15s.067.15.15.15h.5c.083,0,.15-.067.15-.15s-.067-.15-.15-.15Z" fill="#fff"/>
  <path d="m5.074,12.499h-.5c-.083,0-.15.067-.15.15s.067.15.15.15h.5c.083,0,.15-.067.15-.15s-.067-.15-.15-.15Z" fill="#fff"/>
  <path d="m8.074,12.499h-.5c-.083,0-.15.067-.15.15s.067.15.15.15h.5c.083,0,.15-.067.15-.15s-.067-.15-.15-.15Z" fill="#fff"/>
  <path d="m9.074,12.499h-.5c-.083,0-.15.067-.15.15s.067.15.15.15h.5c.083,0,.15-.067.15-.15s-.067-.15-.15-.15Z" fill="#fff"/>
  <path d="m11.074,12.499h-.5c-.083,0-.15.067-.15.15s.067.15.15.15h.5c.083,0,.15-.067.15-.15s-.067-.15-.15-.15Z" fill="#fff"/>
  <path d="m12.017,12.499h-.442c-.083,0-.15.067-.15.15s.067.15.15.15h.442c.083,0,.15-.067.15-.15s-.067-.15-.15-.15Z" fill="#fff"/>
  <path d="m10.074,12.499h-.5c-.083,0-.15.067-.15.15s.067.15.15.15h.5c.083,0,.15-.067.15-.15s-.067-.15-.15-.15Z" fill="#fff"/>
  <path d="m8.057,11.651c-.083,0-.15.067-.15.15s.067.15.15.15h.5c.083,0,.15-.067.15-.15s-.067-.15-.15-.15h-.5Z" fill="#fff"/>
  <path d="m9.057,11.651c-.083,0-.15.067-.15.15s.067.15.15.15h.5c.083,0,.15-.067.15-.15s-.067-.15-.15-.15h-.5Z" fill="#fff"/>
  <path d="m7.557,11.651h-.5c-.083,0-.15.067-.15.15s.067.15.15.15h.5c.083,0,.15-.067.15-.15s-.067-.15-.15-.15Z" fill="#fff"/>
  <path d="m12.557,11.651h-.5c-.083,0-.15.067-.15.15s.067.15.15.15h.5c.083,0,.15-.067.15-.15s-.067-.15-.15-.15Z" fill="#fff"/>
  <path d="m10.557,11.951c.083,0,.15-.067.15-.15s-.067-.15-.15-.15h-.5c-.083,0-.15.067-.15.15s.067.15.15.15h.5Z" fill="#fff"/>
  <path d="m3.707,11.801c0-.083-.067-.15-.15-.15h-.5c-.083,0-.15.067-.15.15s.067.15.15.15h.5c.083,0,.15-.067.15-.15Z" fill="#fff"/>
  <path d="m11.557,11.951c.083,0,.15-.067.15-.15s-.067-.15-.15-.15h-.5c-.083,0-.15.067-.15.15s.067.15.15.15h.5Z" fill="#fff"/>
  <path d="m5.057,11.651c-.083,0-.15.067-.15.15s.067.15.15.15h.5c.083,0,.15-.067.15-.15s-.067-.15-.15-.15h-.5Z" fill="#fff"/>
  <path d="m6.057,11.651c-.083,0-.15.067-.15.15s.067.15.15.15h.5c.083,0,.15-.067.15-.15s-.067-.15-.15-.15h-.5Z" fill="#fff"/>
  <path d="m4.057,11.651c-.083,0-.15.067-.15.15s.067.15.15.15h.5c.083,0,.15-.067.15-.15s-.067-.15-.15-.15h-.5Z" fill="#fff"/>
  <path d="m12.557,6.169c-.138,0-.25.112-.25.25v1.001l-1.859.657v-.982c0-.138-.112-.25-.25-.25s-.25.112-.25.25v3.261c0,.138.112.25.25.25s.25-.112.25-.25v-.542l1.859-.647v.513c0,.138.112.25.25.25s.25-.112.25-.25v-3.261c0-.138-.112-.25-.25-.25Zm-.25,1.613v.33l-1.859.657v-.34l1.859-.647Zm-1.859,1.68v-.34l1.859-.647v.33l-1.859.657Z" fill="#fff"/>
</svg>