<?xml version="1.0" encoding="UTF-8"?>
<svg id="a" data-name="ICONS" xmlns="http://www.w3.org/2000/svg" width="5.5mm" height="5.5mm" viewBox="0 0 15.591 15.591">
  <path d="m9.4,5.768c-.438,0-.667-.166-.868-.312-.188-.137-.351-.255-.692-.255s-.503.118-.691.255c-.201.146-.429.312-.867.312s-.666-.166-.867-.312c-.187-.136-.349-.254-.688-.254-.083,0-.15-.067-.15-.15s.067-.15.15-.15c.438,0,.665.166.865.312.188.137.35.255.69.255s.503-.118.691-.255c.201-.146.429-.312.867-.312s.667.166.868.312c.188.137.351.255.692.255s.505-.118.693-.255c.201-.146.43-.312.868-.312.083,0,.15.067.15.15s-.067.15-.15.15c-.341,0-.504.118-.692.255-.201.146-.43.312-.869.312Z" fill="#fff"/>
  <path d="m12.605,4.752c-.444,0-.676-.166-.879-.312-.191-.137-.357-.255-.705-.255s-.515.119-.707.256c-.204.146-.436.311-.88.311s-.676-.166-.879-.312c-.191-.137-.357-.255-.705-.255s-.515.119-.707.256c-.204.146-.436.311-.881.311s-.678-.166-.882-.311c-.192-.137-.358-.256-.708-.256s-.517.119-.709.256c-.204.146-.437.311-.882.311-.083,0-.15-.067-.15-.15s.067-.15.15-.15c.35,0,.516-.119.708-.255.205-.146.437-.312.883-.312s.678.166.882.311c.192.137.358.256.708.256s.515-.119.707-.256c.204-.146.436-.311.881-.311s.676.166.879.312c.191.137.357.255.705.255s.514-.119.706-.255c.204-.146.436-.312.881-.312s.676.166.879.312c.191.137.357.255.705.255.083,0,.15.067.15.15s-.067.15-.15.15Z" fill="#fff"/>
  <g id="b" data-name="W7HL19">
    <g>
      <path d="m5.038,8.358c.202-.028.352.035.469.179.195.239.389.479.584.718.282.346.563.693.844,1.04.019.024.039.036.07.039.626.065,1.251.13,1.877.196.187.019.355.087.507.197.71.515,1.42,1.029,2.13,1.544.159.115.196.323.084.479-.113.157-.324.193-.484.079-.452-.324-.904-.65-1.356-.974-.023-.016-.053-.028-.081-.031-.867-.092-1.734-.183-2.602-.274-.154-.016-.297-.065-.423-.157-.031-.022-.06-.049-.084-.078-.601-.73-1.201-1.461-1.8-2.192-.2-.244-.121-.599.163-.73.037-.017.078-.027.101-.034Z" fill="#fff"/>
      <path d="m11.568,10.585c.074.027-.367.747-.439.681s-.217-.202-.315-.293c-.088.037-.167.079-.25.103-.322.095-.69-.105-.792-.425-.115-.362.058-.717.413-.849.334-.124.733.067.845.406.017.051.028.105.035.158.004.034.018.048.049.058.136.046.381.134.455.161Z" fill="#fff"/>
      <path d="m8.775,10.208c-.152-.015-.298-.03-.445-.045-.367-.038-.734-.077-1.102-.113-.089-.009-.161-.039-.192-.129-.01-.03-.012-.065-.009-.096.016-.168.034-.336.052-.504.014-.128.098-.196.225-.183.508.054,1.017.108,1.525.162.012.001.025.004.039.006-.031.301-.061.599-.092.903Z" fill="#fff"/>
      <path d="m4.453,8.509l-1.568-.942c-.024-.014-.028-.047-.009-.066l.741-.76c.018-.018.047-.017.063.002,0,0,1.127,1.323,1.153,1.355s.009.066.009.066l-.318.334s-.032.035-.072.011Z" fill="#fff"/>
      <path d="m8.993,10.231c.032-.304.063-.604.094-.908.129.018.257.011.371.076.19.109.28.334.214.538-.067.207-.274.338-.499.316-.058-.006-.115-.014-.18-.022Z" fill="#fff"/>
    </g>
  </g>
</svg>