<?xml version="1.0" encoding="UTF-8"?>
<svg id="ICONS" xmlns="http://www.w3.org/2000/svg" viewBox="0 0 15.59 15.59">
  <defs>
    <style>
      .cls-1 {
        fill: #fff;
        stroke-width: 0px;
      }
    </style>
  </defs>
  <path class="cls-1" d="m10.8,11.01c-1.59,0-3.26-1.06-3.5-3.16-.18-1.57-1.47-2.33-2.66-2.26-.94.05-2.04.66-2.04,2.2v1.74c0,.28-.22.5-.5.5s-.5-.22-.5-.5v-1.74c0-2.1,1.5-3.12,2.99-3.2,1.66-.09,3.47.96,3.71,3.15.19,1.65,1.53,2.34,2.66,2.27.95-.05,2.05-.67,2.05-2.21v-2.23c0-.28.22-.5.5-.5s.5.22.5.5v2.23c0,2.1-1.5,3.13-2.99,3.21-.07,0-.14,0-.2,0Z"/>
</svg>